<svg width="1440" height="375" viewBox="0 0 1440 375" fill="none" xmlns="http://www.w3.org/2000/svg">
<path d="M-61.7173 369H-144.104L-18.571 5.36363H80.5057L205.861 369H123.474L32.3878 88.4602H29.5469L-61.7173 369ZM-66.8665 226.067H127.736V286.081H-66.8665V226.067ZM273.379 369V5.36363H418.975C445.727 5.36363 468.04 9.32906 485.914 17.2599C503.788 25.1908 517.223 36.1993 526.219 50.2855C535.216 64.2533 539.714 80.3518 539.714 98.581C539.714 112.786 536.873 125.274 531.191 136.045C525.509 146.699 517.697 155.458 507.754 162.324C497.929 169.071 486.683 173.865 474.018 176.706V180.257C487.867 180.849 500.829 184.755 512.903 191.976C525.095 199.196 534.979 209.317 542.555 222.338C550.13 235.241 553.918 250.629 553.918 268.503C553.918 287.797 549.124 305.02 539.536 320.172C530.067 335.205 516.04 347.101 497.455 355.861C478.871 364.62 455.966 369 428.741 369H273.379ZM350.261 306.145H412.938C434.363 306.145 449.988 302.061 459.813 293.893C469.638 285.607 474.55 274.599 474.55 260.868C474.55 250.806 472.124 241.929 467.271 234.234C462.417 226.54 455.493 220.503 446.496 216.124C437.619 211.744 427.024 209.554 414.714 209.554H350.261V306.145ZM350.261 157.53H407.256C417.791 157.53 427.143 155.695 435.31 152.026C443.596 148.238 450.107 142.911 454.842 136.045C459.695 129.18 462.121 120.953 462.121 111.365C462.121 98.2259 457.446 87.6316 448.094 79.5824C438.862 71.5331 425.722 67.5085 408.677 67.5085H350.261V157.53ZM961.857 187.182C961.857 226.836 954.34 260.572 939.307 288.389C924.392 316.206 904.033 337.454 878.228 352.132C852.541 366.692 823.659 373.972 791.58 373.972C759.265 373.972 730.264 366.633 704.577 351.955C678.891 337.277 658.59 316.029 643.675 288.212C628.76 260.394 621.303 226.718 621.303 187.182C621.303 147.527 628.76 113.792 643.675 85.9744C658.59 58.1572 678.891 36.9687 704.577 22.4091C730.264 7.73105 759.265 0.392032 791.58 0.392032C823.659 0.392032 852.541 7.73105 878.228 22.4091C904.033 36.9687 924.392 58.1572 939.307 85.9744C954.34 113.792 961.857 147.527 961.857 187.182ZM883.909 187.182C883.909 161.495 880.062 139.833 872.368 122.196C864.792 104.559 854.08 91.1828 840.23 82.0682C826.381 72.9536 810.164 68.3963 791.58 68.3963C772.996 68.3963 756.779 72.9536 742.929 82.0682C729.08 91.1828 718.308 104.559 710.614 122.196C703.038 139.833 699.25 161.495 699.25 187.182C699.25 212.868 703.038 234.53 710.614 252.168C718.308 269.805 729.08 283.181 742.929 292.295C756.779 301.41 772.996 305.967 791.58 305.967C810.164 305.967 826.381 301.41 840.23 292.295C854.08 283.181 864.792 269.805 872.368 252.168C880.062 234.53 883.909 212.868 883.909 187.182ZM1267.17 5.36363H1344.05V241.514C1344.05 268.029 1337.72 291.23 1325.05 311.116C1312.5 331.003 1294.93 346.509 1272.32 357.636C1249.71 368.645 1223.37 374.149 1193.3 374.149C1163.12 374.149 1136.72 368.645 1114.11 357.636C1091.5 346.509 1073.93 331.003 1061.38 311.116C1048.83 291.23 1042.56 268.029 1042.56 241.514V5.36363H1119.44V234.945C1119.44 248.794 1122.46 261.105 1128.5 271.876C1134.65 282.648 1143.29 291.112 1154.42 297.267C1165.55 303.422 1178.51 306.5 1193.3 306.5C1208.22 306.5 1221.18 303.422 1232.19 297.267C1243.32 291.112 1251.9 282.648 1257.93 271.876C1264.09 261.105 1267.17 248.794 1267.17 234.945V5.36363ZM1417.2 68.7514V5.36363H1715.86V68.7514H1604.53V369H1528.53V68.7514H1417.2ZM1928.26 5.36363H2023.08L2123.22 249.682H2127.48L2227.62 5.36363H2322.44V369H2247.86V132.317H2244.85L2150.74 367.224H2099.96L2005.85 131.429H2002.84V369H1928.26V5.36363ZM2409.53 369V5.36363H2654.56V68.7514H2486.41V155.399H2641.95V218.787H2486.41V305.612H2655.27V369H2409.53Z" fill="black" fill-opacity="0.04"/>
</svg>
