<svg width="27" height="26" viewBox="0 0 27 26" fill="none" xmlns="http://www.w3.org/2000/svg">
<g clip-path="url(#clip0_80_72)">
<path fill-rule="evenodd" clip-rule="evenodd" d="M9.63285 8.24853C9.7103 7.93115 10.0305 7.68146 10.3481 7.69083L18.498 7.93134C18.7861 7.93984 18.9777 8.16006 18.9463 8.44654L18.0582 16.5515C18.0236 16.8673 17.732 17.1499 17.407 17.1828C17.0819 17.2156 16.8465 16.9862 16.8811 16.6704L17.6311 9.82566L8.36899 17.8851C8.10158 18.1178 7.73241 18.1313 7.54441 17.9152C7.35642 17.6992 7.42079 17.3354 7.6882 17.1027L16.9503 9.04328L10.0676 8.84017C9.75006 8.8308 9.5554 8.56591 9.63285 8.24853Z" fill="#030D45"/>
</g>
<defs>
<clipPath id="clip0_80_72">
<rect width="20.5382" height="16.5938" fill="white" transform="translate(0 13.4819) rotate(-41.0282)"/>
</clipPath>
</defs>
</svg>
