<svg width="461" height="379" viewBox="0 0 461 379" fill="none" xmlns="http://www.w3.org/2000/svg">
<path fill-rule="evenodd" clip-rule="evenodd" d="M323.444 125.039L343.211 136.02C343.211 136.02 363.281 117.604 363.493 114.567C364.038 106.696 362.01 97.5606 365.219 89.6647C370.516 76.6667 386.409 79.7522 390.344 86.7007C390.344 86.7007 364.432 86.5306 396.399 86.7007C397.834 86.6408 399.259 86.9182 400.501 87.4989C401.742 88.0795 402.746 88.9381 403.388 89.9696C404.031 91.0011 404.285 92.1606 404.119 93.3061C403.953 94.4516 403.374 95.5333 402.453 96.4188C402.12 96.7832 411.535 99.2613 405.48 106.841C413.109 113.62 403.543 117.726 402.877 118.26C391.343 127.031 378.054 146.175 371.394 154.703C356.924 173.435 316.602 155.553 313.878 153.585C312.939 153.027 323.444 125.039 323.444 125.039Z" fill="#E7BFFF"/>
<path d="M323.444 125.039L343.211 136.02C343.211 136.02 363.281 117.604 363.493 114.567C364.038 106.696 362.01 97.5606 365.219 89.6647C370.516 76.6667 386.409 79.7522 390.344 86.7007C390.344 86.7007 364.432 86.5306 396.399 86.7007C397.834 86.6408 399.259 86.9182 400.501 87.4989C401.742 88.0795 402.746 88.9381 403.388 89.9696C404.031 91.0011 404.285 92.1606 404.119 93.3061C403.953 94.4516 403.374 95.5333 402.453 96.4188C402.12 96.7832 411.535 99.2613 405.48 106.841C413.109 113.62 403.543 117.726 402.877 118.26C391.343 127.031 378.054 146.175 371.394 154.703C356.924 173.435 316.602 155.553 313.878 153.585C312.939 153.027 323.444 125.039 323.444 125.039Z" stroke="black" stroke-width="0.57" stroke-miterlimit="22.93" stroke-linecap="round"/>
<path d="M381.929 86.9921C372.848 87.8668 370.456 98.0465 382.293 97.6092C386.924 97.4391 392.918 97.0504 392.525 97.1233C391.072 97.3662 372.697 98.1436 378.176 104.679C381.627 108.761 396.006 107.109 395.521 107.109C392.436 107.348 389.425 108.014 386.622 109.077C378.115 111.798 380.295 117.556 388.62 118.139C390.739 118.284 393.796 118.357 396.006 118.357" stroke="black" stroke-width="0.57" stroke-miterlimit="22.93" stroke-linecap="round"/>
<path fill-rule="evenodd" clip-rule="evenodd" d="M342.939 83.0077H381.899V115.296C381.899 117.122 380.997 118.873 379.391 120.166C377.786 121.46 375.607 122.189 373.332 122.196H351.506C349.231 122.189 347.052 121.46 345.446 120.166C343.841 118.873 342.939 117.122 342.939 115.296V83.0077Z" fill="#E7BFFF"/>
<path d="M342.939 83.0077H381.899V115.296C381.899 117.122 380.997 118.873 379.391 120.166C377.786 121.46 375.607 122.189 373.332 122.196H351.506C349.231 122.189 347.052 121.46 345.446 120.166C343.841 118.873 342.939 117.122 342.939 115.296V83.0077Z" stroke="#373435" stroke-width="0.57" stroke-miterlimit="22.93" stroke-linecap="round"/>
<path d="M353.624 75.8649C346.298 60.5589 360.072 61.2877 360.011 52.0798C360.011 47.2208 354.744 45.4958 354.381 41.0984" stroke="#373435" stroke-width="0.57" stroke-miterlimit="22.93" stroke-linecap="round"/>
<path d="M362.161 79.1206C354.563 65.1752 361.495 66.3413 364.492 58.0081" stroke="#373435" stroke-width="0.57" stroke-miterlimit="22.93" stroke-linecap="round"/>
<path fill-rule="evenodd" clip-rule="evenodd" d="M260.752 258.079C258.696 258.092 256.729 258.755 255.279 259.924C253.828 261.093 253.01 262.673 253.002 264.323V372.145C253.125 373.731 253.997 375.219 255.44 376.307C256.882 377.395 258.787 378 260.767 378C262.746 378 264.651 377.395 266.094 376.307C267.536 375.219 268.408 373.731 268.531 372.145V264.323C268.523 262.669 267.701 261.085 266.244 259.915C264.787 258.746 262.812 258.086 260.752 258.079Z" fill="black"/>
<path d="M260.752 258.079C258.696 258.092 256.729 258.755 255.279 259.924C253.828 261.093 253.01 262.673 253.002 264.323V372.145C253.125 373.731 253.997 375.219 255.44 376.307C256.882 377.395 258.787 378 260.767 378C262.746 378 264.651 377.395 266.094 376.307C267.536 375.219 268.408 373.731 268.531 372.145V264.323C268.523 262.669 267.701 261.085 266.244 259.915C264.787 258.746 262.812 258.086 260.752 258.079Z" stroke="black" stroke-width="0.57" stroke-miterlimit="22.93" stroke-linecap="round"/>
<path d="M309.729 256.281H212.527C203.699 256.281 196.543 262.025 196.543 269.109C196.543 276.194 203.699 281.937 212.527 281.937H309.729C318.557 281.937 325.713 276.194 325.713 269.109C325.713 262.025 318.557 256.281 309.729 256.281Z" fill="black"/>
<path d="M309.729 256.281H212.527C203.699 256.281 196.543 262.025 196.543 269.109C196.543 276.194 203.699 281.937 212.527 281.937H309.729C318.557 281.937 325.713 276.194 325.713 269.109C325.713 262.025 318.557 256.281 309.729 256.281Z" stroke="black" stroke-width="0.57" stroke-miterlimit="22.93" stroke-linecap="round"/>
<path fill-rule="evenodd" clip-rule="evenodd" d="M265.381 264.785C263.471 265.392 261.937 266.58 261.115 268.091C260.292 269.603 260.248 271.314 260.992 272.851L309.911 373.287C310.283 374.048 310.838 374.743 311.544 375.332C312.25 375.921 313.094 376.392 314.027 376.719C314.961 377.046 315.965 377.223 316.983 377.238C318.001 377.254 319.013 377.108 319.962 376.81C320.91 376.512 321.775 376.066 322.509 375.5C323.243 374.933 323.83 374.256 324.238 373.507C324.645 372.758 324.865 371.952 324.885 371.134C324.904 370.317 324.723 369.505 324.351 368.744L275.522 268.332C275.151 267.562 274.594 266.858 273.882 266.262C273.17 265.666 272.318 265.189 271.374 264.86C270.431 264.53 269.416 264.353 268.387 264.34C267.359 264.328 266.337 264.479 265.381 264.785Z" fill="black"/>
<path d="M265.381 264.785C263.471 265.392 261.937 266.58 261.115 268.091C260.292 269.603 260.248 271.314 260.992 272.851L309.911 373.287C310.283 374.048 310.838 374.743 311.544 375.332C312.25 375.921 313.094 376.392 314.027 376.719C314.961 377.046 315.965 377.223 316.983 377.238C318.001 377.254 319.013 377.108 319.962 376.81C320.91 376.512 321.775 376.066 322.509 375.5C323.243 374.933 323.83 374.256 324.238 373.507C324.645 372.758 324.865 371.952 324.885 371.134C324.904 370.317 324.723 369.505 324.351 368.744L275.522 268.332C275.151 267.562 274.594 266.858 273.882 266.262C273.17 265.666 272.318 265.189 271.374 264.86C270.431 264.53 269.416 264.353 268.387 264.34C267.359 264.328 266.337 264.479 265.381 264.785Z" stroke="black" stroke-width="0.57" stroke-miterlimit="22.93" stroke-linecap="round"/>
<path fill-rule="evenodd" clip-rule="evenodd" d="M254.393 264.785C256.309 265.387 257.85 266.574 258.678 268.085C259.507 269.597 259.555 271.31 258.813 272.851L210.015 373.287C209.264 374.824 207.783 376.059 205.899 376.719C204.014 377.38 201.879 377.413 199.964 376.81C198.05 376.208 196.511 375.019 195.688 373.507C194.865 371.994 194.824 370.281 195.575 368.744L244.434 268.332C245.178 266.808 246.641 265.58 248.506 264.916C250.37 264.252 252.486 264.205 254.393 264.785Z" fill="black"/>
<path d="M254.393 264.785C256.309 265.387 257.85 266.574 258.678 268.085C259.507 269.597 259.555 271.31 258.813 272.851L210.015 373.287C209.264 374.824 207.783 376.059 205.899 376.719C204.014 377.38 201.879 377.413 199.964 376.81C198.05 376.208 196.511 375.019 195.688 373.507C194.865 371.994 194.824 370.281 195.575 368.744L244.434 268.332C245.178 266.808 246.641 265.58 248.506 264.916C250.37 264.252 252.486 264.205 254.393 264.785Z" stroke="black" stroke-width="0.57" stroke-miterlimit="22.93" stroke-linecap="round"/>
<path fill-rule="evenodd" clip-rule="evenodd" d="M424.945 336.942H361.374C360.865 336.954 360.381 337.121 360.021 337.41C359.661 337.699 359.452 338.088 359.436 338.496L356.409 372.898H458.032C459.939 358.491 446.801 354.118 431.302 347.947C425.278 344.376 424.945 336.942 424.945 336.942Z" fill="#E7BFFF"/>
<path d="M424.945 336.942H361.374C360.865 336.954 360.381 337.121 360.021 337.41C359.661 337.699 359.452 338.088 359.436 338.496L356.409 372.898H458.032C459.939 358.491 446.801 354.118 431.302 347.947C425.278 344.376 424.945 336.942 424.945 336.942Z" stroke="black" stroke-width="0.57" stroke-linecap="round" stroke-linejoin="round"/>
<path d="M458.062 367.384H355.168C354.098 367.384 353.231 368.08 353.231 368.938V376.3C353.231 377.159 354.098 377.855 355.168 377.855H458.062C459.132 377.855 460 377.159 460 376.3V368.938C460 368.08 459.132 367.384 458.062 367.384Z" fill="#E7BFFF"/>
<path d="M458.062 367.384H355.168C354.098 367.384 353.231 368.08 353.231 368.938V376.3C353.231 377.159 354.098 377.855 355.168 377.855H458.062C459.132 377.855 460 377.159 460 376.3V368.938C460 368.08 459.132 367.384 458.062 367.384Z" stroke="black" stroke-width="0.57" stroke-linecap="round" stroke-linejoin="round"/>
<path fill-rule="evenodd" clip-rule="evenodd" d="M423.916 337.671L425.248 341.946C408.417 339.796 391.448 338.417 374.421 337.816L423.916 337.671Z" fill="black"/>
<path d="M423.916 337.671L425.248 341.946C408.417 339.796 391.448 338.417 374.421 337.816L423.916 337.671Z" stroke="black" stroke-width="0.57" stroke-miterlimit="22.93" stroke-linecap="round"/>
<path fill-rule="evenodd" clip-rule="evenodd" d="M373.635 336.844H310.064C309.557 336.862 309.077 337.032 308.718 337.319C308.36 337.607 308.149 337.992 308.126 338.399L305.099 372.801H406.782C408.689 358.394 395.551 354.021 380.022 347.85C374.119 344.279 373.635 336.844 373.635 336.844Z" fill="#E7BFFF"/>
<path d="M373.635 336.844H310.064C309.557 336.862 309.077 337.032 308.718 337.319C308.36 337.607 308.149 337.992 308.126 338.399L305.099 372.801H406.782C408.689 358.394 395.551 354.021 380.022 347.85C374.119 344.279 373.635 336.844 373.635 336.844Z" stroke="black" stroke-width="0.57" stroke-linecap="round" stroke-linejoin="round"/>
<path d="M406.904 367.311H304.01C302.94 367.311 302.072 368.007 302.072 368.866V376.227C302.072 377.086 302.94 377.782 304.01 377.782H406.904C407.974 377.782 408.841 377.086 408.841 376.227V368.866C408.841 368.007 407.974 367.311 406.904 367.311Z" fill="#E7BFFF"/>
<path d="M406.904 367.311H304.01C302.94 367.311 302.072 368.007 302.072 368.866V376.227C302.072 377.086 302.94 377.782 304.01 377.782H406.904C407.974 377.782 408.841 377.086 408.841 376.227V368.866C408.841 368.007 407.974 367.311 406.904 367.311Z" stroke="black" stroke-width="0.57" stroke-linecap="round" stroke-linejoin="round"/>
<path fill-rule="evenodd" clip-rule="evenodd" d="M373.664 337.573L374.966 341.873C358.576 339.637 342.023 338.249 325.411 337.719L373.664 337.573Z" fill="black"/>
<path d="M373.664 337.573L374.966 341.873C358.576 339.637 342.023 338.249 325.411 337.719L373.664 337.573Z" stroke="black" stroke-width="0.57" stroke-miterlimit="22.93" stroke-linecap="round"/>
<path fill-rule="evenodd" clip-rule="evenodd" d="M310.578 34.9031C310.578 55.6755 310.578 55.3354 310.578 76.205C310.124 127.492 348.025 128.513 343.635 199.212C343 209.537 332.495 208.25 330.528 222.122C315.997 224.965 277.098 213.57 262.567 216.388C248.067 213.57 212.134 236.869 197.634 234.027C193.729 220.324 188.976 212.161 189.097 201.374C189.673 135.777 223.577 119.451 223.517 79.8979V35.0489C223.426 -11.1121 310.488 -9.53289 310.578 34.9031Z" fill="#E7BFFF"/>
<path d="M310.578 34.9031C310.578 55.6755 310.578 55.3354 310.578 76.205C310.124 127.492 348.025 128.513 343.635 199.212C343 209.537 332.495 208.25 330.528 222.122C315.997 224.965 277.098 213.57 262.567 216.388C248.067 213.57 212.134 236.869 197.634 234.027C193.729 220.324 188.976 212.161 189.097 201.374C189.673 135.777 223.577 119.451 223.517 79.8979V35.0489C223.426 -11.1121 310.488 -9.53289 310.578 34.9031Z" stroke="black" stroke-width="0.57" stroke-linecap="round" stroke-linejoin="round"/>
<path fill-rule="evenodd" clip-rule="evenodd" d="M361.949 197.608C387.195 198.799 430.181 207.521 428.305 255.188C428.305 301.713 428.547 335.241 428.305 337.646C430.696 338.253 307.974 338.132 307.974 338.132C307.974 338.132 308.852 283.128 308.458 272.413C308.125 263.4 307.58 256.087 291.657 256.136C288.842 256.136 253.394 256.136 250.427 256.281C225.967 257.01 183.224 258.711 184.011 219.838C184.011 214.008 186.281 208.201 189.308 199.333C189.383 198.744 189.383 198.149 189.308 197.56H330.012C340.002 197.608 352.292 197.171 361.949 197.608Z" fill="#E7BFFF"/>
<path d="M361.949 197.608C387.195 198.799 430.181 207.521 428.305 255.188C428.305 301.713 428.547 335.241 428.305 337.646C430.696 338.253 307.974 338.132 307.974 338.132C307.974 338.132 308.852 283.128 308.458 272.413C308.125 263.4 307.58 256.087 291.657 256.136C288.842 256.136 253.394 256.136 250.427 256.281C225.967 257.01 183.224 258.711 184.011 219.838C184.011 214.008 186.281 208.201 189.308 199.333C189.383 198.744 189.383 198.149 189.308 197.56H330.012C340.002 197.608 352.292 197.171 361.949 197.608Z" stroke="black" stroke-width="0.57" stroke-linecap="round" stroke-linejoin="round"/>
<path fill-rule="evenodd" clip-rule="evenodd" d="M224.334 88.0853H310.608C312.214 88.0853 313.754 88.5972 314.89 89.5084C316.025 90.4197 316.663 91.6556 316.663 92.9443C316.663 94.233 316.025 95.4689 314.89 96.3802C313.754 97.2914 312.214 97.8034 310.608 97.8034H224.334C222.728 97.8034 221.188 97.2914 220.053 96.3802C218.917 95.4689 218.279 94.233 218.279 92.9443C218.279 91.6556 218.917 90.4197 220.053 89.5084C221.188 88.5972 222.728 88.0853 224.334 88.0853Z" fill="#E7BFFF"/>
<path d="M224.334 88.0853H310.608C312.214 88.0853 313.754 88.5972 314.89 89.5084C316.025 90.4197 316.663 91.6556 316.663 92.9443C316.663 94.233 316.025 95.4689 314.89 96.3802C313.754 97.2914 312.214 97.8034 310.608 97.8034H224.334C222.728 97.8034 221.188 97.2914 220.053 96.3802C218.917 95.4689 218.279 94.233 218.279 92.9443C218.279 91.6556 218.917 90.4197 220.053 89.5084C221.188 88.5972 222.728 88.0853 224.334 88.0853Z" stroke="black" stroke-width="0.57" stroke-miterlimit="22.93" stroke-linecap="round"/>
<path d="M223.516 30.8702H356.228" stroke="black" stroke-width="0.57" stroke-miterlimit="22.93" stroke-linecap="round"/>
<path fill-rule="evenodd" clip-rule="evenodd" d="M312.514 97.8521L313.846 102.152C297.021 99.9718 280.049 98.5926 263.02 98.0221L312.514 97.8521Z" fill="black"/>
<path d="M312.514 97.8521L313.846 102.152C297.021 99.9718 280.049 98.5926 263.02 98.0221L312.514 97.8521Z" stroke="black" stroke-width="0.57" stroke-miterlimit="22.93" stroke-linecap="round"/>
<path fill-rule="evenodd" clip-rule="evenodd" d="M309.216 30.7L310.548 35.0003C293.722 32.8178 276.75 31.4386 259.721 30.8701L309.216 30.7Z" fill="black"/>
<path d="M309.216 30.7L310.548 35.0003C293.722 32.8178 276.75 31.4386 259.721 30.8701L309.216 30.7Z" stroke="black" stroke-width="0.57" stroke-miterlimit="22.93" stroke-linecap="round"/>
<path d="M377.963 338.448V250.062C377.963 245.883 380.325 200.621 330.013 197.511" stroke="black" stroke-width="0.57" stroke-miterlimit="22.93" stroke-linecap="round"/>
<path fill-rule="evenodd" clip-rule="evenodd" d="M307.671 61.3606C306.674 61.3606 305.699 61.1238 304.869 60.6801C304.039 60.2364 303.391 59.6056 303.007 58.867C302.622 58.1285 302.519 57.3152 302.709 56.5295C302.899 55.7438 303.375 55.0208 304.076 54.4515C304.777 53.8822 305.672 53.492 306.648 53.33C307.625 53.168 308.64 53.2414 309.564 53.5411C310.489 53.8407 311.283 54.3532 311.845 55.014C312.408 55.6748 312.715 56.4544 312.727 57.2547C312.731 57.7908 312.603 58.3221 312.351 58.8186C312.099 59.315 311.728 59.7667 311.259 60.148C310.789 60.5293 310.231 60.8326 309.615 61.0407C309 61.2487 308.339 61.3575 307.671 61.3606Z" fill="#FEFEFE"/>
<path d="M307.671 61.3606C306.674 61.3606 305.699 61.1238 304.869 60.6801C304.039 60.2364 303.391 59.6056 303.007 58.867C302.622 58.1285 302.519 57.3152 302.709 56.5295C302.899 55.7438 303.375 55.0208 304.076 54.4515C304.777 53.8822 305.672 53.492 306.648 53.33C307.625 53.168 308.64 53.2414 309.564 53.5411C310.489 53.8407 311.283 54.3532 311.845 55.014C312.408 55.6748 312.715 56.4544 312.727 57.2547C312.731 57.7908 312.603 58.3221 312.351 58.8186C312.099 59.315 311.728 59.7667 311.259 60.148C310.789 60.5293 310.231 60.8326 309.615 61.0407C309 61.2487 308.339 61.3575 307.671 61.3606Z" stroke="black" stroke-width="0.57" stroke-linecap="round" stroke-linejoin="round"/>
<path fill-rule="evenodd" clip-rule="evenodd" d="M265.201 53.246C266.204 53.2461 267.183 53.4853 268.016 53.9333C268.849 54.3813 269.497 55.0179 269.877 55.7621C270.258 56.5063 270.355 57.3246 270.155 58.1129C269.955 58.9013 269.467 59.6241 268.754 60.1895C268.041 60.755 267.134 61.1375 266.15 61.2885C265.165 61.4395 264.147 61.3522 263.224 61.0377C262.302 60.7231 261.516 60.1955 260.968 59.522C260.42 58.8484 260.134 58.0592 260.146 57.2548C260.162 56.1871 260.701 55.1676 261.648 54.4172C262.594 53.6667 263.871 53.246 265.201 53.246Z" fill="#FEFEFE"/>
<path d="M265.201 53.246C266.204 53.2461 267.183 53.4853 268.016 53.9333C268.849 54.3813 269.497 55.0179 269.877 55.7621C270.258 56.5063 270.355 57.3246 270.155 58.1129C269.955 58.9013 269.467 59.6241 268.754 60.1895C268.041 60.755 267.134 61.1375 266.15 61.2885C265.165 61.4395 264.147 61.3522 263.224 61.0377C262.302 60.7231 261.516 60.1955 260.968 59.522C260.42 58.8484 260.134 58.0592 260.146 57.2548C260.162 56.1871 260.701 55.1676 261.648 54.4172C262.594 53.6667 263.871 53.246 265.201 53.246Z" stroke="black" stroke-width="0.57" stroke-linecap="round" stroke-linejoin="round"/>
<path d="M305.764 41.5601C307.759 41.3259 309.795 41.5799 311.607 42.2889" stroke="black" stroke-width="0.57" stroke-miterlimit="22.93" stroke-linecap="round"/>
<path d="M267.349 41.5599C265.355 41.3211 263.317 41.5753 261.507 42.2888" stroke="black" stroke-width="0.57" stroke-miterlimit="22.93" stroke-linecap="round"/>
<path fill-rule="evenodd" clip-rule="evenodd" d="M309.185 58.9798C309.338 58.9798 309.484 59.0285 309.592 59.115C309.7 59.2016 309.761 59.319 309.761 59.4415C309.753 59.562 309.69 59.676 309.584 59.7613C309.478 59.8467 309.336 59.8972 309.185 59.9031C309.033 59.9031 308.887 59.8544 308.779 59.7679C308.671 59.6813 308.61 59.5639 308.61 59.4415C308.606 59.3799 308.618 59.3183 308.645 59.2607C308.672 59.2031 308.715 59.1508 308.769 59.1072C308.823 59.0636 308.888 59.0297 308.96 59.0078C309.032 58.9858 309.109 58.9763 309.185 58.9798Z" fill="black"/>
<path d="M309.185 58.9798C309.338 58.9798 309.484 59.0285 309.592 59.115C309.7 59.2016 309.761 59.319 309.761 59.4415C309.753 59.562 309.69 59.676 309.584 59.7613C309.478 59.8467 309.336 59.8972 309.185 59.9031C309.033 59.9031 308.887 59.8544 308.779 59.7679C308.671 59.6813 308.61 59.5639 308.61 59.4415C308.606 59.3799 308.618 59.3183 308.645 59.2607C308.672 59.2031 308.715 59.1508 308.769 59.1072C308.823 59.0636 308.888 59.0297 308.96 59.0078C309.032 58.9858 309.109 58.9763 309.185 58.9798Z" stroke="black" stroke-width="0.57" stroke-linecap="round" stroke-linejoin="round"/>
<path fill-rule="evenodd" clip-rule="evenodd" d="M267.046 59.4414C266.896 59.4355 266.754 59.385 266.648 59.2997C266.541 59.2143 266.479 59.1003 266.471 58.9798C266.471 58.855 266.531 58.735 266.638 58.6445C266.745 58.5541 266.891 58.5001 267.046 58.4939C267.124 58.4938 267.202 58.5065 267.274 58.5312C267.346 58.5559 267.41 58.5921 267.464 58.6376C267.518 58.683 267.56 58.7368 267.587 58.7957C267.614 58.8545 267.626 58.9172 267.622 58.9798C267.622 59.1022 267.561 59.2196 267.453 59.3062C267.345 59.3928 267.199 59.4414 267.046 59.4414Z" fill="black"/>
<path d="M267.046 59.4414C266.896 59.4355 266.754 59.385 266.648 59.2997C266.541 59.2143 266.479 59.1003 266.471 58.9798C266.471 58.855 266.531 58.735 266.638 58.6445C266.745 58.5541 266.891 58.5001 267.046 58.4939C267.124 58.4938 267.202 58.5065 267.274 58.5312C267.346 58.5559 267.41 58.5921 267.464 58.6376C267.518 58.683 267.56 58.7368 267.587 58.7957C267.614 58.8545 267.626 58.9172 267.622 58.9798C267.622 59.1022 267.561 59.2196 267.453 59.3062C267.345 59.3928 267.199 59.4414 267.046 59.4414Z" stroke="black" stroke-width="0.57" stroke-linecap="round" stroke-linejoin="round"/>
<path d="M273.192 69.1109C274.373 71.3947 277.673 71.6862 280.397 71.6862" stroke="#373435" stroke-width="0.57" stroke-miterlimit="22.93" stroke-linecap="round"/>
<path fill-rule="evenodd" clip-rule="evenodd" d="M296.532 103.926L343.514 117.288L320.568 182.885L269.105 168.308L290.81 106.283C290.962 105.81 291.236 105.369 291.615 104.988C291.995 104.607 292.47 104.295 293.011 104.072C293.552 103.849 294.145 103.721 294.752 103.696C295.359 103.671 295.965 103.749 296.532 103.926Z" fill="black"/>
<path d="M296.532 103.926L343.514 117.288L320.568 182.885L269.105 168.308L290.81 106.283C290.962 105.81 291.236 105.369 291.615 104.988C291.995 104.607 292.47 104.295 293.011 104.072C293.552 103.849 294.145 103.721 294.752 103.696C295.359 103.671 295.965 103.749 296.532 103.926Z" stroke="black" stroke-width="0.57" stroke-miterlimit="22.93" stroke-linecap="round"/>
<path fill-rule="evenodd" clip-rule="evenodd" d="M361.374 104.971L344.059 117.118L321.113 182.715L341.879 168.138L362.555 109.076C363.917 105.456 363.372 103.634 361.374 104.971Z" fill="black"/>
<path d="M361.374 104.971L344.059 117.118L321.113 182.715L341.879 168.138L362.555 109.076C363.917 105.456 363.372 103.634 361.374 104.971Z" stroke="black" stroke-width="0.57" stroke-miterlimit="22.93" stroke-linecap="round"/>
<path fill-rule="evenodd" clip-rule="evenodd" d="M239.53 113.62C250.156 125.622 252.123 137.696 266.018 148.095C268.622 150.038 286.906 154.339 300.74 157.521C306.613 158.858 317.541 156.039 320.265 156.72C322.99 157.4 327.773 159.392 323.868 165.053C323.111 166.17 333.343 165.369 335.28 167.021C340.699 171.71 332.253 175.208 332.253 175.208C332.707 178.901 329.559 180.31 324.867 181.768C324.505 182.66 323.83 183.449 322.922 184.039C322.014 184.63 320.913 184.997 319.751 185.096C307.559 186.069 295.248 185.246 283.425 182.667C279.156 181.719 274.646 180.577 270.347 179.387C248.339 173.289 230.994 169.669 220.338 151.909C219.4 150.354 214.738 142.823 211.256 137.551C202.175 123.459 231.599 103.319 239.44 113.498" fill="#E7BFFF"/>
<path d="M239.531 113.62C250.156 125.621 252.124 137.696 266.019 148.095C268.622 150.038 286.906 154.338 300.74 157.521C306.613 158.857 317.541 156.039 320.266 156.719C322.99 157.4 327.773 159.392 323.868 165.053C323.111 166.17 333.343 165.368 335.281 167.021C340.699 171.71 332.253 175.208 332.253 175.208C332.707 178.901 329.559 180.31 324.867 181.768C324.506 182.66 323.83 183.448 322.922 184.039C322.015 184.63 320.913 184.997 319.751 185.096C307.559 186.069 295.248 185.246 283.425 182.667C279.157 181.719 274.646 180.577 270.347 179.387C248.34 173.289 230.994 169.669 220.338 151.909C219.4 150.354 214.738 142.823 211.257 137.55" stroke="black" stroke-width="0.57" stroke-miterlimit="22.93" stroke-linecap="round"/>
<path d="M318.994 173.872C323.558 174.903 328.311 175.289 333.04 175.014" stroke="black" stroke-width="0.57" stroke-miterlimit="22.93" stroke-linecap="round"/>
<path d="M311.426 180.407C315.98 181.438 320.723 181.824 325.442 181.549" stroke="black" stroke-width="0.57" stroke-miterlimit="22.93" stroke-linecap="round"/>
<path fill-rule="evenodd" clip-rule="evenodd" d="M300.831 188.06C276.947 186.068 248.976 175.232 237.26 168.624C235.565 167.652 230.631 164.057 237.049 167.992C243.466 171.928 255.212 175.281 264.293 177.905C280.49 182.731 297.602 185.279 314.878 185.436C314.878 185.436 311.154 188.911 300.831 188.06Z" fill="black"/>
<path d="M300.831 188.06C276.947 186.068 248.976 175.232 237.26 168.624C235.565 167.652 230.631 164.057 237.049 167.992C243.466 171.928 255.212 175.281 264.293 177.905C280.49 182.731 297.602 185.279 314.878 185.436C314.878 185.436 311.154 188.911 300.831 188.06Z" stroke="black" stroke-width="0.57" stroke-miterlimit="22.93" stroke-linecap="round"/>
<path d="M324.926 165.66L312.969 164.47" stroke="black" stroke-width="0.57" stroke-miterlimit="22.93" stroke-linecap="round"/>
<path fill-rule="evenodd" clip-rule="evenodd" d="M79.5692 200.791C79.2789 202.877 78.7632 205.596 78.4231 206.836L77.8042 209.089L64.6919 209.342C56.6592 209.496 49.5515 210.068 46.3442 210.819C43.1701 211.561 40.7356 211.76 40.1595 211.324C39.6368 210.928 38.4523 208.441 37.5274 205.797C36.6017 203.154 35.5737 200.991 35.2424 200.991C33.3944 200.991 33.3472 217.711 35.0614 265.244L35.6086 280.411L29.0472 282.005L22.4849 283.599L11.0614 295.936C4.77884 302.722 -0.195994 308.425 0.00593656 308.61C0.39144 308.961 16.0258 307.342 19.4778 306.594L21.4691 306.162L21.3537 330.398L21.2392 354.634L28.2841 359.093C32.1592 361.546 41.1499 366.804 48.263 370.776L61.1952 378L103.155 372.9C126.233 370.095 145.508 367.668 145.989 367.505C146.569 367.31 146.518 360.535 145.838 347.354C145.274 336.432 144.782 324.772 144.746 321.442L144.677 315.388L150.141 314.012C161.708 311.101 170.027 308.622 170 308.093C169.985 307.791 167.425 305.975 164.31 304.059C161.195 302.142 154.877 297.297 150.268 293.292C144.996 288.709 139.306 284.677 134.916 282.411L127.942 278.81L124.471 270.829C118.335 256.717 108.499 239.774 84.28 201.589C82.6794 199.065 81.0832 197 80.7335 197C80.383 197 79.8594 198.706 79.5692 200.791ZM88.1254 210.369C108.966 242.704 124.407 271.367 128.783 285.837L129.646 288.69L122.083 290.287C117.923 291.164 113.129 292.109 111.43 292.387L108.342 292.89C108.342 292.89 95.2253 296.698 95.7018 292.139C96.1782 287.58 97.5 280.406 97.5 280.406C97.5 280.406 100.969 273.439 100.969 273.036C100.969 272.633 101.953 271.461 103.155 270.43C105.401 268.503 105.95 267.237 104.54 267.237C103.018 267.237 97.4195 275.111 95.7018 279.669C94.6519 282.455 93.9762 286.35 93.9762 289.617C93.9762 294.511 93.8022 295.029 92.0093 295.468C87.8807 296.478 87.8571 296.432 87.8571 287.191C87.8571 281.141 87.5467 278.411 86.8588 278.411C86.1332 278.411 86.0266 280.811 86.4663 287.165C87.1437 296.937 87.6822 296.024 80.6645 297.005C77.6548 297.426 77.6084 297.275 76.8584 284.597C76.5271 278.999 75.889 274.42 75.4405 274.42C74.6791 274.42 74.8662 279.204 76.1521 292.578C76.521 296.409 76.3628 297.572 75.4702 297.591C74.8304 297.605 71.4762 297.952 68.0154 298.362C62.0519 299.07 57.3481 298.487 55.2527 296.781C54.8698 296.469 55.0115 292.238 55.5692 287.379C56.2755 281.217 56.3087 277.861 55.6793 276.283C54.9022 274.334 54.7667 274.794 54.7011 279.608C54.6347 284.521 53.2168 295.141 52.5446 295.754C52.41 295.877 51.0559 295.582 49.5357 295.098L46.7716 294.218L46.6842 284.918C46.6361 279.802 46.2821 274.72 45.8975 273.622C45.4648 272.389 45.1641 275.667 45.1107 282.202C45.0592 288.418 44.6754 292.778 44.1789 292.778C43.7147 292.778 41.9445 292.173 40.2452 291.433L37.1559 290.088L37.1725 278.463C37.1821 272.069 36.5326 256.961 35.731 244.889C34.7581 230.252 34.495 220.015 34.9417 214.16L35.6113 205.381L37.1725 208.972L38.7338 212.564L43.6352 212.407C47.776 212.276 48.8617 212.549 50.638 214.171C54.9494 218.108 54.5069 221.922 57.5 217.5L65.3248 210.489L71.665 210.643C75.152 210.727 78.4135 210.566 78.9118 210.284C79.4101 210.003 80.0919 207.618 80.4267 204.983C80.7615 202.348 81.1549 200.193 81.3009 200.193C81.4477 200.193 84.5187 204.772 88.1254 210.369ZM72.5 217.5C68.8559 220.493 67.7474 219.382 68.5 222.121C69.7824 226.787 75.5898 225.61 82.5 222.572C86.8245 220.67 87.8995 222.086 86.5 219C84.3443 214.249 79.2677 216.645 72.5 217.5ZM42.6194 220.497C39.2775 221.872 38.8478 223.692 41.5 225.388C44.2457 227.144 51.1319 226.897 53.667 225C55.5683 223.577 54.9651 222.541 53.667 221.334C51.7089 219.515 46.0478 219.086 42.6194 220.497ZM77.9878 220.944C78.2396 221.822 78.8384 222.541 79.3192 222.541C79.7999 222.541 79.9879 221.822 79.7361 220.944C79.3567 219.619 79.7099 219.348 81.8201 219.348C85.0834 219.348 85.0667 220.57 81.7817 222.121C78.9022 223.48 74.1092 223.704 72.1476 222.572C70.748 221.763 70.8976 221.327 73.5 220C76.1111 218.669 77.4782 219.163 77.9878 220.944ZM46.8905 222.74L47.0094 224.536L47.3888 222.74C47.7988 220.794 47.9815 220.727 50.9239 221.447C53.6985 222.126 53.3672 223.072 49.9982 224.087C47.8958 224.72 46.3433 224.716 44.3161 224.071C41.2251 223.087 40.7198 222.052 43.0565 221.494C46.1169 220.764 46.7743 220.978 46.8905 222.74ZM63.3806 225.388C63.3806 226.276 62.8727 226.492 61.6323 226.132C59.8464 225.615 59.1768 226.836 60.7582 227.729C62.4173 228.665 61.7337 231.32 59.8324 231.32C58.8429 231.32 58.2581 231.653 58.5334 232.061C59.2039 233.051 66.7566 232.548 67.9796 231.431C69.3695 230.162 68.0434 229.307 66.4996 230.478C64.3641 232.095 63.1971 230.682 63.8326 227.247C64.149 225.537 64.177 224.137 63.8946 224.137C63.6123 224.137 63.3806 224.7 63.3806 225.388ZM83.0492 228.128C82.7424 228.58 83.4775 228.926 84.7459 228.926C85.9759 228.926 86.9829 228.567 86.9829 228.128C86.9829 227.689 86.2198 227.33 85.2862 227.33C84.3526 227.33 83.3464 227.689 83.0492 228.128ZM42.8327 232.123C40.4961 234.481 41.747 234.852 44.1527 232.514C45.2794 231.419 45.8013 230.522 45.3109 230.522C44.8214 230.522 43.706 231.243 42.8327 232.123ZM79.9896 231.31C79.9896 231.972 82.1182 232.917 83.6095 232.917C84.079 232.917 84.2494 232.601 83.9889 232.215C83.3473 231.268 79.9896 230.508 79.9896 231.31ZM46.047 232.994C45.4176 233.915 45.13 234.877 45.4088 235.131C45.9298 235.606 48.4422 232.989 48.492 231.919C48.5471 230.744 47.1729 231.348 46.047 232.994ZM77.3672 234.325C77.3672 235.174 79.2449 236.907 80.1645 236.907C81.5212 236.907 80.8419 235.357 79.1155 234.513C78.1539 234.043 77.3672 233.958 77.3672 234.325ZM50.5699 235.744C49.7569 237.679 50.8915 238.029 51.9764 236.178C52.653 235.023 52.6661 234.513 52.0201 234.513C51.507 234.513 50.8548 235.067 50.5699 235.744ZM66.8773 249.678C66.8773 250.556 67.2706 251.274 67.7514 251.274C68.2322 251.274 68.6256 250.556 68.6256 249.678C68.6256 248.8 68.2322 248.081 67.7514 248.081C67.2706 248.081 66.8773 248.8 66.8773 249.678ZM65.2671 255.265C65.2671 256.362 65.4655 256.812 65.7076 256.262C65.9507 255.714 65.9507 254.816 65.7076 254.267C65.4655 253.719 65.2671 254.167 65.2671 255.265ZM73.0654 255.73C73.1074 256.66 73.3146 256.849 73.5934 256.213C73.8461 255.637 73.8146 254.948 73.5244 254.683C73.2341 254.418 73.0278 254.889 73.0654 255.73ZM58.6147 257.061C58.2485 257.829 58.2485 259.086 58.6147 259.854C59.2485 261.185 59.2974 261.185 59.6462 259.854C59.8473 259.086 59.8473 257.829 59.6462 257.061C59.2974 255.73 59.2485 255.73 58.6147 257.061ZM63.3806 262.847C63.3806 263.945 63.774 264.843 64.2548 264.843C64.7356 264.843 65.129 263.945 65.129 262.847C65.129 261.75 64.7356 260.852 64.2548 260.852C63.774 260.852 63.3806 261.75 63.3806 262.847ZM67.7514 262.847C67.7514 263.945 68.1448 264.843 68.6256 264.843C69.1064 264.843 69.4997 263.945 69.4997 262.847C69.4997 261.75 69.1064 260.852 68.6256 260.852C68.1448 260.852 67.7514 261.75 67.7514 262.847ZM61.3412 266.173C60.4338 267.001 60.6559 269.631 61.6323 269.631C62.1131 269.631 62.5065 268.734 62.5065 267.636C62.5065 265.547 62.3045 265.293 61.3412 266.173ZM67.7514 272.378C67.7514 273.501 68.1448 274.42 68.6256 274.42C69.1064 274.42 69.4997 273.724 69.4997 272.871C69.4997 272.019 69.1064 271.1 68.6256 270.829C68.1299 270.549 67.7514 271.22 67.7514 272.378ZM59.884 279.608C59.884 280.706 60.2774 281.604 60.7582 281.604C61.239 281.604 61.6323 280.706 61.6323 279.608C61.6323 278.511 61.239 277.613 60.7582 277.613C60.2774 277.613 59.884 278.511 59.884 279.608ZM64.4253 280.406C64.4427 281.723 64.6385 282.166 64.8606 281.389C65.0826 280.612 65.0678 279.535 64.8282 278.995C64.5887 278.454 64.4078 279.09 64.4253 280.406ZM137.438 286.502C136.821 286.818 135.196 287.192 133.828 287.333C131.651 287.558 131.199 287.221 130.2 284.632L129.06 281.674L133.811 283.801C136.89 285.18 138.167 286.13 137.438 286.502ZM35.4076 285.594C35.4076 287.35 35.1978 288.787 34.9417 288.787C34.6847 288.787 32.4232 287.826 29.9153 286.652L25.3548 284.516L29.2885 283.538C35.314 282.038 35.4076 282.07 35.4076 285.594ZM68.6256 286.393C68.6256 287.271 69.019 287.989 69.4997 287.989C69.9805 287.989 70.3739 287.271 70.3739 286.393C70.3739 285.515 69.9805 284.796 69.4997 284.796C69.019 284.796 68.6256 285.515 68.6256 286.393ZM48.957 296.492L60.3211 300.672L60.1952 337.479C60.1261 357.722 59.8499 374.487 59.5807 374.732C59.0981 375.172 41.865 365.619 29.507 358.062L23.1694 354.186V333.187C23.1694 321.638 23.4246 306.279 23.7367 299.058L24.304 285.926L30.9485 289.119C34.6025 290.875 42.7068 294.193 48.957 296.492ZM21.1536 304.462C20.8284 304.759 3.61271 307.081 3.38368 306.859C3.31987 306.796 7.25358 302.498 12.1253 297.307L20.984 287.868L21.234 296.014C21.3721 300.494 21.3354 304.296 21.1536 304.462ZM62.5065 289.937C62.5065 291.009 62.8999 292.107 63.3806 292.379C63.8903 292.667 64.2548 291.855 64.2548 290.43C64.2548 289.088 63.8614 287.989 63.3806 287.989C62.8999 287.989 62.5065 288.865 62.5065 289.937ZM150.805 295.579C155.643 299.754 161.185 304.127 163.121 305.296C165.748 306.883 166.331 307.583 165.417 308.05C160.329 310.649 84.2887 328.179 83.1401 327.018C80.8612 324.71 64.5092 301.031 64.9559 300.684C65.2915 300.423 69.8931 299.773 75.1818 299.239C89.5372 297.79 113.859 293.863 127.194 290.841C133.685 289.369 139.674 288.125 140.502 288.077C141.331 288.029 145.968 291.404 150.805 295.579ZM58.5256 291.251C58.203 291.728 58.3761 292.518 58.9111 293.007C59.6253 293.659 59.884 293.428 59.884 292.139C59.884 290.212 59.4303 289.915 58.5256 291.251ZM67.7514 295.172C67.7514 296.628 68.1142 297.457 68.6256 297.168C69.1064 296.896 69.4997 295.998 69.4997 295.172C69.4997 294.346 69.1064 293.448 68.6256 293.177C68.1142 292.888 67.7514 293.716 67.7514 295.172ZM81.6033 328.464C82.2992 329.58 101.091 326.104 126.023 320.246C134.273 318.308 141.386 316.722 141.829 316.722C142.627 316.722 145.258 365.146 144.497 365.84C144.118 366.186 66.1351 375.785 63.7041 375.785C62.7067 375.785 62.5091 369.604 62.5231 338.871L62.5388 301.956L71.7691 314.727C76.8462 321.751 81.2711 327.932 81.6033 328.464ZM73.6459 349.08C71.0068 353.068 70.6108 355.033 72.4465 355.033C73.2621 355.033 73.8338 356.562 74.2377 359.822C74.8636 364.867 75.6241 365.477 78.7789 363.459C80.3271 362.47 80.5229 361.687 80.1758 357.872C79.8034 353.767 79.9118 353.437 81.6296 353.437C82.6506 353.437 83.4863 353.04 83.4863 352.554C83.4863 351.241 78.2553 345.456 77.0691 345.456C76.5044 345.456 74.9641 347.086 73.6459 349.08ZM90.9166 352.41C87.8614 353.081 87.3326 354.236 90.0862 354.224C93.5216 354.21 96.5986 353.416 96.5986 352.545C96.5986 351.812 93.9298 351.748 90.9166 352.41ZM94.4132 355.204C92.9709 355.619 91.233 356.121 90.5521 356.32C89.7951 356.541 89.6272 356.969 90.1194 357.418C91.0469 358.265 98.347 356.812 98.347 355.781C98.347 354.618 97.0925 354.434 94.4132 355.204Z" fill="#949494"/>
</svg>
