<svg width="760" height="455" viewBox="0 0 760 455" fill="none" xmlns="http://www.w3.org/2000/svg">
<path fill-rule="evenodd" clip-rule="evenodd" d="M508.31 0H251.047C184.496 0.22357 120.757 21.2503 73.7286 58.4949C26.7002 95.7395 0.197468 146.181 0 198.818C0.19794 251.523 26.7562 302.024 73.8741 339.291C120.992 376.559 184.841 397.565 251.475 397.722H450.426C459.216 413.915 483.977 431.635 511.526 441.555C572.841 463.853 649.055 453.933 618.719 443.759C582.274 431.635 575.092 409.846 584.632 388.311C635.434 375.442 679.773 350.17 711.281 316.124C742.789 282.078 759.845 241.01 760 198.818C759.802 146.093 733.211 95.5751 686.043 58.316C638.876 21.0569 574.972 0.0894367 508.31 0Z" fill="#373435"/>
</svg>
