<svg width="167" height="136" viewBox="0 0 167 136" fill="none" xmlns="http://www.w3.org/2000/svg">
<path d="M139.46 118.715C139.901 118.99 140.302 119.222 140.178 119.769C140.028 120.43 139.435 120.547 138.964 120.616C136.925 120.914 134.877 121.111 132.823 121.269C130.559 121.444 128.311 121.865 126.052 122.132C125.242 122.227 124.419 122.088 123.601 122.19C122.575 122.318 121.539 122.389 120.521 122.532C120.038 122.6 119.588 122.441 119.093 122.546C118.412 122.678 117.722 122.742 117.031 122.74C115.782 122.764 114.536 122.863 113.298 123.035C112.618 123.125 111.919 123.03 111.23 123.055C108.789 123.146 106.356 123.371 103.908 123.396C102.16 123.414 100.406 123.603 98.6515 123.682C96.706 123.77 94.7647 124.002 92.8189 124.144C90.9984 124.277 89.1783 124.524 87.3613 124.742C86.2266 124.878 85.0812 124.95 83.9465 125.098C83.1625 125.215 82.37 125.251 81.5798 125.205C80.587 125.211 79.5959 125.293 78.6136 125.45C78.1099 125.489 77.6017 125.453 77.096 125.467C75.4728 125.513 73.8461 125.507 72.2279 125.632C70.2376 125.784 68.2479 125.737 66.2577 125.77C63.9359 125.809 61.6134 125.934 59.2932 125.893C58.0085 125.87 56.7348 126.104 55.4683 126.035C54.0595 125.958 52.6795 126.191 51.2868 126.249C49.095 126.341 46.9111 126.643 44.7207 126.804C44.1795 126.814 43.6395 126.744 43.1155 126.596C42.9744 126.552 42.853 126.453 42.7745 126.318C42.696 126.182 42.6659 126.02 42.6899 125.862C42.7087 124.883 42.6984 123.902 42.7523 122.925C42.7326 122.643 42.6915 122.363 42.6295 122.088C42.5611 121.283 42.9139 120.555 42.8588 119.749C42.8259 119.267 43.3531 118.907 43.4519 118.387C43.4949 118.16 43.6316 117.885 43.2797 117.934C42.4849 117.914 41.6898 117.949 40.8988 118.036C40.5406 118.133 40.4977 118.238 40.4664 118.582C40.4122 119.178 39.5876 120.094 39.1233 119.985C38.9163 119.936 38.7316 119.81 38.6013 119.627C38.471 119.445 38.4033 119.218 38.4101 118.987C38.4672 118.542 38.3816 118.089 38.1678 117.706C38.1219 117.617 38.1082 117.512 38.1293 117.412C38.1505 117.313 38.205 117.225 38.2821 117.168C38.4323 116.995 38.5447 116.788 38.6108 116.561C38.6769 116.334 38.6949 116.094 38.6635 115.858C38.6449 114.636 38.705 113.415 38.8432 112.202C38.9569 111.423 39.0352 110.638 39.0771 109.861C39.1445 108.61 39.1241 107.367 39.2983 106.108C39.3435 105.426 39.3261 104.741 39.2461 104.064C39.1876 103.417 39.2226 102.764 39.3501 102.13C39.375 101.474 39.3671 100.818 39.3262 100.163C39.3249 99.022 39.3889 97.8818 39.5177 96.7492C39.6915 95.6022 39.736 94.436 39.6503 93.2771C39.647 91.2817 39.7941 89.2917 39.8245 87.2963C39.8407 86.234 39.8292 85.176 39.8416 84.1197C39.8459 83.4854 39.8846 82.8519 39.9576 82.2227C40.124 80.8705 40.1548 79.5182 40.2307 78.1634C40.2921 77.4587 40.3858 76.7576 40.5115 76.0631C40.6589 75.0813 40.5167 74.0884 40.746 73.1141C40.9577 71.8105 41.081 70.4916 41.115 69.1681C41.2207 68.0639 41.2537 66.8941 41.4034 65.8203C41.4137 64.7666 41.5194 63.7164 41.7189 62.6854C42.0575 61.6574 41.6845 60.5787 41.8637 59.537C42.1064 57.7418 42.1879 55.9249 42.107 54.1123C42.0975 52.9516 42.1381 51.7831 42.0702 50.6126C42.0116 49.6045 42.0933 48.5231 42.0652 47.4998C42.1125 46.6084 42.1022 45.7146 42.0346 44.8249C41.9538 44.3336 41.9816 43.8284 42.1155 43.3512C42.1689 42.7594 42.131 42.162 42.0035 41.5839C41.9472 39.9884 41.8421 38.3902 41.8804 36.7967C41.808 35.2125 41.8192 33.6249 41.9138 32.042C41.8956 31.2961 41.7688 30.5581 41.5382 29.8558C41.4008 29.0306 41.5359 28.2128 41.4697 27.4045C41.3952 26.4938 41.8362 25.5917 41.4573 24.6887C41.301 24.316 41.5491 23.9524 41.5156 23.5544C41.4746 23.0665 41.5045 22.5653 41.469 22.0651C41.4532 21.9794 41.4545 21.8909 41.473 21.8059C41.4915 21.7209 41.5267 21.6413 41.576 21.5725C41.6254 21.5038 41.6879 21.4474 41.7591 21.4076C41.8302 21.3678 41.9085 21.3455 41.9884 21.342C42.0563 21.3384 42.1657 21.3565 42.1858 21.3193C42.9402 19.9275 44.2698 20.5481 45.3194 20.3337C46.8562 20.0198 48.4318 19.9382 49.9757 19.5776C50.8727 19.3997 51.7861 19.3415 52.6958 19.4044C53.299 19.4273 53.6409 19.0974 53.5662 18.6012C53.418 17.6171 53.9543 16.9165 54.1933 16.0913C54.7155 14.6806 55.4877 13.3968 56.4656 12.3137C56.8856 11.7314 57.38 11.2183 57.9336 10.7896C58.77 10.1105 59.7602 9.69381 60.7973 9.58437C61.5818 9.41136 62.3964 9.5168 63.1222 9.88541C63.8537 10.3416 64.4802 10.9746 64.9536 11.7361C65.2032 12.1955 65.7522 12.4401 65.7568 13.088C65.8462 13.954 66.0034 14.8101 66.2268 15.6467C66.2974 16.0996 66.3939 16.5471 66.5156 16.9868C66.6915 17.5932 66.6063 17.8596 66.2962 18.1735C68.6036 18.1735 71.0011 18.1102 73.3931 18.2085C74.2081 18.242 74.4187 17.8076 74.5885 17.1763C75.0156 15.5412 75.8899 14.0879 77.0942 13.0115C78.3996 11.8154 79.9494 10.9807 81.6124 10.5777C82.3105 10.3576 83.0433 10.3017 83.7626 10.4137C84.4819 10.5257 85.1713 10.803 85.7854 11.2274C86.2447 11.5571 86.3616 12.157 86.7556 12.5439C87.3768 13.2032 87.7904 14.0612 87.9368 14.9941C88.0321 15.4437 88.2262 15.8613 88.5022 16.2106C88.6828 16.3669 88.8063 16.5889 88.8502 16.8361C88.8942 17.0834 88.8556 17.3396 88.7417 17.5585C88.4544 18.072 87.9426 18.0058 87.4625 17.9742C86.704 17.9244 86.4699 17.4003 86.3131 16.6749C86.0587 15.78 85.6553 14.944 85.1231 14.2092C84.961 13.95 84.7186 13.7299 84.6806 13.4053C84.5975 12.6956 83.9005 12.6381 83.5882 12.137C83.2357 11.5713 82.6346 11.8555 82.0957 11.9634C80.8889 12.2828 79.7655 12.9009 78.8119 13.77C78.0104 14.4102 77.3856 15.2791 77.0058 16.2816C76.8623 16.6373 76.4946 16.9513 76.3443 17.3842C76.0863 18.1276 76.1902 18.2781 76.8771 18.3316C80.3856 18.6046 83.9002 18.3662 87.4076 18.5073C88.4792 18.5505 89.5546 18.4185 90.599 18.5201C92.4657 18.7016 94.3345 18.4954 96.199 18.7143C96.7026 18.6936 97.2069 18.7135 97.7078 18.7739C98.296 18.935 98.5636 18.5497 98.6112 18.0045C98.7247 16.6945 99.0311 15.4132 99.5187 14.2101C100.085 12.71 101.087 11.4557 102.371 10.6417C103.148 10.0348 104.008 9.56675 104.919 9.25492C105.946 8.97087 107.034 9.11576 107.969 9.66111C108.941 10.3128 109.714 11.2664 110.189 12.4004C110.754 13.7003 111.248 15.0358 111.669 16.3997C111.702 16.5034 111.714 16.6139 111.703 16.7232C111.692 16.8326 111.659 16.938 111.607 17.0316C111.554 17.1253 111.483 17.2049 111.399 17.2648C111.314 17.3247 111.219 17.3633 111.119 17.3777C110.582 17.4936 110.027 17.4543 109.508 17.2637C109.118 17.1211 109.191 16.6739 109.176 16.4436C109.055 15.4824 108.76 14.5572 108.308 13.7222C107.946 12.8803 107.481 12.0958 106.927 11.3899C106.099 10.3686 106.068 10.24 104.949 10.7978C103.511 11.3939 102.301 12.5071 101.519 13.9543C100.928 15.0653 100.553 16.298 100.419 17.5749C100.425 17.6992 100.414 17.8238 100.387 17.9447C100.095 18.7897 100.171 18.8345 101.016 18.7907C102.339 18.7367 103.663 18.7657 104.982 18.8772C105.727 18.9318 106.498 18.915 107.258 18.9213C109.523 18.9399 111.79 18.8688 114.053 18.9445C116.347 19.0212 118.638 19.1742 120.927 19.4035C122.448 19.5571 123.975 19.6463 125.492 19.9292C126.155 20.0526 126.881 20.0685 127.577 20.1404C128.381 20.2235 128.636 20.6859 128.474 21.6011C128.345 22.3296 128.691 23.0647 128.49 23.8088C128.547 23.8937 128.623 23.9606 128.712 24.0023C128.8 24.044 128.898 24.0592 128.993 24.0462C129.562 23.9125 130.137 23.8175 130.716 23.7619C131.948 23.5011 133.192 23.3157 134.443 23.2065C135.478 23.086 136.522 23.069 137.56 23.1558C137.703 23.1719 137.841 23.2188 137.967 23.2938C138.093 23.3688 138.204 23.4703 138.294 23.5926C138.384 23.7148 138.45 23.8554 138.49 24.006C138.53 24.1566 138.541 24.3142 138.525 24.4699C138.529 24.9896 138.316 25.5046 138.521 26.0446C138.7 26.5138 138.378 26.9825 138.374 27.4923C138.447 28.2677 138.466 29.0484 138.43 29.827C138.181 31.3967 138.079 32.99 138.127 34.5823C138.183 35.8917 138.057 37.2261 138.184 38.5002C138.323 39.8907 138.391 41.2925 138.56 42.6805C138.777 44.4658 138.95 46.2608 139.247 48.0303C139.54 49.1535 139.769 50.2955 139.932 51.4498C140.244 53.1414 140.322 54.8746 140.163 56.5915C140.153 56.6355 140.079 56.6932 140.087 56.7066C140.733 57.7737 140 58.8892 140.181 59.9786C140.213 60.2087 140.203 60.4437 140.151 60.6694C140.098 60.8951 140.005 61.107 139.876 61.2923C139.7 61.5569 139.863 61.7932 139.859 62.0418C139.84 63.2123 139.441 64.3369 139.412 65.4942C139.371 67.1266 139.002 68.7256 139.081 70.3671C139.13 71.3787 138.935 72.3851 138.982 73.4082C138.995 73.699 139.1 73.9538 139.106 74.2417C139.088 74.9547 139.029 75.666 138.932 76.3714C138.856 77.2619 139.061 78.1183 139.032 79.0068C138.924 79.9627 138.89 80.9268 138.93 81.889C139.019 82.8606 138.934 83.8417 138.68 84.7778C138.565 85.2481 138.783 85.7044 138.7 86.2046C138.647 87.3913 138.685 88.5808 138.816 89.7603C138.85 90.1551 138.799 90.553 138.667 90.9221C138.52 91.2584 138.5 91.6439 138.609 91.9966C138.727 92.4286 138.754 92.8839 138.689 93.3289C138.634 94.7276 138.74 96.1282 139.003 97.4983C139.004 98.3634 139.045 99.2281 139.125 100.089C139.295 101.227 139.061 102.342 139.15 103.475C139.173 104.126 139.299 104.768 139.523 105.371C139.608 105.784 139.61 106.211 139.529 106.625C139.497 107.389 140.046 107.964 139.924 108.705C139.91 108.787 140.039 108.916 140.012 108.972C139.52 110.006 140.097 111.016 140.11 112.036C140.127 113.405 139.979 114.766 140.026 116.134C140.004 116.354 140.029 116.577 140.1 116.784C140.584 117.486 140.347 117.983 139.795 118.432C139.703 118.507 139.612 118.586 139.46 118.715ZM42.6648 21.7559C42.8135 22.5183 42.8832 23.2966 42.8725 24.0761C42.6672 25.949 42.8365 27.8221 42.7206 29.6852C42.6837 30.2788 43.1545 30.4945 43.1486 31.0314C43.1305 32.6572 43.3556 34.2826 43.2516 35.9097C43.1624 37.3055 43.5774 38.6598 43.5023 40.0385C43.4057 41.8118 43.5899 43.5756 43.5967 45.3447C43.6011 46.4754 43.4954 47.6097 43.5978 48.7567C43.7533 50.4975 43.6822 52.2606 43.6891 54.0144C43.6959 55.766 43.7514 57.5159 43.6413 59.2658C43.5938 60.0212 43.527 60.7752 43.4853 61.5308C43.4683 62.9846 43.3812 64.4365 43.2246 65.8803C43.0862 66.7827 43.1029 67.6827 42.9955 68.5793C42.8087 70.1373 42.7833 71.7175 42.6217 73.28C42.3318 75.5132 42.1555 77.7623 42.0937 80.0169C42.0562 80.9496 41.9733 81.8795 41.8452 82.8026C41.7857 83.2243 41.7545 83.6501 41.752 84.0767C41.7881 85.199 41.6977 86.3219 41.6889 87.4455C41.6768 88.9755 41.4329 90.5059 41.3888 92.048C41.4639 92.6168 41.458 93.1947 41.3715 93.7615C41.116 94.5271 41.0316 95.3484 41.1253 96.1569C41.3158 98.8287 41.1422 101.491 41.1449 104.156C41.0562 104.837 41.0187 105.525 41.0327 106.213C41.1145 107.039 41.1191 107.87 41.0463 108.697C41.0214 109.735 40.7999 110.771 40.8097 111.806C40.8216 113.068 40.5666 114.296 40.5537 115.549C40.4861 115.936 40.4928 116.333 40.5732 116.717C40.7099 117.021 41.109 116.713 41.3924 116.705C42.6964 116.666 44.0071 116.659 45.3006 116.498C46.8148 116.309 48.329 116.159 49.8499 116.109C51.1466 116.067 52.4473 116.14 53.7424 116.073C54.8244 115.99 55.9096 115.968 56.9936 116.008C58.5448 116.106 60.0914 116.038 61.6375 116.068C63.9053 116.113 66.1775 116.007 68.4453 115.903C70.0593 115.829 71.6801 115.884 73.2844 115.766C75.2683 115.621 77.2565 115.558 79.2402 115.401C80.8564 115.273 82.4803 115.237 84.0999 115.109C86.0571 114.955 88.0235 114.938 89.9804 114.781C93.3474 114.512 96.7224 114.405 100.088 114.095C102.112 113.909 104.149 113.842 106.179 113.727C107.933 113.627 109.691 113.658 111.441 113.412C112.664 113.241 113.911 113.265 115.132 113.079C117.009 112.793 118.902 112.79 120.782 112.591C121.809 112.487 122.84 112.442 123.871 112.454C124.064 112.455 124.358 112.487 124.243 112.12C124.031 111.135 123.947 110.123 123.995 109.113C123.884 108.505 123.855 107.882 123.91 107.264C124.006 106.69 123.94 106.097 123.72 105.565C123.661 105.433 123.618 105.293 123.593 105.148C123.582 103.426 123.258 101.734 123.261 100.001C123.073 98.7604 123.008 97.5015 123.066 96.2458C123.31 94.9983 122.71 93.7552 123.096 92.4998C123.343 91.6933 123.131 90.7991 123.396 89.9863C123.632 88.9972 123.709 87.9706 123.622 86.9526C123.472 85.9921 123.461 85.0117 123.591 84.0475C124.037 82.788 123.564 81.6142 123.772 80.3978C123.965 79.2722 123.586 78.0384 124.122 76.917C124.148 76.8469 124.158 76.7714 124.153 76.6962C124.156 75.7284 124.112 74.7575 124.169 73.7937C124.25 72.4161 124.13 71.0377 124.214 69.6664C124.265 68.848 124.204 68.0415 124.212 67.2329C124.222 66.2021 124.226 65.1726 124.196 64.1426C124.168 63.1683 124.391 62.2189 124.437 61.2554C124.491 60.1321 125.038 59.1409 125.046 57.9942C125.084 57.1224 125.206 56.2574 125.41 55.4137C125.56 53.7747 125.61 52.1266 125.561 50.4803C125.564 49.6688 125.507 48.8584 125.39 48.057C125.242 46.461 125.275 44.8513 125.486 43.264C125.726 41.7833 125.917 40.2958 126.151 38.8157C126.397 36.9227 126.448 35.0056 126.301 33.1003C126.272 32.488 126.136 32.3024 125.563 32.313C125.134 32.3478 124.703 32.3504 124.273 32.321C121.565 31.9558 118.837 32.1386 116.124 31.9153C113.956 31.737 111.78 31.6754 109.609 31.5407C107.699 31.422 105.786 31.3349 103.875 31.2142C100.146 30.9787 96.4055 30.9409 92.6696 30.8244C90.9271 30.7701 89.179 30.9025 87.4448 30.8438C83.8972 30.7237 80.3515 30.8022 76.8066 30.8028C73.3781 30.8034 69.9503 31.0794 66.5207 31.1489C64.8407 31.1829 63.1535 31.1265 61.4748 31.1548C58.3427 31.2076 55.2064 31.0464 52.0777 31.323C50.7839 31.4374 49.4859 31.3843 48.1877 31.544C46.9379 31.6357 45.6847 31.6588 44.4328 31.6132C44.2246 31.6157 44.0536 31.5437 44.0285 31.3048C44.02 31.2481 44.0227 31.1902 44.0364 31.1349C44.0502 31.0795 44.0747 31.0279 44.1082 30.9838C44.1418 30.9397 44.1837 30.9041 44.231 30.8792C44.2783 30.8543 44.33 30.8408 44.3825 30.8397C44.8137 30.7819 45.2329 30.6639 45.6739 30.6412C46.8085 30.5829 47.9724 30.6241 49.0713 30.4446C51.4473 30.0565 53.8352 29.9943 56.217 29.837C58.7468 29.67 61.2874 29.6872 63.8236 29.6514C65.8409 29.623 67.8587 29.6816 69.8738 29.4989C70.5819 29.4347 71.2981 29.4838 72.0099 29.4607C73.7562 29.404 75.5018 29.3257 77.2482 29.2749C78.4039 29.2413 79.5621 29.1921 80.7159 29.2414C81.4895 29.2744 82.2594 29.1976 83.037 29.2587C83.6831 29.3358 84.334 29.3534 84.9828 29.3115C86.3459 29.1607 87.7036 29.2835 89.0598 29.255C90.2559 29.2299 91.4727 29.3235 92.6705 29.3375C95.095 29.3658 97.5087 29.6292 99.9298 29.623C101.536 29.6189 103.126 29.8397 104.724 29.9058C106.954 29.998 109.184 30.0633 111.414 30.1827C114.296 30.337 117.181 30.593 120.074 30.5051C120.349 30.4929 120.625 30.5066 120.898 30.5462C122.642 30.7592 124.397 30.8424 126.151 30.7951C126.417 30.7979 126.485 30.7008 126.522 30.4134C126.594 29.8578 126.399 29.3165 126.435 28.7999C126.517 27.6234 126.469 26.4514 126.458 25.2806C126.447 24.0831 126.479 22.8897 126.503 21.6624C125.466 21.5157 124.405 21.3295 123.339 21.2221C120.631 20.9495 117.914 20.8418 115.2 20.6823C114.533 20.643 113.881 20.7635 113.212 20.7C111.938 20.5793 110.655 20.5562 109.375 20.53C106.929 20.4798 104.482 20.4658 102.035 20.4132C101.484 20.4014 100.939 20.4311 100.39 20.4691C100.105 20.4887 100.02 20.5766 99.9771 20.8996C99.7875 22.2755 99.7934 23.6751 99.9944 25.0491C100.085 25.652 99.8921 26.2136 99.4672 26.2228C98.9139 26.2349 98.729 25.8102 98.6329 25.2666C98.3924 23.801 98.2919 22.3121 98.3329 20.8238C98.3373 20.5216 98.2474 20.4305 97.9672 20.3529C97.3542 20.2805 96.7355 20.2888 96.1243 20.3778C94.9174 20.353 93.7114 20.2749 92.5046 20.2564C91.1085 20.235 89.7117 20.2676 88.3154 20.2524C86.1487 20.2287 83.9819 20.201 81.8159 20.1415C80.8323 20.1672 79.8483 20.1355 78.8678 20.0467C77.9734 19.9179 77.0644 19.9126 76.163 19.8362C75.8975 19.8137 75.7897 19.8772 75.8049 20.1978C75.853 20.7827 75.8555 21.371 75.8125 21.9564C75.7082 23.2376 75.7477 24.5279 75.9302 25.7986C76.0171 26.5645 75.8137 26.9807 75.2846 27.0356C74.5958 27.1071 74.5163 26.517 74.4579 26.0048C74.2614 25.0453 74.1392 24.0694 74.0927 23.0875C74.1219 22.2349 73.9406 21.3496 74.0343 20.4735C74.0975 19.884 73.9072 19.6481 73.3477 19.6872C72.381 19.7916 71.4091 19.8245 70.4384 19.7858C68.7862 19.6558 67.1466 19.8807 65.5022 19.9057C62.6112 19.9498 59.7285 20.3138 56.8483 20.6261C56.392 20.6755 55.9312 20.6747 55.4732 20.7089C55.323 20.7201 55.0928 20.7009 55.1328 20.9594C55.2244 21.5519 54.9889 22.1121 55.0837 22.7245C55.218 23.8277 55.4035 24.9227 55.6394 26.0053C55.6843 26.1771 55.675 26.3606 55.613 26.5259C55.551 26.6912 55.4399 26.8288 55.2976 26.9168C54.9843 27.1034 54.7665 26.8373 54.6064 26.598C54.0529 25.7346 53.6866 24.7447 53.5351 23.7034C53.4144 22.9558 53.4157 22.1592 53.3286 21.3802C53.2662 20.8221 53.0827 20.8299 52.7692 20.8493C51.72 20.8598 50.6725 20.9455 49.6335 21.1057C47.3345 21.5842 45.0031 21.4836 42.6648 21.7559H42.6648ZM64.7634 18.3483C64.4157 18.1987 64.3326 17.9554 64.1834 17.6509C63.8593 16.9891 64.101 16.238 63.7584 15.5916C63.3583 14.8367 63.3606 13.9183 62.9182 13.1297C62.7363 12.8055 62.5986 12.259 62.4176 11.8414C62.3028 11.5751 62.1189 11.3515 61.8887 11.1986C61.6585 11.0457 61.3923 10.9701 61.1231 10.9815C60.2402 11.1383 59.4267 11.6014 58.8029 12.3022C57.7285 13.3421 56.8162 14.5663 56.1016 15.9265C55.6206 16.9446 55.286 18.0375 55.1097 19.167C58.3696 18.8993 61.5324 18.3249 64.7633 18.3482L64.7634 18.3483Z" fill="#212222"/>
<path d="M42.6647 21.7562C45.003 21.4839 47.3344 21.5845 49.6333 21.1058C50.6723 20.9456 51.7198 20.8599 52.769 20.8494C53.0826 20.83 53.266 20.8222 53.3284 21.3802C53.4155 22.1592 53.4142 22.9559 53.5349 23.7035C53.6863 24.7448 54.0527 25.7347 54.6062 26.5981C54.7663 26.8373 54.9841 27.1034 55.2975 26.9169C55.4398 26.8289 55.5508 26.6913 55.6128 26.526C55.6748 26.3607 55.6841 26.1772 55.6392 26.0054C55.4033 24.9228 55.2178 23.8278 55.0835 22.7246C54.9888 22.1122 55.2242 21.552 55.1326 20.9595C55.0926 20.7011 55.3229 20.7202 55.473 20.709C55.931 20.6748 56.3918 20.6756 56.8481 20.6262C59.7283 20.3139 62.6111 19.9501 65.502 19.906C67.1464 19.8809 68.7859 19.6559 70.4382 19.7859C71.4089 19.8246 72.3809 19.7917 73.3475 19.6872C73.9071 19.6482 74.0973 19.8841 74.0341 20.4736C73.9403 21.3497 74.1217 22.235 74.0925 23.0876C74.139 24.0695 74.2612 25.0454 74.4577 26.0049C74.5161 26.5171 74.5957 27.1072 75.2844 27.0357C75.8134 26.9807 76.0169 26.5646 75.93 25.7986C75.7475 24.528 75.708 23.2377 75.8123 21.9565C75.8554 21.3711 75.8528 20.7828 75.8047 20.1978C75.7895 19.8773 75.8973 19.8138 76.1628 19.8363C77.0641 19.9126 77.9731 19.918 78.8676 20.0468C79.848 20.1356 80.8321 20.1673 81.8156 20.1416C83.9816 20.201 86.1486 20.2288 88.3152 20.2524C89.7115 20.2677 91.1083 20.2351 92.5044 20.2565C93.7113 20.275 94.9172 20.3531 96.1241 20.3779C96.7352 20.2889 97.354 20.2807 97.967 20.3532C98.2472 20.4308 98.3371 20.5217 98.3327 20.8239C98.2917 22.3122 98.3922 23.8012 98.6327 25.2668C98.7287 25.8104 98.9137 26.235 99.467 26.2229C99.8919 26.2136 100.085 25.6521 99.9943 25.0492C99.7932 23.6752 99.7873 22.2756 99.9769 20.8997C100.02 20.5767 100.105 20.4889 100.39 20.4692C100.938 20.4313 101.483 20.4015 102.035 20.4133C104.482 20.4659 106.929 20.4798 109.375 20.5301C110.655 20.5563 111.938 20.5794 113.212 20.7001C113.881 20.7636 114.532 20.6432 115.2 20.6824C117.914 20.8419 120.631 20.9496 123.338 21.2222C124.405 21.3295 125.465 21.5158 126.503 21.6625C126.478 22.8898 126.446 24.0832 126.458 25.2807C126.469 26.4515 126.517 27.6236 126.435 28.8C126.399 29.3166 126.593 29.8579 126.522 30.4135C126.485 30.7009 126.417 30.798 126.151 30.7952C124.397 30.8425 122.642 30.7593 120.898 30.5463C120.625 30.5067 120.349 30.493 120.073 30.5052C117.181 30.593 114.296 30.3371 111.414 30.1828C109.184 30.0634 106.954 29.9981 104.724 29.9059C103.125 29.8398 101.536 29.619 99.9297 29.6231C97.5085 29.6293 95.0948 29.3658 92.6703 29.3376C91.4725 29.3235 90.2557 29.23 89.0596 29.2551C87.7034 29.2836 86.3457 29.1607 84.9826 29.3115C84.3338 29.3535 83.6829 29.3359 83.0368 29.2588C82.2592 29.1977 81.4892 29.2745 80.7157 29.2414C79.5619 29.1922 78.4037 29.2414 77.248 29.275C75.5016 29.3258 73.7559 29.4041 72.0098 29.4608C71.2979 29.4839 70.5817 29.4348 69.8736 29.499C67.8586 29.6816 65.8406 29.6231 63.8234 29.6515C61.2872 29.6872 58.7466 29.67 56.2168 29.8371C53.835 29.9943 51.4471 30.0565 49.0712 30.4447C47.9723 30.6242 46.8083 30.583 45.6736 30.6413C45.2327 30.664 44.8135 30.782 44.3822 30.8398C44.3297 30.8409 44.2781 30.8544 44.2308 30.8793C44.1835 30.9041 44.1416 30.9398 44.108 30.9839C44.0745 31.028 44.05 31.0796 44.0362 31.1349C44.0225 31.1903 44.0198 31.2482 44.0284 31.3048C44.0534 31.5438 44.2245 31.6158 44.4326 31.6133C45.6845 31.6589 46.9377 31.6358 48.1875 31.5441C49.4857 31.3844 50.7838 31.4375 52.0776 31.3231C55.2062 31.0464 58.3426 31.2076 61.4746 31.1549C63.1534 31.1266 64.8405 31.183 66.5205 31.149C69.9501 31.0795 73.3778 30.8036 76.8064 30.8029C80.3513 30.8023 83.897 30.7238 87.4446 30.8439C89.1788 30.9025 90.9269 30.7702 92.6694 30.8245C96.4053 30.941 100.146 30.9787 103.875 31.2143C105.786 31.3349 107.698 31.4221 109.609 31.5408C111.78 31.6756 113.956 31.7371 116.123 31.9154C118.837 32.1387 121.565 31.9559 124.273 32.321C124.703 32.3505 125.134 32.3478 125.563 32.3131C126.136 32.3025 126.272 32.4881 126.301 33.1004C126.447 35.0057 126.397 36.9228 126.151 38.8158C125.917 40.2958 125.725 41.7834 125.486 43.264C125.274 44.8514 125.242 46.4611 125.39 48.0571C125.507 48.8585 125.564 49.6689 125.561 50.4804C125.61 52.1267 125.56 53.7747 125.41 55.4138C125.206 56.2575 125.084 57.1225 125.046 57.9942C125.038 59.141 124.491 60.1324 124.437 61.2557C124.39 62.2192 124.168 63.1683 124.196 64.1427C124.225 65.1727 124.222 66.2022 124.211 67.233C124.203 68.0415 124.265 68.8481 124.214 69.6664C124.13 71.0378 124.249 72.4162 124.168 73.7938C124.112 74.7576 124.156 75.7285 124.153 76.6963C124.158 76.7714 124.147 76.847 124.122 76.9171C123.586 78.0385 123.964 79.2723 123.772 80.3979C123.563 81.6143 124.036 82.788 123.591 84.0476C123.461 85.0117 123.472 85.9922 123.622 86.9527C123.709 87.9707 123.632 88.9973 123.395 89.9864C123.13 90.7992 123.343 91.6934 123.095 92.4999C122.71 93.7554 123.31 94.9985 123.066 96.2459C123.007 97.5015 123.073 98.7605 123.261 100.001C123.258 101.734 123.582 103.426 123.593 105.148C123.618 105.293 123.661 105.433 123.719 105.565C123.94 106.097 124.006 106.69 123.91 107.265C123.855 107.882 123.884 108.505 123.995 109.113C123.947 110.123 124.031 111.136 124.243 112.12C124.358 112.487 124.064 112.456 123.87 112.454C122.839 112.442 121.809 112.487 120.782 112.591C118.902 112.79 117.009 112.793 115.132 113.079C113.911 113.264 112.664 113.241 111.441 113.413C109.69 113.658 107.933 113.627 106.179 113.727C104.149 113.842 102.112 113.908 100.088 114.095C96.7222 114.405 93.3472 114.512 89.9802 114.782C88.0233 114.938 86.0569 114.955 84.0997 115.11C82.4801 115.237 80.8562 115.273 79.24 115.401C77.2563 115.558 75.2681 115.621 73.2842 115.766C71.6798 115.884 70.0591 115.829 68.445 115.903C66.1772 116.007 63.9051 116.113 61.6373 116.068C60.0912 116.038 58.5446 116.105 56.9934 116.008C55.9094 115.968 54.8242 115.99 53.7422 116.073C52.4471 116.14 51.1464 116.067 49.8496 116.109C48.3288 116.159 46.8145 116.31 45.3004 116.498C44.0069 116.659 42.6962 116.666 41.3922 116.705C41.1088 116.713 40.7097 117.022 40.573 116.717C40.4926 116.334 40.4859 115.936 40.5535 115.549C40.5664 114.297 40.8214 113.068 40.8095 111.806C40.7996 110.771 41.0212 109.735 41.0461 108.697C41.1189 107.871 41.1143 107.039 41.0325 106.213C41.0185 105.525 41.056 104.837 41.1447 104.156C41.1419 101.491 41.3156 98.8287 41.125 96.157C41.0314 95.3485 41.1158 94.5274 41.3713 93.7618C41.4578 93.1949 41.4637 92.6169 41.3887 92.0481C41.4328 90.506 41.6767 88.9756 41.6887 87.4456C41.6975 86.322 41.788 85.1991 41.7518 84.0768C41.7544 83.6501 41.7855 83.2244 41.845 82.8027C41.9731 81.8796 42.056 80.9497 42.0936 80.017C42.1553 77.7624 42.3316 75.5132 42.6215 73.28C42.7831 71.7176 42.8085 70.1373 42.9953 68.5794C43.1028 67.6828 43.086 66.7828 43.2244 65.8804C43.3811 64.4366 43.468 62.9847 43.4851 61.5309C43.5268 60.7752 43.5936 60.0213 43.6411 59.2659C43.7512 57.516 43.6957 55.7662 43.6889 54.0147C43.6821 52.2608 43.7532 50.4978 43.5976 48.757C43.4952 47.61 43.6009 46.4754 43.5965 45.3448C43.5896 43.5757 43.4055 41.8119 43.5021 40.0385C43.5772 38.6599 43.1622 37.3058 43.2514 35.9099C43.3554 34.2829 43.1303 32.6573 43.1484 31.0315C43.1543 30.4946 42.6835 30.2791 42.7204 29.6854C42.8363 27.8224 42.667 25.9491 42.8722 24.0761C42.883 23.2968 42.8133 22.5185 42.6647 21.7562ZM75.4039 71.5538C75.5391 71.9051 75.4736 72.1943 75.2271 72.3083C74.023 72.9972 72.9993 74.0099 72.2525 75.251C71.1044 76.8932 70.4271 78.8704 70.3062 80.933C70.214 81.4686 70.2389 82.0204 70.3791 82.5435C70.5192 83.0666 70.7705 83.5462 71.1125 83.9429C71.5891 84.4166 71.9499 85.0967 72.5842 85.3029C73.8463 85.8239 75.1651 86.1628 76.5074 86.311C77.7762 86.4429 79.053 86.4546 80.3237 86.3462C82.7245 85.993 84.9987 84.9583 86.9197 83.345C87.5381 82.8594 88.0494 82.2291 88.4164 81.4998C88.7833 80.7706 88.9965 79.9608 89.0404 79.1299C89.0844 78.299 88.958 77.4678 88.6704 76.6972C88.3828 75.9266 87.9413 75.2359 87.3783 74.6757C87.041 74.3418 86.6953 73.9225 87.1229 73.3452C87.7896 72.4449 88.1165 71.322 88.8004 70.4087C89.6029 69.3372 90.1801 68.0794 90.9994 66.9971C92.0482 65.6115 93.0354 64.1672 94.1795 62.8734C94.4551 62.5619 94.7903 62.2527 94.5853 61.8936C94.4796 61.6532 94.2932 61.4664 94.0648 61.3723C93.8365 61.2781 93.5837 61.2838 93.3591 61.388C92.5668 61.9222 91.8434 62.5695 91.208 63.313C90.5865 63.8916 90.3212 64.8026 89.7168 65.3688C89.0998 66.0539 88.5524 66.81 88.0842 67.6237C87.1298 69.1332 86.2608 70.705 85.4819 72.3304C85.3233 72.6284 85.1796 72.6114 84.9359 72.4479C84.2073 71.8634 83.3703 71.461 82.4838 71.2689C81.3524 70.8797 80.1365 70.8983 79.0156 71.3222C78.4914 71.6232 77.8718 71.279 77.3253 71.5454C77.242 71.586 77.1329 71.4519 77.1546 71.3622C77.2778 70.8547 76.8931 70.3972 77.0327 69.9044C77.1083 69.444 77.102 68.9719 77.0141 68.5141C76.9929 68.1949 76.8276 67.7145 76.4196 67.6977C75.9991 67.6803 75.7686 68.0371 75.7218 68.4741C75.6734 69.5068 75.5672 70.5353 75.4039 71.5538ZM61.5164 58.7646C62.4962 58.8603 63.4838 58.7585 64.43 58.4641C65.431 58.1658 66.3631 57.6395 67.1649 56.9198C67.9668 56.2 68.6204 55.303 69.0827 54.2877C69.682 52.8808 70.136 51.4056 70.4363 49.8888C70.5008 49.5443 70.3044 49.2911 70.3669 48.9536C70.4981 48.1793 70.44 47.3808 70.1982 46.639C69.9565 45.8971 69.5399 45.2383 68.9904 44.729C68.5878 44.2058 68.1383 43.7278 67.6488 43.3022C66.917 42.5422 65.9409 42.1277 64.9316 42.1486C64.7834 42.1535 64.6403 42.2093 64.5228 42.3082C64.4052 42.407 64.3192 42.544 64.2769 42.6994C64.2587 42.8747 64.2952 43.0514 64.3805 43.2011C64.4657 43.3509 64.5948 43.4648 64.7467 43.5243C66.3088 44.3542 67.6148 45.6653 68.5041 47.296C68.5673 47.3842 68.6138 47.4851 68.641 47.5932C68.6681 47.7012 68.6753 47.8141 68.6622 47.9252C68.4736 48.4429 68.7152 48.958 68.6089 49.4498C68.5171 49.8743 68.7445 50.2359 68.6705 50.6739C68.4258 51.6316 68.1015 52.563 67.7018 53.4563C67.43 54.2103 67.0211 54.8963 66.4998 55.4727C65.9786 56.049 65.3558 56.5037 64.6691 56.8094C62.9017 57.6071 60.9213 57.6316 59.1379 56.8775C57.4301 56.3654 55.8392 55.4686 54.467 54.2451C53.9457 53.8494 53.5536 53.2824 53.3479 52.6262C53.1421 51.9701 53.1334 51.2591 53.323 50.5971C53.6913 49.3127 54.2101 48.0858 54.8665 46.9468C55.5686 45.7881 56.3799 44.7129 57.2871 43.7392C58.046 42.8817 58.9874 42.2431 60.0272 41.8802C60.2672 41.7914 60.5583 41.8597 60.524 41.4478C60.49 41.0385 60.1858 41.1286 59.9458 41.0935C59.1214 41.0959 58.3239 41.4137 57.6915 41.9918C56.4767 42.709 55.4255 43.7164 54.6161 44.9391C53.6463 46.3482 52.812 47.8627 52.1263 49.4588C51.6139 50.462 51.4772 51.6432 51.7447 52.7542C52.0122 53.8653 52.6632 54.8198 53.561 55.4173C54.7809 56.3766 56.1061 57.1646 57.5056 57.7629C58.7821 58.3386 60.1377 58.6772 61.5164 58.7646ZM82.8894 41.9866C82.4914 42.1217 82.0451 42.0069 81.5837 42.1093C80.4947 42.4816 79.4909 43.1037 78.6393 43.9338C78.2904 44.1907 77.9731 44.4954 77.695 44.8405C76.7853 46.1286 76.2407 47.6797 76.1285 49.3024C75.7229 52.4446 77.2592 54.3091 79.3693 55.7447C80.2685 56.3599 81.2711 56.7725 82.3183 56.9581C83.4295 57.2445 84.5811 57.2923 85.709 57.0987C86.3233 56.948 86.9183 56.7043 87.5227 56.5051C87.8751 56.4189 88.2126 56.2717 88.5225 56.0692C90.1455 54.8243 91.4079 53.0968 92.1599 51.0915C92.671 49.8595 92.7584 48.4672 92.406 47.1704C92.2461 46.5892 91.9839 46.0478 91.634 45.5765C90.8815 44.4982 89.9526 43.5817 88.8945 42.8735C87.5924 42.0424 86.0918 41.6584 84.5875 41.7712C84.0302 41.9093 83.4609 41.9815 82.8894 41.9866ZM105.317 56.8039C106.849 56.7471 108.357 56.3624 109.754 55.6713C110.765 55.213 111.637 54.4508 112.268 53.4733C112.9 52.4957 113.265 51.3426 113.322 50.1476C113.356 49.7749 113.211 49.3482 113.33 49.0253C113.417 48.6846 113.432 48.327 113.374 47.9789C113.317 47.6308 113.188 47.3014 112.998 47.0153C112.596 46.1712 112.106 45.3802 111.539 44.6578C110.934 43.8592 110.153 43.2408 109.271 42.8604C108.388 42.4801 107.431 42.35 106.49 42.4823C106.169 42.5119 105.846 42.4921 105.531 42.4233C104.772 42.1384 103.954 42.1059 103.178 42.3297C101.735 42.8224 100.42 43.684 99.3418 44.843C98.5421 45.9403 97.9976 47.2328 97.7549 48.6103C97.6431 49.5127 97.6448 50.4277 97.76 51.3296C97.8038 52.3639 98.1272 53.3606 98.6893 54.194C99.2514 55.0273 100.027 55.6598 100.918 56.0113C102.311 56.6358 103.814 56.9068 105.317 56.8039ZM101.519 84.7095C103.495 84.7474 105.452 84.2704 107.226 83.3181C108.362 82.915 109.371 82.1709 110.137 81.1709C110.904 80.171 111.399 78.9554 111.563 77.663C111.618 77.014 111.554 76.3595 111.375 75.7378C111.196 75.1161 110.906 74.5394 110.521 74.0415C109.904 73.1595 109.122 72.4313 108.228 71.9052C107.091 71.1713 105.839 70.6769 104.535 70.448C103.074 70.3533 101.608 70.3832 100.152 70.5375C99.8783 70.5175 99.6039 70.5473 99.3396 70.6256C98.1281 71.0449 97.0348 71.7958 96.1637 72.8071C95.2926 73.8184 94.6725 75.0563 94.3624 76.4033C94.0314 77.5286 93.9527 78.7244 94.1327 79.8899C94.3268 80.8698 94.7664 81.7714 95.4024 82.4937C96.0385 83.2161 96.8459 83.7307 97.7343 83.9801C98.9505 84.449 100.229 84.6955 101.519 84.7095ZM58.9341 86.8262C59.7602 86.8481 60.5776 86.638 61.3081 86.2158C63.0796 85.4031 64.5068 83.8922 65.3066 81.9828C65.5145 81.5214 65.6362 81.0168 65.8149 80.5646C66.0274 80.0267 65.775 79.5811 65.8675 79.0851C66.1782 77.9032 66.0899 76.6385 65.6188 75.5218C65.1629 74.5508 64.5459 73.6809 63.7991 72.9565C63.0657 72.3493 62.2789 71.8234 61.4504 71.3864C60.6183 70.8801 59.6675 71.3158 58.89 70.7029C58.6785 70.5362 58.2323 70.7667 57.8971 70.8106C54.9338 71.1992 52.9278 73.2873 51.0037 75.4681C50.3428 76.2717 49.8662 77.2354 49.6131 78.2799C49.3685 79.1529 49.3112 80.0757 49.4455 80.9769C49.6854 81.9622 50.2248 82.829 50.9752 83.4347C52.0328 84.5439 53.2802 85.4144 54.6458 85.9963C56.0115 86.5782 57.4687 86.8603 58.9341 86.8262Z" fill="white"/>
<path d="M64.7635 18.3483C61.5325 18.325 58.3698 18.8994 55.1099 19.1671C55.2861 18.0376 55.6207 16.9447 56.1018 15.9266C56.8163 14.5664 57.7287 13.3422 58.8031 12.3023C59.4269 11.6015 60.2403 11.1385 61.1232 10.9816C61.3924 10.9702 61.6587 11.0456 61.8888 11.1985C62.119 11.3514 62.303 11.5752 62.4177 11.8416C62.5988 12.2591 62.7365 12.8056 62.9184 13.1298C63.3608 13.9184 63.3584 14.8366 63.7585 15.5915C64.1012 16.238 63.8594 16.9892 64.1835 17.651C64.3327 17.9555 64.4158 18.1987 64.7635 18.3483Z" fill="white"/>
<path d="M75.4041 71.5537C75.5675 70.5352 75.6737 69.5067 75.7221 68.4739C75.7689 68.037 75.9994 67.6802 76.4199 67.6975C76.8279 67.7144 76.9933 68.1948 77.0145 68.514C77.1023 68.9718 77.1086 69.4439 77.033 69.9043C76.8934 70.3971 77.2781 70.8546 77.155 71.3621C77.1332 71.4518 77.2423 71.5858 77.3256 71.5452C77.8721 71.2789 78.4918 71.6231 79.016 71.322C80.1369 70.8981 81.3528 70.8795 82.4842 71.2687C83.3706 71.4609 84.2076 71.8633 84.9362 72.4478C85.1799 72.6113 85.3235 72.6282 85.4823 72.3303C86.2611 70.7049 87.1301 69.1331 88.0845 67.6236C88.5527 66.8099 89.1001 66.0537 89.7171 65.3687C90.3215 64.8025 90.5869 63.8914 91.2083 63.3129C91.8437 62.5694 92.5672 61.922 93.3594 61.3878C93.5841 61.2837 93.8368 61.278 94.0651 61.3722C94.2935 61.4663 94.4799 61.653 94.5856 61.8935C94.7906 62.2526 94.4553 62.5617 94.1798 62.8733C93.0357 64.1671 92.0486 65.6114 90.9997 66.997C90.1804 68.0792 89.6032 69.337 88.8007 70.4086C88.1168 71.3219 87.79 72.4448 87.1233 73.345C86.6957 73.9224 87.0413 74.3417 87.3785 74.6756C87.9416 75.2358 88.3831 75.9264 88.6707 76.6971C88.9583 77.4677 89.0847 78.2989 89.0408 79.1298C88.9968 79.9607 88.7836 80.7704 88.4167 81.4997C88.0497 82.229 87.5384 82.8593 86.92 83.3449C84.999 84.9581 82.7248 85.9929 80.324 86.3461C79.0534 86.4545 77.7765 86.4428 76.5077 86.3109C75.1655 86.1627 73.8466 85.8238 72.5845 85.3028C71.9502 85.0966 71.5894 84.4165 71.1129 83.9427C70.7709 83.5461 70.5195 83.0665 70.3794 82.5434C70.2393 82.0203 70.2143 81.4685 70.3065 80.9329C70.4274 78.8703 71.1047 76.8931 72.2528 75.2509C72.9996 74.0098 74.0234 72.9971 75.2274 72.3082C75.4739 72.1942 75.5394 71.905 75.4041 71.5537ZM75.4 73.5363C74.907 73.888 74.461 74.3129 74.075 74.7988C72.6096 76.6095 71.8091 78.9489 71.8279 81.3664C71.8035 81.9334 71.9414 82.4947 72.2224 82.9721C72.5035 83.4495 72.9136 83.8194 73.3959 84.0302C74.3594 84.5218 75.3865 84.8485 76.4409 84.9988C77.323 85.1105 78.2113 85.1537 79.0989 85.1281C80.5525 85.1086 81.9851 84.746 83.2985 84.065C85.0225 83.1518 86.6201 82.2119 87.3055 80.0308C87.473 79.3087 87.4628 78.551 87.2759 77.8346C87.089 77.1183 86.732 76.4687 86.2413 75.9518C85.9251 75.7129 85.7489 75.7883 85.6426 76.1121C85.1013 77.431 84.375 78.6496 83.49 79.7237C83.0127 80.4547 82.3326 80.9979 81.5504 81.273C80.9362 81.4931 80.285 81.5621 79.6435 81.4748C79.0021 81.3875 78.3862 81.1462 77.8401 80.7681C77.2358 80.421 76.7375 79.8884 76.4064 79.2358C75.6878 77.4413 75.344 75.4942 75.3999 73.5363H75.4ZM78.6591 72.4932C78.1328 72.4477 77.6058 72.5706 77.1423 72.847C76.968 72.9905 77.1472 73.5806 77.0714 73.9442C76.8665 75.633 77.2763 77.3423 78.2126 78.7042C78.4291 79.1612 78.7728 79.5312 79.1942 79.761C79.6155 79.9907 80.0927 80.0683 80.5569 79.9825C81.3976 79.8528 81.9388 78.9936 82.3014 78.1314C82.5611 77.3708 82.9617 76.6768 83.4781 76.0931C84.0199 75.5799 83.8992 74.7315 84.4814 74.316C84.5763 74.2483 84.494 74.1239 84.4189 74.0733C83.734 73.5056 82.9568 73.0849 82.1285 72.8335C81.0024 72.6209 79.8459 72.6003 78.6591 72.4932H78.6591Z" fill="#212222"/>
<path d="M61.5163 58.7643C60.1377 58.6769 58.7821 58.3384 57.5055 57.7627C56.106 57.1644 54.7808 56.3763 53.561 55.4171C52.6632 54.8196 52.0122 53.8651 51.7447 52.754C51.4771 51.6429 51.6139 50.4618 52.1263 49.4586C52.8119 47.8625 53.6463 46.348 54.6161 44.9389C55.4255 43.7162 56.4767 42.7088 57.6915 41.9916C58.3239 41.4135 59.1214 41.0957 59.9458 41.0933C60.1858 41.1284 60.49 41.0382 60.524 41.4476C60.5583 41.8594 60.2672 41.7912 60.0271 41.88C58.9874 42.2428 58.046 42.8815 57.2871 43.739C56.3798 44.7127 55.5685 45.7879 54.8664 46.9466C54.2101 48.0856 53.6912 49.3124 53.3229 50.5969C53.1333 51.2589 53.1421 51.9698 53.3478 52.626C53.5536 53.2822 53.9457 53.8492 54.467 54.2448C55.8392 55.4684 57.4301 56.3651 59.1379 56.8773C60.9213 57.6313 62.9016 57.6069 64.6691 56.8092C65.3557 56.5035 65.9785 56.0488 66.4998 55.4724C67.021 54.8961 67.4299 54.2101 67.7017 53.4561C68.1015 52.5628 68.4258 51.6314 68.6704 50.6737C68.7445 50.2357 68.5171 49.8741 68.6088 49.4496C68.7152 48.9578 68.4736 48.4427 68.6622 47.925C68.6753 47.8139 68.6681 47.701 68.6409 47.593C68.6138 47.4849 68.5672 47.384 68.504 47.2958C67.6148 45.6651 66.3088 44.354 64.7467 43.5241C64.5948 43.4646 64.4657 43.3507 64.3804 43.2009C64.2952 43.0512 64.2587 42.8745 64.2769 42.6992C64.3191 42.5438 64.4052 42.4068 64.5227 42.3079C64.6402 42.2091 64.7833 42.1532 64.9316 42.1484C65.9408 42.1275 66.917 42.542 67.6487 43.302C68.1383 43.7276 68.5877 44.2056 68.9903 44.7288C69.5398 45.2381 69.9565 45.8969 70.1982 46.6387C70.4399 47.3806 70.4981 48.1791 70.3669 48.9534C70.3044 49.2909 70.5007 49.544 70.4363 49.8886C70.136 51.4053 69.682 52.8806 69.0827 54.2874C68.6203 55.3028 67.9668 56.1998 67.1649 56.9195C66.3631 57.6393 65.431 58.1656 64.43 58.4638C63.4838 58.7582 62.4962 58.8601 61.5163 58.7643Z" fill="#212222"/>
<path d="M82.8896 41.9864C83.4611 41.9812 84.0304 41.9089 84.5877 41.7708C86.092 41.6579 87.5926 42.0421 88.8947 42.8733C89.9528 43.5814 90.8817 44.4978 91.6342 45.576C91.9841 46.0473 92.2463 46.5889 92.4062 47.1701C92.7586 48.4669 92.6712 49.859 92.1601 51.0911C91.4081 53.0964 90.1457 54.8241 88.5227 56.0689C88.2128 56.2714 87.8753 56.4185 87.5229 56.5046C86.9185 56.7039 86.3235 56.9476 85.7093 57.0982C84.5813 57.2918 83.4297 57.2441 82.3185 56.9577C81.2713 56.772 80.2687 56.3595 79.3695 55.7443C77.2594 54.3087 75.7231 52.4443 76.1287 49.3021C76.2409 47.6795 76.7855 46.1283 77.6952 44.8402C77.9733 44.4951 78.2906 44.1903 78.6395 43.9334C79.4911 43.1033 80.4949 42.4814 81.5839 42.1091C82.0452 42.0067 82.4916 42.1214 82.8896 41.9864ZM83.7633 55.7956C84.8704 55.9276 85.9891 55.7183 86.9929 55.1911C87.9967 54.6639 88.8453 53.8401 89.4428 52.8128C90.3084 51.7418 90.7779 50.3566 90.76 48.9277C90.7207 48.6343 90.9881 48.3656 90.8109 48.0093C90.3268 46.8392 89.612 45.8008 88.7178 44.968C87.9966 44.2598 87.1387 43.7381 86.2078 43.442C85.4441 43.2335 84.658 43.1388 83.871 43.1607C82.672 43.1376 81.4969 43.5293 80.5137 44.2798C79.599 44.9012 78.851 45.7762 78.3458 46.816C77.8406 47.8557 77.5962 49.0231 77.6375 50.1995C77.6925 50.9058 77.8782 51.5924 78.1832 52.2179C78.4882 52.8434 78.9062 53.3947 79.4119 53.8384C80.6175 55.0111 82.1518 55.7011 83.7633 55.7956Z" fill="#212222"/>
<path d="M105.317 56.8037C103.815 56.9066 102.311 56.6356 100.918 56.0111C100.027 55.6597 99.2515 55.0273 98.6893 54.194C98.1272 53.3606 97.8038 52.3638 97.76 51.3295C97.6449 50.4276 97.6432 49.5126 97.755 48.6101C97.9977 47.2326 98.5422 45.9401 99.3419 44.8429C100.42 43.6839 101.735 42.8223 103.178 42.3296C103.954 42.1057 104.772 42.1382 105.531 42.4231C105.846 42.4919 106.169 42.5119 106.49 42.4823C107.431 42.35 108.388 42.4801 109.271 42.8605C110.153 43.2408 110.934 43.859 111.539 44.6577C112.106 45.38 112.596 46.1711 112.998 47.0151C113.189 47.3012 113.317 47.6307 113.374 47.9787C113.432 48.3268 113.417 48.6845 113.33 49.0252C113.211 49.3481 113.356 49.7747 113.322 50.1474C113.265 51.3425 112.9 52.4955 112.268 53.4731C111.637 54.4507 110.765 55.2128 109.754 55.6712C108.357 56.3622 106.849 56.747 105.317 56.8037ZM105.082 55.409C106.569 55.4221 108.033 55.0043 109.324 54.1984C109.929 53.8352 110.447 53.3208 110.836 52.6971C111.225 52.0733 111.473 51.358 111.56 50.6095C111.6 49.6324 111.469 48.656 111.175 47.7321C110.943 46.8286 110.487 46.0129 109.857 45.3752C109.227 44.7375 108.448 44.3026 107.607 44.1187C106.996 44.0261 106.389 43.9036 105.776 43.8348C105.342 43.7861 105.087 43.3587 104.602 43.3478C103.337 43.4132 102.146 44.012 101.278 45.0183C100.548 45.741 99.9912 46.6477 99.6554 47.6594C99.3196 48.6711 99.215 49.7574 99.3508 50.8233C99.4025 51.6255 99.648 52.3983 100.062 53.063C100.476 53.7278 101.044 54.2608 101.708 54.6074C102.775 55.1105 103.921 55.3827 105.082 55.409Z" fill="#212222"/>
<path d="M101.519 84.7093C100.229 84.6953 98.9506 84.4488 97.7344 83.9799C96.846 83.7305 96.0386 83.2159 95.4025 82.4935C94.7665 81.7711 94.3268 80.8696 94.1328 79.8897C93.9527 78.7242 94.0315 77.5284 94.3625 76.4031C94.6726 75.0561 95.2927 73.8182 96.1638 72.8069C97.0349 71.7956 98.1282 71.0447 99.3397 70.6254C99.604 70.5471 99.8784 70.5173 100.152 70.5373C101.609 70.383 103.074 70.3531 104.535 70.4478C105.839 70.6767 107.091 71.1711 108.228 71.905C109.122 72.4311 109.904 73.1593 110.521 74.0413C110.906 74.5392 111.196 75.1159 111.375 75.7376C111.554 76.3593 111.618 77.0136 111.564 77.6626C111.399 78.955 110.905 80.1707 110.138 81.1707C109.371 82.1707 108.362 82.9148 107.226 83.3179C105.452 84.2702 103.495 84.7472 101.519 84.7093ZM102.224 83.3426C103.269 83.473 104.326 83.276 105.273 82.7743C107.225 81.7775 109.254 80.9173 109.854 78.2915C110.021 77.8241 110.081 77.3194 110.03 76.821C109.978 76.3225 109.817 75.8452 109.559 75.4303C108.482 73.8663 106.951 72.7486 105.217 72.2607C104.068 71.9267 102.869 71.844 101.69 72.0172C100.957 72.1327 100.164 72.5936 99.529 71.7278C99.514 71.7073 99.3996 71.7446 99.3535 71.785C98.8951 72.1868 98.3105 72.3457 97.8651 72.7967C97.1524 73.4865 96.5721 74.3241 96.1578 75.261C95.7436 76.1978 95.5037 77.2152 95.4521 78.2542C95.3326 79.0673 95.461 79.9006 95.8176 80.626C96.1742 81.3514 96.7391 81.9285 97.4253 82.2683C98.9282 83.0239 100.57 83.3917 102.224 83.3428V83.3426Z" fill="#212222"/>
<path d="M58.934 86.826C57.4686 86.8601 56.0113 86.5781 54.6457 85.9961C53.28 85.4142 52.0326 84.5437 50.975 83.4345C50.2246 82.8288 49.6852 81.962 49.4454 80.9767C49.311 80.0756 49.3683 79.1527 49.6129 78.2797C49.866 77.2352 50.3426 76.2713 51.0034 75.4678C52.9275 73.2869 54.9336 71.1988 57.8969 70.8103C58.2321 70.7663 58.6783 70.5359 58.8898 70.7026C59.6674 71.3154 60.6181 70.8798 61.4501 71.386C62.2787 71.823 63.0655 72.349 63.7989 72.9561C64.5457 73.6805 65.1627 74.5504 65.6186 75.5214C66.0898 76.6381 66.178 77.9028 65.8673 79.0847C65.7748 79.5807 66.0273 80.0265 65.8147 80.5644C65.636 81.0167 65.5143 81.5212 65.3064 81.9826C64.5067 83.892 63.0794 85.403 61.3079 86.2156C60.5775 86.6378 59.7601 86.8479 58.934 86.826ZM64.1591 77.4256C64.1159 77.1026 64.3146 76.7438 64.0655 76.4552C63.9368 76.3212 63.8344 76.1601 63.7646 75.9815C63.6947 75.8029 63.6588 75.6107 63.659 75.4165C63.6431 75.2818 63.5997 75.1526 63.5321 75.0387C63.4645 74.9248 63.3743 74.829 63.2683 74.7583C62.2224 73.8614 61.0637 73.1342 59.8278 72.599C59.4704 72.4667 58.8728 72.5289 58.7491 71.9824C58.6401 71.5008 58.4092 71.5737 58.1151 71.628C57.0073 71.8857 55.9623 72.3978 55.0492 73.1303C54.0036 73.7771 53.089 74.6495 52.3611 75.6943C51.6331 76.7391 51.1069 77.9347 50.8143 79.2085C50.6621 79.8982 50.7108 80.6226 50.9536 81.2805C51.1964 81.9385 51.6213 82.4972 52.1688 82.8783C52.9768 83.4598 53.8121 83.9945 54.6714 84.4802C55.9713 85.1927 57.4031 85.5707 58.8572 85.5853C59.6247 85.5483 60.375 85.3252 61.0539 84.9323C61.7328 84.5394 62.3233 83.9866 62.7827 83.3137C63.1435 82.9663 63.4354 82.5419 63.6404 82.0665C64.1585 80.5893 64.3366 78.9957 64.1591 77.4256Z" fill="#212222"/>
<path d="M75.3999 73.5364C75.344 75.4943 75.6878 77.4414 76.4064 79.2359C76.7374 79.8885 77.2358 80.4211 77.8401 80.7682C78.3862 81.1462 79.0021 81.3874 79.6435 81.4747C80.285 81.562 80.9361 81.4932 81.5504 81.2731C82.3325 80.998 83.0127 80.4548 83.49 79.7238C84.375 78.6497 85.1013 77.4312 85.6427 76.1124C85.7489 75.7885 85.9251 75.7131 86.2413 75.9521C86.7321 76.469 87.089 77.1185 87.2759 77.8349C87.4629 78.5513 87.473 79.309 87.3055 80.0311C86.6201 82.2122 85.0226 83.1519 83.2985 84.0651C81.9851 84.746 80.5525 85.1088 79.0989 85.1283C78.2112 85.1539 77.323 85.1106 76.4409 84.9988C75.3865 84.8485 74.3595 84.5218 73.3959 84.0302C72.9137 83.8195 72.5035 83.4498 72.2225 82.9723C71.9414 82.4949 71.8035 81.9337 71.828 81.3666C71.8092 78.9492 72.6096 76.6097 74.075 74.799C74.461 74.3131 74.9069 73.8881 75.3999 73.5364Z" fill="#DEDEDE"/>
<path d="M78.6589 72.4931C79.8457 72.6002 81.0022 72.6207 82.1283 72.8336C82.9566 73.085 83.7337 73.5057 84.4187 74.0734C84.4937 74.124 84.5761 74.2484 84.4812 74.3161C83.899 74.7317 84.0197 75.5802 83.4779 76.0934C82.9615 76.6771 82.5609 77.3709 82.3011 78.1316C81.9386 78.9937 81.3973 79.8529 80.5567 79.9826C80.0924 80.0684 79.6153 79.9908 79.1939 79.7611C78.7726 79.5313 78.4289 79.1613 78.2124 78.7043C77.2761 77.3424 76.8663 75.6331 77.0712 73.9443C77.1469 73.5807 76.9678 72.9906 77.1421 72.8471C77.6055 72.5707 78.1326 72.4477 78.6589 72.4931Z" fill="#DEDEDE"/>
<path d="M83.7631 55.7957C82.1516 55.7012 80.6173 55.0112 79.4117 53.8385C78.906 53.3948 78.488 52.8435 78.183 52.218C77.878 51.5925 77.6923 50.9059 77.6373 50.1997C77.5961 49.0232 77.8405 47.8558 78.3456 46.8161C78.8508 45.7763 79.5988 44.9014 80.5135 44.2799C81.4968 43.5294 82.6718 43.1377 83.8708 43.1608C84.6578 43.139 85.4439 43.2336 86.2076 43.4421C87.1385 43.7382 87.9964 44.2597 88.7176 44.968C89.6118 45.8007 90.3266 46.8393 90.8107 48.0094C90.9879 48.3658 90.7205 48.6344 90.7598 48.9278C90.7778 50.3568 90.3082 51.7419 89.4426 52.8129C88.8451 53.8402 87.9965 54.664 86.9927 55.1912C85.9889 55.7184 84.8701 55.9277 83.7631 55.7957Z" fill="white"/>
<path d="M105.082 55.4091C103.921 55.3828 102.775 55.1105 101.708 54.6075C101.044 54.2608 100.476 53.7281 100.062 53.0633C99.6478 52.3986 99.4024 51.6256 99.3507 50.8234C99.2149 49.7574 99.3195 48.6714 99.6553 47.6597C99.9911 46.648 100.548 45.7413 101.278 45.0186C102.146 44.0122 103.337 43.4133 104.601 43.3479C105.087 43.3588 105.342 43.7861 105.776 43.8349C106.388 43.9037 106.996 44.0262 107.606 44.1188C108.448 44.3027 109.227 44.7376 109.857 45.3753C110.487 46.013 110.943 46.8287 111.175 47.7322C111.469 48.6561 111.599 49.6325 111.56 50.6096C111.473 51.3581 111.224 52.0734 110.836 52.6972C110.447 53.3209 109.929 53.8354 109.324 54.1987C108.033 55.0045 106.569 55.4221 105.082 55.4091Z" fill="white"/>
<path d="M102.224 83.343C100.57 83.3919 98.9282 83.0243 97.4254 82.2687C96.7391 81.9288 96.1742 81.3518 95.8177 80.6264C95.4611 79.901 95.3327 79.0674 95.4522 78.2544C95.5038 77.2154 95.7437 76.198 96.158 75.2611C96.5722 74.3243 97.1525 73.4867 97.8652 72.7969C98.3106 72.3459 98.8951 72.187 99.3536 71.7851C99.3996 71.7448 99.5141 71.7075 99.5292 71.728C100.164 72.5938 100.957 72.1329 101.69 72.0174C102.869 71.8442 104.068 71.9269 105.218 72.2609C106.952 72.7488 108.482 73.8664 109.559 75.4305C109.817 75.8454 109.978 76.3229 110.03 76.8213C110.081 77.3198 110.021 77.8243 109.854 78.2917C109.254 80.9175 107.225 81.7777 105.273 82.7745C104.326 83.2762 103.269 83.4734 102.224 83.343Z" fill="white"/>
<path d="M64.1593 77.4256C64.3367 78.9956 64.1586 80.5893 63.6405 82.0664C63.4355 82.5418 63.1436 82.9662 62.7828 83.3136C62.3234 83.9865 61.7329 84.5395 61.054 84.9324C60.3751 85.3253 59.6248 85.5482 58.8573 85.5852C57.4032 85.5706 55.9714 85.1926 54.6715 84.4801C53.8122 83.9944 52.9769 83.4597 52.1689 82.8783C51.6214 82.4971 51.1965 81.9386 50.9537 81.2806C50.7109 80.6227 50.6622 79.8981 50.8144 79.2084C51.107 77.9346 51.6332 76.739 52.3612 75.6942C53.0891 74.6494 54.0037 73.7771 55.0493 73.1302C55.9624 72.3977 57.0074 71.8856 58.1152 71.6279C58.4093 71.5737 58.6402 71.5007 58.7492 71.9823C58.8729 72.5288 59.4705 72.4667 59.8279 72.5989C61.0638 73.1342 62.2225 73.8614 63.2683 74.7583C63.3744 74.829 63.4646 74.9249 63.5322 75.0388C63.5998 75.1527 63.6432 75.2817 63.6591 75.4164C63.6589 75.6107 63.6948 75.8028 63.7647 75.9814C63.8345 76.16 63.9369 76.3213 64.0656 76.4553C64.3148 76.7439 64.1161 77.1025 64.1593 77.4256Z" fill="white"/>
</svg>
