<svg width="160" height="122" viewBox="0 0 160 122" fill="none" xmlns="http://www.w3.org/2000/svg">
<g clip-path="url(#clip0_123_898)">
<path d="M87.6092 0.345951C71.6389 -1.66642 56.0518 5.42929 43.0001 15.5435C30.1401 25.5216 18.9673 38.4028 10.3209 53.2231C5.93389 60.7485 2.06674 69.0076 0.625685 78.0004C-0.715048 86.3224 0.114929 95.2733 4.07328 102.537C8.03164 109.8 14.2519 114.045 20.7914 116.906C28.4892 120.281 36.7525 121.78 44.9702 121.979C61.1958 122.367 77.5765 118.206 92.817 112.043C108.058 105.88 121.775 97.4848 134.489 86.7836C146.182 76.9523 157.865 63.8509 158.942 46.2532C159.434 38.1932 157.555 30.0704 152.74 24.0228C147.924 17.9752 141.394 14.7784 134.808 12.6088C118.537 7.253 100.989 7.51502 84.3987 10.5021C67.8083 13.4893 50.3331 19.8722 33.8795 26.685C29.8938 28.3305 25.9263 30.0284 21.9588 31.7159C21.4572 31.9255 20.5543 32.6382 21.0194 33.3405C21.4846 34.0427 22.7979 33.613 23.3452 33.3824C38.9323 26.7793 54.5834 20.1867 70.7725 15.7951C86.9616 11.4035 103.278 9.3597 119.559 11.8437C132.692 13.8456 149.383 18.5831 154.108 34.8707C156.269 42.3228 155.64 50.5504 153.223 57.8138C150.669 65.4965 145.99 72.0576 140.782 77.5917C135.575 83.1257 129.336 88.2509 123.134 92.7473C116.932 97.2437 110.183 101.415 103.333 104.916C89.5427 111.97 74.7764 116.885 59.7639 118.877C51.7924 119.935 43.6751 120.061 35.7401 118.583C28.5348 117.242 21.2292 114.705 15.1184 109.978C9.18084 105.398 5.17688 98.6272 3.9456 90.5044C2.71431 82.3815 4.29218 73.5355 7.29287 65.8214C10.3574 57.9291 14.7627 50.6448 19.4507 43.9159C24.1387 37.187 29.3101 31.0975 34.974 25.553C46.2106 14.5374 59.7365 4.91571 74.6123 2.62035C78.2423 2.05437 81.9361 1.96004 85.5753 2.42121C86.3688 2.51554 87.3264 2.3688 87.9284 1.69801C88.3753 1.19492 88.3662 0.440281 87.6092 0.345951Z" fill="black"/>
</g>
<defs>
<clipPath id="clip0_123_898">
<rect width="159" height="122" fill="white" transform="translate(0.0419922)"/>
</clipPath>
</defs>
</svg>
