<svg width="349" height="466" viewBox="0 0 349 466" fill="none" xmlns="http://www.w3.org/2000/svg">
<path fill-rule="evenodd" clip-rule="evenodd" d="M69.8151 177.09H161.538C165.21 177.262 168.73 178.395 171.614 180.332C174.499 182.27 176.607 184.918 177.651 187.913L192.74 236.393C193.276 237.641 193.44 238.982 193.217 240.297C192.994 241.612 192.392 242.859 191.463 243.928C190.535 244.997 189.309 245.854 187.896 246.423C186.482 246.992 184.925 247.255 183.363 247.188H91.8048C88.1354 247.022 84.6165 245.895 81.7316 243.962C78.8466 242.029 76.7369 239.385 75.6923 236.393L60.4381 187.913C59.9038 186.663 59.741 185.321 59.964 184.006C60.1871 182.69 60.7891 181.441 61.7167 180.371C62.6444 179.3 63.8689 178.44 65.2816 177.868C66.6943 177.296 68.2515 177.028 69.8151 177.09Z" fill="black"/>
<path d="M69.8151 177.09H161.538C165.21 177.262 168.73 178.395 171.614 180.332C174.499 182.27 176.607 184.918 177.651 187.913L192.74 236.393C193.276 237.641 193.44 238.982 193.217 240.297C192.994 241.612 192.392 242.859 191.463 243.928C190.535 244.997 189.309 245.854 187.896 246.423C186.482 246.992 184.925 247.255 183.363 247.188H91.8048C88.1354 247.022 84.6165 245.895 81.7316 243.962C78.8466 242.029 76.737 239.385 75.6923 236.393L60.4381 187.913C59.9038 186.663 59.741 185.321 59.964 184.006C60.1871 182.69 60.7891 181.441 61.7167 180.371C62.6444 179.3 63.8689 178.44 65.2816 177.868C66.6943 177.296 68.2515 177.028 69.8151 177.09Z" stroke="black" stroke-width="0.57" stroke-miterlimit="22.93" stroke-linecap="round"/>
<path d="M171.179 246.487H88.1729C85.1094 246.487 82.626 248.596 82.626 251.198C82.626 253.8 85.1094 255.909 88.1729 255.909H171.179C174.243 255.909 176.726 253.8 176.726 251.198C176.726 248.596 174.243 246.487 171.179 246.487Z" fill="#E7BFFF"/>
<path d="M171.179 246.487H88.1729C85.1094 246.487 82.626 248.596 82.626 251.198C82.626 253.8 85.1094 255.909 88.1729 255.909H171.179C174.243 255.909 176.726 253.8 176.726 251.198C176.726 248.596 174.243 246.487 171.179 246.487Z" stroke="black" stroke-width="0.57" stroke-miterlimit="22.93" stroke-linecap="round"/>
<path d="M145.591 246.487H88.1729C85.1094 246.487 82.626 248.596 82.626 251.198C82.626 253.8 85.1094 255.909 88.1729 255.909H145.591C148.654 255.909 151.137 253.8 151.137 251.198C151.137 248.596 148.654 246.487 145.591 246.487Z" fill="#E7BFFF"/>
<path d="M145.591 246.487H88.1729C85.1094 246.487 82.626 248.596 82.626 251.198C82.626 253.8 85.1094 255.909 88.1729 255.909H145.591C148.654 255.909 151.137 253.8 151.137 251.198C151.137 248.596 148.654 246.487 145.591 246.487Z" stroke="black" stroke-width="0.57" stroke-miterlimit="22.93" stroke-linecap="round"/>
<path fill-rule="evenodd" clip-rule="evenodd" d="M141.331 416.603H210.668C211.221 416.624 211.744 416.819 212.135 417.151C212.527 417.484 212.757 417.928 212.781 418.398L215.918 458.102H105.012C102.932 441.474 117.261 436.427 134.199 429.305C140.638 425.183 141.331 416.603 141.331 416.603Z" fill="#E7BFFF"/>
<path d="M141.331 416.603H210.668C211.221 416.624 211.744 416.819 212.135 417.151C212.527 417.484 212.757 417.928 212.781 418.398L215.918 458.102H105.012C102.932 441.474 117.261 436.427 134.199 429.305C140.638 425.183 141.331 416.603 141.331 416.603Z" stroke="black" stroke-width="0.57" stroke-linecap="round" stroke-linejoin="round"/>
<path d="M217.074 451.765H104.88C103.713 451.765 102.767 452.568 102.767 453.559V462.055C102.767 463.046 103.713 463.85 104.88 463.85H217.074C218.241 463.85 219.187 463.046 219.187 462.055V453.559C219.187 452.568 218.241 451.765 217.074 451.765Z" fill="#E7BFFF"/>
<path d="M217.074 451.765H104.88C103.713 451.765 102.767 452.568 102.767 453.559V462.055C102.767 463.046 103.713 463.85 104.88 463.85H217.074C218.241 463.85 219.187 463.046 219.187 462.055V453.559C219.187 452.568 218.241 451.765 217.074 451.765Z" stroke="black" stroke-width="0.57" stroke-linecap="round" stroke-linejoin="round"/>
<path fill-rule="evenodd" clip-rule="evenodd" d="M139.779 417.444L138.327 422.407C156.679 419.888 175.19 418.287 193.763 417.613L139.779 417.444Z" fill="black"/>
<path d="M139.779 417.444L138.327 422.407C156.679 419.888 175.19 418.287 193.763 417.613L139.779 417.444Z" stroke="black" stroke-width="0.57" stroke-miterlimit="22.93" stroke-linecap="round"/>
<path fill-rule="evenodd" clip-rule="evenodd" d="M85.3664 416.715H154.703C155.258 416.729 155.786 416.923 156.179 417.256C156.572 417.59 156.8 418.038 156.816 418.51L160.118 458.214H49.113C47.0329 441.586 61.3626 436.539 78.2676 429.417C84.8381 425.295 85.3664 416.715 85.3664 416.715Z" fill="#E7BFFF"/>
<path d="M85.3664 416.715H154.703C155.258 416.729 155.786 416.923 156.179 417.256C156.572 417.59 156.8 418.038 156.816 418.51L160.118 458.214H49.113C47.0329 441.586 61.3626 436.539 78.2676 429.417C84.8381 425.295 85.3664 416.715 85.3664 416.715Z" stroke="black" stroke-width="0.57" stroke-linecap="round" stroke-linejoin="round"/>
<path d="M161.307 451.849H49.1131C47.9461 451.849 47 452.652 47 453.643V462.139C47 463.131 47.9461 463.934 49.1131 463.934H161.307C162.474 463.934 163.42 463.131 163.42 462.139V453.643C163.42 452.652 162.474 451.849 161.307 451.849Z" fill="#E7BFFF"/>
<path d="M161.307 451.849H49.1131C47.9461 451.849 47 452.652 47 453.643V462.139C47 463.131 47.9461 463.934 49.1131 463.934H161.307C162.474 463.934 163.42 463.131 163.42 462.139V453.643C163.42 452.652 162.474 451.849 161.307 451.849Z" stroke="black" stroke-width="0.57" stroke-linecap="round" stroke-linejoin="round"/>
<path fill-rule="evenodd" clip-rule="evenodd" d="M86.324 417.556L84.8712 422.491C103.228 420.01 121.737 418.418 140.308 417.725L86.324 417.556Z" fill="black"/>
<path d="M86.324 417.556L84.8712 422.491C103.228 420.01 121.737 418.418 140.308 417.725L86.324 417.556Z" stroke="black" stroke-width="0.57" stroke-miterlimit="22.93" stroke-linecap="round"/>
<path fill-rule="evenodd" clip-rule="evenodd" d="M209.942 68.1281C209.942 92.1019 209.942 91.7093 209.942 115.795C210.437 174.987 169.099 176.164 173.887 257.759C174.58 269.676 186.037 268.19 188.183 284.201C204.032 287.481 246.459 274.331 262.308 277.583C278.123 274.331 317.315 301.221 333.13 297.94C337.39 282.126 342.573 272.704 342.441 260.255C341.814 184.548 304.834 165.706 304.9 120.057V68.2963C304.999 15.0213 210.041 16.8438 209.942 68.1281Z" fill="#E7BFFF"/>
<path d="M209.942 68.1281C209.942 92.1019 209.942 91.7093 209.942 115.795C210.437 174.987 169.099 176.164 173.887 257.759C174.58 269.676 186.037 268.19 188.183 284.201C204.032 287.481 246.459 274.331 262.308 277.583C278.123 274.331 317.315 301.221 333.13 297.94C337.39 282.126 342.573 272.704 342.441 260.255C341.814 184.548 304.834 165.706 304.9 120.057V68.2963C304.999 15.0213 210.041 16.8438 209.942 68.1281Z" stroke="black" stroke-width="0.57" stroke-linecap="round" stroke-linejoin="round"/>
<path fill-rule="evenodd" clip-rule="evenodd" d="M153.911 255.909C126.374 257.283 79.4893 267.349 81.5363 322.362C81.5363 376.058 81.2722 414.753 81.5363 417.528C78.928 418.229 212.781 418.089 212.781 418.089C212.781 418.089 211.824 354.608 212.253 342.242C212.616 331.84 213.21 323.4 230.578 323.456C233.648 323.456 272.312 323.456 275.548 323.624C302.226 324.465 348.847 326.428 347.988 281.565C347.988 274.835 345.512 268.134 342.21 257.899C342.129 257.219 342.129 256.533 342.21 255.853H188.744C177.849 255.909 164.444 255.404 153.911 255.909Z" fill="#E7BFFF"/>
<path d="M153.911 255.909C126.374 257.283 79.4893 267.349 81.5363 322.362C81.5363 376.058 81.2722 414.753 81.5363 417.528C78.928 418.229 212.781 418.089 212.781 418.089C212.781 418.089 211.824 354.608 212.253 342.242C212.616 331.84 213.21 323.4 230.578 323.456C233.648 323.456 272.312 323.456 275.548 323.624C302.226 324.465 348.847 326.428 347.988 281.565C347.988 274.835 345.512 268.134 342.21 257.899C342.129 257.219 342.129 256.533 342.21 255.853H188.744C177.849 255.909 164.444 255.404 153.911 255.909Z" stroke="black" stroke-width="0.57" stroke-linecap="round" stroke-linejoin="round"/>
<path fill-rule="evenodd" clip-rule="evenodd" d="M213.673 96.0834C214.771 96.089 215.847 95.8174 216.763 95.3032C217.68 94.789 218.396 94.0552 218.821 93.195C219.246 92.3347 219.36 91.3867 219.15 90.4711C218.94 89.5555 218.414 88.7135 217.64 88.0519C216.865 87.3903 215.877 86.9389 214.8 86.7548C213.723 86.5708 212.606 86.6624 211.591 87.0181C210.575 87.3738 209.707 87.9776 209.096 88.7528C208.485 89.5281 208.159 90.4399 208.159 91.3728C208.159 92.6173 208.739 93.8112 209.772 94.6938C210.805 95.5764 212.207 96.076 213.673 96.0834Z" fill="white"/>
<path d="M213.673 96.0834C214.771 96.089 215.847 95.8174 216.763 95.3032C217.68 94.789 218.396 94.0552 218.821 93.195C219.246 92.3347 219.36 91.3867 219.15 90.4711C218.94 89.5555 218.414 88.7135 217.64 88.0519C216.865 87.3903 215.877 86.9389 214.8 86.7548C213.723 86.5708 212.606 86.6624 211.591 87.0181C210.575 87.3738 209.707 87.9776 209.096 88.7528C208.485 89.5281 208.159 90.4399 208.159 91.3728C208.159 92.6173 208.739 93.8112 209.772 94.6938C210.805 95.5764 212.207 96.076 213.673 96.0834Z" stroke="black" stroke-width="0.57" stroke-linecap="round" stroke-linejoin="round"/>
<path d="M263.496 323.512C290.307 322.895 299.816 304.978 299.155 285.687" stroke="black" stroke-width="0.57" stroke-linecap="round" stroke-linejoin="round"/>
<path d="M215.423 74.8016C213.802 73.5307 211.763 72.7092 209.579 72.4463" stroke="black" stroke-width="0.57" stroke-miterlimit="22.93" stroke-linecap="round"/>
<path fill-rule="evenodd" clip-rule="evenodd" d="M304.009 129.507H209.909C208.157 129.507 206.478 130.097 205.239 131.149C204.001 132.201 203.305 133.627 203.305 135.115C203.305 136.602 204.001 138.028 205.239 139.08C206.478 140.132 208.157 140.722 209.909 140.722H304.009C305.76 140.722 307.44 140.132 308.678 139.08C309.917 138.028 310.612 136.602 310.612 135.115C310.612 133.627 309.917 132.201 308.678 131.149C307.44 130.097 305.76 129.507 304.009 129.507Z" fill="#E7BFFF"/>
<path d="M304.009 129.507H209.909C208.157 129.507 206.478 130.097 205.239 131.149C204.001 132.201 203.305 133.627 203.305 135.115C203.305 136.602 204.001 138.028 205.239 139.08C206.478 140.132 208.157 140.722 209.909 140.722H304.009C305.76 140.722 307.44 140.132 308.678 139.08C309.917 138.028 310.612 136.602 310.612 135.115C310.612 133.627 309.917 132.201 308.678 131.149C307.44 130.097 305.76 129.507 304.009 129.507Z" stroke="black" stroke-width="0.57" stroke-miterlimit="22.93" stroke-linecap="round"/>
<path d="M304.9 63.4736H160.151" stroke="black" stroke-width="0.57" stroke-miterlimit="22.93" stroke-linecap="round"/>
<path fill-rule="evenodd" clip-rule="evenodd" d="M207.829 140.778L206.376 145.741C224.728 143.225 243.239 141.633 261.812 140.975L207.829 140.778Z" fill="black"/>
<path d="M207.829 140.778L206.376 145.741C224.728 143.225 243.239 141.633 261.812 140.975L207.829 140.778Z" stroke="black" stroke-width="0.57" stroke-miterlimit="22.93" stroke-linecap="round"/>
<path fill-rule="evenodd" clip-rule="evenodd" d="M211.428 63.2773L209.975 68.2403C228.326 65.7215 246.838 64.1298 265.411 63.4736L211.428 63.2773Z" fill="black"/>
<path d="M211.428 63.2773L209.975 68.2403C228.326 65.7215 246.838 64.1298 265.411 63.4736L211.428 63.2773Z" stroke="black" stroke-width="0.57" stroke-miterlimit="22.93" stroke-linecap="round"/>
<path fill-rule="evenodd" clip-rule="evenodd" d="M218.262 114.225C209.314 109.739 217.239 102.364 222.819 107.496C223.677 108.309 220.573 113.216 218.262 114.225Z" fill="#E7BFFF"/>
<path d="M218.262 114.225C209.314 109.739 217.239 102.364 222.819 107.496C223.677 108.309 220.573 113.216 218.262 114.225Z" stroke="black" stroke-width="0.57" stroke-miterlimit="22.93" stroke-linecap="round"/>
<path fill-rule="evenodd" clip-rule="evenodd" d="M209.81 92.2421C209.724 92.242 209.64 92.2566 209.562 92.2851C209.483 92.3136 209.413 92.3554 209.354 92.4079C209.295 92.4604 209.25 92.5224 209.22 92.5904C209.191 92.6583 209.178 92.7306 209.182 92.8028C209.182 92.9441 209.248 93.0797 209.366 93.1796C209.484 93.2795 209.643 93.3356 209.81 93.3356C209.973 93.3288 210.128 93.2705 210.244 93.172C210.36 93.0735 210.429 92.9419 210.437 92.8028C210.437 92.6588 210.372 92.5203 210.255 92.4159C210.139 92.3115 209.979 92.2493 209.81 92.2421Z" fill="black"/>
<path d="M209.81 92.2421C209.724 92.242 209.64 92.2566 209.562 92.2851C209.483 92.3136 209.413 92.3554 209.354 92.4079C209.295 92.4604 209.25 92.5224 209.22 92.5904C209.191 92.6583 209.178 92.7306 209.182 92.8028C209.182 92.9441 209.248 93.0797 209.366 93.1796C209.484 93.2795 209.643 93.3356 209.81 93.3356C209.973 93.3288 210.128 93.2705 210.244 93.172C210.36 93.0735 210.429 92.9419 210.437 92.8028C210.437 92.6588 210.372 92.5203 210.255 92.4159C210.139 92.3115 209.979 92.2493 209.81 92.2421Z" stroke="black" stroke-width="0.57" stroke-linecap="round" stroke-linejoin="round"/>
<path d="M209.843 117.926C212.781 117.926 217.206 115.122 220.111 112.795" stroke="black" stroke-width="0.57" stroke-miterlimit="22.93" stroke-linecap="round"/>
<path d="M158.963 417.5V332.905C158.963 328.054 160.812 324.241 167.547 323.792L230.512 323.456" stroke="black" stroke-width="0.57" stroke-miterlimit="22.93" stroke-linecap="round"/>
<path d="M316.853 323.624H210.833C201.205 323.624 193.4 330.252 193.4 338.429C193.4 346.605 201.205 353.234 210.833 353.234H316.853C326.481 353.234 334.286 346.605 334.286 338.429C334.286 330.252 326.481 323.624 316.853 323.624Z" fill="black"/>
<path d="M316.853 323.624H210.833C201.205 323.624 193.4 330.252 193.4 338.429C193.4 346.605 201.205 353.234 210.833 353.234H316.853C326.481 353.234 334.286 346.605 334.286 338.429C334.286 330.252 326.481 323.624 316.853 323.624Z" stroke="black" stroke-width="0.57" stroke-miterlimit="22.93" stroke-linecap="round"/>
<path fill-rule="evenodd" clip-rule="evenodd" d="M259.237 333.438C261.321 334.138 262.994 335.51 263.891 337.254C264.788 338.998 264.836 340.973 264.025 342.747L210.668 458.662C209.849 460.436 208.235 461.861 206.179 462.623C204.123 463.386 201.795 463.423 199.706 462.728C197.618 462.033 195.94 460.661 195.042 458.916C194.144 457.17 194.1 455.193 194.919 453.419L248.176 337.532C248.581 336.643 249.189 335.831 249.966 335.143C250.742 334.455 251.672 333.905 252.701 333.524C253.729 333.144 254.837 332.94 255.959 332.925C257.081 332.91 258.195 333.085 259.237 333.438Z" fill="black"/>
<path d="M259.237 333.438C261.321 334.138 262.994 335.51 263.891 337.254C264.788 338.998 264.836 340.973 264.025 342.747L210.668 458.662C209.849 460.436 208.235 461.861 206.179 462.623C204.123 463.386 201.795 463.423 199.706 462.728C197.618 462.033 195.94 460.661 195.042 458.916C194.144 457.17 194.1 455.193 194.919 453.419L248.176 337.532C248.581 336.643 249.189 335.831 249.966 335.143C250.742 334.455 251.672 333.905 252.701 333.524C253.729 333.144 254.837 332.94 255.959 332.925C257.081 332.91 258.195 333.085 259.237 333.438Z" stroke="black" stroke-width="0.57" stroke-miterlimit="22.93" stroke-linecap="round"/>
<path fill-rule="evenodd" clip-rule="evenodd" d="M271.222 333.438C269.133 334.133 267.452 335.503 266.549 337.247C265.645 338.992 265.592 340.969 266.402 342.747L319.626 458.662C320.445 460.436 322.06 461.861 324.116 462.623C326.171 463.386 328.5 463.423 330.588 462.728C332.677 462.033 334.354 460.661 335.252 458.916C336.15 457.17 336.194 455.193 335.376 453.419L282.085 337.532C281.273 335.773 279.678 334.356 277.644 333.59C275.61 332.823 273.303 332.769 271.222 333.438Z" fill="black"/>
<path d="M271.222 333.438C269.133 334.133 267.452 335.503 266.549 337.247C265.645 338.992 265.592 340.969 266.402 342.747L319.626 458.662C320.445 460.436 322.06 461.861 324.116 462.623C326.171 463.386 328.5 463.423 330.588 462.728C332.677 462.033 334.354 460.661 335.252 458.916C336.15 457.17 336.194 455.193 335.376 453.419L282.085 337.532C281.273 335.773 279.678 334.356 277.644 333.59C275.61 332.823 273.303 332.769 271.222 333.438Z" stroke="black" stroke-width="0.57" stroke-miterlimit="22.93" stroke-linecap="round"/>
<path fill-rule="evenodd" clip-rule="evenodd" d="M264.289 325.699C266.531 325.714 268.676 326.479 270.258 327.828C271.84 329.177 272.733 331.001 272.741 332.905L272.576 457.345C272.648 458.327 272.483 459.311 272.09 460.237C271.697 461.163 271.085 462.011 270.291 462.728C269.498 463.445 268.54 464.017 267.476 464.408C266.413 464.798 265.266 465 264.107 465C262.948 465 261.802 464.798 260.738 464.408C259.674 464.017 258.716 463.445 257.923 462.728C257.129 462.011 256.517 461.163 256.124 460.237C255.731 459.311 255.566 458.327 255.638 457.345V332.905C255.642 331.948 255.87 331.001 256.308 330.119C256.747 329.238 257.387 328.438 258.191 327.768C258.996 327.098 259.949 326.57 260.996 326.215C262.042 325.859 263.162 325.684 264.289 325.699Z" fill="black"/>
<path d="M264.289 325.699C266.531 325.714 268.676 326.479 270.258 327.828C271.84 329.177 272.733 331.001 272.741 332.905L272.576 457.345C272.648 458.327 272.483 459.311 272.09 460.237C271.697 461.163 271.085 462.011 270.291 462.728C269.498 463.445 268.54 464.017 267.476 464.408C266.413 464.798 265.266 465 264.107 465C262.948 465 261.802 464.798 260.738 464.408C259.674 464.017 258.716 463.445 257.923 462.728C257.129 462.011 256.517 461.163 256.124 460.237C255.731 459.311 255.566 458.327 255.638 457.345V332.905C255.642 331.948 255.87 331.001 256.308 330.119C256.747 329.238 257.387 328.438 258.191 327.768C258.996 327.098 259.949 326.57 260.996 326.215C262.042 325.859 263.162 325.684 264.289 325.699Z" stroke="black" stroke-width="0.57" stroke-miterlimit="22.93" stroke-linecap="round"/>
<path fill-rule="evenodd" clip-rule="evenodd" d="M235.266 180.847C252.799 157.041 216.578 143.554 204.791 159.733C193.202 173.585 187.028 186.651 171.773 198.652C167.745 201.821 133.704 213.261 123.766 215.924C114.785 218.308 107.686 228.851 106.531 238.552C105.639 246.095 113.563 248.198 118.417 242.366C118.417 246.459 123.535 247.048 126.87 245.59C128.815 244.338 130.387 242.715 131.459 240.852C131.459 241.16 130.006 246.459 135.421 246.151C140.836 245.843 141.331 240.852 143.51 240.543C151.477 239.129 159.32 237.256 166.986 234.935C190.99 227.897 209.909 223.719 221.531 203.222C223.017 200.615 233.087 183.427 235.167 180.791" fill="#E7BFFF"/>
<path d="M200.763 158.976C192.509 174.089 187.028 185.978 171.873 197.951C167.844 201.148 133.803 212.588 123.865 215.223C114.884 217.607 107.785 228.963 106.63 238.664C105.738 246.207 113.663 248.31 118.516 242.478C118.516 246.571 123.634 247.16 126.969 245.702C128.914 244.45 130.486 242.827 131.558 240.964C131.558 241.272 130.105 246.572 135.52 246.263C140.935 245.955 141.43 240.964 143.609 240.655C151.576 239.241 159.419 237.368 167.085 235.047C191.089 228.009 210.008 223.831 221.63 203.335C223.116 200.727 233.186 183.539 235.266 180.903" stroke="black" stroke-width="0.57" stroke-miterlimit="22.93" stroke-linecap="round"/>
<path d="M118.219 242.674C119.738 240.066 121.025 236.113 123.997 234.262" stroke="black" stroke-width="0.57" stroke-miterlimit="22.93" stroke-linecap="round"/>
<path d="M132.648 235.496C135.167 237.114 138.044 238.285 141.107 238.94C144.169 239.595 147.356 239.72 150.477 239.309" stroke="black" stroke-width="0.57" stroke-miterlimit="22.93" stroke-linecap="round"/>
<path fill-rule="evenodd" clip-rule="evenodd" d="M174.349 238.076C177.122 238.384 199.739 225.149 203.107 222.43C204.758 221.084 210.338 217.158 203.338 221.701C194.281 226.944 184.34 230.99 173.853 233.701C173.703 235.091 173.703 236.49 173.853 237.879L174.349 238.076Z" fill="black"/>
<path d="M174.349 238.076C177.122 238.384 199.739 225.149 203.107 222.43C204.758 221.084 210.338 217.158 203.338 221.701C194.281 226.944 184.34 230.99 173.853 233.701C173.703 235.091 173.703 236.49 173.853 237.879L174.349 238.076Z" stroke="black" stroke-width="0.57" stroke-miterlimit="22.93" stroke-linecap="round"/>
<path fill-rule="evenodd" clip-rule="evenodd" d="M110.311 0H54.4809C40.0385 0.0509711 26.2061 4.8448 16.0002 13.3361C5.79434 21.8274 0.0428535 33.3273 0 45.3281C0.0429559 57.344 5.80649 68.8575 16.0318 77.3541C26.2571 85.8507 40.1132 90.6398 54.5739 90.6755H97.7492C99.6567 94.3674 105.03 98.4074 111.009 100.669C124.315 105.753 140.855 103.491 134.271 101.171C126.362 98.4073 124.804 93.4396 126.874 88.5299C137.899 85.5959 147.521 79.8342 154.359 72.0722C161.196 64.3102 164.898 54.9473 164.931 45.3281C164.888 33.3073 159.118 21.7899 148.882 13.2953C138.646 4.80072 124.778 0.0203904 110.311 0Z" fill="#373435"/>
<path d="M64 53.56L54.36 44.36L64 35.2H68.6L58.92 44.36L68.6 53.56H64ZM86.8675 21.32L75.9075 65.8H72.3075L83.2275 21.32H86.8675ZM89.9709 35.2H94.5709L104.251 44.36L94.5709 53.56H89.9709L99.6509 44.36L89.9709 35.2Z" fill="#FDFDFD"/>
</svg>
