<svg width="508" height="370" viewBox="0 0 508 370" fill="none" xmlns="http://www.w3.org/2000/svg">
<path fill-rule="evenodd" clip-rule="evenodd" d="M257.296 0.318956C231.452 1.40889 198.725 5.70374 190.627 9.06532C186.614 10.7327 182.382 14.5866 181.226 17.6282C180.068 20.6697 177.957 38.093 176.537 56.3422C175.116 74.5936 173.572 90.1482 173.104 90.9114C172.638 91.6723 168.204 92.9435 163.25 93.7336C128.54 99.2773 91.6988 136.776 82.7255 175.692C81.4484 181.231 80.3483 192.813 80.2811 201.429L80.1579 217.096L59.7489 230.524C34.9216 246.86 11.2549 269.487 4.58256 283.266C-4.37956 301.78 0.155269 323.807 15.1198 334.453C29.8378 344.921 38.6924 346.543 83.6553 347.011C131.211 347.503 142.989 349.177 178.871 360.527C210.635 370.573 223.854 372.276 231.461 367.299C242.892 359.815 235.532 341.803 217.245 332.508C195.467 321.439 154.929 316.432 108.075 319.026C39.6581 322.815 19.0922 313.406 33.0306 284.694C38.8335 272.734 57.6495 251.423 57.7884 256.647C57.9094 261.112 61.1806 262.233 108.301 273.945C161.043 287.053 211.641 297.004 291.272 309.928C352.405 319.85 363.493 321.099 371.44 318.961C382.679 315.938 403.556 296.889 433.521 262.314C453.005 239.834 454.463 237.476 454.463 228.456C454.463 221.113 455.597 218.009 459.135 215.663C462.144 213.667 464.554 208.596 465.914 201.402C475.215 152.214 480.131 86.1174 477.702 42.9228C475.963 12.0017 475.284 11.0773 451.835 7.812C421.155 3.53729 295.623 -1.29693 257.296 0.318956ZM382.399 5.70822C435.445 8.5349 458.613 11.0863 462.009 14.477C465.623 18.087 466.67 86.2562 463.66 122.173C460.71 157.391 455.238 195.398 451.499 206.655L448.772 214.858L433.572 214.674C420.806 214.52 417.582 213.669 413.452 209.374L408.532 204.258L423.454 205.684C444.143 207.658 444.275 207.501 449.879 174.572C453.121 155.527 456.686 94.9802 456.695 58.8309C456.704 30.8417 456.325 27.9344 452.4 25.8351C438.338 18.3197 273.711 11.5675 224.809 16.5002C204.781 18.5211 199.468 19.8259 196.455 23.4695C192.42 28.344 190.161 41.0137 188.069 70.4778C186.91 86.8112 186.119 89.5932 182.44 90.2937C178.342 91.077 178.221 89.8326 179.611 60.9325C180.406 44.3327 182.333 26.896 183.89 22.1826C186.343 14.7567 188.062 13.2259 196.802 10.6879C221.264 3.58429 301.926 1.42009 382.399 5.70822ZM269.619 101.67C335.197 116.853 345.419 119.753 364.907 128.723C375.93 133.795 385.838 137.394 386.927 136.722C388.013 136.051 390.167 132.459 391.708 128.739C393.25 125.022 395.259 121.978 396.173 121.978C397.838 121.978 403.966 140.07 406.216 151.632C406.872 155.019 407.988 160.555 408.691 163.942C409.722 168.901 410.986 174.754 408.691 172.5C403.664 167.561 398 169.967 391 177.93C382.598 187.491 381 190 381 190C381 190 389.896 186.971 398.862 182.406C406.343 178.594 409.648 185.494 409.619 188.802C409.574 193.578 407.345 196.738 401.811 199.874C397.538 202.293 397.592 202.425 402.931 202.703L408.532 202.994L402.931 204.786C399.196 205.982 398.636 206.653 401.251 206.801C403.408 206.924 405.171 208.099 405.171 209.412C405.171 210.863 403.189 211.185 400.13 210.234C395.329 208.743 395.268 208.869 398.862 212.893C402.434 216.897 402.223 217.684 394.854 227.827C390.577 233.716 384.722 239.427 381.845 240.519C372.444 244.091 346.086 245.495 332.354 243.156C302.306 238.04 302.194 238.033 313.31 242.082C322.792 245.537 354.995 246.629 386.127 244.55C394.654 243.982 395.089 244.266 395.089 250.425C395.089 262.199 379.107 268.945 338.209 274.433C316.48 277.349 239.693 275.914 195.682 271.769C164.068 268.793 123.653 259.151 105.498 250.257C95.1717 245.197 91.5846 241.949 87.4082 233.877C82.6919 224.761 82.3043 221.695 83.2969 201.429C83.8996 189.12 85.5015 175.398 86.8526 170.938C89.0326 163.749 93.0002 154 93.0002 154L105.498 134.5L119.5 119.5L140.5 104C140.5 104 148.187 99.7786 160.394 97.272C167.478 95.8172 174.285 94.2573 175.517 93.8052C176.749 93.3554 191.369 93.3061 208.005 93.6978C232.42 94.2707 244.301 95.8083 269.619 101.67ZM331.368 129.65C327.423 134.397 333.232 144.068 346.001 154.002C357.303 162.798 363.145 182.632 365.5 176.5C367.862 170.354 371.684 143.289 368.281 138.434C361.138 128.249 337.254 122.564 331.368 129.65ZM300.628 144.663C301.408 147.572 302.06 152.221 302.076 154.989C302.094 157.758 303.053 160.025 304.206 160.025C305.374 160.025 305.714 156.377 304.973 151.816C303.77 144.412 304.059 143.77 307.914 145.258C310.265 146.167 315.214 147.362 318.911 147.915C325.373 148.879 325.328 148.799 317.791 145.84C300.205 138.934 299.071 138.855 300.628 144.663ZM399.57 180.168C398.808 181.399 396.673 182.406 394.825 182.406C392.976 182.406 392.087 181.399 392.849 180.168C393.61 178.937 395.746 177.93 397.594 177.93C399.442 177.93 400.332 178.937 399.57 180.168ZM330.163 186.687C325.87 188.363 325.888 188.5 330.781 191.116C333.569 192.607 341.581 193.515 348.656 193.146L361.481 192.477L354.311 188.56C346.812 184.465 337.675 183.755 330.163 186.687ZM340.196 189.12C340.196 190.351 339.188 191.358 337.956 191.358C336.723 191.358 335.715 190.351 335.715 189.12C335.715 187.889 336.723 186.882 337.956 186.882C339.188 186.882 340.196 187.889 340.196 189.12ZM350.278 189.12C354.249 190.825 354.058 191.06 348.598 191.201C345.21 191.286 342.437 190.351 342.437 189.12C342.437 186.492 344.16 186.492 350.278 189.12ZM183.919 199.769C190.553 203.878 199.5 213 199.5 213C199.5 213 205.092 220.745 205.5 226.5C205.918 232.385 201.256 241 201.256 241C201.256 241 191.826 252.256 182.053 256.575C176.404 259.071 172.262 261.588 172.844 262.17C175.134 264.458 194.88 253.135 201.256 245.879C208.97 237.102 210.129 226.574 204.563 215.822C201.097 209.126 184.8 195.783 180.222 195.895C178.867 195.926 180.529 197.669 183.919 199.769ZM375.283 197.548C374.299 199.108 372.556 199.804 371.409 199.095C370.262 198.388 369.323 198.876 369.323 200.178C369.323 201.481 370.331 202.548 371.563 202.548C372.796 202.548 373.804 204.059 373.804 205.905C373.804 207.803 371.799 209.263 369.191 209.263C366.654 209.263 365.203 210.272 365.964 211.505C367.582 214.119 385.004 212.002 388.367 208.784C389.817 207.396 388.645 206.904 385.054 207.391C380.409 208.02 379.3 207.042 378.285 201.429C377.474 196.944 376.477 195.655 375.283 197.548ZM414.517 215.205C422.332 222.268 417.99 239.416 406.112 248.393C400.177 252.878 399.144 252.612 397.529 246.191C396.756 243.113 394.511 240.595 392.539 240.595C389.656 240.595 390.037 239.176 394.491 233.322C397.536 229.322 401.714 222.774 403.776 218.774C408.082 210.426 408.922 210.147 414.517 215.205ZM336.835 217.21L330.114 220.477L336.835 219.188C340.532 218.479 344.516 216.961 345.685 215.818C348.833 212.743 344.677 213.396 336.835 217.21ZM447.742 219.945C447.742 220.898 441.219 229.687 433.245 239.479C415.574 261.183 378.384 293.429 367.145 296.793C360.388 298.814 351.766 298.009 317.652 292.163C294.931 288.268 269.787 283.689 261.777 281.988L247.214 278.893L271.86 280.057C315.42 282.116 376.748 274.191 389.154 264.899C391.388 263.227 397.796 258.48 403.392 254.351C415.261 245.597 424.026 231.529 422.518 223.653C421.512 218.394 421.91 218.215 434.61 218.215C441.831 218.215 447.742 218.994 447.742 219.945ZM65.6101 240.864C47.0294 258.67 30.1067 281.004 26.7705 292.125C23.0378 304.566 26.4569 311.401 39.3959 317.37C49.6262 322.09 52.2902 322.256 106.621 321.56C141.421 321.114 159.5 322 163.194 322.965C172 322.965 207.5 332.508 207.5 332.508C207.5 332.508 229.054 339.372 231.461 353.5C236.303 381.915 157.051 350.261 157.051 350.261L135.748 346.644C135.748 346.644 108.227 343.39 89.2567 344.404C47.3588 346.646 21.503 340.158 9.45571 324.377C1.70348 314.226 0.24041 301.473 5.30625 288.221C10.4572 274.746 34.4107 250.714 60.1298 233.212C84.0183 216.959 86.6801 220.677 65.6101 240.864ZM339.885 225.054C334.873 229.416 334.852 229.533 339.51 227.281C342.215 225.974 345.047 223.904 345.804 222.68C348.007 219.119 345.593 220.088 339.885 225.054ZM349.261 226.975C347.886 229.544 347.695 231.643 348.84 231.643C351.143 231.643 354.32 224.864 352.754 223.297C352.208 222.754 350.637 224.408 349.261 226.975ZM86.8391 239.68L91.5868 247.719L82.0198 246.137C76.759 245.266 71.6215 244.062 70.6043 243.458C68.6841 242.319 77.5947 231.643 80.4648 231.643C81.3588 231.643 84.2289 235.26 86.8391 239.68ZM450.164 296.809C434.599 304.579 424.635 316.094 420.633 330.939C418.384 339.285 418.612 340.371 423.441 344.285C428.052 348.025 431.451 348.419 451.102 347.499C474.917 346.387 480.776 344.222 499.834 329.514C510.311 321.425 510.649 315.114 501.183 304.344C486.655 287.816 472.396 285.713 450.164 296.809ZM484.222 295.153C492.581 298.725 502.592 308.91 504.743 316.029C505.959 320.058 504.463 322.256 496.592 327.985C479.526 340.411 470.382 343.956 452.406 345.126C423.613 347 418.115 341.812 427.772 321.882C435.289 306.372 441.744 302.576 458.384 303.883C466.085 304.488 474.968 306.674 478.125 308.74C481.28 310.806 485.062 312.066 486.527 311.54C487.993 311.016 485.434 308.762 480.839 306.533C474.332 303.375 473.033 301.824 474.953 299.512C476.803 297.286 476.622 296.547 474.229 296.547C472.477 296.547 470.062 297.527 468.861 298.727C467.55 300.036 464.012 300.157 460.011 299.031L453.343 297.154L461.185 294.815C472.103 291.556 475.941 291.612 484.222 295.153Z" fill="black"/>
</svg>
