<svg width="37" height="32" viewBox="0 0 37 32" fill="none" xmlns="http://www.w3.org/2000/svg">
<rect x="0.5" y="0.5" width="36" height="31" rx="5.5" fill="white"/>
<path d="M18.4201 2.33789C9.54687 2.33789 2.32812 8.52539 2.32812 16.131C2.32812 23.7366 9.54687 29.9244 18.4201 29.9244C27.2936 29.9244 34.5127 23.7369 34.5127 16.131C34.5127 8.52509 27.2936 2.33789 18.4201 2.33789ZM18.4201 29.3244C9.93292 29.3244 3.02812 23.406 3.02812 16.131C3.02812 8.85629 9.93292 2.93789 18.4201 2.93789C26.9076 2.93789 33.8127 8.85629 33.8127 16.131C33.8127 23.406 26.9076 29.3244 18.4201 29.3244V29.3244Z" fill="black"/>
<path d="M18.421 7.28516C12.7307 7.28516 8.10156 11.2536 8.10156 16.131C8.10156 19.8654 10.8585 23.2155 14.9637 24.4674L15.075 24.4998C15.2176 24.5391 15.3692 24.5486 15.517 24.5274C15.6648 24.5062 15.8046 24.455 15.9245 24.378C16.0445 24.301 16.1412 24.2004 16.2065 24.0848C16.2718 23.9692 16.3039 23.8419 16.3 23.7135L16.3007 23.6961V22.2105C16.3007 22.1659 16.2891 22.122 16.2669 22.0817C16.2446 22.0415 16.2122 22.006 16.1719 21.9779C16.1317 21.9497 16.0846 21.9296 16.0342 21.919C15.9838 21.9084 15.9312 21.9075 15.8803 21.9165C15.5702 21.9711 15.11 22.0359 14.6791 22.0359C14.2969 22.0359 14.0904 21.9837 13.9844 21.9399C13.4023 21.6999 13.1164 21.4113 12.8073 20.7525C12.5798 20.2653 12.2018 19.9524 11.8858 19.7472C12.0391 19.7676 12.2242 19.8222 12.3614 19.9572C12.4654 20.0592 12.5756 20.1909 12.6922 20.3301C13.143 20.868 13.7705 21.6156 14.8653 21.5208C15.3546 21.477 15.7652 21.4098 16.0858 21.3207C16.1495 21.303 16.206 21.2699 16.2485 21.2255C16.291 21.1811 16.3177 21.1272 16.3255 21.0702C16.3784 20.6829 16.5145 20.3886 16.7301 20.1951C16.7741 20.1556 16.8048 20.1066 16.8188 20.0534C16.8327 20.0001 16.8295 19.9446 16.8093 19.8928C16.7892 19.841 16.753 19.7949 16.7045 19.7595C16.6561 19.724 16.5973 19.7006 16.5345 19.6917C13.7723 19.3005 12.3719 18.0429 12.3719 15.954C12.3719 14.9724 12.6859 14.1657 13.305 13.5561C13.3393 13.5223 13.3643 13.4824 13.3782 13.4392C13.3921 13.3961 13.3946 13.3508 13.3855 13.3068C13.2039 12.4239 13.2291 11.706 13.445 11.436C13.6155 11.4078 14.2857 11.3928 15.7214 12.2595C15.7616 12.2839 15.8074 12.3007 15.8557 12.3088C15.904 12.3169 15.9538 12.3161 16.0018 12.3066C16.7049 12.168 17.5033 12.0951 18.3744 12.0906C18.3898 12.0906 18.4051 12.0897 18.4203 12.0879L18.4206 12.0903L18.4434 12.09L18.4668 12.0906C19.338 12.0954 20.1367 12.168 20.8395 12.3066C20.9357 12.3258 21.0376 12.3087 21.1198 12.2595C22.5611 11.3895 23.2429 11.415 23.3959 11.4351C23.6125 11.7039 23.6377 12.4227 23.4561 13.3071C23.4469 13.3511 23.4494 13.3964 23.4634 13.4395C23.4773 13.4827 23.5023 13.5226 23.5366 13.5564C24.1561 14.1651 24.4697 14.9718 24.4697 15.954C24.4697 18.0429 23.069 19.3005 20.3068 19.6917C20.2439 19.7006 20.1851 19.724 20.1367 19.7595C20.0883 19.7949 20.052 19.841 20.0319 19.8928C20.0118 19.9446 20.0085 20.0001 20.0225 20.0534C20.0364 20.1066 20.0671 20.1556 20.1111 20.1951C20.5413 20.58 20.5413 21.2673 20.5413 21.4932V23.7357C20.5415 23.8572 20.5738 23.9771 20.6359 24.0863C20.6979 24.1956 20.7881 24.2913 20.8996 24.3664C21.0111 24.4414 21.141 24.4939 21.2795 24.5197C21.4181 24.5455 21.5616 24.544 21.6994 24.5154C21.7141 24.5124 21.7705 24.4989 21.7932 24.4926C25.9491 23.2623 28.7414 19.9017 28.7414 16.131C28.7414 11.2533 24.1116 7.28516 18.421 7.28516V7.28516ZM21.5755 23.9232L21.5339 23.9331C21.3946 23.9628 21.242 23.8644 21.242 23.7363V21.4938C21.242 21.2727 21.242 20.7021 20.9522 20.1963C23.7154 19.6659 25.1707 18.207 25.1707 15.9543C25.1707 14.88 24.8354 13.9791 24.1732 13.2732C24.3272 12.4497 24.3801 11.4324 23.8544 10.971C23.8343 10.9536 23.812 10.9383 23.7879 10.9254C23.6514 10.8534 22.8926 10.4922 20.8454 11.6937C20.1307 11.5638 19.3334 11.4957 18.4721 11.4912V11.4936C18.4552 11.4917 18.4383 11.4907 18.4213 11.4906L18.373 11.49C18.3618 11.49 18.3506 11.4903 18.3394 11.4912C17.4903 11.4975 16.7035 11.5653 15.9976 11.6934C13.9497 10.4922 13.192 10.8531 13.0555 10.9251C13.0312 10.938 13.0089 10.9534 12.989 10.971C12.4633 11.4327 12.5158 12.45 12.6701 13.2729C12.0079 13.9791 11.6726 14.8806 11.6726 15.9543C11.6726 18.2067 13.1279 19.6659 15.8908 20.196C15.7839 20.3876 15.7082 20.5909 15.6658 20.8002C15.4663 20.8431 15.1824 20.8896 14.7936 20.9244C14.1013 20.9853 13.6767 20.4756 13.2613 19.9803C13.1349 19.8291 13.0149 19.6863 12.8892 19.5627C12.6089 19.2876 12.1913 19.1358 11.7132 19.1358C11.4129 19.1358 11.0297 19.2006 10.8557 19.3827C10.8163 19.4228 10.7878 19.4699 10.7722 19.5207C10.7567 19.5714 10.7545 19.6245 10.7658 19.6761C10.8053 19.8477 10.9674 19.9386 11.1725 20.0532C11.4714 20.2206 11.9232 20.4732 12.1584 20.9763C12.5298 21.7683 12.9424 22.176 13.6816 22.4808C13.935 22.5855 14.2612 22.6362 14.6802 22.6362C14.9955 22.6362 15.3196 22.6065 15.6017 22.569V23.6814C15.6 23.6996 15.6 23.718 15.6017 23.7363C15.6017 23.8692 15.44 23.9694 15.2909 23.9289L15.1968 23.9013C11.372 22.7349 8.80191 19.6122 8.80191 16.131C8.80191 11.5842 13.1171 7.88516 18.4213 7.88516C23.7259 7.88516 28.0414 11.5842 28.0414 16.131C28.0414 19.6461 25.4388 22.7787 21.5755 23.9232Z" fill="black"/>
<rect x="0.5" y="0.5" width="36" height="31" rx="5.5" stroke="black"/>
</svg>
