<svg width="278" height="379" viewBox="0 0 278 379" fill="none" xmlns="http://www.w3.org/2000/svg">
<path fill-rule="evenodd" clip-rule="evenodd" d="M140.444 125.039L160.211 136.02C160.211 136.02 180.281 117.604 180.493 114.567C181.038 106.696 179.01 97.5606 182.219 89.6647C187.516 76.6667 203.409 79.7522 207.344 86.7007C207.344 86.7007 181.432 86.5306 213.399 86.7007C214.834 86.6408 216.259 86.9182 217.501 87.4989C218.742 88.0795 219.746 88.9381 220.388 89.9696C221.031 91.0011 221.285 92.1606 221.119 93.3061C220.953 94.4516 220.374 95.5333 219.453 96.4188C219.12 96.7832 228.535 99.2613 222.48 106.841C230.109 113.62 220.543 117.726 219.877 118.26C208.343 127.031 195.054 146.175 188.394 154.703C173.924 173.435 133.602 155.553 130.878 153.585C129.939 153.027 140.444 125.039 140.444 125.039Z" fill="#E7BFFF"/>
<path d="M140.444 125.039L160.211 136.02C160.211 136.02 180.281 117.604 180.493 114.567C181.038 106.696 179.01 97.5606 182.219 89.6647C187.516 76.6667 203.409 79.7522 207.344 86.7007C207.344 86.7007 181.432 86.5306 213.399 86.7007C214.834 86.6408 216.259 86.9182 217.501 87.4989C218.742 88.0795 219.746 88.9381 220.388 89.9696C221.031 91.0011 221.285 92.1606 221.119 93.3061C220.953 94.4516 220.374 95.5333 219.453 96.4188C219.12 96.7832 228.535 99.2613 222.48 106.841C230.109 113.62 220.543 117.726 219.877 118.26C208.343 127.031 195.054 146.175 188.394 154.703C173.924 173.435 133.602 155.553 130.878 153.585C129.939 153.027 140.444 125.039 140.444 125.039Z" stroke="black" stroke-width="0.57" stroke-miterlimit="22.93" stroke-linecap="round"/>
<path d="M198.929 86.9921C189.848 87.8668 187.456 98.0465 199.293 97.6092C203.924 97.4391 209.918 97.0504 209.525 97.1233C208.072 97.3662 189.697 98.1436 195.176 104.679C198.627 108.761 213.006 107.109 212.521 107.109C209.436 107.348 206.425 108.014 203.622 109.077C195.115 111.798 197.295 117.556 205.62 118.139C207.739 118.284 210.796 118.357 213.006 118.357" stroke="black" stroke-width="0.57" stroke-miterlimit="22.93" stroke-linecap="round"/>
<path fill-rule="evenodd" clip-rule="evenodd" d="M159.939 83.0077H198.899V115.296C198.899 117.122 197.997 118.873 196.391 120.166C194.786 121.46 192.607 122.189 190.332 122.196H168.506C166.231 122.189 164.052 121.46 162.446 120.166C160.841 118.873 159.939 117.122 159.939 115.296V83.0077Z" fill="#E7BFFF"/>
<path d="M159.939 83.0077H198.899V115.296C198.899 117.122 197.997 118.873 196.391 120.166C194.786 121.46 192.607 122.189 190.332 122.196H168.506C166.231 122.189 164.052 121.46 162.446 120.166C160.841 118.873 159.939 117.122 159.939 115.296V83.0077Z" stroke="#373435" stroke-width="0.57" stroke-miterlimit="22.93" stroke-linecap="round"/>
<path d="M170.624 75.8649C163.298 60.5589 177.072 61.2877 177.011 52.0798C177.011 47.2208 171.744 45.4958 171.381 41.0984" stroke="#373435" stroke-width="0.57" stroke-miterlimit="22.93" stroke-linecap="round"/>
<path d="M179.161 79.1206C171.563 65.1752 178.495 66.3413 181.492 58.0081" stroke="#373435" stroke-width="0.57" stroke-miterlimit="22.93" stroke-linecap="round"/>
<path fill-rule="evenodd" clip-rule="evenodd" d="M77.7516 258.079C75.6959 258.092 73.7295 258.755 72.2787 259.924C70.8279 261.093 70.0099 262.673 70.002 264.323V372.145C70.1254 373.731 70.9971 375.219 72.4397 376.307C73.8823 377.395 75.7873 378 77.7667 378C79.7461 378 81.651 377.395 83.0936 376.307C84.5362 375.219 85.408 373.731 85.5314 372.145V264.323C85.5235 262.669 84.7012 261.085 83.2439 259.915C81.7867 258.746 79.8125 258.086 77.7516 258.079Z" fill="black"/>
<path d="M77.7516 258.079C75.6959 258.092 73.7295 258.755 72.2787 259.924C70.8279 261.093 70.0099 262.673 70.002 264.323V372.145C70.1254 373.731 70.9971 375.219 72.4397 376.307C73.8823 377.395 75.7873 378 77.7667 378C79.7461 378 81.651 377.395 83.0936 376.307C84.5362 375.219 85.408 373.731 85.5314 372.145V264.323C85.5235 262.669 84.7012 261.085 83.2439 259.915C81.7867 258.746 79.8125 258.086 77.7516 258.079Z" stroke="black" stroke-width="0.57" stroke-miterlimit="22.93" stroke-linecap="round"/>
<path d="M126.729 256.281H29.5265C20.699 256.281 13.543 262.025 13.543 269.109C13.543 276.194 20.699 281.937 29.5265 281.937H126.729C135.557 281.937 142.713 276.194 142.713 269.109C142.713 262.025 135.557 256.281 126.729 256.281Z" fill="black"/>
<path d="M126.729 256.281H29.5265C20.699 256.281 13.543 262.025 13.543 269.109C13.543 276.194 20.699 281.937 29.5265 281.937H126.729C135.557 281.937 142.713 276.194 142.713 269.109C142.713 262.025 135.557 256.281 126.729 256.281Z" stroke="black" stroke-width="0.57" stroke-miterlimit="22.93" stroke-linecap="round"/>
<path fill-rule="evenodd" clip-rule="evenodd" d="M82.3814 264.785C80.4709 265.392 78.937 266.58 78.1147 268.091C77.2923 269.603 77.2482 271.314 77.992 272.851L126.911 373.287C127.283 374.048 127.838 374.743 128.544 375.332C129.25 375.921 130.094 376.392 131.027 376.719C131.961 377.046 132.965 377.223 133.983 377.238C135.001 377.254 136.013 377.108 136.962 376.81C137.91 376.512 138.775 376.066 139.509 375.5C140.243 374.933 140.83 374.256 141.238 373.507C141.645 372.758 141.865 371.952 141.885 371.134C141.904 370.317 141.723 369.505 141.351 368.744L92.5225 268.332C92.1515 267.562 91.5938 266.858 90.8818 266.262C90.1698 265.666 89.3175 265.189 88.3744 264.86C87.4312 264.53 86.4159 264.353 85.3872 264.34C84.3585 264.328 83.3369 264.479 82.3814 264.785Z" fill="black"/>
<path d="M82.3814 264.785C80.4709 265.392 78.937 266.58 78.1147 268.091C77.2923 269.603 77.2482 271.314 77.992 272.851L126.911 373.287C127.283 374.048 127.838 374.743 128.544 375.332C129.25 375.921 130.094 376.392 131.027 376.719C131.961 377.046 132.965 377.223 133.983 377.238C135.001 377.254 136.013 377.108 136.962 376.81C137.91 376.512 138.775 376.066 139.509 375.5C140.243 374.933 140.83 374.256 141.238 373.507C141.645 372.758 141.865 371.952 141.885 371.134C141.904 370.317 141.723 369.505 141.351 368.744L92.5225 268.332C92.1515 267.562 91.5938 266.858 90.8818 266.262C90.1698 265.666 89.3175 265.189 88.3744 264.86C87.4312 264.53 86.4159 264.353 85.3872 264.34C84.3585 264.328 83.3369 264.479 82.3814 264.785Z" stroke="black" stroke-width="0.57" stroke-miterlimit="22.93" stroke-linecap="round"/>
<path fill-rule="evenodd" clip-rule="evenodd" d="M71.3932 264.785C73.3093 265.387 74.85 266.574 75.6783 268.085C76.5066 269.597 76.5551 271.31 75.8129 272.851L27.0147 373.287C26.264 374.824 24.7834 376.059 22.8986 376.719C21.0139 377.38 18.8793 377.413 16.9644 376.81C15.0496 376.208 13.5114 375.019 12.6883 373.507C11.8651 371.994 11.8244 370.281 12.575 368.744L61.4338 268.332C62.1781 266.808 63.6412 265.58 65.5056 264.916C67.3701 264.252 69.4856 264.205 71.3932 264.785Z" fill="black"/>
<path d="M71.3932 264.785C73.3093 265.387 74.85 266.574 75.6783 268.085C76.5066 269.597 76.5551 271.31 75.8129 272.851L27.0147 373.287C26.264 374.824 24.7834 376.059 22.8986 376.719C21.0139 377.38 18.8793 377.413 16.9644 376.81C15.0496 376.208 13.5114 375.019 12.6883 373.507C11.8651 371.994 11.8244 370.281 12.575 368.744L61.4338 268.332C62.1781 266.808 63.6412 265.58 65.5056 264.916C67.3701 264.252 69.4856 264.205 71.3932 264.785Z" stroke="black" stroke-width="0.57" stroke-miterlimit="22.93" stroke-linecap="round"/>
<path fill-rule="evenodd" clip-rule="evenodd" d="M241.945 336.942H178.374C177.865 336.954 177.381 337.121 177.021 337.41C176.661 337.699 176.452 338.088 176.436 338.496L173.409 372.898H275.032C276.939 358.491 263.801 354.118 248.302 347.947C242.278 344.376 241.945 336.942 241.945 336.942Z" fill="#E7BFFF"/>
<path d="M241.945 336.942H178.374C177.865 336.954 177.381 337.121 177.021 337.41C176.661 337.699 176.452 338.088 176.436 338.496L173.409 372.898H275.032C276.939 358.491 263.801 354.118 248.302 347.947C242.278 344.376 241.945 336.942 241.945 336.942Z" stroke="black" stroke-width="0.57" stroke-linecap="round" stroke-linejoin="round"/>
<path d="M275.062 367.384H172.168C171.098 367.384 170.231 368.08 170.231 368.938V376.3C170.231 377.159 171.098 377.855 172.168 377.855H275.062C276.132 377.855 277 377.159 277 376.3V368.938C277 368.08 276.132 367.384 275.062 367.384Z" fill="#E7BFFF"/>
<path d="M275.062 367.384H172.168C171.098 367.384 170.231 368.08 170.231 368.938V376.3C170.231 377.159 171.098 377.855 172.168 377.855H275.062C276.132 377.855 277 377.159 277 376.3V368.938C277 368.08 276.132 367.384 275.062 367.384Z" stroke="black" stroke-width="0.57" stroke-linecap="round" stroke-linejoin="round"/>
<path fill-rule="evenodd" clip-rule="evenodd" d="M240.916 337.671L242.248 341.946C225.417 339.796 208.448 338.417 191.421 337.816L240.916 337.671Z" fill="black"/>
<path d="M240.916 337.671L242.248 341.946C225.417 339.796 208.448 338.417 191.421 337.816L240.916 337.671Z" stroke="black" stroke-width="0.57" stroke-miterlimit="22.93" stroke-linecap="round"/>
<path fill-rule="evenodd" clip-rule="evenodd" d="M190.635 336.844H127.064C126.557 336.862 126.077 337.032 125.718 337.319C125.36 337.607 125.149 337.992 125.126 338.399L122.099 372.801H223.782C225.689 358.394 212.551 354.021 197.022 347.85C191.119 344.279 190.635 336.844 190.635 336.844Z" fill="#E7BFFF"/>
<path d="M190.635 336.844H127.064C126.557 336.862 126.077 337.032 125.718 337.319C125.36 337.607 125.149 337.992 125.126 338.399L122.099 372.801H223.782C225.689 358.394 212.551 354.021 197.022 347.85C191.119 344.279 190.635 336.844 190.635 336.844Z" stroke="black" stroke-width="0.57" stroke-linecap="round" stroke-linejoin="round"/>
<path d="M223.904 367.311H121.01C119.94 367.311 119.072 368.007 119.072 368.866V376.227C119.072 377.086 119.94 377.782 121.01 377.782H223.904C224.974 377.782 225.841 377.086 225.841 376.227V368.866C225.841 368.007 224.974 367.311 223.904 367.311Z" fill="#E7BFFF"/>
<path d="M223.904 367.311H121.01C119.94 367.311 119.072 368.007 119.072 368.866V376.227C119.072 377.086 119.94 377.782 121.01 377.782H223.904C224.974 377.782 225.841 377.086 225.841 376.227V368.866C225.841 368.007 224.974 367.311 223.904 367.311Z" stroke="black" stroke-width="0.57" stroke-linecap="round" stroke-linejoin="round"/>
<path fill-rule="evenodd" clip-rule="evenodd" d="M190.664 337.573L191.966 341.873C175.576 339.637 159.023 338.249 142.411 337.719L190.664 337.573Z" fill="black"/>
<path d="M190.664 337.573L191.966 341.873C175.576 339.637 159.023 338.249 142.411 337.719L190.664 337.573Z" stroke="black" stroke-width="0.57" stroke-miterlimit="22.93" stroke-linecap="round"/>
<path fill-rule="evenodd" clip-rule="evenodd" d="M127.578 34.9031C127.578 55.6755 127.578 55.3354 127.578 76.205C127.124 127.492 165.025 128.513 160.635 199.212C160 209.537 149.495 208.25 147.528 222.122C132.997 224.965 94.0978 213.57 79.5673 216.388C65.0671 213.57 29.1344 236.869 14.6342 234.027C10.7291 220.324 5.97639 212.161 6.09748 201.374C6.67265 135.777 40.5771 119.451 40.5166 79.8979V35.0489C40.4258 -11.1121 127.488 -9.53289 127.578 34.9031Z" fill="#E7BFFF"/>
<path d="M127.578 34.9031C127.578 55.6755 127.578 55.3354 127.578 76.205C127.124 127.492 165.025 128.513 160.635 199.212C160 209.537 149.495 208.25 147.528 222.122C132.997 224.965 94.0978 213.57 79.5673 216.388C65.0671 213.57 29.1344 236.869 14.6342 234.027C10.7291 220.324 5.97639 212.161 6.09748 201.374C6.67265 135.777 40.5771 119.451 40.5166 79.8979V35.0489C40.4258 -11.1121 127.488 -9.53289 127.578 34.9031Z" stroke="black" stroke-width="0.57" stroke-linecap="round" stroke-linejoin="round"/>
<path fill-rule="evenodd" clip-rule="evenodd" d="M178.949 197.608C204.195 198.799 247.181 207.521 245.305 255.188C245.305 301.713 245.547 335.241 245.305 337.646C247.696 338.253 124.974 338.132 124.974 338.132C124.974 338.132 125.852 283.128 125.458 272.413C125.125 263.4 124.58 256.087 108.657 256.136C105.842 256.136 70.3938 256.136 67.4271 256.281C42.9675 257.01 0.223651 258.711 1.01072 219.838C1.01072 214.008 3.28111 208.201 6.30829 199.333C6.38317 198.744 6.38317 198.149 6.30829 197.56H147.012C157.002 197.608 169.292 197.171 178.949 197.608Z" fill="#E7BFFF"/>
<path d="M178.949 197.608C204.195 198.799 247.181 207.521 245.305 255.188C245.305 301.713 245.547 335.241 245.305 337.646C247.696 338.253 124.974 338.132 124.974 338.132C124.974 338.132 125.852 283.128 125.458 272.413C125.125 263.4 124.58 256.087 108.657 256.136C105.842 256.136 70.3938 256.136 67.4271 256.281C42.9675 257.01 0.223651 258.711 1.01072 219.838C1.01072 214.008 3.28111 208.201 6.30829 199.333C6.38317 198.744 6.38317 198.149 6.30829 197.56H147.012C157.002 197.608 169.292 197.171 178.949 197.608Z" stroke="black" stroke-width="0.57" stroke-linecap="round" stroke-linejoin="round"/>
<path fill-rule="evenodd" clip-rule="evenodd" d="M41.3337 88.0853H127.608C129.214 88.0853 130.754 88.5972 131.89 89.5084C133.025 90.4197 133.663 91.6556 133.663 92.9443C133.663 94.233 133.025 95.4689 131.89 96.3802C130.754 97.2914 129.214 97.8034 127.608 97.8034H41.3337C39.7279 97.8034 38.188 97.2914 37.0526 96.3802C35.9172 95.4689 35.2793 94.233 35.2793 92.9443C35.2793 91.6556 35.9172 90.4197 37.0526 89.5084C38.188 88.5972 39.7279 88.0853 41.3337 88.0853Z" fill="#E7BFFF"/>
<path d="M41.3337 88.0853H127.608C129.214 88.0853 130.754 88.5972 131.89 89.5084C133.025 90.4197 133.663 91.6556 133.663 92.9443C133.663 94.233 133.025 95.4689 131.89 96.3802C130.754 97.2914 129.214 97.8034 127.608 97.8034H41.3337C39.7279 97.8034 38.188 97.2914 37.0526 96.3802C35.9172 95.4689 35.2793 94.233 35.2793 92.9443C35.2793 91.6556 35.9172 90.4197 37.0526 89.5084C38.188 88.5972 39.7279 88.0853 41.3337 88.0853Z" stroke="black" stroke-width="0.57" stroke-miterlimit="22.93" stroke-linecap="round"/>
<path d="M40.5161 30.8702H173.228" stroke="black" stroke-width="0.57" stroke-miterlimit="22.93" stroke-linecap="round"/>
<path fill-rule="evenodd" clip-rule="evenodd" d="M129.514 97.8521L130.846 102.152C114.021 99.9718 97.0489 98.5926 80.02 98.0221L129.514 97.8521Z" fill="black"/>
<path d="M129.514 97.8521L130.846 102.152C114.021 99.9718 97.0489 98.5926 80.02 98.0221L129.514 97.8521Z" stroke="black" stroke-width="0.57" stroke-miterlimit="22.93" stroke-linecap="round"/>
<path fill-rule="evenodd" clip-rule="evenodd" d="M126.216 30.7L127.548 35.0003C110.722 32.8178 93.7502 31.4386 76.7212 30.8701L126.216 30.7Z" fill="black"/>
<path d="M126.216 30.7L127.548 35.0003C110.722 32.8178 93.7502 31.4386 76.7212 30.8701L126.216 30.7Z" stroke="black" stroke-width="0.57" stroke-miterlimit="22.93" stroke-linecap="round"/>
<path d="M194.963 338.448V250.062C194.963 245.883 197.325 200.621 147.013 197.511" stroke="black" stroke-width="0.57" stroke-miterlimit="22.93" stroke-linecap="round"/>
<path fill-rule="evenodd" clip-rule="evenodd" d="M124.671 61.3606C123.674 61.3606 122.699 61.1238 121.869 60.6801C121.039 60.2364 120.391 59.6056 120.007 58.867C119.622 58.1285 119.519 57.3152 119.709 56.5295C119.899 55.7438 120.375 55.0208 121.076 54.4515C121.777 53.8822 122.672 53.492 123.648 53.33C124.625 53.168 125.64 53.2414 126.564 53.5411C127.489 53.8407 128.283 54.3532 128.845 55.014C129.408 55.6748 129.715 56.4544 129.727 57.2547C129.731 57.7908 129.603 58.3221 129.351 58.8186C129.099 59.315 128.728 59.7667 128.259 60.148C127.789 60.5293 127.231 60.8326 126.615 61.0407C126 61.2487 125.339 61.3575 124.671 61.3606Z" fill="#FEFEFE"/>
<path d="M124.671 61.3606C123.674 61.3606 122.699 61.1238 121.869 60.6801C121.039 60.2364 120.391 59.6056 120.007 58.867C119.622 58.1285 119.519 57.3152 119.709 56.5295C119.899 55.7438 120.375 55.0208 121.076 54.4515C121.777 53.8822 122.672 53.492 123.648 53.33C124.625 53.168 125.64 53.2414 126.564 53.5411C127.489 53.8407 128.283 54.3532 128.845 55.014C129.408 55.6748 129.715 56.4544 129.727 57.2547C129.731 57.7908 129.603 58.3221 129.351 58.8186C129.099 59.315 128.728 59.7667 128.259 60.148C127.789 60.5293 127.231 60.8326 126.615 61.0407C126 61.2487 125.339 61.3575 124.671 61.3606Z" stroke="black" stroke-width="0.57" stroke-linecap="round" stroke-linejoin="round"/>
<path fill-rule="evenodd" clip-rule="evenodd" d="M82.2013 53.246C83.2037 53.2461 84.1835 53.4853 85.0161 53.9333C85.8487 54.3813 86.4966 55.0179 86.8774 55.7621C87.2581 56.5063 87.3547 57.3246 87.1546 58.1129C86.9546 58.9013 86.4671 59.6241 85.754 60.1895C85.0409 60.755 84.1345 61.1375 83.1499 61.2885C82.1653 61.4395 81.147 61.3522 80.2244 61.0377C79.3017 60.7231 78.5164 60.1955 77.9683 59.522C77.4201 58.8484 77.1339 58.0592 77.1459 57.2548C77.1618 56.1871 77.7014 55.1676 78.6478 54.4172C79.5941 53.6667 80.8709 53.246 82.2013 53.246Z" fill="#FEFEFE"/>
<path d="M82.2013 53.246C83.2037 53.2461 84.1835 53.4853 85.0161 53.9333C85.8487 54.3813 86.4966 55.0179 86.8774 55.7621C87.2581 56.5063 87.3547 57.3246 87.1546 58.1129C86.9546 58.9013 86.4671 59.6241 85.754 60.1895C85.0409 60.755 84.1345 61.1375 83.1499 61.2885C82.1653 61.4395 81.147 61.3522 80.2244 61.0377C79.3017 60.7231 78.5164 60.1955 77.9683 59.522C77.4201 58.8484 77.1339 58.0592 77.1459 57.2548C77.1618 56.1871 77.7014 55.1676 78.6478 54.4172C79.5941 53.6667 80.8709 53.246 82.2013 53.246Z" stroke="black" stroke-width="0.57" stroke-linecap="round" stroke-linejoin="round"/>
<path d="M122.764 41.5601C124.759 41.3259 126.795 41.5799 128.607 42.2889" stroke="black" stroke-width="0.57" stroke-miterlimit="22.93" stroke-linecap="round"/>
<path d="M84.3493 41.5599C82.3548 41.3211 80.3169 41.5753 78.5068 42.2888" stroke="black" stroke-width="0.57" stroke-miterlimit="22.93" stroke-linecap="round"/>
<path fill-rule="evenodd" clip-rule="evenodd" d="M126.185 58.9798C126.338 58.9798 126.484 59.0285 126.592 59.115C126.7 59.2016 126.761 59.319 126.761 59.4415C126.753 59.562 126.69 59.676 126.584 59.7613C126.478 59.8467 126.336 59.8972 126.185 59.9031C126.033 59.9031 125.887 59.8544 125.779 59.7679C125.671 59.6813 125.61 59.5639 125.61 59.4415C125.606 59.3799 125.618 59.3183 125.645 59.2607C125.672 59.2031 125.715 59.1508 125.769 59.1072C125.823 59.0636 125.888 59.0297 125.96 59.0078C126.032 58.9858 126.109 58.9763 126.185 58.9798Z" fill="black"/>
<path d="M126.185 58.9798C126.338 58.9798 126.484 59.0285 126.592 59.115C126.7 59.2016 126.761 59.319 126.761 59.4415C126.753 59.562 126.69 59.676 126.584 59.7613C126.478 59.8467 126.336 59.8972 126.185 59.9031C126.033 59.9031 125.887 59.8544 125.779 59.7679C125.671 59.6813 125.61 59.5639 125.61 59.4415C125.606 59.3799 125.618 59.3183 125.645 59.2607C125.672 59.2031 125.715 59.1508 125.769 59.1072C125.823 59.0636 125.888 59.0297 125.96 59.0078C126.032 58.9858 126.109 58.9763 126.185 58.9798Z" stroke="black" stroke-width="0.57" stroke-linecap="round" stroke-linejoin="round"/>
<path fill-rule="evenodd" clip-rule="evenodd" d="M84.0463 59.4414C83.8962 59.4355 83.7541 59.385 83.6478 59.2997C83.5415 59.2143 83.4785 59.1003 83.4712 58.9798C83.471 58.855 83.5306 58.735 83.6377 58.6445C83.7448 58.5541 83.8911 58.5001 84.0463 58.4939C84.1245 58.4938 84.2018 58.5065 84.2737 58.5312C84.3455 58.5559 84.4103 58.5921 84.4641 58.6376C84.518 58.683 84.5597 58.7368 84.5867 58.7957C84.6138 58.8545 84.6256 58.9172 84.6215 58.9798C84.6215 59.1022 84.5609 59.2196 84.4531 59.3062C84.3452 59.3928 84.1989 59.4414 84.0463 59.4414Z" fill="black"/>
<path d="M84.0463 59.4414C83.8962 59.4355 83.7541 59.385 83.6478 59.2997C83.5415 59.2143 83.4785 59.1003 83.4712 58.9798C83.471 58.855 83.5306 58.735 83.6377 58.6445C83.7448 58.5541 83.8911 58.5001 84.0463 58.4939C84.1245 58.4938 84.2018 58.5065 84.2737 58.5312C84.3455 58.5559 84.4103 58.5921 84.4641 58.6376C84.518 58.683 84.5597 58.7368 84.5867 58.7957C84.6138 58.8545 84.6256 58.9172 84.6215 58.9798C84.6215 59.1022 84.5609 59.2196 84.4531 59.3062C84.3452 59.3928 84.1989 59.4414 84.0463 59.4414Z" stroke="black" stroke-width="0.57" stroke-linecap="round" stroke-linejoin="round"/>
<path d="M90.1924 69.1109C91.373 71.3947 94.6726 71.6862 97.3971 71.6862" stroke="#373435" stroke-width="0.57" stroke-miterlimit="22.93" stroke-linecap="round"/>
<path fill-rule="evenodd" clip-rule="evenodd" d="M113.532 103.926L160.514 117.288L137.568 182.885L86.1055 168.308L107.81 106.283C107.962 105.81 108.236 105.369 108.615 104.988C108.995 104.607 109.47 104.295 110.011 104.072C110.552 103.849 111.145 103.721 111.752 103.696C112.359 103.671 112.965 103.749 113.532 103.926Z" fill="black"/>
<path d="M113.532 103.926L160.514 117.288L137.568 182.885L86.1055 168.308L107.81 106.283C107.962 105.81 108.236 105.369 108.615 104.988C108.995 104.607 109.47 104.295 110.011 104.072C110.552 103.849 111.145 103.721 111.752 103.696C112.359 103.671 112.965 103.749 113.532 103.926Z" stroke="black" stroke-width="0.57" stroke-miterlimit="22.93" stroke-linecap="round"/>
<path fill-rule="evenodd" clip-rule="evenodd" d="M178.374 104.971L161.059 117.118L138.113 182.715L158.879 168.138L179.555 109.076C180.917 105.456 180.372 103.634 178.374 104.971Z" fill="black"/>
<path d="M178.374 104.971L161.059 117.118L138.113 182.715L158.879 168.138L179.555 109.076C180.917 105.456 180.372 103.634 178.374 104.971Z" stroke="black" stroke-width="0.57" stroke-miterlimit="22.93" stroke-linecap="round"/>
<path fill-rule="evenodd" clip-rule="evenodd" d="M56.5303 113.62C67.1557 125.622 69.1234 137.696 83.0182 148.095C85.6216 150.038 103.906 154.339 117.74 157.521C123.613 158.858 134.541 156.039 137.265 156.72C139.99 157.4 144.773 159.392 140.868 165.053C140.111 166.17 150.343 165.369 152.28 167.021C157.699 171.71 149.253 175.208 149.253 175.208C149.707 178.901 146.559 180.31 141.867 181.768C141.505 182.66 140.83 183.449 139.922 184.039C139.014 184.63 137.913 184.997 136.751 185.096C124.559 186.069 112.248 185.246 100.425 182.667C96.1562 181.719 91.6457 180.577 87.3471 179.387C65.3394 173.289 47.9937 169.669 37.338 151.909C36.3996 150.354 31.7377 142.823 28.2564 137.551C19.1749 123.459 48.5991 103.319 56.4395 113.498" fill="#E7BFFF"/>
<path d="M56.5307 113.62C67.1562 125.621 69.1238 137.696 83.0186 148.095C85.622 150.038 103.906 154.338 117.74 157.521C123.613 158.857 134.541 156.039 137.266 156.719C139.99 157.4 144.773 159.392 140.868 165.053C140.111 166.17 150.343 165.368 152.281 167.021C157.699 171.71 149.253 175.208 149.253 175.208C149.707 178.901 146.559 180.31 141.867 181.768C141.506 182.66 140.83 183.448 139.922 184.039C139.015 184.63 137.913 184.997 136.751 185.096C124.559 186.069 112.248 185.246 100.425 182.667C96.1566 181.719 91.6461 180.577 87.3475 179.387C65.3398 173.289 47.9941 169.669 37.3384 151.909C36.4 150.354 31.7381 142.823 28.2568 137.55" stroke="black" stroke-width="0.57" stroke-miterlimit="22.93" stroke-linecap="round"/>
<path d="M135.994 173.872C140.558 174.903 145.311 175.289 150.04 175.014" stroke="black" stroke-width="0.57" stroke-miterlimit="22.93" stroke-linecap="round"/>
<path d="M128.426 180.407C132.98 181.438 137.723 181.824 142.442 181.549" stroke="black" stroke-width="0.57" stroke-miterlimit="22.93" stroke-linecap="round"/>
<path fill-rule="evenodd" clip-rule="evenodd" d="M117.831 188.06C93.9469 186.068 65.9757 175.232 54.2605 168.624C52.5653 167.652 47.6309 164.057 54.0486 167.992C60.4662 171.928 72.2117 175.281 81.2932 177.905C97.4897 182.731 114.602 185.279 131.878 185.436C131.878 185.436 128.154 188.911 117.831 188.06Z" fill="black"/>
<path d="M117.831 188.06C93.9469 186.068 65.9757 175.232 54.2605 168.624C52.5653 167.652 47.6309 164.057 54.0486 167.992C60.4662 171.928 72.2117 175.281 81.2932 177.905C97.4897 182.731 114.602 185.279 131.878 185.436C131.878 185.436 128.154 188.911 117.831 188.06Z" stroke="black" stroke-width="0.57" stroke-miterlimit="22.93" stroke-linecap="round"/>
<path d="M141.926 165.66L129.969 164.47" stroke="black" stroke-width="0.57" stroke-miterlimit="22.93" stroke-linecap="round"/>
</svg>
