<svg width="243" height="281" viewBox="0 0 243 281" fill="none" xmlns="http://www.w3.org/2000/svg">
<path d="M127.413 257.887V132.412" stroke="#DFDFDF" stroke-width="7" stroke-linecap="round" stroke-linejoin="round"/>
<path d="M110.084 193.173C109.719 195.079 141.452 245.988 143.992 245.988C147.25 245.988 154.731 240.402 154.731 238.825C154.731 237.247 140.439 200.579 140.439 194.386C140.439 188.194 113.219 176.775 110.084 193.173Z" fill="black"/>
<path d="M104.46 272.062V132.412" stroke="#DFDFDF" stroke-width="7" stroke-linecap="round" stroke-linejoin="round"/>
<path d="M242.288 87.4482L233.757 85.4252L201.055 225.085L209.585 227.108L242.288 87.4482Z" fill="#DFDFDF"/>
<path d="M209.578 227.123L211.588 218.538L131.764 199.607L129.753 208.192L209.578 227.123Z" fill="#DFDFDF"/>
<path d="M116.328 55.7625C117.552 55.7625 118.545 54.7636 118.545 53.5313C118.545 52.299 117.552 51.3 116.328 51.3C115.103 51.3 114.111 52.299 114.111 53.5313C114.111 54.7636 115.103 55.7625 116.328 55.7625Z" fill="white"/>
<path d="M126.24 55.7625C127.464 55.7625 128.457 54.7636 128.457 53.5313C128.457 52.299 127.464 51.3 126.24 51.3C125.015 51.3 124.022 52.299 124.022 53.5313C124.022 54.7636 125.015 55.7625 126.24 55.7625Z" fill="white"/>
<path d="M136.151 55.7625C137.376 55.7625 138.368 54.7636 138.368 53.5313C138.368 52.299 137.376 51.3 136.151 51.3C134.927 51.3 133.934 52.299 133.934 53.5313C133.934 54.7636 134.927 55.7625 136.151 55.7625Z" fill="white"/>
<path d="M162.055 124.564C166.799 102.968 177.233 78.1696 196.323 70.6437" stroke="black" stroke-width="2.5" stroke-linecap="round" stroke-linejoin="round"/>
<path d="M214.148 69.4125C222.096 72.6202 225.487 82.5086 225.487 89.8875C225.487 131.1 217.057 172.344 212.184 175.462C203.577 180.975 163.377 167.85 159.757 159.187C158.685 156.623 158.474 149.37 159.496 140.009" stroke="black" stroke-width="2.5" stroke-linecap="round" stroke-linejoin="round"/>
<path d="M196.323 70.6436C196.58 67.3249 196.621 63.9927 196.445 60.6686" stroke="black" stroke-width="2.5" stroke-linecap="round" stroke-linejoin="round"/>
<path d="M210.926 55C210.654 56.0921 211.198 65.3746 215 71.1989C214.166 72.0925 209.139 73.6706 204 74" stroke="black" stroke-width="2.5" stroke-linecap="round" stroke-linejoin="round"/>
<path d="M191.187 119.812C189.729 123.333 187.535 129.525 187.144 135.3C183.232 133.725 145.672 116.662 138.629 116.662C124.805 116.662 121.153 121.125 121.153 123.225C121.153 127.162 138.107 126.637 140.455 127.95C142.802 129.262 189.231 159.712 194.969 159.712C200.152 159.712 212.362 139.576 215.053 131.234" stroke="black" stroke-width="2.5" stroke-linecap="round" stroke-linejoin="round"/>
<path d="M221.639 123.094C220.126 127.95 218.269 131.286 216.618 131.363C210.88 131.625 190.013 120.6 188.448 117.188C187.405 114.938 195.23 99.2141 204.268 90.4991" stroke="black" stroke-width="2.5" stroke-linecap="round" stroke-linejoin="round"/>
<path d="M133.934 129H0.90918V134.25H133.934V129Z" fill="#DFDFDF"/>
<path d="M8.99512 272.062V132.412" stroke="#DFDFDF" stroke-width="7" stroke-linecap="round" stroke-linejoin="round"/>
<path d="M32.9917 257.887V132.412" stroke="#DFDFDF" stroke-width="7" stroke-linecap="round" stroke-linejoin="round"/>
<path d="M128.457 126.113H98.4609V129H128.457V126.113Z" fill="black"/>
<path d="M84.3828 89.1063L98.1201 127.825L98.9332 127.533L85.1958 88.8141L84.3828 89.1063Z" fill="black"/>
<path d="M195.822 222.083L214.023 277.032" stroke="#DFDFDF" stroke-width="7" stroke-linecap="round" stroke-linejoin="round"/>
<path d="M151.603 251.968L134.312 275.094" stroke="#DFDFDF" stroke-width="7" stroke-linecap="round" stroke-linejoin="round"/>
<path d="M176.614 218.675L157.537 244.19" stroke="#DFDFDF" stroke-width="7" stroke-linecap="round" stroke-linejoin="round"/>
<path d="M148.342 211.971L106.484 267.952" stroke="#DFDFDF" stroke-width="7" stroke-linecap="round" stroke-linejoin="round"/>
<path d="M168.411 217.113L186.612 272.063" stroke="#DFDFDF" stroke-width="7" stroke-linecap="round" stroke-linejoin="round"/>
<path d="M210.121 176.305C198.501 179.284 163.147 167.28 159.757 159.187C159.506 158.523 159.331 157.831 159.235 157.127C143.872 153.15 127.324 150.22 112.929 150.22C89.2585 150.22 69.8916 254.538 69.8916 256.336C71.7905 256.898 84.6339 258.699 84.6339 258.699C84.6339 258.699 116.808 192.601 117.702 188.104C120.942 190.351 161.754 211.708 177.511 211.708C194.781 211.708 210.969 193.858 210.969 177.423C210.969 177.145 210.676 176.775 210.121 176.305Z" fill="black"/>
<path d="M84.1854 257.517L80.8754 277.344L49.4189 272.322L74.3024 267.45L76.3891 256.208" stroke="black" stroke-width="2.5" stroke-linecap="round" stroke-linejoin="round"/>
<path d="M153.053 238.696L164.42 255.231L138.395 273.706L152.855 252.75L146.559 243.23" stroke="black" stroke-width="2.5" stroke-linecap="round" stroke-linejoin="round"/>
<path fill-rule="evenodd" clip-rule="evenodd" d="M209.279 0.0922064C206.063 -0.42585 201.625 1.25855 200.023 4.65476C192.377 2.54312 182.733 2.47344 176.43 9.50404C169.854 17.8432 178.115 28.8389 183.591 31.3184C183.193 33.5882 183.814 48.1332 188.213 54.6212C191.705 60.1182 199.836 62.6548 203.598 56.0891L203.628 56.0349C204.031 55.2769 203.683 55.3009 203.27 55.8652C199.585 59.6607 195.36 59.3614 191.5 55.3552C184.266 48.0338 184.228 30.4462 187.67 20.0611C197.473 18.7994 207.968 22.2801 214.738 30.9248L214.28 34.1537C214.203 34.7037 214.114 35.2532 214.046 35.8055C214.003 36.1591 213.998 36.5109 214.207 36.7971C214.898 37.7424 216.062 36.3219 217.02 35.757C217.299 35.7088 217.582 35.6948 217.863 35.7153C222.465 36.4099 221.558 46.8675 216.501 45.0346C216.076 44.7245 215.711 44.8193 215.546 45.2694C214.341 46.5631 213.546 48.87 211.543 51.0919C210.836 51.9258 210.193 52.6232 209.398 53.2915C208.932 53.845 207.523 54.4087 207.969 55.3552C208.814 57.5091 213.794 50.7435 214.674 48.8723C217.433 50.1489 220.49 49.7154 223.349 49.4035C238.431 48.4845 236.418 29.859 224.056 18.0997C221.728 16.0926 219.161 14.4556 216.492 13.1955C216.128 13.0236 216.287 12.3228 216.656 12.497C218.429 13.3318 220.144 14.3265 221.785 15.4723L221.787 14.7851C221.79 13.6285 221.774 12.4245 221.603 11.3678C221.517 10.6355 221.373 9.85303 221.151 9.26472C220.877 7.46095 216.578 1.2694 209.279 0.0922064ZM218.065 38.1165C217.832 37.8572 217.397 38.1662 217.19 38.1588C216.66 38.2433 216.156 38.5061 215.763 38.8299C215.504 39.0001 215.322 39.1595 215.17 39.3069L215.156 39.3183C214.935 39.5028 214.125 40.5394 214.637 40.2607C214.674 40.2033 214.713 40.1472 214.753 40.0922C214.758 40.1005 214.764 40.1079 214.77 40.1139L214.742 40.1642C214.306 40.9301 215.057 40.1231 215.173 39.9083C215.178 39.9132 215.184 39.9174 215.19 39.9209L215.04 40.1356L214.989 40.2105L214.957 40.2464C214.454 40.8256 214.439 41.3465 215.023 40.4903C215 40.526 214.985 40.5675 214.979 40.6114L214.944 40.6634C214.485 41.3551 214.859 41.1095 215.086 40.8136L215.105 40.7885L215.101 40.7953C214.89 41.178 215.31 40.9096 215.384 40.7051L215.388 40.6954C215.469 40.6183 215.518 40.5315 215.536 40.5092L215.538 40.5057C215.933 40.0322 216.504 39.6319 216.99 39.4502C217.06 39.4341 217.132 39.4217 217.203 39.4131C217.495 39.3368 217.79 39.2843 218.088 39.256C218.125 39.2509 218.162 39.2195 218.19 39.1789C218.64 39.1612 218.501 38.9447 218.314 38.9047L218.311 38.9042L218.348 38.9002C218.637 38.867 218.835 38.7454 218.542 38.6711L218.505 38.662C218.51 38.654 218.514 38.6454 218.518 38.6374C218.769 38.6049 218.605 38.3199 218.466 38.3884C218.524 38.1645 218.257 38.2765 218.223 38.2433C218.198 38.2102 218.166 38.1811 218.148 38.1794C218.068 38.1125 218.107 38.1188 218.065 38.1165ZM216.531 34.4873L216.59 34.5273C216.635 34.5583 216.684 34.5808 216.735 34.5941C216.666 34.6284 216.598 34.666 216.53 34.7055C216.531 34.6569 216.532 34.6084 216.532 34.5598L216.531 34.4873Z" fill="black"/>
</svg>
