<svg width="611" height="993" viewBox="0 0 611 993" fill="none" xmlns="http://www.w3.org/2000/svg">
<g clip-path="url(#clip0_122_376)">
<path d="M94.4713 458.122C75.4476 397.581 26.0537 253.384 22.0146 247.323C17.03 239.861 25.0979 227.433 36.989 227.433C43.7927 227.433 89.6306 242.911 109.528 271.503" stroke="black" stroke-width="2.5" stroke-miterlimit="10" stroke-linecap="round"/>
<path d="M111.224 395.421C115.715 250.19 91.6963 70.5016 91.6963 63.5405C91.6963 56.0471 94.5843 41.0193 104.43 41.0193C112.652 41.0193 169.641 75.6507 187.596 123.672" stroke="black" stroke-width="2.5" stroke-miterlimit="10" stroke-linecap="round"/>
<path d="M87.3589 576.184C87.5747 550.51 90.658 481.923 93.7412 461.449C96.8245 440.975 217.072 22.0297 217.524 15.9388C217.976 9.84783 221.83 1.27954 228.624 1.27954C274.492 1.27954 282.519 88.1192 282.519 105.942C282.519 120.713 244.009 330.416 226.568 411.349" stroke="black" stroke-width="2.5" stroke-miterlimit="10" stroke-linecap="round"/>
<path d="M300.361 991.72C299.333 969.199 339.416 842.262 344.555 819.74C344.555 819.74 466.857 718.395 486.385 700.992C505.912 683.59 609.715 498.302 609.715 491.136C609.715 483.97 588.132 475.78 581.966 476.804C552.161 438.928 352.777 339.63 341.471 339.63C330.166 339.63 178.058 438.928 124.615 492.159C71.172 545.391 56.7834 789.03 55.7557 807.456C54.7279 825.883 22.8675 908.801 12.59 938.488L1.28467 991.72M379.498 647.76C360.999 647.76 254.112 568.936 253.085 564.842C252.057 560.747 261.307 515.704 265.418 511.61C269.529 507.515 357.915 445.07 363.054 445.07C368.193 445.07 485.357 503.42 527.495 494.207C484.329 514.681 397.998 647.76 379.498 647.76Z" stroke="black" stroke-width="2.5" stroke-miterlimit="10" stroke-linecap="round"/>
<path d="M523.466 495.599C528.605 494.002 572.244 481.349 581.966 476.804" stroke="black" stroke-width="2.5" stroke-miterlimit="10" stroke-linecap="round"/>
</g>
<defs>
<clipPath id="clip0_122_376">
<rect width="611" height="993" fill="white"/>
</clipPath>
</defs>
</svg>
