<svg width="664" height="438" viewBox="0 0 664 438" fill="none" xmlns="http://www.w3.org/2000/svg">
<path fill-rule="evenodd" clip-rule="evenodd" d="M191.928 317.62C191.044 317.427 203.722 324.753 204.862 328C205.001 328.65 204.973 329.318 204.78 329.958C204.586 330.599 204.232 331.198 203.739 331.717C203.247 332.235 202.628 332.662 201.924 332.967C201.219 333.273 200.444 333.451 199.651 333.49C198.348 333.625 197.464 336.138 195.603 336.505C193.742 336.872 189.881 334.688 189.718 334.92C187.391 337.993 176.109 327.845 175.528 317.949C175.225 312.981 177.109 294.618 177.993 287.756C182.646 252.962 194.277 173.459 222.378 145.663C224.705 143.324 226.449 146.688 228.38 147.055C231.427 147.654 234.219 149.22 237.383 157.976C240.709 167.235 236.08 189.503 226.612 194.703C218.61 228.375 198.302 280.565 212.329 315.996C213.818 319.862 209.63 323.728 206.118 322.472C203.792 321.641 201.907 319.688 199.325 313.193C198.674 311.589 194.929 305.249 193.556 304.708C190.392 303.277 191.23 313.831 191.928 317.697" fill="#E7BFFF"/>
<path d="M199.697 333.49C206.025 333.76 206.839 327.15 201.791 324.037C195.277 320.017 191.416 318.76 190.834 309.792" stroke="black" stroke-width="0.57" stroke-linecap="round" stroke-linejoin="round"/>
<path d="M190.392 315.397C190.389 319.527 191.435 323.611 193.463 327.381C196.673 333.741 186.042 340.912 178.831 327.092C175.783 321.293 175.155 313.561 175.946 302.311C178.412 281.725 190.09 183.453 220.145 147.674" stroke="black" stroke-width="0.57" stroke-linecap="round" stroke-linejoin="round"/>
<path d="M190.532 317.62C189.904 313.754 190.974 303.2 194.138 304.631C195.51 305.172 198.604 311.493 199.232 313.116C201.838 319.611 203.094 321.525 205.373 322.394C211.026 324.559 213.818 319.843 212.585 316.596C208.403 306.544 206.548 295.926 207.118 285.301C208.095 256.577 218.563 222.537 225.216 194.587" stroke="black" stroke-width="0.57" stroke-linecap="round" stroke-linejoin="round"/>
<path d="M195.719 306.409C194.766 304.476 192.649 301.692 189.415 304.379" stroke="black" stroke-width="0.57" stroke-linecap="round" stroke-linejoin="round"/>
<path d="M189.718 334.92C197.906 339.83 202.559 332.542 197.976 327.903C192.835 322.684 190.369 319.65 190.509 312.053" stroke="black" stroke-width="0.57" stroke-linecap="round" stroke-linejoin="round"/>
<path fill-rule="evenodd" clip-rule="evenodd" d="M207.467 404.43H256.318C256.71 404.439 257.082 404.573 257.358 404.803C257.635 405.033 257.796 405.342 257.807 405.667L260.133 433.038H181.902C180.436 421.575 190.532 418.115 202.442 413.186C207.095 410.344 207.467 404.43 207.467 404.43Z" fill="#E7BFFF"/>
<path d="M207.467 404.43H256.318C256.71 404.439 257.082 404.573 257.358 404.803C257.635 405.033 257.796 405.342 257.807 405.667L260.133 433.038H181.902C180.436 421.575 190.532 418.115 202.442 413.186C207.095 410.344 207.467 404.43 207.467 404.43Z" stroke="black" stroke-width="0.57" stroke-linecap="round" stroke-linejoin="round"/>
<path d="M260.948 428.669H181.901C181.079 428.669 180.413 429.223 180.413 429.906V435.763C180.413 436.446 181.079 437 181.901 437H260.948C261.77 437 262.436 436.446 262.436 435.763V429.906C262.436 429.223 261.77 428.669 260.948 428.669Z" fill="#E7BFFF"/>
<path d="M260.948 428.669H181.901C181.079 428.669 180.413 429.223 180.413 429.906V435.763C180.413 436.446 181.079 437 181.901 437H260.948C261.77 437 262.436 436.446 262.436 435.763V429.906C262.436 429.223 261.77 428.669 260.948 428.669Z" stroke="black" stroke-width="0.57" stroke-linecap="round" stroke-linejoin="round"/>
<path fill-rule="evenodd" clip-rule="evenodd" d="M255.527 404.43H304.379C304.77 404.439 305.142 404.573 305.419 404.803C305.695 405.033 305.856 405.342 305.868 405.667L308.194 433.038H229.939C228.473 421.575 238.569 418.115 250.479 413.186C255.202 410.344 255.527 404.43 255.527 404.43Z" fill="#E7BFFF"/>
<path d="M255.527 404.43H304.379C304.77 404.439 305.142 404.573 305.419 404.803C305.695 405.033 305.856 405.342 305.868 405.667L308.194 433.038H229.939C228.473 421.575 238.569 418.115 250.479 413.186C255.202 410.344 255.527 404.43 255.527 404.43Z" stroke="black" stroke-width="0.57" stroke-linecap="round" stroke-linejoin="round"/>
<path d="M309.055 428.669H230.008C229.186 428.669 228.52 429.223 228.52 429.906V435.763C228.52 436.446 229.186 437 230.008 437H309.055C309.877 437 310.543 436.446 310.543 435.763V429.906C310.543 429.223 309.877 428.669 309.055 428.669Z" fill="#E7BFFF"/>
<path d="M309.055 428.669H230.008C229.186 428.669 228.52 429.223 228.52 429.906V435.763C228.52 436.446 229.186 437 230.008 437H309.055C309.877 437 310.543 436.446 310.543 435.763V429.906C310.543 429.223 309.877 428.669 309.055 428.669Z" stroke="black" stroke-width="0.57" stroke-linecap="round" stroke-linejoin="round"/>
<path fill-rule="evenodd" clip-rule="evenodd" d="M221.215 93.9564C221.215 110.503 221.215 110.213 221.215 126.817C221.215 170.521 197.301 179.741 195.812 224.683C195.533 232.898 204.373 231.874 205.885 242.911C217.051 245.172 246.943 236.107 258.11 238.349C269.229 236.107 298.633 254.47 309.776 252.208C329.27 180.727 288.095 166.829 288.095 129.639V93.9564C288.095 57.346 221.262 58.6024 221.215 93.9564Z" fill="#E7BFFF"/>
<path d="M221.215 93.9564C221.215 110.503 221.215 110.213 221.215 126.817C221.215 170.521 197.301 179.741 195.812 224.683C195.533 232.898 204.373 231.874 205.885 242.911C217.051 245.172 246.943 236.107 258.11 238.349C269.229 236.107 298.633 254.47 309.776 252.208C329.27 180.727 288.095 166.829 288.095 129.639V93.9564C288.095 57.346 221.262 58.6024 221.215 93.9564Z" stroke="black" stroke-width="0.57" stroke-linecap="round" stroke-linejoin="round"/>
<path fill-rule="evenodd" clip-rule="evenodd" d="M221.215 93.9564C221.215 110.503 221.215 110.213 221.215 126.817C221.234 131.68 220.908 136.54 220.238 141.372H289.491C288.585 137.552 288.126 133.668 288.118 129.774V94.0917C288.095 57.346 221.262 58.6024 221.215 93.9564Z" fill="#E7BFFF"/>
<path d="M221.215 93.9564C221.215 110.503 221.215 110.213 221.215 126.817C221.234 131.68 220.908 136.54 220.238 141.372H289.491C288.585 137.552 288.126 133.668 288.118 129.774V94.0917C288.095 57.346 221.262 58.6024 221.215 93.9564Z" stroke="black" stroke-width="0.57" stroke-linecap="round" stroke-linejoin="round"/>
<path fill-rule="evenodd" clip-rule="evenodd" d="M287.955 91.0376C284.652 58.4091 224.914 59.4722 221.378 91.0376H287.955Z" fill="#E7BFFF"/>
<path d="M287.955 91.0376C284.652 58.4091 224.914 59.4722 221.378 91.0376H287.955Z" stroke="black" stroke-width="0.57" stroke-linecap="round" stroke-linejoin="round"/>
<path fill-rule="evenodd" clip-rule="evenodd" d="M314.289 223.407C314.289 223.813 314.289 224.219 314.405 224.606C314.824 243.297 307.566 253.6 307.612 270.668C307.752 307.685 308.961 402.864 308.822 404.777H204.722C204.722 404.777 203.815 307.936 204.443 271.635C204.792 252.305 198.046 246.757 195.533 224.818C195.498 224.348 195.498 223.877 195.533 223.407H314.289Z" fill="#E7BFFF"/>
<path d="M314.289 223.407C314.289 223.813 314.289 224.219 314.405 224.606C314.824 243.297 307.566 253.6 307.612 270.668C307.752 307.685 308.961 402.864 308.822 404.777H204.722C204.722 404.777 203.815 307.936 204.443 271.635C204.792 252.305 198.046 246.757 195.533 224.818C195.498 224.348 195.498 223.877 195.533 223.407H314.289Z" stroke="black" stroke-width="0.57" stroke-linecap="round" stroke-linejoin="round"/>
<path fill-rule="evenodd" clip-rule="evenodd" d="M224.169 113.228C224.943 113.232 225.701 113.045 226.347 112.69C226.993 112.336 227.497 111.83 227.797 111.237C228.096 110.644 228.177 109.99 228.029 109.359C227.88 108.728 227.51 108.147 226.964 107.691C226.419 107.235 225.722 106.924 224.964 106.797C224.205 106.67 223.418 106.733 222.703 106.979C221.987 107.224 221.375 107.64 220.945 108.175C220.514 108.709 220.285 109.338 220.285 109.981C220.282 110.406 220.38 110.828 220.574 111.222C220.767 111.616 221.053 111.974 221.414 112.276C221.775 112.578 222.205 112.817 222.677 112.98C223.15 113.144 223.657 113.228 224.169 113.228Z" fill="#FEFEFE"/>
<path d="M224.169 113.228C224.943 113.232 225.701 113.045 226.347 112.69C226.993 112.336 227.497 111.83 227.797 111.237C228.096 110.644 228.177 109.99 228.029 109.359C227.88 108.728 227.51 108.147 226.964 107.691C226.419 107.235 225.722 106.924 224.964 106.797C224.205 106.67 223.418 106.733 222.703 106.979C221.987 107.224 221.375 107.64 220.945 108.175C220.514 108.709 220.285 109.338 220.285 109.981C220.282 110.406 220.38 110.828 220.574 111.222C220.767 111.616 221.053 111.974 221.414 112.276C221.775 112.578 222.205 112.817 222.677 112.98C223.15 113.144 223.657 113.228 224.169 113.228Z" stroke="black" stroke-width="0.57" stroke-linecap="round" stroke-linejoin="round"/>
<path fill-rule="evenodd" clip-rule="evenodd" d="M256.807 106.753C256.032 106.749 255.273 106.936 254.627 107.292C253.981 107.647 253.476 108.154 253.178 108.748C252.879 109.342 252.8 109.997 252.95 110.629C253.1 111.26 253.472 111.841 254.02 112.296C254.568 112.752 255.267 113.061 256.027 113.186C256.787 113.311 257.575 113.245 258.29 112.996C259.005 112.748 259.615 112.329 260.043 111.792C260.47 111.255 260.696 110.625 260.692 109.981C260.692 109.125 260.282 108.303 259.554 107.698C258.825 107.093 257.837 106.753 256.807 106.753Z" fill="#FEFEFE"/>
<path d="M256.807 106.753C256.032 106.749 255.273 106.936 254.627 107.292C253.981 107.647 253.476 108.154 253.178 108.748C252.879 109.342 252.8 109.997 252.95 110.629C253.1 111.26 253.472 111.841 254.02 112.296C254.568 112.752 255.267 113.061 256.027 113.186C256.787 113.311 257.575 113.245 258.29 112.996C259.005 112.748 259.615 112.329 260.043 111.792C260.47 111.255 260.696 110.625 260.692 109.981C260.692 109.125 260.282 108.303 259.554 107.698C258.825 107.093 257.837 106.753 256.807 106.753Z" stroke="black" stroke-width="0.57" stroke-linecap="round" stroke-linejoin="round"/>
<path d="M255.109 272.021C255.109 264.115 239.499 264.869 233.777 253.62" stroke="black" stroke-width="0.57" stroke-linecap="round" stroke-linejoin="round"/>
<path d="M225.635 97.455C224.102 97.2782 222.541 97.4798 221.145 98.0349" stroke="black" stroke-width="0.57" stroke-miterlimit="22.93" stroke-linecap="round"/>
<path d="M255.155 97.455C256.688 97.2746 258.25 97.4765 259.645 98.0349" stroke="black" stroke-width="0.57" stroke-miterlimit="22.93" stroke-linecap="round"/>
<path fill-rule="evenodd" clip-rule="evenodd" d="M287.49 136.269H221.192C219.958 136.269 218.775 136.676 217.902 137.401C217.03 138.126 216.539 139.11 216.539 140.135C216.539 141.16 217.03 142.144 217.902 142.869C218.775 143.594 219.958 144.001 221.192 144.001H287.49C288.724 144.001 289.907 143.594 290.78 142.869C291.653 142.144 292.143 141.16 292.143 140.135C292.143 139.11 291.653 138.126 290.78 137.401C289.907 136.676 288.724 136.269 287.49 136.269Z" fill="#E7BFFF"/>
<path d="M287.49 136.269H221.192C219.958 136.269 218.775 136.676 217.902 137.401C217.03 138.126 216.539 139.11 216.539 140.135C216.539 141.16 217.03 142.144 217.902 142.869C218.775 143.594 219.958 144.001 221.192 144.001H287.49C288.724 144.001 289.907 143.594 290.78 142.869C291.653 142.144 292.143 141.16 292.143 140.135C292.143 139.11 291.653 138.126 290.78 137.401C289.907 136.676 288.724 136.269 287.49 136.269Z" stroke="black" stroke-width="0.57" stroke-miterlimit="22.93" stroke-linecap="round"/>
<path d="M288.118 90.7477H186.112" stroke="black" stroke-width="0.57" stroke-miterlimit="22.93" stroke-linecap="round"/>
<path fill-rule="evenodd" clip-rule="evenodd" d="M307.636 269.199L287.793 194.625C287.56 196.056 289.91 209.857 292.073 223.407C292.073 223.929 294.399 222.827 294.562 223.407C298.796 249.618 306.356 281.995 301.68 307.839C300.308 315.378 306.821 317.349 306.496 316.808C304.968 313.901 304.585 310.667 305.402 307.569C306.263 303.703 309.31 301.77 307.729 299.837L307.636 269.199Z" fill="black"/>
<path d="M307.636 269.199L287.793 194.625C287.56 196.056 289.91 209.857 292.073 223.407C292.073 223.929 294.399 222.827 294.562 223.407C298.796 249.618 306.356 281.995 301.68 307.839C300.308 315.378 306.821 317.349 306.496 316.808C304.968 313.901 304.585 310.667 305.402 307.569C306.263 303.703 309.31 301.77 307.729 299.837L307.636 269.199Z" stroke="black" stroke-width="0.57" stroke-miterlimit="22.93" stroke-linecap="round"/>
<path fill-rule="evenodd" clip-rule="evenodd" d="M205.117 183.82C202.21 191.03 192.509 210.882 193.161 226.461C193.626 237.711 195.487 243.239 200.605 256.963C204.28 266.918 204.21 277.066 204.489 270.997C205.28 254.122 194.835 237.576 195.487 223.407C196.354 209.892 199.599 196.554 205.117 183.82Z" fill="black"/>
<path d="M205.117 183.82C202.21 191.03 192.509 210.882 193.161 226.461C193.626 237.711 195.487 243.239 200.605 256.963C204.28 266.918 204.21 277.066 204.489 270.997C205.28 254.122 194.835 237.576 195.487 223.407C196.354 209.892 199.599 196.554 205.117 183.82Z" stroke="black" stroke-width="0.57" stroke-miterlimit="22.93" stroke-linecap="round"/>
<path fill-rule="evenodd" clip-rule="evenodd" d="M220.261 143.904L219.261 147.326C232.183 145.59 245.217 144.493 258.296 144.04L220.261 143.904Z" fill="black"/>
<path d="M220.261 143.904L219.261 147.326C232.183 145.59 245.217 144.493 258.296 144.04L220.261 143.904Z" stroke="black" stroke-width="0.57" stroke-miterlimit="22.93" stroke-linecap="round"/>
<path fill-rule="evenodd" clip-rule="evenodd" d="M207.048 404.719L206.025 408.121C218.958 406.411 231.999 405.314 245.083 404.835L207.048 404.719Z" fill="black"/>
<path d="M207.048 404.719L206.025 408.121C218.958 406.411 231.999 405.314 245.083 404.835L207.048 404.719Z" stroke="black" stroke-width="0.57" stroke-miterlimit="22.93" stroke-linecap="round"/>
<path fill-rule="evenodd" clip-rule="evenodd" d="M255.807 404.719L254.783 408.121C267.716 406.409 280.757 405.312 293.841 404.835L255.807 404.719Z" fill="black"/>
<path d="M255.807 404.719L254.783 408.121C267.716 406.409 280.757 405.312 293.841 404.835L255.807 404.719Z" stroke="black" stroke-width="0.57" stroke-miterlimit="22.93" stroke-linecap="round"/>
<path fill-rule="evenodd" clip-rule="evenodd" d="M222.239 90.6123L221.238 94.0337C234.13 92.3009 247.133 91.2037 260.18 90.7476L222.239 90.6123Z" fill="black"/>
<path d="M222.239 90.6123L221.238 94.0337C234.13 92.3009 247.133 91.2037 260.18 90.7476L222.239 90.6123Z" stroke="black" stroke-width="0.57" stroke-miterlimit="22.93" stroke-linecap="round"/>
<path d="M233.94 113.325C233.889 113.991 234.004 114.66 234.276 115.288C234.548 115.917 234.973 116.493 235.523 116.98C236.074 117.467 236.738 117.855 237.476 118.12C238.214 118.386 239.01 118.522 239.814 118.522C240.618 118.522 241.413 118.386 242.151 118.12C242.889 117.855 243.554 117.467 244.104 116.98C244.654 116.493 245.079 115.917 245.351 115.288C245.623 114.66 245.738 113.991 245.687 113.325" stroke="black" stroke-width="0.57" stroke-miterlimit="22.93" stroke-linecap="round"/>
<path fill-rule="evenodd" clip-rule="evenodd" d="M224.169 109.981C224.05 109.986 223.938 110.029 223.855 110.101C223.773 110.172 223.727 110.268 223.727 110.367C223.733 110.463 223.781 110.554 223.863 110.622C223.945 110.69 224.054 110.73 224.169 110.735C224.287 110.735 224.399 110.696 224.482 110.627C224.565 110.558 224.611 110.465 224.611 110.367C224.615 110.317 224.606 110.268 224.585 110.221C224.564 110.174 224.532 110.131 224.491 110.095C224.449 110.059 224.399 110.03 224.344 110.01C224.289 109.991 224.23 109.981 224.169 109.981Z" fill="black"/>
<path d="M224.169 109.981C224.05 109.986 223.938 110.029 223.855 110.101C223.773 110.172 223.727 110.268 223.727 110.367C223.733 110.463 223.781 110.554 223.863 110.622C223.945 110.69 224.054 110.73 224.169 110.735C224.287 110.735 224.399 110.696 224.482 110.627C224.565 110.558 224.611 110.465 224.611 110.367C224.615 110.317 224.606 110.268 224.585 110.221C224.564 110.174 224.532 110.131 224.491 110.095C224.449 110.059 224.399 110.03 224.344 110.01C224.289 109.991 224.23 109.981 224.169 109.981Z" stroke="black" stroke-width="0.57" stroke-linecap="round" stroke-linejoin="round"/>
<path fill-rule="evenodd" clip-rule="evenodd" d="M257.249 110.735C257.368 110.73 257.481 110.687 257.563 110.615C257.645 110.543 257.691 110.447 257.691 110.348C257.685 110.252 257.637 110.161 257.555 110.093C257.473 110.026 257.364 109.985 257.249 109.981C257.132 109.981 257.019 110.019 256.936 110.088C256.853 110.157 256.807 110.251 256.807 110.348C256.804 110.398 256.813 110.448 256.834 110.494C256.854 110.541 256.886 110.584 256.928 110.62C256.969 110.656 257.019 110.685 257.074 110.705C257.129 110.724 257.189 110.735 257.249 110.735Z" fill="black"/>
<path d="M257.249 110.735C257.368 110.73 257.481 110.687 257.563 110.615C257.645 110.543 257.691 110.447 257.691 110.348C257.685 110.252 257.637 110.161 257.555 110.093C257.473 110.026 257.364 109.985 257.249 109.981C257.132 109.981 257.019 110.019 256.936 110.088C256.853 110.157 256.807 110.251 256.807 110.348C256.804 110.398 256.813 110.448 256.834 110.494C256.854 110.541 256.886 110.584 256.928 110.62C256.969 110.656 257.019 110.685 257.074 110.705C257.129 110.724 257.189 110.735 257.249 110.735Z" stroke="black" stroke-width="0.57" stroke-linecap="round" stroke-linejoin="round"/>
<path d="M255.039 404.777V271.789" stroke="black" stroke-width="0.57" stroke-miterlimit="22.93" stroke-linecap="round"/>
<path fill-rule="evenodd" clip-rule="evenodd" d="M323.919 317.62C325.524 317.272 320.383 328.155 321.221 330.165C322.849 334.031 329.805 330.358 331.107 328.599C331.759 327.729 340.412 333.625 340.994 317.949C341.18 312.981 337.016 294.463 336.574 287.756C334.55 256.828 321.197 179.857 290.235 147.48C287.909 145.064 285.931 146.688 284.024 147.055C280.977 147.654 278.208 149.22 275.231 157.976C272.09 167.235 277.161 189.503 286.746 194.703C293.957 222.653 305.123 256.693 306.658 285.417C307.007 291.564 307.868 295.893 306.658 299.45C305.658 302.446 302.82 304.553 300.982 310.178C299.726 314.044 306.333 323.226 309.799 321.93C312.125 321.08 312.637 319.688 315.079 313.193C315.708 311.57 318.662 305.249 320.034 304.708C323.152 303.277 324.431 313.831 323.896 317.697" fill="#E7BFFF"/>
<path d="M324.012 315.397C324.101 319.514 323.134 323.599 321.174 327.381C319.895 330.03 321.919 331.247 324.245 331.383C327.502 331.673 330.037 329.74 332.48 324.327C334.316 319.703 335.036 314.822 334.597 309.965C334.318 307.182 338.575 306.505 338.202 302.234C335.318 281.647 331.898 200.231 291.096 146.978" stroke="black" stroke-width="0.57" stroke-linecap="round" stroke-linejoin="round"/>
<path d="M323.919 317.62C324.454 313.754 323.175 303.2 320.058 304.63C318.685 305.172 315.731 311.492 315.103 313.116C314.126 315.706 313.847 318.76 313.126 320.172C310.613 324.888 303.123 318.76 301.89 314.527C299.563 306.389 306.263 300.397 306.682 299.373C308.147 295.835 306.891 289.708 306.682 285.339C305.146 256.616 293.98 222.576 286.769 194.625" stroke="black" stroke-width="0.57" stroke-linecap="round" stroke-linejoin="round"/>
<path fill-rule="evenodd" clip-rule="evenodd" d="M323.594 306.757C325.618 312.556 323.594 328.889 317.173 332.079C314.056 333.625 309.892 332.407 309.427 330.706C308.264 326.589 310.939 325.526 312.265 319.553C313.353 314.365 313.424 309.064 312.474 303.857C311.59 299.856 317.778 297.053 322.291 304.244C322.856 305.03 323.294 305.875 323.594 306.757Z" fill="#E7BFFF"/>
<path d="M323.594 306.757C325.618 312.556 323.594 328.889 317.173 332.079C314.056 333.625 309.892 332.407 309.427 330.706C308.264 326.589 310.939 325.526 312.265 319.553C313.353 314.365 313.424 309.064 312.474 303.857C311.59 299.856 317.778 297.053 322.291 304.244C322.856 305.03 323.294 305.875 323.594 306.757Z" stroke="black" stroke-width="0.57" stroke-miterlimit="22.93" stroke-linecap="round"/>
<path d="M337.225 295.546C336.993 296.609 341.576 309.791 340.668 319.07C340.157 324.231 336.365 330.919 331.107 328.599" stroke="black" stroke-width="0.57" stroke-miterlimit="22.93" stroke-linecap="round"/>
<path fill-rule="evenodd" clip-rule="evenodd" d="M319.267 293.013C316.786 293.123 314.455 294.033 312.77 295.549C311.084 297.066 310.177 299.068 310.241 301.132C310.153 302.141 310.308 303.155 310.699 304.114C311.091 305.072 311.709 305.956 312.517 306.712C313.326 307.469 314.309 308.084 315.409 308.52C316.508 308.955 317.701 309.204 318.918 309.25C321.398 309.14 323.729 308.23 325.415 306.714C327.1 305.198 328.008 303.195 327.944 301.132C328.029 300.123 327.87 299.11 327.478 298.153C327.086 297.195 326.468 296.313 325.659 295.557C324.851 294.8 323.869 294.186 322.772 293.749C321.674 293.313 320.482 293.062 319.267 293.013Z" fill="#E7BFFF"/>
<path fill-rule="evenodd" clip-rule="evenodd" d="M334.783 294.386C332.899 294.386 325.897 308.69 332.736 309.25C339.575 309.811 335.411 318.915 337.388 318.915C339.366 318.915 339.715 313.812 339.715 311.454C339.715 309.096 336.69 294.347 334.783 294.347" fill="#E7BFFF"/>
<path d="M312.8 307.858C312.8 306.177 311.055 305.655 310.729 308.206C310.471 310.427 311.145 312.653 312.637 314.508" stroke="black" stroke-width="0.57" stroke-miterlimit="22.93" stroke-linecap="round"/>
<path fill-rule="evenodd" clip-rule="evenodd" d="M150.311 1H94.4809C80.0385 1.05097 66.2061 5.8448 56.0002 14.3361C45.7943 22.8274 40.0429 34.3273 40 46.3281C40.043 58.344 45.8065 69.8575 56.0318 78.3541C66.2571 86.8507 80.1132 91.6398 94.5739 91.6755H137.749C139.657 95.3674 145.03 99.4074 151.009 101.669C164.315 106.753 180.855 104.491 174.271 102.171C166.362 99.4073 164.804 94.4396 166.874 89.5299C177.899 86.5959 187.521 80.8342 194.359 73.0722C201.196 65.3102 204.898 55.9473 204.931 46.3281C204.888 34.3073 199.118 22.7899 188.882 14.2953C178.646 5.80072 164.778 1.02039 150.311 1Z" fill="#373435"/>
<path d="M150.311 1H94.4809C80.0385 1.05097 66.2061 5.8448 56.0002 14.3361C45.7943 22.8274 40.0429 34.3273 40 46.3281C40.043 58.344 45.8065 69.8575 56.0318 78.3541C66.2571 86.8507 80.1132 91.6398 94.5739 91.6755H137.749C139.657 95.3674 145.03 99.4074 151.009 101.669C164.315 106.753 180.855 104.491 174.271 102.171C166.362 99.4073 164.804 94.4396 166.874 89.5299C177.899 86.5959 187.521 80.8342 194.359 73.0722C201.196 65.3102 204.898 55.9473 204.931 46.3281C204.888 34.3073 199.118 22.7899 188.882 14.2953C178.646 5.80072 164.778 1.02039 150.311 1Z" stroke="#373435" stroke-width="0.57" stroke-miterlimit="22.93" stroke-linecap="round"/>
<path d="M91.3869 49.6335C104.74 38.7895 109.764 22.7652 102.692 30.6711C99.2264 34.537 91.0612 57.404 91.9452 55.7996C94.0388 51.9337 105.065 36.8952 101.948 50.5033C100.576 56.5342 101.739 57.404 107.903 52.5522C119.232 43.6413 108.694 38.0357 108.089 54.3499C107.927 58.4671 117.278 54.4659 121.442 49.4595C134.33 33.9958 128.095 23.9637 120.954 46.5021C116.045 61.9658 131.329 57.404 139.331 38.6349C144.402 26.7858 135.749 34.363 132.562 44.9557C132.05 46.676 130.235 56.3215 135.353 54.8138C137.47 54.1953 138.796 50.426 138.68 53.4414C138.54 57.3073 146.1 51.1025 146.728 46.792C148.403 35.4648 135.097 51.6631 141.471 51.4118C144.612 51.2958 148.45 50.6579 149.543 47.5459" stroke="#FEFEFE" stroke-width="0.57" stroke-miterlimit="22.93" stroke-linecap="round"/>
<line y1="436.5" x2="664" y2="436.5" stroke="black"/>
</svg>
