<svg width="303" height="438" viewBox="0 0 303 438" fill="none" xmlns="http://www.w3.org/2000/svg">
<path fill-rule="evenodd" clip-rule="evenodd" d="M152.928 317.62C152.044 317.427 164.722 324.753 165.862 328C166.001 328.65 165.973 329.318 165.78 329.958C165.586 330.599 165.232 331.198 164.739 331.717C164.247 332.235 163.628 332.662 162.924 332.967C162.219 333.273 161.444 333.451 160.651 333.49C159.348 333.625 158.464 336.138 156.603 336.505C154.742 336.872 150.881 334.688 150.718 334.92C148.391 337.993 137.109 327.845 136.528 317.949C136.225 312.981 138.109 294.618 138.993 287.756C143.646 252.962 155.277 173.459 183.378 145.663C185.705 143.324 187.449 146.688 189.38 147.055C192.427 147.654 195.219 149.22 198.383 157.976C201.709 167.235 197.08 189.503 187.612 194.703C179.61 228.375 159.302 280.565 173.329 315.996C174.818 319.862 170.63 323.728 167.118 322.472C164.792 321.641 162.907 319.688 160.325 313.193C159.674 311.589 155.929 305.249 154.556 304.708C151.392 303.277 152.23 313.831 152.928 317.697" fill="#E7BFFF"/>
<path d="M160.697 333.49C167.025 333.76 167.839 327.15 162.791 324.037C156.277 320.017 152.416 318.76 151.834 309.792" stroke="black" stroke-width="0.57" stroke-linecap="round" stroke-linejoin="round"/>
<path d="M151.392 315.397C151.389 319.527 152.435 323.611 154.463 327.381C157.673 333.741 147.042 340.912 139.831 327.092C136.783 321.293 136.155 313.561 136.946 302.311C139.412 281.725 151.09 183.453 181.145 147.674" stroke="black" stroke-width="0.57" stroke-linecap="round" stroke-linejoin="round"/>
<path d="M151.532 317.62C150.904 313.754 151.974 303.2 155.138 304.631C156.51 305.172 159.604 311.493 160.232 313.116C162.838 319.611 164.094 321.525 166.373 322.394C172.026 324.559 174.818 319.843 173.585 316.596C169.403 306.544 167.548 295.926 168.118 285.301C169.095 256.577 179.563 222.537 186.216 194.587" stroke="black" stroke-width="0.57" stroke-linecap="round" stroke-linejoin="round"/>
<path d="M156.719 306.409C155.766 304.476 153.649 301.692 150.415 304.379" stroke="black" stroke-width="0.57" stroke-linecap="round" stroke-linejoin="round"/>
<path d="M150.718 334.92C158.906 339.83 163.559 332.542 158.976 327.903C153.835 322.684 151.369 319.65 151.509 312.053" stroke="black" stroke-width="0.57" stroke-linecap="round" stroke-linejoin="round"/>
<path fill-rule="evenodd" clip-rule="evenodd" d="M168.467 404.43H217.318C217.71 404.439 218.082 404.573 218.358 404.803C218.635 405.033 218.796 405.342 218.807 405.667L221.133 433.038H142.902C141.436 421.575 151.532 418.115 163.442 413.186C168.095 410.344 168.467 404.43 168.467 404.43Z" fill="#E7BFFF"/>
<path d="M168.467 404.43H217.318C217.71 404.439 218.082 404.573 218.358 404.803C218.635 405.033 218.796 405.342 218.807 405.667L221.133 433.038H142.902C141.436 421.575 151.532 418.115 163.442 413.186C168.095 410.344 168.467 404.43 168.467 404.43Z" stroke="black" stroke-width="0.57" stroke-linecap="round" stroke-linejoin="round"/>
<path d="M221.948 428.669H142.901C142.079 428.669 141.413 429.223 141.413 429.906V435.763C141.413 436.446 142.079 437 142.901 437H221.948C222.77 437 223.436 436.446 223.436 435.763V429.906C223.436 429.223 222.77 428.669 221.948 428.669Z" fill="#E7BFFF"/>
<path d="M221.948 428.669H142.901C142.079 428.669 141.413 429.223 141.413 429.906V435.763C141.413 436.446 142.079 437 142.901 437H221.948C222.77 437 223.436 436.446 223.436 435.763V429.906C223.436 429.223 222.77 428.669 221.948 428.669Z" stroke="black" stroke-width="0.57" stroke-linecap="round" stroke-linejoin="round"/>
<path fill-rule="evenodd" clip-rule="evenodd" d="M216.527 404.43H265.379C265.77 404.439 266.142 404.573 266.419 404.803C266.695 405.033 266.856 405.342 266.868 405.667L269.194 433.038H190.939C189.473 421.575 199.569 418.115 211.479 413.186C216.202 410.344 216.527 404.43 216.527 404.43Z" fill="#E7BFFF"/>
<path d="M216.527 404.43H265.379C265.77 404.439 266.142 404.573 266.419 404.803C266.695 405.033 266.856 405.342 266.868 405.667L269.194 433.038H190.939C189.473 421.575 199.569 418.115 211.479 413.186C216.202 410.344 216.527 404.43 216.527 404.43Z" stroke="black" stroke-width="0.57" stroke-linecap="round" stroke-linejoin="round"/>
<path d="M270.055 428.669H191.008C190.186 428.669 189.52 429.223 189.52 429.906V435.763C189.52 436.446 190.186 437 191.008 437H270.055C270.877 437 271.543 436.446 271.543 435.763V429.906C271.543 429.223 270.877 428.669 270.055 428.669Z" fill="#E7BFFF"/>
<path d="M270.055 428.669H191.008C190.186 428.669 189.52 429.223 189.52 429.906V435.763C189.52 436.446 190.186 437 191.008 437H270.055C270.877 437 271.543 436.446 271.543 435.763V429.906C271.543 429.223 270.877 428.669 270.055 428.669Z" stroke="black" stroke-width="0.57" stroke-linecap="round" stroke-linejoin="round"/>
<path fill-rule="evenodd" clip-rule="evenodd" d="M182.215 93.9564C182.215 110.503 182.215 110.213 182.215 126.817C182.215 170.521 158.301 179.741 156.812 224.683C156.533 232.898 165.373 231.874 166.885 242.911C178.051 245.172 207.943 236.107 219.11 238.349C230.229 236.107 259.633 254.47 270.776 252.208C290.27 180.727 249.095 166.829 249.095 129.639V93.9564C249.095 57.346 182.262 58.6024 182.215 93.9564Z" fill="#E7BFFF"/>
<path d="M182.215 93.9564C182.215 110.503 182.215 110.213 182.215 126.817C182.215 170.521 158.301 179.741 156.812 224.683C156.533 232.898 165.373 231.874 166.885 242.911C178.051 245.172 207.943 236.107 219.11 238.349C230.229 236.107 259.633 254.47 270.776 252.208C290.27 180.727 249.095 166.829 249.095 129.639V93.9564C249.095 57.346 182.262 58.6024 182.215 93.9564Z" stroke="black" stroke-width="0.57" stroke-linecap="round" stroke-linejoin="round"/>
<path fill-rule="evenodd" clip-rule="evenodd" d="M182.215 93.9564C182.215 110.503 182.215 110.213 182.215 126.817C182.234 131.68 181.908 136.54 181.238 141.372H250.491C249.585 137.552 249.126 133.668 249.118 129.774V94.0917C249.095 57.346 182.262 58.6024 182.215 93.9564Z" fill="#E7BFFF"/>
<path d="M182.215 93.9564C182.215 110.503 182.215 110.213 182.215 126.817C182.234 131.68 181.908 136.54 181.238 141.372H250.491C249.585 137.552 249.126 133.668 249.118 129.774V94.0917C249.095 57.346 182.262 58.6024 182.215 93.9564Z" stroke="black" stroke-width="0.57" stroke-linecap="round" stroke-linejoin="round"/>
<path fill-rule="evenodd" clip-rule="evenodd" d="M248.955 91.0376C245.652 58.4091 185.914 59.4722 182.378 91.0376H248.955Z" fill="#E7BFFF"/>
<path d="M248.955 91.0376C245.652 58.4091 185.914 59.4722 182.378 91.0376H248.955Z" stroke="black" stroke-width="0.57" stroke-linecap="round" stroke-linejoin="round"/>
<path fill-rule="evenodd" clip-rule="evenodd" d="M275.289 223.407C275.289 223.813 275.289 224.219 275.405 224.606C275.824 243.297 268.566 253.6 268.612 270.668C268.752 307.685 269.961 402.864 269.822 404.777H165.722C165.722 404.777 164.815 307.936 165.443 271.635C165.792 252.305 159.046 246.757 156.533 224.818C156.498 224.348 156.498 223.877 156.533 223.407H275.289Z" fill="#E7BFFF"/>
<path d="M275.289 223.407C275.289 223.813 275.289 224.219 275.405 224.606C275.824 243.297 268.566 253.6 268.612 270.668C268.752 307.685 269.961 402.864 269.822 404.777H165.722C165.722 404.777 164.815 307.936 165.443 271.635C165.792 252.305 159.046 246.757 156.533 224.818C156.498 224.348 156.498 223.877 156.533 223.407H275.289Z" stroke="black" stroke-width="0.57" stroke-linecap="round" stroke-linejoin="round"/>
<path fill-rule="evenodd" clip-rule="evenodd" d="M185.169 113.228C185.943 113.232 186.701 113.045 187.347 112.69C187.993 112.336 188.497 111.83 188.797 111.237C189.096 110.644 189.177 109.99 189.029 109.359C188.88 108.728 188.51 108.147 187.964 107.691C187.419 107.235 186.722 106.924 185.964 106.797C185.205 106.67 184.418 106.733 183.703 106.979C182.987 107.224 182.375 107.64 181.945 108.175C181.514 108.709 181.285 109.338 181.285 109.981C181.282 110.406 181.38 110.828 181.574 111.222C181.767 111.616 182.053 111.974 182.414 112.276C182.775 112.578 183.205 112.817 183.677 112.98C184.15 113.144 184.657 113.228 185.169 113.228Z" fill="#FEFEFE"/>
<path d="M185.169 113.228C185.943 113.232 186.701 113.045 187.347 112.69C187.993 112.336 188.497 111.83 188.797 111.237C189.096 110.644 189.177 109.99 189.029 109.359C188.88 108.728 188.51 108.147 187.964 107.691C187.419 107.235 186.722 106.924 185.964 106.797C185.205 106.67 184.418 106.733 183.703 106.979C182.987 107.224 182.375 107.64 181.945 108.175C181.514 108.709 181.285 109.338 181.285 109.981C181.282 110.406 181.38 110.828 181.574 111.222C181.767 111.616 182.053 111.974 182.414 112.276C182.775 112.578 183.205 112.817 183.677 112.98C184.15 113.144 184.657 113.228 185.169 113.228Z" stroke="black" stroke-width="0.57" stroke-linecap="round" stroke-linejoin="round"/>
<path fill-rule="evenodd" clip-rule="evenodd" d="M217.807 106.753C217.032 106.749 216.273 106.936 215.627 107.292C214.981 107.647 214.476 108.154 214.178 108.748C213.879 109.342 213.8 109.997 213.95 110.629C214.1 111.26 214.472 111.841 215.02 112.296C215.568 112.752 216.267 113.061 217.027 113.186C217.787 113.311 218.575 113.245 219.29 112.996C220.005 112.748 220.615 112.329 221.043 111.792C221.47 111.255 221.696 110.625 221.692 109.981C221.692 109.125 221.282 108.303 220.554 107.698C219.825 107.093 218.837 106.753 217.807 106.753Z" fill="#FEFEFE"/>
<path d="M217.807 106.753C217.032 106.749 216.273 106.936 215.627 107.292C214.981 107.647 214.476 108.154 214.178 108.748C213.879 109.342 213.8 109.997 213.95 110.629C214.1 111.26 214.472 111.841 215.02 112.296C215.568 112.752 216.267 113.061 217.027 113.186C217.787 113.311 218.575 113.245 219.29 112.996C220.005 112.748 220.615 112.329 221.043 111.792C221.47 111.255 221.696 110.625 221.692 109.981C221.692 109.125 221.282 108.303 220.554 107.698C219.825 107.093 218.837 106.753 217.807 106.753Z" stroke="black" stroke-width="0.57" stroke-linecap="round" stroke-linejoin="round"/>
<path d="M216.109 272.021C216.109 264.115 200.499 264.869 194.777 253.62" stroke="black" stroke-width="0.57" stroke-linecap="round" stroke-linejoin="round"/>
<path d="M186.635 97.455C185.102 97.2782 183.541 97.4798 182.145 98.0349" stroke="black" stroke-width="0.57" stroke-miterlimit="22.93" stroke-linecap="round"/>
<path d="M216.155 97.455C217.688 97.2746 219.25 97.4765 220.645 98.0349" stroke="black" stroke-width="0.57" stroke-miterlimit="22.93" stroke-linecap="round"/>
<path fill-rule="evenodd" clip-rule="evenodd" d="M248.49 136.269H182.192C180.958 136.269 179.775 136.676 178.902 137.401C178.03 138.126 177.539 139.11 177.539 140.135C177.539 141.16 178.03 142.144 178.902 142.869C179.775 143.594 180.958 144.001 182.192 144.001H248.49C249.724 144.001 250.907 143.594 251.78 142.869C252.653 142.144 253.143 141.16 253.143 140.135C253.143 139.11 252.653 138.126 251.78 137.401C250.907 136.676 249.724 136.269 248.49 136.269Z" fill="#E7BFFF"/>
<path d="M248.49 136.269H182.192C180.958 136.269 179.775 136.676 178.902 137.401C178.03 138.126 177.539 139.11 177.539 140.135C177.539 141.16 178.03 142.144 178.902 142.869C179.775 143.594 180.958 144.001 182.192 144.001H248.49C249.724 144.001 250.907 143.594 251.78 142.869C252.653 142.144 253.143 141.16 253.143 140.135C253.143 139.11 252.653 138.126 251.78 137.401C250.907 136.676 249.724 136.269 248.49 136.269Z" stroke="black" stroke-width="0.57" stroke-miterlimit="22.93" stroke-linecap="round"/>
<path d="M249.118 90.7477H147.112" stroke="black" stroke-width="0.57" stroke-miterlimit="22.93" stroke-linecap="round"/>
<path fill-rule="evenodd" clip-rule="evenodd" d="M268.636 269.199L248.793 194.625C248.56 196.056 250.91 209.857 253.073 223.407C253.073 223.929 255.399 222.827 255.562 223.407C259.796 249.618 267.356 281.995 262.68 307.839C261.308 315.378 267.821 317.349 267.496 316.808C265.968 313.901 265.585 310.667 266.402 307.569C267.263 303.703 270.31 301.77 268.729 299.837L268.636 269.199Z" fill="black"/>
<path d="M268.636 269.199L248.793 194.625C248.56 196.056 250.91 209.857 253.073 223.407C253.073 223.929 255.399 222.827 255.562 223.407C259.796 249.618 267.356 281.995 262.68 307.839C261.308 315.378 267.821 317.349 267.496 316.808C265.968 313.901 265.585 310.667 266.402 307.569C267.263 303.703 270.31 301.77 268.729 299.837L268.636 269.199Z" stroke="black" stroke-width="0.57" stroke-miterlimit="22.93" stroke-linecap="round"/>
<path fill-rule="evenodd" clip-rule="evenodd" d="M166.117 183.82C163.21 191.03 153.509 210.882 154.161 226.461C154.626 237.711 156.487 243.239 161.605 256.963C165.28 266.918 165.21 277.066 165.489 270.997C166.28 254.122 155.835 237.576 156.487 223.407C157.354 209.892 160.599 196.554 166.117 183.82Z" fill="black"/>
<path d="M166.117 183.82C163.21 191.03 153.509 210.882 154.161 226.461C154.626 237.711 156.487 243.239 161.605 256.963C165.28 266.918 165.21 277.066 165.489 270.997C166.28 254.122 155.835 237.576 156.487 223.407C157.354 209.892 160.599 196.554 166.117 183.82Z" stroke="black" stroke-width="0.57" stroke-miterlimit="22.93" stroke-linecap="round"/>
<path fill-rule="evenodd" clip-rule="evenodd" d="M181.261 143.904L180.261 147.326C193.183 145.59 206.217 144.493 219.296 144.04L181.261 143.904Z" fill="black"/>
<path d="M181.261 143.904L180.261 147.326C193.183 145.59 206.217 144.493 219.296 144.04L181.261 143.904Z" stroke="black" stroke-width="0.57" stroke-miterlimit="22.93" stroke-linecap="round"/>
<path fill-rule="evenodd" clip-rule="evenodd" d="M168.048 404.719L167.025 408.121C179.958 406.411 192.999 405.314 206.083 404.835L168.048 404.719Z" fill="black"/>
<path d="M168.048 404.719L167.025 408.121C179.958 406.411 192.999 405.314 206.083 404.835L168.048 404.719Z" stroke="black" stroke-width="0.57" stroke-miterlimit="22.93" stroke-linecap="round"/>
<path fill-rule="evenodd" clip-rule="evenodd" d="M216.807 404.719L215.783 408.121C228.716 406.409 241.757 405.312 254.841 404.835L216.807 404.719Z" fill="black"/>
<path d="M216.807 404.719L215.783 408.121C228.716 406.409 241.757 405.312 254.841 404.835L216.807 404.719Z" stroke="black" stroke-width="0.57" stroke-miterlimit="22.93" stroke-linecap="round"/>
<path fill-rule="evenodd" clip-rule="evenodd" d="M183.239 90.6123L182.238 94.0337C195.13 92.3009 208.133 91.2037 221.18 90.7476L183.239 90.6123Z" fill="black"/>
<path d="M183.239 90.6123L182.238 94.0337C195.13 92.3009 208.133 91.2037 221.18 90.7476L183.239 90.6123Z" stroke="black" stroke-width="0.57" stroke-miterlimit="22.93" stroke-linecap="round"/>
<path d="M194.94 113.325C194.889 113.991 195.004 114.66 195.276 115.288C195.548 115.917 195.973 116.493 196.523 116.98C197.074 117.467 197.738 117.855 198.476 118.12C199.214 118.386 200.01 118.522 200.814 118.522C201.618 118.522 202.413 118.386 203.151 118.12C203.889 117.855 204.554 117.467 205.104 116.98C205.654 116.493 206.079 115.917 206.351 115.288C206.623 114.66 206.738 113.991 206.687 113.325" stroke="black" stroke-width="0.57" stroke-miterlimit="22.93" stroke-linecap="round"/>
<path fill-rule="evenodd" clip-rule="evenodd" d="M185.169 109.981C185.05 109.986 184.938 110.029 184.855 110.101C184.773 110.172 184.727 110.268 184.727 110.367C184.733 110.463 184.781 110.554 184.863 110.622C184.945 110.69 185.054 110.73 185.169 110.735C185.287 110.735 185.399 110.696 185.482 110.627C185.565 110.558 185.611 110.465 185.611 110.367C185.615 110.317 185.606 110.268 185.585 110.221C185.564 110.174 185.532 110.131 185.491 110.095C185.449 110.059 185.399 110.03 185.344 110.01C185.289 109.991 185.23 109.981 185.169 109.981Z" fill="black"/>
<path d="M185.169 109.981C185.05 109.986 184.938 110.029 184.855 110.101C184.773 110.172 184.727 110.268 184.727 110.367C184.733 110.463 184.781 110.554 184.863 110.622C184.945 110.69 185.054 110.73 185.169 110.735C185.287 110.735 185.399 110.696 185.482 110.627C185.565 110.558 185.611 110.465 185.611 110.367C185.615 110.317 185.606 110.268 185.585 110.221C185.564 110.174 185.532 110.131 185.491 110.095C185.449 110.059 185.399 110.03 185.344 110.01C185.289 109.991 185.23 109.981 185.169 109.981Z" stroke="black" stroke-width="0.57" stroke-linecap="round" stroke-linejoin="round"/>
<path fill-rule="evenodd" clip-rule="evenodd" d="M218.249 110.735C218.368 110.73 218.481 110.687 218.563 110.615C218.645 110.543 218.691 110.447 218.691 110.348C218.685 110.252 218.637 110.161 218.555 110.093C218.473 110.026 218.364 109.985 218.249 109.981C218.132 109.981 218.019 110.019 217.936 110.088C217.853 110.157 217.807 110.251 217.807 110.348C217.804 110.398 217.813 110.448 217.834 110.494C217.854 110.541 217.886 110.584 217.928 110.62C217.969 110.656 218.019 110.685 218.074 110.705C218.129 110.724 218.189 110.735 218.249 110.735Z" fill="black"/>
<path d="M218.249 110.735C218.368 110.73 218.481 110.687 218.563 110.615C218.645 110.543 218.691 110.447 218.691 110.348C218.685 110.252 218.637 110.161 218.555 110.093C218.473 110.026 218.364 109.985 218.249 109.981C218.132 109.981 218.019 110.019 217.936 110.088C217.853 110.157 217.807 110.251 217.807 110.348C217.804 110.398 217.813 110.448 217.834 110.494C217.854 110.541 217.886 110.584 217.928 110.62C217.969 110.656 218.019 110.685 218.074 110.705C218.129 110.724 218.189 110.735 218.249 110.735Z" stroke="black" stroke-width="0.57" stroke-linecap="round" stroke-linejoin="round"/>
<path d="M216.039 404.777V271.789" stroke="black" stroke-width="0.57" stroke-miterlimit="22.93" stroke-linecap="round"/>
<path fill-rule="evenodd" clip-rule="evenodd" d="M284.919 317.62C286.524 317.272 281.383 328.155 282.221 330.165C283.849 334.031 290.805 330.358 292.107 328.599C292.759 327.729 301.412 333.625 301.994 317.949C302.18 312.981 298.016 294.463 297.574 287.756C295.55 256.828 282.197 179.857 251.235 147.48C248.909 145.064 246.931 146.688 245.024 147.055C241.977 147.654 239.208 149.22 236.231 157.976C233.09 167.235 238.161 189.503 247.746 194.703C254.957 222.653 266.123 256.693 267.658 285.417C268.007 291.564 268.868 295.893 267.658 299.45C266.658 302.446 263.82 304.553 261.982 310.178C260.726 314.044 267.333 323.226 270.799 321.93C273.125 321.08 273.637 319.688 276.079 313.193C276.708 311.57 279.662 305.249 281.034 304.708C284.152 303.277 285.431 313.831 284.896 317.697" fill="#E7BFFF"/>
<path d="M285.012 315.397C285.101 319.514 284.134 323.599 282.174 327.381C280.895 330.03 282.919 331.247 285.245 331.383C288.502 331.673 291.037 329.74 293.48 324.327C295.316 319.703 296.036 314.822 295.597 309.965C295.318 307.182 299.575 306.505 299.202 302.234C296.318 281.647 292.898 200.231 252.096 146.978" stroke="black" stroke-width="0.57" stroke-linecap="round" stroke-linejoin="round"/>
<path d="M284.919 317.62C285.454 313.754 284.175 303.2 281.058 304.63C279.685 305.172 276.731 311.492 276.103 313.116C275.126 315.706 274.847 318.76 274.126 320.172C271.613 324.888 264.123 318.76 262.89 314.527C260.563 306.389 267.263 300.397 267.682 299.373C269.147 295.835 267.891 289.708 267.682 285.339C266.146 256.616 254.98 222.576 247.769 194.625" stroke="black" stroke-width="0.57" stroke-linecap="round" stroke-linejoin="round"/>
<path fill-rule="evenodd" clip-rule="evenodd" d="M284.594 306.757C286.618 312.556 284.594 328.889 278.173 332.079C275.056 333.625 270.892 332.407 270.427 330.706C269.264 326.589 271.939 325.526 273.265 319.553C274.353 314.365 274.424 309.064 273.474 303.857C272.59 299.856 278.778 297.053 283.291 304.244C283.856 305.03 284.294 305.875 284.594 306.757Z" fill="#E7BFFF"/>
<path d="M284.594 306.757C286.618 312.556 284.594 328.889 278.173 332.079C275.056 333.625 270.892 332.407 270.427 330.706C269.264 326.589 271.939 325.526 273.265 319.553C274.353 314.365 274.424 309.064 273.474 303.857C272.59 299.856 278.778 297.053 283.291 304.244C283.856 305.03 284.294 305.875 284.594 306.757Z" stroke="black" stroke-width="0.57" stroke-miterlimit="22.93" stroke-linecap="round"/>
<path d="M298.225 295.546C297.993 296.609 302.576 309.791 301.668 319.07C301.157 324.231 297.365 330.919 292.107 328.599" stroke="black" stroke-width="0.57" stroke-miterlimit="22.93" stroke-linecap="round"/>
<path fill-rule="evenodd" clip-rule="evenodd" d="M280.267 293.013C277.786 293.123 275.455 294.033 273.77 295.549C272.084 297.066 271.177 299.068 271.241 301.132C271.153 302.141 271.308 303.155 271.699 304.114C272.091 305.072 272.709 305.956 273.517 306.712C274.326 307.469 275.309 308.084 276.409 308.52C277.508 308.955 278.701 309.204 279.918 309.25C282.398 309.14 284.729 308.23 286.415 306.714C288.1 305.198 289.008 303.195 288.944 301.132C289.029 300.123 288.87 299.11 288.478 298.153C288.086 297.195 287.468 296.313 286.659 295.557C285.851 294.8 284.869 294.186 283.772 293.749C282.674 293.313 281.482 293.062 280.267 293.013Z" fill="#E7BFFF"/>
<path fill-rule="evenodd" clip-rule="evenodd" d="M295.783 294.386C293.899 294.386 286.897 308.69 293.736 309.25C300.575 309.811 296.411 318.915 298.388 318.915C300.366 318.915 300.715 313.812 300.715 311.454C300.715 309.096 297.69 294.347 295.783 294.347" fill="#E7BFFF"/>
<path d="M273.8 307.858C273.8 306.177 272.055 305.655 271.729 308.206C271.471 310.427 272.145 312.653 273.637 314.508" stroke="black" stroke-width="0.57" stroke-miterlimit="22.93" stroke-linecap="round"/>
<path fill-rule="evenodd" clip-rule="evenodd" d="M111.311 1H55.4809C41.0385 1.05097 27.2061 5.8448 17.0002 14.3361C6.79434 22.8274 1.04285 34.3273 1 46.3281C1.04296 58.344 6.80649 69.8575 17.0318 78.3541C27.2571 86.8507 41.1132 91.6398 55.5739 91.6755H98.7492C100.657 95.3674 106.03 99.4074 112.009 101.669C125.315 106.753 141.855 104.491 135.271 102.171C127.362 99.4073 125.804 94.4396 127.874 89.5299C138.899 86.5959 148.521 80.8342 155.359 73.0722C162.196 65.3102 165.898 55.9473 165.931 46.3281C165.888 34.3073 160.118 22.7899 149.882 14.2953C139.646 5.80072 125.778 1.02039 111.311 1Z" fill="#373435"/>
<path d="M111.311 1H55.4809C41.0385 1.05097 27.2061 5.8448 17.0002 14.3361C6.79434 22.8274 1.04285 34.3273 1 46.3281C1.04296 58.344 6.80649 69.8575 17.0318 78.3541C27.2571 86.8507 41.1132 91.6398 55.5739 91.6755H98.7492C100.657 95.3674 106.03 99.4074 112.009 101.669C125.315 106.753 141.855 104.491 135.271 102.171C127.362 99.4073 125.804 94.4396 127.874 89.5299C138.899 86.5959 148.521 80.8342 155.359 73.0722C162.196 65.3102 165.898 55.9473 165.931 46.3281C165.888 34.3073 160.118 22.7899 149.882 14.2953C139.646 5.80072 125.778 1.02039 111.311 1Z" stroke="#373435" stroke-width="0.57" stroke-miterlimit="22.93" stroke-linecap="round"/>
<path d="M52.3869 49.6335C65.7396 38.7895 70.7643 22.7652 63.6925 30.6711C60.2264 34.537 52.0612 57.404 52.9452 55.7996C55.0388 51.9337 66.0653 36.8952 62.9481 50.5033C61.5756 56.5342 62.7387 57.404 68.9033 52.5522C80.2322 43.6413 69.6942 38.0357 69.0894 54.3499C68.9266 58.4671 78.2781 54.4659 82.4421 49.4595C95.3295 33.9958 89.0952 23.9637 81.9536 46.5021C77.0452 61.9658 92.3287 57.404 100.331 38.6349C105.402 26.7858 96.7486 34.363 93.5616 44.9557C93.0498 46.676 91.2353 56.3215 96.3531 54.8138C98.47 54.1953 99.7959 50.426 99.6796 53.4414C99.5401 57.3073 107.1 51.1025 107.728 46.792C109.403 35.4648 96.0972 51.6631 102.471 51.4118C105.612 51.2958 109.45 50.6579 110.543 47.5459" stroke="#FEFEFE" stroke-width="0.57" stroke-miterlimit="22.93" stroke-linecap="round"/>
</svg>
