<svg width="132" height="54" viewBox="0 0 132 54" fill="none" xmlns="http://www.w3.org/2000/svg">
<path d="M60.7344 46.36C57.8244 46.36 55.1994 45.685 52.8594 44.335C50.5194 42.955 48.6894 41.035 47.3694 38.575C46.0494 36.115 45.3894 33.34 45.3894 30.25C45.3894 27.13 46.0494 24.355 47.3694 21.925C48.6894 19.465 50.5194 17.56 52.8594 16.21C55.1994 14.83 57.8244 14.14 60.7344 14.14C63.6444 14.14 66.2694 14.83 68.6094 16.21C70.9494 17.56 72.7794 19.465 74.0994 21.925C75.4194 24.355 76.0794 27.13 76.0794 30.25C76.0794 33.34 75.4194 36.115 74.0994 38.575C72.7794 41.035 70.9494 42.955 68.6094 44.335C66.2694 45.685 63.6444 46.36 60.7344 46.36ZM60.7344 44.56C63.2244 44.56 65.4744 43.975 67.4844 42.805C69.4944 41.635 71.0694 39.97 72.2094 37.81C73.3794 35.65 73.9644 33.13 73.9644 30.25C73.9644 27.34 73.3794 24.805 72.2094 22.645C71.0694 20.485 69.4944 18.82 67.4844 17.65C65.4744 16.48 63.2244 15.895 60.7344 15.895C58.2444 15.895 55.9944 16.48 53.9844 17.65C51.9744 18.82 50.3844 20.485 49.2144 22.645C48.0444 24.805 47.4594 27.34 47.4594 30.25C47.4594 33.13 48.0444 35.65 49.2144 37.81C50.3844 39.97 51.9744 41.635 53.9844 42.805C55.9944 43.975 58.2444 44.56 60.7344 44.56ZM101.416 46H99.3911L80.8511 17.74V46H78.8261V14.455H80.8511L99.3911 42.625V14.455H101.416V46Z" fill="#1C0021"/>
<g clip-path="url(#clip0_29_93)">
<mask id="mask0_29_93" style="mask-type:luminance" maskUnits="userSpaceOnUse" x="5" y="6" width="45" height="45">
<path d="M26.6392 6.83467L5.9353 36.2453L28.91 50.3033L49.614 20.8927L26.6392 6.83467Z" fill="white"/>
</mask>
<g mask="url(#mask0_29_93)">
<path d="M13.2926 28.6208C14.9972 29.6261 16.6833 30.6578 18.3507 31.7158C18.5738 31.8523 18.7244 31.8916 18.9483 31.787C19.1964 31.6745 19.4036 31.3936 19.5054 31.1689C19.6452 30.877 19.7503 30.5411 19.7198 30.1978C19.7048 29.9923 19.6826 29.6239 19.453 29.4833C17.6711 28.3477 15.8604 27.2398 14.034 26.1675C13.8372 26.0471 13.5082 26.2611 13.4077 26.3506C13.1749 26.5479 13.0062 26.8676 12.9252 27.1426C12.7992 27.6016 12.7041 28.2834 13.2757 28.6181L13.2926 28.6208Z" fill="black"/>
<path d="M16.9936 22.3233L21.9124 25.4161C22.1355 25.5527 22.2862 25.592 22.51 25.4873C22.7581 25.3748 22.9653 25.0939 23.067 24.8693C23.2069 24.5773 23.312 24.2415 23.2814 23.8981C23.2628 23.6979 23.2443 23.3242 23.0147 23.1837L18.0959 20.0908C17.8728 19.9543 17.7221 19.915 17.4983 20.0197C17.2501 20.1321 17.043 20.413 16.9412 20.6377C16.8014 20.9296 16.6963 21.2655 16.7268 21.6089C16.7455 21.8091 16.764 22.1828 16.9936 22.3233Z" fill="black"/>
<path d="M22.2 46.0615C28.1306 45.7037 33.1836 43.0194 36.6208 39.1501C40.058 35.2807 41.7809 29.7132 41.5958 24.2693C41.4865 21.1444 40.7799 18.0014 39.6138 14.9245C39.3547 14.2526 38.5979 14.7409 38.373 15.0337C37.9576 15.5572 37.8385 16.2997 38.091 16.9677C39.8576 21.605 40.3995 26.5953 39.1352 31.0314C37.8708 35.4677 34.9374 38.9279 30.7181 41.1483C28.2852 42.4307 25.5296 43.1985 22.5638 43.3847C21.5126 43.4512 21.0087 46.1404 22.1964 46.0668L22.2 46.0615Z" fill="black"/>
</g>
</g>
<defs>
<clipPath id="clip0_29_93">
<rect width="43.1697" height="33.5376" fill="white" transform="translate(0 29.5533) rotate(-43.203)"/>
</clipPath>
</defs>
</svg>
