<svg width="35" height="31" viewBox="0 0 35 31" fill="none" xmlns="http://www.w3.org/2000/svg">
<path d="M11.3124 11.8753C11.312 11.8753 11.3118 11.8753 11.3115 11.8753H5.81154C5.43204 11.8751 5.1243 12.1453 5.12404 12.4788C5.12404 12.4791 5.12404 12.4793 5.12404 12.4795V26.9795C5.12379 27.313 5.43129 27.5834 5.81071 27.5837C5.81104 27.5837 5.81129 27.5837 5.81154 27.5837H11.3115C11.691 27.5839 11.9988 27.3137 11.999 26.9802C11.999 26.9799 11.999 26.9797 11.999 26.9795V12.4795C11.9993 12.146 11.6918 11.8756 11.3124 11.8753ZM10.624 26.3753H6.49904V13.0837H10.624V26.3753ZM25.749 11.8753C24.2574 11.8754 22.8074 12.308 21.624 13.1061V12.4795C21.6243 12.146 21.3168 11.8756 20.9374 11.8753C20.937 11.8753 20.9368 11.8753 20.9365 11.8753H15.4365C15.057 11.8751 14.7493 12.1453 14.749 12.4788C14.749 12.4791 14.749 12.4793 14.749 12.4795V26.9795C14.7488 27.313 15.0563 27.5834 15.4358 27.5837C15.436 27.5837 15.4363 27.5837 15.4365 27.5837H20.9365C21.316 27.5839 21.6238 27.3137 21.624 26.9802C21.624 26.9799 21.624 26.9797 21.624 26.9795V20.3337C21.624 19.3327 22.5475 18.5212 23.6865 18.5212C24.8256 18.5212 25.749 19.3327 25.749 20.3337V26.9795C25.7488 27.313 26.0563 27.5834 26.4358 27.5837C26.436 27.5837 26.4363 27.5837 26.4365 27.5837H31.9365C32.316 27.5839 32.6238 27.3137 32.624 26.9802C32.624 26.9799 32.624 26.9797 32.624 26.9795V17.917C32.6196 14.5819 29.5441 11.8792 25.749 11.8753ZM31.249 26.3753H27.124V20.3337C27.124 18.6653 25.5851 17.3128 23.6865 17.3128C21.788 17.3128 20.249 18.6653 20.249 20.3337V26.3753H16.124V13.0837H20.249V14.5374C20.249 14.7942 20.4338 15.0228 20.7097 15.1074C20.9849 15.1946 21.2927 15.1171 21.4737 14.9151C23.3472 12.8285 26.7908 12.4718 29.1651 14.1182C30.4877 15.0354 31.2563 16.4365 31.249 17.917V26.3753ZM9.06752 3.41922C8.9058 3.40926 8.74349 3.40852 8.58169 3.417C6.50643 3.29244 4.70921 4.66988 4.56747 6.49359C4.56176 6.56698 4.55891 6.64043 4.55874 6.71396C4.54086 8.52218 6.1944 10.0007 8.25204 10.0164C8.33604 10.0171 8.41997 10.0152 8.50381 10.0108H8.54275C10.6141 10.1382 12.4106 8.76586 12.5555 6.94561C12.7005 5.12537 11.1388 3.54658 9.06752 3.41922ZM9.02002 8.80598C8.86124 8.81881 8.70128 8.8177 8.54275 8.80251H8.50381C7.18915 8.89131 6.04158 8.0268 5.94054 6.87149C5.83949 5.71626 6.82324 4.70772 8.1379 4.61892C8.28577 4.60897 8.43432 4.6111 8.58169 4.62534C9.89534 4.51899 11.0584 5.3686 11.1795 6.52302C11.3006 7.67751 10.3338 8.69963 9.02002 8.80598Z" fill="black"/>
<rect x="0.5" y="0.5" width="34" height="30" rx="5.5" stroke="black"/>
</svg>
