<svg width="223" height="41" viewBox="0 0 223 41" fill="none" xmlns="http://www.w3.org/2000/svg">
<path d="M53.55 13.45V25.4C53.55 27.25 53.025 28.675 51.975 29.675C50.9417 30.675 49.5417 31.175 47.775 31.175C45.925 31.175 44.4417 30.65 43.325 29.6C42.2083 28.55 41.65 27.0583 41.65 25.125H45.9C45.9 25.8583 46.05 26.4167 46.35 26.8C46.65 27.1667 47.0833 27.35 47.65 27.35C48.1667 27.35 48.5667 27.1833 48.85 26.85C49.1333 26.5167 49.275 26.0333 49.275 25.4V13.45H53.55ZM65.8531 31.2C64.4865 31.2 63.2531 30.9083 62.1531 30.325C61.0698 29.7417 60.2115 28.9083 59.5781 27.825C58.9615 26.7417 58.6531 25.475 58.6531 24.025C58.6531 22.5917 58.9698 21.3333 59.6031 20.25C60.2365 19.15 61.1031 18.3083 62.2031 17.725C63.3031 17.1417 64.5365 16.85 65.9031 16.85C67.2698 16.85 68.5031 17.1417 69.6031 17.725C70.7031 18.3083 71.5698 19.15 72.2031 20.25C72.8365 21.3333 73.1531 22.5917 73.1531 24.025C73.1531 25.4583 72.8281 26.725 72.1781 27.825C71.5448 28.9083 70.6698 29.7417 69.5531 30.325C68.4531 30.9083 67.2198 31.2 65.8531 31.2ZM65.8531 27.5C66.6698 27.5 67.3615 27.2 67.9281 26.6C68.5115 26 68.8031 25.1417 68.8031 24.025C68.8031 22.9083 68.5198 22.05 67.9531 21.45C67.4031 20.85 66.7198 20.55 65.9031 20.55C65.0698 20.55 64.3781 20.85 63.8281 21.45C63.2781 22.0333 63.0031 22.8917 63.0031 24.025C63.0031 25.1417 63.2698 26 63.8031 26.6C64.3531 27.2 65.0365 27.5 65.8531 27.5ZM86.4211 16.9C88.0544 16.9 89.3544 17.4333 90.3211 18.5C91.3044 19.55 91.7961 21 91.7961 22.85V31H87.5461V23.425C87.5461 22.4917 87.3044 21.7667 86.8211 21.25C86.3378 20.7333 85.6878 20.475 84.8711 20.475C84.0544 20.475 83.4044 20.7333 82.9211 21.25C82.4378 21.7667 82.1961 22.4917 82.1961 23.425V31H77.9211V17.05H82.1961V18.9C82.6294 18.2833 83.2128 17.8 83.9461 17.45C84.6794 17.0833 85.5044 16.9 86.4211 16.9ZM120.265 13.45V31H115.99V23.775H109.34V31H105.065V13.45H109.34V20.325H115.99V13.45H120.265ZM125.001 24C125.001 22.5667 125.267 21.3083 125.801 20.225C126.351 19.1417 127.092 18.3083 128.026 17.725C128.959 17.1417 130.001 16.85 131.151 16.85C132.134 16.85 132.992 17.05 133.726 17.45C134.476 17.85 135.051 18.375 135.451 19.025V17.05H139.726V31H135.451V29.025C135.034 29.675 134.451 30.2 133.701 30.6C132.967 31 132.109 31.2 131.126 31.2C129.992 31.2 128.959 30.9083 128.026 30.325C127.092 29.725 126.351 28.8833 125.801 27.8C125.267 26.7 125.001 25.4333 125.001 24ZM135.451 24.025C135.451 22.9583 135.151 22.1167 134.551 21.5C133.967 20.8833 133.251 20.575 132.401 20.575C131.551 20.575 130.826 20.8833 130.226 21.5C129.642 22.1 129.351 22.9333 129.351 24C129.351 25.0667 129.642 25.9167 130.226 26.55C130.826 27.1667 131.551 27.475 132.401 27.475C133.251 27.475 133.967 27.1667 134.551 26.55C135.151 25.9333 135.451 25.0917 135.451 24.025ZM144.469 24C144.469 22.5667 144.735 21.3083 145.269 20.225C145.819 19.1417 146.56 18.3083 147.494 17.725C148.427 17.1417 149.469 16.85 150.619 16.85C151.602 16.85 152.46 17.05 153.194 17.45C153.944 17.85 154.519 18.375 154.919 19.025V17.05H159.194V31H154.919V29.025C154.502 29.675 153.919 30.2 153.169 30.6C152.435 31 151.577 31.2 150.594 31.2C149.46 31.2 148.427 30.9083 147.494 30.325C146.56 29.725 145.819 28.8833 145.269 27.8C144.735 26.7 144.469 25.4333 144.469 24ZM154.919 24.025C154.919 22.9583 154.619 22.1167 154.019 21.5C153.435 20.8833 152.719 20.575 151.869 20.575C151.019 20.575 150.294 20.8833 149.694 21.5C149.11 22.1 148.819 22.9333 148.819 24C148.819 25.0667 149.11 25.9167 149.694 26.55C150.294 27.1667 151.019 27.475 151.869 27.475C152.719 27.475 153.435 27.1667 154.019 26.55C154.619 25.9333 154.919 25.0917 154.919 24.025ZM172.561 27.375V31H170.386C168.836 31 167.628 30.625 166.761 29.875C165.895 29.1083 165.461 27.8667 165.461 26.15V20.6H163.761V17.05H165.461V13.65H169.736V17.05H172.536V20.6H169.736V26.2C169.736 26.6167 169.836 26.9167 170.036 27.1C170.236 27.2833 170.57 27.375 171.036 27.375H172.561ZM176.593 24C176.593 22.5667 176.859 21.3083 177.393 20.225C177.943 19.1417 178.684 18.3083 179.618 17.725C180.551 17.1417 181.593 16.85 182.743 16.85C183.726 16.85 184.584 17.05 185.318 17.45C186.068 17.85 186.643 18.375 187.043 19.025V17.05H191.318V31H187.043V29.025C186.626 29.675 186.043 30.2 185.293 30.6C184.559 31 183.701 31.2 182.718 31.2C181.584 31.2 180.551 30.9083 179.618 30.325C178.684 29.725 177.943 28.8833 177.393 27.8C176.859 26.7 176.593 25.4333 176.593 24ZM187.043 24.025C187.043 22.9583 186.743 22.1167 186.143 21.5C185.559 20.8833 184.843 20.575 183.993 20.575C183.143 20.575 182.418 20.8833 181.818 21.5C181.234 22.1 180.943 22.9333 180.943 24C180.943 25.0667 181.234 25.9167 181.818 26.55C182.418 27.1667 183.143 27.475 183.993 27.475C184.843 27.475 185.559 27.1667 186.143 26.55C186.743 25.9333 187.043 25.0917 187.043 24.025ZM199.035 15.6C198.285 15.6 197.669 15.3833 197.185 14.95C196.719 14.5 196.485 13.95 196.485 13.3C196.485 12.6333 196.719 12.0833 197.185 11.65C197.669 11.2 198.285 10.975 199.035 10.975C199.769 10.975 200.369 11.2 200.835 11.65C201.319 12.0833 201.56 12.6333 201.56 13.3C201.56 13.95 201.319 14.5 200.835 14.95C200.369 15.3833 199.769 15.6 199.035 15.6ZM201.185 32.8C201.185 34.5167 200.752 35.75 199.885 36.5C199.019 37.2667 197.81 37.65 196.26 37.65H194.585V34.025H195.61C196.077 34.025 196.41 33.9333 196.61 33.75C196.81 33.5667 196.91 33.2667 196.91 32.85V17.05H201.185V32.8ZM205.909 24C205.909 22.5667 206.176 21.3083 206.709 20.225C207.259 19.1417 208.001 18.3083 208.934 17.725C209.867 17.1417 210.909 16.85 212.059 16.85C213.042 16.85 213.901 17.05 214.634 17.45C215.384 17.85 215.959 18.375 216.359 19.025V17.05H220.634V31H216.359V29.025C215.942 29.675 215.359 30.2 214.609 30.6C213.876 31 213.017 31.2 212.034 31.2C210.901 31.2 209.867 30.9083 208.934 30.325C208.001 29.725 207.259 28.8833 206.709 27.8C206.176 26.7 205.909 25.4333 205.909 24ZM216.359 24.025C216.359 22.9583 216.059 22.1167 215.459 21.5C214.876 20.8833 214.159 20.575 213.309 20.575C212.459 20.575 211.734 20.8833 211.134 21.5C210.551 22.1 210.259 22.9333 210.259 24C210.259 25.0667 210.551 25.9167 211.134 26.55C211.734 27.1667 212.459 27.475 213.309 27.475C214.159 27.475 214.876 27.1667 215.459 26.55C216.059 25.9333 216.359 25.0917 216.359 24.025Z" fill="black"/>
<g clip-path="url(#clip0_206_613)">
<path d="M8.43655 12.139C9.32448 13.5604 10.19 14.9953 11.0331 16.4437C11.1477 16.6336 11.243 16.7207 11.4402 16.7236C11.6577 16.7295 11.9029 16.5892 12.053 16.453C12.2534 16.2788 12.4437 16.0574 12.5386 15.7793C12.5979 15.6141 12.7074 15.3196 12.5895 15.1242C11.6902 13.5726 10.7607 12.0316 9.80768 10.5124C9.70664 10.3449 9.39626 10.3874 9.29319 10.4192C9.05792 10.4849 8.82725 10.6697 8.67503 10.8529C8.42769 11.1621 8.12674 11.6558 8.42533 12.1305L8.43655 12.139Z" fill="black"/>
<path d="M13.253 8.63878L15.7498 12.8895C15.8643 13.0793 15.9596 13.1665 16.1569 13.1693C16.3743 13.1753 16.6196 13.0349 16.7696 12.8987C16.97 12.7245 17.1603 12.5032 17.2553 12.225C17.31 12.0626 17.424 11.7654 17.3062 11.5699L14.8094 7.31925C14.6948 7.12942 14.5995 7.04225 14.4023 7.03939C14.1848 7.03347 13.9396 7.17381 13.7895 7.30999C13.5891 7.48419 13.3988 7.70557 13.3039 7.98369C13.2491 8.14616 13.1351 8.44337 13.253 8.63878V8.63878Z" fill="black"/>
<path d="M8.92263 29.0316C13.3255 30.9827 17.8876 30.7971 21.6871 29.0839C25.4867 27.3708 28.6274 23.6944 30.3488 19.397C31.3347 16.9291 31.8955 14.2225 32.1022 11.3947C32.1441 10.7754 31.4315 10.8702 31.1694 11.0131C30.6911 11.2635 30.3521 11.7954 30.3068 12.4091C30.0019 16.6745 28.6927 20.7538 26.2685 23.7238C23.8442 26.6939 20.5477 28.2787 16.7454 28.4173C14.5523 28.4989 12.3016 28.0595 10.0973 27.0894C9.31585 26.746 8.03578 28.6452 8.91815 29.0343L8.92263 29.0316V29.0316Z" fill="black"/>
</g>
<defs>
<clipPath id="clip0_206_613">
<rect width="29.1566" height="22.8344" fill="white" transform="translate(0.527344 15.2949) rotate(-31.0983)"/>
</clipPath>
</defs>
</svg>
