<svg width="313" height="315" viewBox="0 0 313 315" fill="none" xmlns="http://www.w3.org/2000/svg">
<path d="M154.413 275.887V150.412" stroke="#DFDFDF" stroke-width="7" stroke-linecap="round" stroke-linejoin="round"/>
<path d="M137.084 211.173C136.719 213.079 168.452 263.988 170.992 263.988C174.25 263.988 181.731 258.402 181.731 256.825C181.731 255.247 167.439 218.579 167.439 212.386C167.439 206.194 140.219 194.775 137.084 211.173Z" fill="black"/>
<path d="M131.46 290.062V150.412" stroke="#DFDFDF" stroke-width="7" stroke-linecap="round" stroke-linejoin="round"/>
<path d="M269.288 105.448L260.757 103.425L228.055 243.085L236.585 245.108L269.288 105.448Z" fill="#DFDFDF"/>
<path d="M236.578 245.123L238.588 236.538L158.764 217.607L156.753 226.192L236.578 245.123Z" fill="#DFDFDF"/>
<path d="M143.328 73.7625C144.552 73.7625 145.545 72.7636 145.545 71.5313C145.545 70.299 144.552 69.3 143.328 69.3C142.103 69.3 141.111 70.299 141.111 71.5313C141.111 72.7636 142.103 73.7625 143.328 73.7625Z" fill="white"/>
<path d="M153.24 73.7625C154.464 73.7625 155.457 72.7636 155.457 71.5313C155.457 70.299 154.464 69.3 153.24 69.3C152.015 69.3 151.022 70.299 151.022 71.5313C151.022 72.7636 152.015 73.7625 153.24 73.7625Z" fill="white"/>
<path d="M163.151 73.7625C164.376 73.7625 165.368 72.7636 165.368 71.5313C165.368 70.299 164.376 69.3 163.151 69.3C161.927 69.3 160.934 70.299 160.934 71.5313C160.934 72.7636 161.927 73.7625 163.151 73.7625Z" fill="white"/>
<path d="M189.055 142.564C193.799 120.968 204.233 96.1696 223.323 88.6437" stroke="black" stroke-width="2.5" stroke-linecap="round" stroke-linejoin="round"/>
<path d="M241.148 87.4125C249.096 90.6202 252.487 100.509 252.487 107.887C252.487 149.1 244.057 190.344 239.184 193.462C230.577 198.975 190.377 185.85 186.757 177.187C185.685 174.623 185.474 167.37 186.496 158.009" stroke="black" stroke-width="2.5" stroke-linecap="round" stroke-linejoin="round"/>
<path d="M223.323 88.6436C223.58 85.3249 223.621 81.9927 223.445 78.6686" stroke="black" stroke-width="2.5" stroke-linecap="round" stroke-linejoin="round"/>
<path d="M238.141 66.4125C237.88 67.9875 238.402 81.375 242.053 89.775C241.253 91.0638 236.425 93.3397 231.49 93.8149" stroke="black" stroke-width="2.5" stroke-linecap="round" stroke-linejoin="round"/>
<path d="M232.768 66.0319C230.624 73.8387 225.837 79.275 220.274 79.275C212.71 79.275 206.58 69.2265 206.58 56.8313C206.578 54.8526 206.739 52.8771 207.06 50.925" stroke="black" stroke-width="2.5" stroke-linecap="round" stroke-linejoin="round"/>
<path d="M202.015 50.3712C191.952 48.1924 190.408 40.1626 190.408 37.0126C190.408 27.3 199.016 27.0375 202.667 24.9375C206.825 22.5462 209.971 18.1125 215.97 18.1125C221.708 18.1125 226.012 23.625 229.533 25.4625C235.532 28.6125 249.878 28.0875 249.878 39.1126C249.878 46.9876 247.009 49.0876 247.009 52.7626C247.009 54.8626 247.531 55.6501 247.531 59.8501C247.531 64.6564 243.357 67.2657 240.4 67.8563" stroke="black" stroke-width="2.5" stroke-linecap="round" stroke-linejoin="round"/>
<path d="M231.75 54.3375C233.03 54.3375 234.258 54.8492 235.163 55.7599C236.068 56.6706 236.576 57.9058 236.576 59.1938C236.576 60.4817 236.068 61.7169 235.163 62.6277C234.258 63.5384 233.03 64.05 231.75 64.05" stroke="black" stroke-width="2.5" stroke-linecap="round" stroke-linejoin="round"/>
<path d="M218.187 137.812C216.729 141.333 214.535 147.525 214.144 153.3C210.232 151.725 172.672 134.662 165.629 134.662C151.805 134.662 148.153 139.125 148.153 141.225C148.153 145.162 165.107 144.637 167.455 145.95C169.802 147.262 216.231 177.712 221.969 177.712C227.152 177.712 239.362 157.576 242.053 149.234" stroke="black" stroke-width="2.5" stroke-linecap="round" stroke-linejoin="round"/>
<path d="M248.639 141.094C247.126 145.95 245.269 149.286 243.618 149.363C237.88 149.625 217.013 138.6 215.448 135.188C214.405 132.938 222.23 117.214 231.268 108.499" stroke="black" stroke-width="2.5" stroke-linecap="round" stroke-linejoin="round"/>
<path d="M160.934 147H27.9092V152.25H160.934V147Z" fill="#DFDFDF"/>
<path d="M35.9951 290.062V150.412" stroke="#DFDFDF" stroke-width="7" stroke-linecap="round" stroke-linejoin="round"/>
<path d="M59.9917 275.887V150.412" stroke="#DFDFDF" stroke-width="7" stroke-linecap="round" stroke-linejoin="round"/>
<path d="M155.457 144.113H125.461V147H155.457V144.113Z" fill="black"/>
<path d="M111.383 107.106L125.12 145.825L125.933 145.533L112.196 106.814L111.383 107.106Z" fill="black"/>
<path d="M222.822 240.083L241.023 295.032" stroke="#DFDFDF" stroke-width="7" stroke-linecap="round" stroke-linejoin="round"/>
<path d="M178.603 269.968L161.312 293.094" stroke="#DFDFDF" stroke-width="7" stroke-linecap="round" stroke-linejoin="round"/>
<path d="M203.614 236.675L184.537 262.19" stroke="#DFDFDF" stroke-width="7" stroke-linecap="round" stroke-linejoin="round"/>
<path d="M175.342 229.971L133.484 285.952" stroke="#DFDFDF" stroke-width="7" stroke-linecap="round" stroke-linejoin="round"/>
<path d="M195.411 235.113L213.612 290.063" stroke="#DFDFDF" stroke-width="7" stroke-linecap="round" stroke-linejoin="round"/>
<path d="M237.121 194.305C225.501 197.284 190.147 185.28 186.757 177.187C186.506 176.523 186.331 175.831 186.235 175.127C170.872 171.15 154.324 168.22 139.929 168.22C116.258 168.22 96.8916 272.538 96.8916 274.336C98.7905 274.898 111.634 276.699 111.634 276.699C111.634 276.699 143.808 210.601 144.702 206.104C147.942 208.351 188.754 229.708 204.511 229.708C221.781 229.708 237.969 211.858 237.969 195.423C237.969 195.145 237.676 194.775 237.121 194.305Z" fill="black"/>
<path d="M111.185 275.517L107.875 295.344L76.4189 290.322L101.302 285.45L103.389 274.208" stroke="black" stroke-width="2.5" stroke-linecap="round" stroke-linejoin="round"/>
<path d="M180.053 256.696L191.42 273.231L165.395 291.706L179.855 270.75L173.559 261.23" stroke="black" stroke-width="2.5" stroke-linecap="round" stroke-linejoin="round"/>
</svg>
