<svg width="389" height="303" viewBox="0 0 389 303" fill="none" xmlns="http://www.w3.org/2000/svg">
<path fill-rule="evenodd" clip-rule="evenodd" d="M226.211 112.496C225.001 109.996 222.831 110.266 220.182 104.976C217.642 99.6362 219.191 98.0962 217.981 95.5962C217.191 93.9962 213.512 92.0662 205.341 94.3862C200.682 95.7062 193.872 97.9962 194.072 100.356C194.311 103.296 197.111 102.966 200.461 104.686C203.851 106.446 204.981 107.526 206.892 111.456C208.122 113.986 208.631 115.536 208.642 117.326C209.501 120.356 211.801 126.786 215.191 124.296C218.372 121.946 223.762 116.466 226.461 113.676C226.463 113.27 226.378 112.867 226.211 112.496ZM212.952 104.726C212.349 105.02 211.672 105.129 211.008 105.039C210.343 104.948 209.72 104.663 209.217 104.219C208.715 103.774 208.355 103.191 208.184 102.542C208.013 101.894 208.038 101.209 208.256 100.575C208.474 99.9403 208.875 99.3849 209.409 98.9784C209.943 98.572 210.585 98.3329 211.254 98.2913C211.924 98.2497 212.59 98.4075 213.17 98.7448C213.75 99.0821 214.217 99.5837 214.512 100.186C214.905 100.995 214.962 101.927 214.669 102.778C214.377 103.629 213.759 104.33 212.952 104.726L212.952 104.726ZM215.892 114.626C215.589 114.775 215.249 114.831 214.915 114.786C214.581 114.741 214.268 114.599 214.015 114.376C213.762 114.153 213.581 113.86 213.495 113.535C213.409 113.209 213.421 112.865 213.531 112.546C213.64 112.228 213.842 111.949 214.11 111.745C214.378 111.541 214.701 111.421 215.037 111.401C215.374 111.38 215.709 111.46 216 111.63C216.29 111.8 216.524 112.053 216.671 112.356C216.865 112.761 216.891 113.226 216.745 113.651C216.6 114.075 216.293 114.425 215.892 114.626H215.892ZM220.421 116.186C220.119 116.331 219.781 116.383 219.45 116.337C219.118 116.29 218.808 116.146 218.558 115.922C218.309 115.699 218.131 115.407 218.047 115.083C217.963 114.759 217.977 114.417 218.087 114.101C218.197 113.785 218.398 113.508 218.665 113.306C218.932 113.104 219.253 112.986 219.587 112.966C219.921 112.946 220.254 113.026 220.543 113.195C220.832 113.364 221.065 113.615 221.211 113.916C221.31 114.117 221.368 114.335 221.381 114.558C221.395 114.781 221.364 115.005 221.291 115.216C221.217 115.427 221.102 115.622 220.953 115.788C220.804 115.955 220.623 116.09 220.421 116.186H220.421Z" fill="black"/>
<path d="M120.505 30.2214C121.3 31.5686 121.986 32.9777 122.556 34.4349C123.14 35.9068 123.577 37.4332 123.859 38.9915C123.997 39.8015 124.049 40.624 124.013 41.4449L123.979 41.9966C123.974 42.1523 123.981 42.3082 124.001 42.4627C124.035 42.7811 124.114 43.093 124.236 43.3891C124.831 44.6906 125.848 45.7527 127.123 46.4028L127.171 46.427C127.238 46.461 127.292 46.5165 127.324 46.5846C127.356 46.6526 127.364 46.7294 127.348 46.8028C127.242 47.2305 127.081 47.6427 126.869 48.0289C126.664 48.4136 126.398 48.762 126.08 49.06C125.767 49.3687 125.389 49.6042 124.974 49.7495C124.566 49.8945 124.137 49.9727 123.704 49.9812L123.947 49.6995C124.279 51.8174 124.502 53.951 124.614 56.0918C124.661 57.1848 124.609 58.2798 124.46 59.3636C124.332 60.5311 123.94 61.6542 123.314 62.6475C122.56 63.6198 121.52 64.3323 120.342 64.6853C119.283 65.0411 118.191 65.2877 117.083 65.4214C114.922 65.6651 112.741 65.6746 110.578 65.45L111.205 65.0773C110.958 65.5961 110.76 66.1368 110.613 66.6923C110.46 67.2514 110.386 67.8292 110.394 68.4089C110.413 68.9824 110.545 69.5465 110.781 70.0693C111.062 70.5973 111.454 71.0584 111.93 71.4207L111.937 71.4264C111.952 71.4389 111.961 71.4563 111.964 71.4754C111.967 71.4945 111.963 71.5139 111.952 71.53C111.941 71.5461 111.925 71.5578 111.907 71.5628C111.888 71.5678 111.868 71.5658 111.851 71.5572C111.252 71.2862 110.73 70.8708 110.331 70.3483C109.935 69.7983 109.674 69.1622 109.57 68.4921C109.471 67.8299 109.466 67.1571 109.556 66.4936C109.634 65.825 109.796 65.1688 110.038 64.5405C110.08 64.4312 110.154 64.3371 110.25 64.2706C110.347 64.2041 110.461 64.1682 110.578 64.1677H110.665C112.736 64.1809 114.805 64.045 116.857 63.7609C117.852 63.624 118.834 63.4044 119.793 63.1043C120.674 62.8973 121.471 62.4251 122.076 61.7513C122.6 60.9547 122.958 60.0604 123.127 59.1221C123.334 58.1134 123.477 57.0926 123.555 56.0659C123.737 53.9701 123.706 51.8612 123.461 49.7718C123.457 49.739 123.46 49.7057 123.468 49.6738C123.477 49.642 123.492 49.6122 123.513 49.5862C123.533 49.5602 123.559 49.5384 123.587 49.5222C123.616 49.506 123.648 49.4956 123.681 49.4917L123.698 49.4902L123.704 49.4899C124.079 49.4957 124.452 49.4305 124.803 49.2978C125.149 49.167 125.462 48.9601 125.718 48.6923C125.97 48.418 126.175 48.1029 126.322 47.7603C126.469 47.4219 126.563 47.063 126.601 46.6961L126.826 47.0959C126.047 46.8167 125.321 46.4069 124.68 45.884C124.004 45.355 123.444 44.6946 123.031 43.9427C122.827 43.5364 122.686 43.1012 122.613 42.6523C122.58 42.4237 122.566 42.1928 122.571 41.9619L122.598 41.3557C122.636 40.6309 122.608 39.9042 122.516 39.1844C122.018 36.1694 121.298 33.1954 120.361 30.2868C120.358 30.2769 120.357 30.2664 120.358 30.256C120.358 30.2456 120.361 30.2355 120.366 30.2261C120.371 30.2168 120.377 30.2085 120.385 30.2017C120.393 30.1949 120.402 30.1897 120.412 30.1865C120.429 30.1814 120.448 30.1821 120.465 30.1884C120.481 30.1947 120.496 30.2062 120.505 30.2214Z" fill="black"/>
<path d="M122.141 62.8161C119.011 65.376 110.621 64.8061 110.621 64.8061C105.031 61.596 103.601 55.476 103.291 53.5761C102.801 54.466 101.561 54.8361 100.811 55.996C98.681 59.266 94.0809 61.8261 91.8509 61.536C86.4109 60.836 83.6609 52.046 84.0311 45.896C84.6009 36.506 84.4608 31.396 95.8309 25.136C97.7124 24.0763 99.7269 23.2725 101.821 22.746C100.751 27.0661 100.761 33.766 101.141 39.786H101.271C99.688 40.2641 98.3364 41.3079 97.4737 42.7185C96.611 44.1291 96.2974 45.8078 96.5928 47.4347C96.8883 49.0616 97.772 50.5229 99.0756 51.5401C100.379 52.5573 102.011 53.0593 103.661 52.9504C105.311 52.8414 106.863 52.1292 108.022 50.9495C109.18 49.7698 109.864 48.205 109.943 46.5534C110.022 44.9018 109.491 43.2789 108.45 41.9939C107.41 40.709 105.933 39.8519 104.301 39.586C103.871 32.8959 104.061 25.6259 104.721 22.2459C105.141 22.2059 105.561 22.1858 105.971 22.1758C107.302 22.1398 108.634 22.2505 109.941 22.5059C114.425 23.4742 118.464 25.8963 121.431 29.3959C121.431 29.3959 119.811 31.1858 117.451 33.5259C114.827 36.1939 112.046 38.7018 109.121 41.0359C109.121 41.0359 112.681 52.0159 123.951 52.0159C124.221 55.256 124.351 61.016 122.141 62.8161Z" fill="black"/>
<path d="M45.0195 93.3912C45.0195 93.3912 61.7044 71.0183 74.7868 70.0703L122.202 71.8833C127.249 72.0762 132.126 73.7609 136.216 76.7243C140.306 79.6877 143.425 83.797 145.181 88.5328L155.858 117.339C156.336 118.63 157.174 119.757 158.273 120.587C159.372 121.417 160.685 121.915 162.057 122.023C171.39 122.756 192.349 124.201 200.634 123.111C200.634 123.111 202.483 134.061 199.639 137.331L147.593 142.877C147.593 142.877 125.837 92.9646 120.575 91.6848C120.575 91.6848 59.3344 90.5472 45.0195 93.3912Z" fill="black"/>
<path d="M45.02 93.4702L31.9258 93.7609C29.7797 93.6545 27.6638 94.3016 25.9444 95.5902C24.2546 96.8791 23.0875 98.7353 22.6582 100.817C22.4961 101.88 22.3919 102.952 22.346 104.027C22.2456 105.12 22.1323 106.21 21.9964 107.297C21.7259 109.471 21.4034 111.635 21.0527 113.794C20.3386 118.111 19.5313 122.41 18.6306 126.69C18.6117 126.781 18.5687 126.865 18.5061 126.934L18.4988 126.942L9.8218 136.463C9.80284 136.484 9.78246 136.503 9.7608 136.521L9.75396 136.526C8.41763 137.601 7.18278 138.796 6.06497 140.097C4.93605 141.364 3.98859 142.781 3.24978 144.309C1.83114 147.401 1.43131 150.865 2.10793 154.199L5.52593 174.931C6.67388 181.841 7.8617 188.743 9.08941 195.638C10.3165 202.533 11.5467 209.427 12.8907 216.298C14.2347 223.169 15.6458 230.029 17.3106 236.824C18.1597 240.215 19.0369 243.606 20.1961 246.892C20.4952 247.708 20.7977 248.525 21.1587 249.309C21.4823 250.088 21.9154 250.817 22.4449 251.473C22.5679 251.604 22.7112 251.713 22.8692 251.798C23.0494 251.863 23.2657 251.906 23.4617 251.962C23.8767 252.068 24.2975 252.149 24.722 252.205C25.5721 252.362 26.4488 252.433 27.3111 252.551C34.2669 253.263 41.2671 253.677 48.2611 254.027C55.2574 254.375 62.2563 254.677 69.2577 254.931C83.2608 255.414 97.2667 255.806 111.275 256.108L132.287 256.521L142.791 256.662L148.04 256.702C149.775 256.692 151.57 256.751 153.21 256.603C156.635 256.067 160.023 255.322 163.356 254.373C166.725 253.466 170.075 252.47 173.405 251.417C180.067 249.311 186.643 246.958 193.132 244.357C199.623 241.81 205.95 238.863 212.076 235.533C215.119 233.876 218.038 232.001 220.81 229.923C223.574 227.955 225.901 225.439 227.646 222.53L227.568 222.792C228.65 213.291 229.522 203.758 230.184 194.193C230.823 184.639 231.231 175.066 231.155 165.496C231.13 160.711 230.927 155.935 230.548 151.167C230.492 149.971 230.299 148.793 230.172 147.606C230.022 146.422 229.908 145.231 229.729 144.053L229.07 140.54C228.95 139.972 228.873 139.328 228.719 138.823C228.545 138.309 228.25 137.845 227.859 137.471C227.467 137.096 226.991 136.822 226.47 136.671C225.925 136.532 225.359 136.493 224.799 136.554L221.205 136.676L214.018 136.921L199.642 137.41C199.621 137.411 199.601 137.403 199.586 137.389C199.571 137.375 199.562 137.355 199.561 137.335C199.56 137.314 199.567 137.294 199.581 137.278C199.595 137.263 199.614 137.253 199.635 137.252L213.997 136.461L221.178 136.065L224.769 135.867C225.403 135.788 226.046 135.825 226.666 135.978C227.304 136.155 227.889 136.484 228.372 136.937C228.855 137.39 229.221 137.952 229.439 138.577C229.64 139.218 229.698 139.773 229.834 140.375L230.54 143.923C230.735 145.111 230.863 146.308 231.028 147.5C231.169 148.695 231.377 149.884 231.447 151.085C231.883 155.874 232.14 160.673 232.219 165.48C232.404 175.088 232.102 184.693 231.57 194.279C231.032 203.867 230.264 213.433 229.159 222.985L229.156 223.003C229.146 223.088 229.12 223.171 229.08 223.247C227.234 226.379 224.755 229.091 221.8 231.209C218.968 233.341 215.987 235.265 212.877 236.967C206.698 240.349 200.31 243.335 193.752 245.906C187.214 248.492 180.588 250.827 173.873 252.909C170.518 253.952 167.145 254.937 163.744 255.833C160.333 256.788 156.866 257.529 153.363 258.054C151.513 258.209 149.796 258.131 148.03 258.135L142.77 258.051L132.259 257.797L111.246 257.157C97.2387 256.691 83.2348 256.144 69.2343 255.517C62.2333 255.222 55.2337 254.891 48.2353 254.525C41.239 254.111 34.2385 253.802 27.2507 253.108C26.3772 252.993 25.5046 252.928 24.6301 252.773C24.1861 252.716 23.7458 252.634 23.3115 252.525C23.0876 252.462 22.8694 252.421 22.6408 252.338C22.4081 252.224 22.1974 252.069 22.0188 251.881C21.438 251.181 20.9629 250.399 20.6089 249.561C20.2324 248.755 19.9213 247.929 19.6132 247.103C18.426 243.784 17.4753 240.403 16.5812 237.01C14.8151 230.217 13.301 223.368 11.8623 216.506C8.97651 202.783 6.49409 188.983 4.14106 175.165C2.95844 168.256 1.87665 161.331 0.794382 154.406C0.0973515 150.811 0.553452 147.088 2.0976 143.768C2.89371 142.141 3.9118 140.632 5.12275 139.284C6.29717 137.933 7.5932 136.691 8.99456 135.577L8.92695 135.64L17.6928 126.201L17.5612 126.453C18.5114 122.205 19.3725 117.934 20.1445 113.64C20.5219 111.494 20.8715 109.345 21.1686 107.19C21.3183 106.112 21.4448 105.033 21.5583 103.954L21.6965 102.334C21.7314 101.77 21.8097 101.209 21.9306 100.657C22.4407 98.4279 23.7394 96.4578 25.5874 95.1101C27.4257 93.7934 29.6647 93.1568 31.9208 93.3093L45.0185 93.3123C45.0395 93.312 45.0596 93.3201 45.0746 93.3348C45.0896 93.3495 45.0981 93.3695 45.0984 93.3904C45.0986 93.4114 45.0905 93.4315 45.0758 93.4465C45.0612 93.4615 45.0412 93.47 45.0202 93.4703L45.02 93.4702Z" fill="black"/>
<path d="M28.1445 100.975L37.4585 100.783L46.7725 100.673L65.4015 100.581L84.0295 100.671L93.3435 100.782L102.658 100.975L93.3435 101.169L84.0295 101.279L65.4015 101.37L46.7725 101.278L37.4585 101.167L28.1445 100.975Z" fill="black"/>
<path d="M152.902 148.755L161.869 147.632L170.844 146.585L188.803 144.598L206.777 142.748L224.761 140.981C221.782 141.431 218.796 141.832 215.812 142.24L206.844 143.352C200.863 144.074 194.873 144.713 188.887 145.383C182.894 145.987 176.904 146.625 170.907 147.187L161.909 148.014L152.902 148.755Z" fill="black"/>
<path d="M109.294 103.061C111.175 106.142 112.98 109.266 114.773 112.395C116.568 115.524 118.301 118.687 120.068 121.831C121.779 125.006 123.52 128.164 125.202 131.354C126.885 134.545 128.556 137.742 130.15 140.981C128.268 137.9 126.464 134.777 124.67 131.647C122.877 128.518 121.141 125.356 119.376 122.211C117.667 119.035 115.924 115.878 114.243 112.687C112.56 109.496 110.889 106.299 109.294 103.061Z" fill="black"/>
<path d="M109.294 98.5104C110.932 97.6801 112.635 96.984 114.385 96.4288C116.125 95.84 117.91 95.3948 119.722 95.0977C118.085 95.9295 116.382 96.6257 114.631 97.1792C112.891 97.7663 111.106 98.2115 109.294 98.5104V98.5104Z" fill="black"/>
<path d="M18.0964 126.571C17.9917 127.961 17.802 129.335 17.5993 130.705C17.4057 132.078 17.1511 133.439 16.8962 134.8C16.6228 136.157 16.3479 137.513 16.0129 138.859C15.6858 140.205 15.3466 141.549 14.9209 142.877C15.0244 141.487 15.2144 140.113 15.4165 138.742C15.6108 137.37 15.8652 136.009 16.1211 134.649C16.3955 133.292 16.6702 131.935 17.0056 130.59C17.3323 129.243 17.6718 127.899 18.0964 126.571Z" fill="black"/>
<path d="M2.38574 144.287C4.87086 143.554 7.42366 143.072 10.0054 142.851C11.307 142.73 12.6192 142.8 13.9006 143.059C14.5576 143.195 15.1776 143.471 15.7185 143.868C16.2624 144.293 16.637 144.898 16.7751 145.575C17.9033 150.648 18.7512 155.737 19.6697 160.831C21.4502 171.02 23.0625 181.236 24.627 191.46C26.1243 201.694 27.5781 211.935 28.7771 222.211C29.3679 227.349 29.9199 232.493 30.3398 237.65C30.5371 240.23 30.7031 242.813 30.7888 245.399C30.8176 246.692 30.8655 247.986 30.8155 249.28C30.8037 249.927 30.7847 250.574 30.7097 251.217C30.6612 251.863 30.5561 252.502 30.3955 253.129C30.5402 252.499 30.6292 251.858 30.6617 251.213C30.7202 250.57 30.7232 249.924 30.719 249.278C30.7368 247.988 30.6568 246.696 30.5957 245.407C30.4458 242.828 30.2159 240.255 29.9549 237.685C29.4561 232.542 28.8379 227.41 28.1741 222.285C26.8511 212.033 25.4086 201.798 23.8467 191.577C22.3482 181.347 20.7246 171.137 19.0733 160.931C18.2305 155.837 17.4402 150.71 16.4036 145.672C16.3019 145.067 15.9837 144.519 15.5083 144.13C15.0122 143.749 14.4401 143.479 13.8306 143.338C12.5801 143.055 11.2952 142.956 10.0161 143.043C7.43731 143.2 4.88092 143.617 2.38574 144.287V144.287Z" fill="black"/>
<path d="M147.207 257.413C147.535 257.395 147.724 257.08 147.871 256.826C148.013 256.552 148.131 256.265 148.222 255.97C148.408 255.38 148.561 254.779 148.679 254.172C148.924 252.959 149.1 251.733 149.254 250.505C149.557 248.048 149.764 245.58 149.941 243.111C150.287 238.171 150.498 233.222 150.661 228.273C151.012 218.375 151.17 208.47 151.22 198.565C151.263 188.66 151.209 178.754 150.972 168.854C150.819 163.914 150.744 158.935 150.235 154.053C150.019 151.646 149 149.382 147.342 147.624C146.489 146.793 145.481 146.139 144.375 145.699C143.268 145.26 142.086 145.043 140.895 145.061C138.489 145.115 136.19 146.066 134.449 147.728C132.695 149.394 131.593 151.631 131.341 154.037C130.681 158.93 130.394 163.866 130.48 168.803C130.501 178.719 130.278 188.622 130.191 198.528C130.096 208.433 130.07 218.34 130.395 228.237C130.546 233.185 130.781 238.134 131.287 243.058C131.522 245.522 131.88 247.972 132.36 250.4C132.899 252.784 133.441 255.316 135.076 257.219C133.415 255.336 132.836 252.802 132.265 250.421C131.753 247.995 131.362 245.544 131.095 243.079C130.524 238.154 130.224 233.202 130.009 228.251C129.628 218.345 129.618 208.432 129.666 198.524C129.708 188.616 129.887 178.707 129.822 168.808C129.712 163.835 129.981 158.861 130.624 153.928C130.892 151.358 132.062 148.966 133.928 147.178C135.801 145.373 138.283 144.336 140.884 144.273C142.177 144.258 143.46 144.499 144.66 144.982C145.859 145.465 146.952 146.181 147.874 147.087C149.642 148.968 150.726 151.389 150.951 153.961C151.236 156.455 151.315 158.926 151.421 161.406C151.513 163.884 151.577 166.362 151.628 168.839C151.821 178.75 151.831 188.66 151.744 198.569C151.647 208.477 151.455 218.386 151.045 228.288C150.817 233.238 150.542 238.187 150.132 243.126C149.923 245.595 149.684 248.062 149.349 250.518C149.179 251.745 148.987 252.97 148.726 254.182C148.6 254.789 148.439 255.389 148.245 255.977C148.149 256.272 148.027 256.558 147.881 256.832C147.731 257.085 147.536 257.399 147.207 257.413Z" fill="black"/>
<path d="M132.426 257.413C133.232 261.108 133.985 264.809 134.825 268.492C135.616 272.184 136.431 275.87 137.314 279.537C138.213 283.199 139.084 286.867 140.132 290.475C140.655 292.277 141.191 294.075 141.826 295.822C142.142 296.695 142.485 297.554 142.873 298.372C143.061 298.771 143.272 299.158 143.505 299.532C143.686 299.853 143.925 300.139 144.208 300.375C144.257 300.407 144.292 300.418 144.317 300.438C144.323 300.424 144.333 300.451 144.315 300.436C144.286 300.462 144.341 300.421 144.432 300.343C144.659 300.044 144.837 299.711 144.961 299.357C145.257 298.496 145.495 297.617 145.674 296.725C146.132 294.919 146.433 293.068 146.752 291.224C147.384 287.529 147.714 283.779 148.042 280.031C148.346 276.279 148.522 272.512 148.611 268.741C148.748 264.969 148.75 261.194 148.731 257.413C149.108 261.177 149.26 264.959 149.386 268.743C149.454 272.528 149.41 276.315 149.255 280.105C149.112 283.903 148.77 287.69 148.231 291.452C148.126 292.398 147.915 293.331 147.759 294.271C147.608 295.213 147.396 296.145 147.177 297.077C146.99 298.038 146.737 298.986 146.421 299.913C146.234 300.453 145.955 300.955 145.596 301.399C145.464 301.535 145.319 301.658 145.164 301.766C144.965 301.891 144.742 301.971 144.509 302C144.277 302.029 144.04 302.007 143.817 301.935C143.636 301.867 143.463 301.778 143.303 301.669C142.847 301.314 142.465 300.873 142.178 300.371C141.914 299.942 141.675 299.498 141.463 299.041C141.047 298.149 140.696 297.249 140.375 296.344C139.737 294.534 139.186 292.711 138.694 290.875C137.723 287.201 136.861 283.512 136.132 279.797C135.391 276.085 134.703 272.365 134.069 268.637C133.484 264.9 132.881 261.168 132.426 257.413Z" fill="black"/>
<path d="M41.779 253.129C41.3242 256.884 40.7207 260.616 40.1362 264.353C39.5002 268.081 38.8123 271.8 38.0725 275.512C37.3435 279.228 36.4817 282.917 35.5105 286.59C35.0185 288.426 34.4685 290.25 33.8301 292.06C33.509 292.965 33.1582 293.865 32.7424 294.757C32.5301 295.213 32.2912 295.658 32.0271 296.087C31.7402 296.589 31.358 297.03 30.9019 297.385C30.7417 297.494 30.569 297.583 30.3874 297.651C30.1643 297.723 29.9282 297.745 29.6956 297.715C29.463 297.686 29.2396 297.606 29.0413 297.481C28.8856 297.373 28.7407 297.251 28.6086 297.115C28.2498 296.671 27.9705 296.168 27.7834 295.629C27.4676 294.702 27.215 293.754 27.0276 292.793C26.8086 291.861 26.5969 290.928 26.4456 289.987C26.2903 289.047 26.0791 288.113 25.9742 287.167C25.4351 283.406 25.0933 279.618 24.9502 275.821C24.7918 272.032 24.7481 268.244 24.8191 264.458C24.9449 260.675 25.0967 256.893 25.4734 253.129C25.4546 256.91 25.4568 260.685 25.5938 264.457C25.6826 268.227 25.8592 271.994 26.1631 275.747C26.4905 279.495 26.8208 283.244 27.4529 286.94C27.7715 288.783 28.0728 290.635 28.5308 292.441C28.7102 293.333 28.9483 294.212 29.2434 295.072C29.3678 295.427 29.5464 295.759 29.773 296.059C29.8638 296.137 29.9195 296.178 29.8899 296.151C29.8723 296.167 29.8814 296.14 29.888 296.153C29.9131 296.134 29.9478 296.123 29.9973 296.091C30.2803 295.854 30.5184 295.569 30.7002 295.248C30.9332 294.874 31.1442 294.486 31.3323 294.088C31.7202 293.27 32.0633 292.41 32.3792 291.537C33.0142 289.791 33.5501 287.993 34.0733 286.19C35.1206 282.582 35.9923 278.915 36.8911 275.252C37.7737 271.585 38.5884 267.899 39.3801 264.208C40.2195 260.524 40.9734 256.823 41.779 253.129Z" fill="black"/>
<path d="M215.795 234.321L217.639 242.284C218.235 244.939 218.845 247.59 219.511 250.223C220.197 252.849 220.835 255.491 221.666 258.046C222.027 259.291 222.514 260.496 223.119 261.644C223.185 261.748 223.259 261.847 223.34 261.94C223.405 262.021 223.468 262.032 223.373 262C223.299 261.983 223.221 261.988 223.15 262.014C223.098 262.024 223.066 262.067 223.076 262.05C223.125 261.983 223.166 261.911 223.2 261.835C223.416 261.263 223.567 260.669 223.65 260.063C223.875 258.773 223.984 257.432 224.091 256.075C224.207 254.723 224.31 253.37 224.401 252.016C224.625 249.311 224.726 246.6 224.879 243.889C225.006 241.177 225.06 238.463 225.041 235.747C225.066 233.029 224.986 230.312 224.761 227.595C225.717 232.98 226.163 238.443 226.094 243.912C226.12 246.646 226.025 249.379 225.894 252.108C225.836 253.473 225.729 254.835 225.63 256.198C225.533 257.555 225.439 258.934 225.206 260.329C225.097 261.073 224.898 261.8 224.614 262.496C224.508 262.731 224.365 262.947 224.191 263.137C224.054 263.279 223.889 263.391 223.707 263.465C223.476 263.554 223.222 263.567 222.983 263.501C222.676 263.408 222.403 263.228 222.196 262.982C222.054 262.818 221.925 262.643 221.81 262.459C221.138 261.199 220.611 259.866 220.24 258.487C219.475 255.834 218.848 253.173 218.331 250.489C217.805 247.807 217.323 245.121 216.883 242.43C216.494 239.73 216.078 237.036 215.795 234.321Z" fill="black"/>
<path d="M115.599 39.9239C116.461 39.3312 117.469 38.9848 118.514 38.9217C119.046 38.8786 119.58 38.929 120.094 39.0706C120.62 39.2026 121.088 39.5021 121.429 39.9239C120.962 39.7786 120.478 39.696 119.989 39.678C119.515 39.6581 119.04 39.6686 118.567 39.7094C117.607 39.7622 116.645 39.9049 115.599 39.9239Z" fill="black"/>
<path d="M120.007 44.0951C120.314 44.0844 120.605 43.9548 120.818 43.7338C121.032 43.5127 121.151 43.2174 121.151 42.9101C121.151 42.6028 121.032 42.3075 120.818 42.0864C120.605 41.8653 120.314 41.7358 120.007 41.7251C119.7 41.7358 119.409 41.8653 119.195 42.0864C118.982 42.3075 118.862 42.6028 118.862 42.9101C118.862 43.2174 118.982 43.5127 119.195 43.7338C119.409 43.9548 119.7 44.0844 120.007 44.0951V44.0951Z" fill="black"/>
<path d="M90.8926 56.8506C91.0249 58.122 91.0625 59.4016 91.0049 60.6786C90.9621 61.9597 90.8298 63.2363 90.6089 64.4989C90.3994 65.7795 90.0244 67.0274 89.4934 68.2114C89.2194 68.8158 88.847 69.3704 88.3914 69.8528C88.1621 70.0947 87.8804 70.2808 87.5679 70.3968C87.2554 70.5127 86.9205 70.5554 86.5889 70.5216C86.8927 70.4838 87.185 70.3814 87.4461 70.2215C87.7073 70.0616 87.9312 69.8477 88.103 69.5942C88.4653 69.1029 88.7457 68.5562 88.9334 67.9753C89.329 66.7957 89.6295 65.5863 89.832 64.3586C90.0618 63.1266 90.2224 61.8782 90.4023 60.6274L90.8926 56.8506Z" fill="black"/>
<path d="M226.461 113.676C226.669 113.371 226.98 113.151 227.337 113.057C227.694 112.962 228.073 112.999 228.404 113.161C228.756 113.33 229.035 113.618 229.192 113.975C229.322 114.327 229.387 114.699 229.385 115.074C229.383 116.546 228.904 117.978 228.019 119.154L227.946 118.669C228.503 119.096 228.956 119.644 229.273 120.27C229.59 120.893 229.77 121.576 229.801 122.274C229.814 122.963 229.705 123.65 229.477 124.301C229.369 124.623 229.213 124.923 229.082 125.234L228.584 126.103L228.617 125.776C228.883 126.543 229.06 127.338 229.143 128.145C229.278 128.993 229.126 129.862 228.71 130.613L228.756 130.446C228.736 131.016 228.652 131.582 228.508 132.134C228.369 132.679 228.17 133.207 227.914 133.708C227.406 134.702 226.651 135.549 225.721 136.166C226.126 135.804 226.491 135.399 226.809 134.959C227.124 134.525 227.381 134.052 227.575 133.552C227.984 132.575 228.185 131.524 228.166 130.466C228.164 130.416 228.176 130.365 228.199 130.321L228.211 130.299C228.493 129.643 228.578 128.92 228.456 128.217C228.363 127.472 228.184 126.74 227.924 126.036C227.906 125.986 227.899 125.932 227.903 125.879C227.907 125.826 227.922 125.774 227.948 125.727L227.957 125.709L228.401 124.898C228.511 124.614 228.649 124.338 228.738 124.05C228.928 123.484 229.031 122.892 229.042 122.295C229.027 121.705 228.887 121.125 228.631 120.593C228.376 120.064 228.009 119.596 227.555 119.223L227.536 119.208C227.467 119.152 227.422 119.072 227.412 118.984C227.402 118.896 227.428 118.807 227.483 118.738C228.337 117.696 228.849 116.415 228.947 115.071C228.965 114.746 228.935 114.42 228.858 114.103C228.761 113.801 228.558 113.545 228.287 113.38C227.996 113.21 227.654 113.146 227.321 113.2C226.988 113.254 226.683 113.422 226.461 113.676V113.676Z" fill="black"/>
<path d="M201.031 126.286C202.037 125.854 202.903 125.15 203.532 124.254C203.823 123.822 204.033 123.341 204.15 122.833C204.211 122.581 204.252 122.325 204.271 122.066C204.309 121.798 204.329 121.489 204.38 121.206C204.574 120.053 204.993 118.95 205.614 117.96C205.921 117.465 206.283 117.005 206.693 116.591C206.899 116.378 207.127 116.188 207.373 116.024C207.627 115.824 207.938 115.709 208.261 115.696L208.274 115.696C208.309 115.697 208.342 115.71 208.369 115.733C208.395 115.756 208.412 115.787 208.418 115.822C208.494 116.32 208.584 116.817 208.641 117.326C208.445 116.856 208.281 116.373 208.105 115.891L208.261 116.016C207.795 116.22 207.396 116.55 207.109 116.969C206.776 117.392 206.479 117.843 206.222 118.316C205.711 119.263 205.347 120.283 205.143 121.339C205.09 121.606 205.07 121.857 205.026 122.143C204.989 122.441 204.926 122.736 204.836 123.023C204.67 123.603 204.383 124.141 203.993 124.601C203.233 125.492 202.185 126.088 201.031 126.286V126.286Z" fill="black"/>
<path d="M217.271 127.33C217.63 127.626 217.957 127.96 218.247 128.324C218.509 128.668 218.819 128.971 219.167 129.226C219.043 129.299 218.904 129.345 218.76 129.36C218.616 129.374 218.47 129.357 218.334 129.31C218.065 129.216 217.827 129.051 217.644 128.834C217.468 128.63 217.342 128.388 217.277 128.127C217.212 127.865 217.21 127.592 217.271 127.33V127.33Z" fill="black"/>
<path d="M220.78 131.027C221.113 131.498 221.308 131.872 221.536 132.229C221.748 132.6 221.978 132.903 222.296 133.397C222.009 133.424 221.721 133.367 221.466 133.232C221.211 133.097 221.001 132.891 220.861 132.639C220.707 132.401 220.619 132.127 220.605 131.844C220.59 131.561 220.651 131.279 220.78 131.027V131.027Z" fill="black"/>
<path d="M220.211 126.856L227.793 118.336C227.863 118.258 227.961 118.211 228.065 118.205C228.17 118.199 228.272 118.235 228.351 118.304C228.429 118.374 228.476 118.471 228.482 118.576C228.489 118.68 228.453 118.783 228.384 118.861L228.365 118.881L220.211 126.856Z" fill="black"/>
<path d="M224.145 129.226L228.021 125.6C228.097 125.528 228.2 125.49 228.305 125.493C228.41 125.497 228.509 125.542 228.581 125.619C228.652 125.695 228.691 125.797 228.687 125.902C228.684 126.007 228.639 126.107 228.562 126.179C228.548 126.192 228.532 126.204 228.516 126.216L224.145 129.226Z" fill="black"/>
<path d="M225.804 132.212C226.061 131.719 226.443 131.303 226.913 131.005C227.37 130.688 227.903 130.499 228.458 130.458C228.203 130.952 227.819 131.369 227.348 131.664C226.891 131.98 226.358 132.169 225.804 132.212Z" fill="black"/>
<path d="M228.738 129.219C228.784 129.036 228.951 129.06 229.044 129.074L229.282 129.186C229.428 129.273 229.55 129.378 229.687 129.473C229.94 129.68 230.173 129.903 230.414 130.122C230.863 130.584 231.313 131.049 231.73 131.537C232.592 132.494 233.396 133.495 234.206 134.492C235.802 136.503 237.329 138.565 238.838 140.639C241.885 144.766 244.71 149.044 247.586 153.284C249.018 155.408 250.403 157.564 251.778 159.725C253.162 161.88 254.521 164.052 255.854 166.24C258.548 170.594 261.156 175.004 263.913 179.319C266.611 183.672 269.43 187.946 272.186 192.266C273.58 194.416 274.948 196.586 276.288 198.777C276.927 199.896 277.615 200.98 278.192 202.149C278.507 202.722 278.791 203.311 279.043 203.914C279.171 204.219 279.311 204.517 279.428 204.829L279.717 205.806C279.814 206.143 279.876 206.489 279.901 206.838C279.928 207.014 279.944 207.192 279.95 207.37L279.905 207.92C279.88 208.285 279.802 208.645 279.672 208.987C279.566 209.322 279.428 209.647 279.259 209.956C278.645 211.16 277.846 212.26 276.891 213.216C275.018 215.019 273.013 216.68 270.893 218.185C266.726 221.227 262.419 224.021 257.977 226.63L258.368 225.768C258.698 227.592 258.964 229.401 259.149 231.246C259.233 232.17 259.312 233.094 259.314 234.045C259.322 234.531 259.301 235.017 259.251 235.501C259.213 236.071 259.059 236.628 258.798 237.137C258.655 237.351 258.455 237.521 258.221 237.629C258.083 237.697 257.941 237.754 257.795 237.8C257.551 237.877 257.302 237.94 257.051 237.989C256.571 238.086 256.106 238.151 255.641 238.209C254.714 238.32 253.796 238.392 252.879 238.45C251.045 238.566 249.219 238.628 247.393 238.672C243.742 238.771 240.094 238.715 236.449 238.671C232.803 238.627 229.16 238.47 225.518 238.325C225.508 238.325 225.498 238.322 225.488 238.318C225.479 238.314 225.47 238.307 225.463 238.3C225.456 238.292 225.451 238.283 225.447 238.273C225.444 238.264 225.442 238.253 225.442 238.243C225.444 238.223 225.452 238.204 225.467 238.19C225.481 238.176 225.5 238.168 225.52 238.167L236.442 237.849C240.081 237.748 243.717 237.576 247.346 237.409C249.159 237.315 250.971 237.204 252.769 237.04C253.668 236.958 254.564 236.862 255.442 236.732C255.879 236.666 256.315 236.592 256.725 236.497C256.919 236.454 257.111 236.4 257.3 236.335C257.37 236.311 257.439 236.282 257.505 236.247C257.573 236.227 257.546 236.185 257.46 236.325C257.579 236.006 257.652 235.671 257.675 235.331C257.715 234.909 257.731 234.484 257.721 234.06C257.715 233.189 257.634 232.296 257.548 231.407C257.359 229.63 257.085 227.834 256.756 226.076C256.725 225.912 256.745 225.742 256.813 225.589C256.881 225.435 256.994 225.307 257.137 225.219L257.146 225.214C261.496 222.574 265.836 219.863 269.991 216.938C272.071 215.509 274.042 213.93 275.888 212.211C276.771 211.379 277.515 210.412 278.093 209.346C278.383 208.86 278.571 208.321 278.647 207.76C278.724 207.2 278.686 206.63 278.538 206.084C277.787 203.692 276.767 201.393 275.495 199.232C274.259 197.001 272.96 194.798 271.648 192.601C268.986 188.231 266.249 183.905 263.437 179.624C260.661 175.323 257.734 171.117 254.896 166.854C253.455 164.738 252.037 162.607 250.643 160.462C249.247 158.317 247.801 156.207 246.435 154.043L242.239 147.618L237.991 141.23C236.58 139.097 235.122 136.998 233.65 134.911C232.91 133.871 232.174 132.824 231.385 131.824C231.004 131.311 230.587 130.834 230.181 130.343C229.967 130.112 229.755 129.873 229.531 129.655C229.413 129.557 229.299 129.442 229.178 129.356L228.99 129.244L228.896 129.232C228.895 129.243 228.892 129.253 228.887 129.262C228.882 129.271 228.876 129.279 228.868 129.286C228.86 129.293 228.851 129.298 228.841 129.301C228.831 129.304 228.821 129.305 228.81 129.304C228.8 129.304 228.79 129.301 228.781 129.296C228.771 129.291 228.763 129.285 228.757 129.277C228.75 129.269 228.745 129.26 228.742 129.25C228.738 129.24 228.737 129.229 228.738 129.219L228.738 129.219Z" fill="black"/>
<path d="M229.917 207.328C234.056 213.134 237.781 219.18 241.405 225.286L244.071 229.897L244.703 231.02C244.656 230.938 244.584 230.873 244.497 230.835C244.394 230.801 244.45 230.811 244.416 230.801C244.381 230.794 244.362 230.804 244.408 230.798C244.481 230.798 244.553 230.791 244.624 230.777C244.818 230.745 245.01 230.701 245.199 230.647C246.004 230.423 246.837 230.122 247.66 229.824C250.951 228.57 254.243 227.216 257.562 225.922C254.522 227.793 251.372 229.478 248.127 230.965C247.302 231.351 246.454 231.689 245.589 231.976C245.354 232.053 245.115 232.117 244.873 232.167C244.727 232.2 244.578 232.219 244.428 232.224C244.315 232.233 244.201 232.223 244.091 232.197C244.007 232.186 243.927 232.159 243.853 232.12C243.721 232.048 243.606 231.951 243.514 231.833L242.788 230.667L240.049 226.096C236.467 219.961 232.985 213.764 229.917 207.328Z" fill="black"/>
<path d="M240.621 268.986C242.035 270.278 243.106 271.899 243.741 273.706C240.121 274.836 226.581 275.236 225.521 267.636C225.246 265.388 225.246 263.114 225.521 260.866C227.351 261.536 229.131 262.276 230.901 263.046C232.657 263.812 234.369 264.673 236.031 265.626C237.686 266.564 239.227 267.692 240.621 268.986V268.986Z" fill="black"/>
<path d="M291.512 266.076H291.501C290.731 266.306 289.972 266.456 289.211 266.676C288.472 266.926 287.711 267.096 286.992 267.386C284.063 268.361 281.391 269.981 279.171 272.126C278.054 273.213 277.094 274.452 276.322 275.806C280.772 276.016 284.782 275.826 286.762 274.836C290.542 272.946 299.251 270.096 291.512 266.076ZM282.292 268.466C283.69 267.653 285.194 267.037 286.762 266.636C287.54 266.447 288.328 266.297 289.122 266.186C289.921 266.136 290.702 266.086 291.501 266.076C288.465 264.646 285.288 263.537 282.021 262.766C260.032 256.956 249.401 237.956 249.401 237.956H226.852C227.662 248.016 226.091 254.956 225.521 260.866C227.452 261.174 229.35 261.66 231.191 262.316C233.042 262.97 234.829 263.79 236.532 264.766C238.261 265.748 239.829 266.989 241.182 268.446C242.561 269.891 243.456 271.729 243.742 273.706C247.361 272.566 255.591 273.166 260.972 274.076C266.05 274.951 271.176 275.528 276.322 275.806C276.764 274.256 277.542 272.822 278.602 271.606C279.656 270.369 280.902 269.309 282.292 268.466V268.466ZM228.932 249.056C228.578 247.502 228.41 245.91 228.432 244.316C228.415 242.722 228.583 241.132 228.932 239.576C229.286 241.131 229.453 242.722 229.432 244.316C229.458 245.911 229.29 247.502 228.932 249.056V249.056ZM231.731 250.936C231.065 247.811 231.065 244.581 231.731 241.456C232.398 244.581 232.398 247.811 231.731 250.936V250.936ZM234.631 249.926C234.273 248.372 234.105 246.781 234.131 245.186C234.11 243.592 234.277 242.001 234.631 240.446C235.298 243.571 235.298 246.801 234.631 249.926ZM238.322 250.936C237.655 247.811 237.655 244.581 238.322 241.456C238.988 244.581 238.988 247.811 238.322 250.936V250.936ZM241.301 249.056C240.635 245.931 240.635 242.701 241.301 239.576C241.968 242.701 241.968 245.931 241.301 249.056V249.056ZM245.001 249.926C244.643 248.372 244.475 246.781 244.501 245.186C244.485 243.592 244.652 242.001 245.001 240.446C245.351 242.001 245.518 243.592 245.501 245.186C245.523 246.78 245.355 248.371 245.001 249.926V249.926ZM248.551 249.926C247.898 246.8 247.898 243.572 248.551 240.446C249.218 243.571 249.218 246.801 248.551 249.926Z" fill="black"/>
<path d="M285.981 242.296C284.157 242.058 282.312 242.024 280.481 242.196C278.635 242.364 276.799 242.631 274.981 242.996C273.151 243.376 271.341 243.776 269.511 244.266C270.543 246.198 271.806 247.998 273.271 249.626C278.341 255.056 288.851 247.206 291.081 244.286C289.569 243.216 287.818 242.533 285.981 242.296V242.296ZM324.681 211.656C324.211 212.276 323.681 212.816 323.211 213.406C322.761 214.026 322.251 214.586 321.841 215.216C321.409 215.826 321.009 216.456 320.641 217.106C320.26 217.743 319.916 218.4 319.611 219.076C319.017 220.437 318.574 221.859 318.291 223.316C318.007 224.799 317.933 226.313 318.071 227.816C317.548 226.343 317.36 224.771 317.521 223.216C317.668 221.649 318.066 220.116 318.701 218.676C319.356 217.251 320.208 215.925 321.231 214.736C321.738 214.151 322.279 213.597 322.851 213.076C323.451 212.586 324.061 212.106 324.681 211.656C321.481 212.22 318.348 213.111 315.331 214.316C294.671 221.956 275.671 212.816 275.671 212.816L257.801 225.366C264.051 232.896 266.671 239.256 269.501 244.266H269.511C271.205 243.423 272.976 242.746 274.801 242.246C276.631 241.724 278.506 241.376 280.401 241.206C282.316 241.021 284.249 241.133 286.131 241.536C288.028 241.913 289.759 242.874 291.081 244.286C293.321 241.376 300.171 237.266 304.951 234.996C311.001 232.116 323.541 225.446 325.801 221.246C327.741 217.646 333.061 210.536 324.681 211.656V211.656ZM262.581 229.536C261.679 228.28 260.93 226.92 260.351 225.486C261.506 226.513 262.531 227.679 263.401 228.956C264.311 230.208 265.06 231.568 265.631 233.006C264.481 231.974 263.457 230.809 262.581 229.536V229.536ZM265.851 229.466C264.947 228.211 264.198 226.851 263.621 225.416C264.771 226.449 265.795 227.613 266.671 228.886C267.573 230.139 268.322 231.495 268.901 232.926C267.744 231.905 266.719 230.742 265.851 229.466V229.466ZM267.581 227.056C266.681 225.799 265.932 224.439 265.351 223.006C266.504 224.036 267.528 225.201 268.401 226.476C269.307 227.726 270.056 229.083 270.631 230.516C269.476 229.492 268.452 228.33 267.581 227.056V227.056ZM271.061 225.796C270.158 224.545 269.413 223.189 268.841 221.756C271.118 223.851 272.915 226.413 274.111 229.266C272.959 228.236 271.935 227.071 271.061 225.796H271.061ZM272.391 222.646C271.481 221.398 270.732 220.041 270.161 218.606C272.438 220.701 274.235 223.263 275.431 226.116C274.279 225.088 273.258 223.923 272.391 222.646L272.391 222.646ZM275.801 221.276C274.895 220.026 274.146 218.669 273.571 217.236C275.855 219.327 277.657 221.89 278.851 224.746C277.691 223.724 276.666 222.558 275.801 221.276L275.801 221.276ZM278.621 219.296C277.711 218.048 276.962 216.691 276.391 215.256C277.54 216.286 278.561 217.451 279.431 218.726C280.34 219.974 281.09 221.332 281.661 222.766C280.507 221.741 279.486 220.575 278.621 219.296H278.621Z" fill="black"/>
<path d="M103.211 53.3804C101.536 53.3825 99.9129 52.7949 98.627 51.7205C97.3411 50.6462 96.4743 49.1536 96.1785 47.5043C95.8827 45.8549 96.1767 44.1541 97.0091 42.6998C97.8414 41.2456 99.159 40.1306 100.731 39.5503C100.413 34.3491 100.289 27.2915 101.438 22.6518C101.45 22.6015 101.473 22.5541 101.503 22.5124C101.534 22.4706 101.573 22.4353 101.617 22.4085C101.662 22.3818 101.711 22.364 101.762 22.3562C101.813 22.3484 101.866 22.3508 101.916 22.3633C101.966 22.3757 102.014 22.3979 102.055 22.4287C102.097 22.4594 102.133 22.4981 102.159 22.5425C102.186 22.5869 102.204 22.6361 102.212 22.6874C102.219 22.7387 102.217 22.791 102.205 22.8413C101.081 27.3784 101.204 34.3354 101.518 39.478C101.574 39.5231 101.617 39.5827 101.642 39.6505C101.667 39.7182 101.673 39.7914 101.659 39.8622C101.645 39.933 101.612 39.9987 101.564 40.0521C101.515 40.1056 101.453 40.1448 101.384 40.1655C99.8948 40.6162 98.6233 41.5992 97.812 42.9271C97.0008 44.255 96.7064 45.835 96.9851 47.3659C97.2639 48.8969 98.0961 50.2717 99.3234 51.2285C100.551 52.1853 102.087 52.6571 103.64 52.5539C105.192 52.4508 106.653 51.78 107.743 50.6693C108.833 49.5586 109.476 48.0858 109.55 46.5314C109.623 44.977 109.123 43.4499 108.143 42.2409C107.163 41.032 105.773 40.2258 104.237 39.976C104.149 39.9615 104.068 39.9175 104.008 39.8514C103.949 39.7853 103.913 39.7008 103.907 39.6118C103.48 32.9604 103.659 25.6255 104.333 22.1714C104.343 22.1204 104.363 22.0719 104.392 22.0286C104.42 21.9853 104.457 21.9481 104.5 21.919C104.543 21.89 104.591 21.8697 104.642 21.8593C104.693 21.8489 104.745 21.8487 104.796 21.8585C104.847 21.8684 104.896 21.8882 104.939 21.9169C104.982 21.9455 105.02 21.9824 105.049 22.0254C105.078 22.0684 105.098 22.1167 105.108 22.1676C105.119 22.2184 105.119 22.2708 105.109 22.3218C104.456 25.6665 104.277 32.7456 104.676 39.2554C106.404 39.6185 107.935 40.6087 108.976 42.0349C110.016 43.4611 110.491 45.2221 110.309 46.9779C110.126 48.7337 109.3 50.3598 107.99 51.5422C106.679 52.7246 104.977 53.3795 103.211 53.3804H103.211Z" fill="black"/>
<path d="M101.821 23.1421C101.789 23.142 101.757 23.1381 101.726 23.1304C101.624 23.105 101.537 23.0404 101.483 22.9507C101.429 22.861 101.412 22.7536 101.437 22.6518C102.052 20.1577 102.945 18.6567 104.168 18.061C106.947 16.7153 109.098 20.3276 110.017 21.8725C110.112 22.0317 110.192 22.1665 110.255 22.2651C110.313 22.3359 110.345 22.4245 110.346 22.5161C110.346 22.6208 110.304 22.7212 110.23 22.7952C110.156 22.8692 110.056 22.9107 109.951 22.9107H106.151C106.084 22.9107 106.018 22.8939 105.96 22.8618C105.902 22.8297 105.852 22.7834 105.817 22.7271C105.729 22.5991 105.656 22.4611 105.601 22.3159C105.557 22.2085 105.525 22.1304 105.461 21.9878C105.447 21.9589 105.424 21.9349 105.396 21.919C105.369 21.9031 105.336 21.8961 105.304 21.8989C105.271 21.9014 105.238 21.9152 105.213 21.938C105.188 21.9608 105.171 21.9914 105.165 22.0249L105.109 22.3169C105.089 22.4195 105.03 22.5103 104.945 22.5698C104.859 22.6293 104.753 22.6528 104.65 22.6353C104.599 22.6261 104.55 22.6069 104.507 22.5789C104.463 22.5508 104.425 22.5144 104.396 22.4718C104.366 22.4292 104.345 22.3811 104.334 22.3304C104.323 22.2797 104.322 22.2273 104.332 22.1763L104.388 21.8843C104.424 21.6862 104.523 21.5047 104.669 21.3664C104.815 21.2281 105.002 21.1402 105.202 21.1153C105.402 21.0905 105.604 21.1301 105.78 21.2283C105.956 21.3266 106.096 21.4784 106.179 21.6616C106.251 21.8179 106.286 21.9038 106.312 21.9683C106.336 22.0308 106.355 22.0757 106.378 22.1216H109.245C108.392 20.6929 106.565 17.7759 104.513 18.772C103.529 19.2505 102.752 20.6196 102.204 22.8413C102.183 22.927 102.134 23.0031 102.064 23.0576C101.995 23.1121 101.909 23.1419 101.821 23.1421V23.1421Z" fill="black"/>
<path d="M238.317 2.37817V95.0982H355.677V2.37817H238.317ZM349.737 88.5581H244.257V8.92811H349.737V88.5581Z" fill="black"/>
<path d="M255.147 16.8873L255.311 30.8228L255.097 30.6085L274.72 30.4619L274.359 30.8229L274.319 19.1626C274.318 19.11 274.329 19.0579 274.349 19.0092C274.368 18.9606 274.398 18.9163 274.435 18.879C274.472 18.8417 274.516 18.812 274.564 18.7917C274.613 18.7714 274.665 18.7609 274.718 18.7607H274.721L288.087 18.7225C288.204 18.7223 288.315 18.7682 288.398 18.8503C288.48 18.9323 288.527 19.0438 288.527 19.1602V19.1626L288.499 39.3549C288.499 39.4085 288.489 39.4618 288.469 39.5115C288.449 39.5613 288.419 39.6066 288.381 39.6448C288.344 39.6831 288.299 39.7135 288.249 39.7344C288.2 39.7553 288.147 39.7662 288.093 39.7666H288.087L266.473 39.6083L266.726 39.3551L266.666 48.7401L266.473 48.5472L282.115 48.5854C282.155 48.5857 282.194 48.6016 282.223 48.6297C282.252 48.6579 282.268 48.6962 282.27 48.7366L282.6 60.3956L282.399 60.1994L295.197 60.1484C295.264 60.1486 295.328 60.1752 295.375 60.2225C295.423 60.2698 295.449 60.3339 295.45 60.4008L295.508 72.3455C295.508 72.3861 295.501 72.4264 295.485 72.464C295.47 72.5016 295.447 72.5358 295.419 72.5647C295.39 72.5936 295.356 72.6165 295.319 72.6323C295.281 72.648 295.241 72.6562 295.2 72.6564H295.197L255.097 72.8363C254.967 72.8369 254.843 72.7859 254.751 72.6947C254.659 72.6035 254.607 72.4794 254.606 72.3499V72.3455C254.566 62.0122 254.558 51.679 254.581 41.3459C254.581 41.2092 254.636 41.0781 254.732 40.9814C254.829 40.8847 254.96 40.8303 255.097 40.8302L260.785 40.8359C260.852 40.8359 260.918 40.8491 260.98 40.8747C261.042 40.9003 261.098 40.9379 261.145 40.9853C261.193 41.0326 261.23 41.0889 261.256 41.1507C261.282 41.2126 261.295 41.279 261.295 41.3459C261.302 49.3091 261.253 57.2722 261.202 65.2354L260.785 64.8187L271.592 64.8828L271.239 65.2354L271.295 55.8503C271.295 55.7716 271.327 55.6963 271.382 55.6406C271.438 55.585 271.513 55.5536 271.592 55.5532L277.849 55.5902C277.917 55.5897 277.983 55.6163 278.032 55.6643C278.081 55.7123 278.108 55.7776 278.109 55.8461V55.8504L278.018 66.6573L277.849 66.4878L288.656 66.6075C288.669 66.6075 288.682 66.6128 288.691 66.6222C288.701 66.6316 288.706 66.6443 288.706 66.6575C288.706 66.6708 288.701 66.6835 288.691 66.6929C288.682 66.7023 288.669 66.7076 288.656 66.7076L277.849 66.8272C277.827 66.8274 277.805 66.8234 277.785 66.8152C277.764 66.807 277.745 66.7948 277.73 66.7794C277.714 66.764 277.701 66.7456 277.693 66.7253C277.684 66.705 277.68 66.6832 277.679 66.6612V66.6574L277.589 55.8504L277.849 56.1103L271.592 56.1474L271.889 55.8504L271.945 65.2354C271.944 65.3289 271.907 65.4184 271.841 65.4845C271.775 65.5506 271.685 65.5879 271.592 65.5883L260.785 65.6523C260.731 65.6526 260.677 65.6423 260.626 65.6217C260.576 65.6012 260.53 65.571 260.491 65.5327C260.452 65.4945 260.422 65.449 260.401 65.3988C260.379 65.3487 260.368 65.2949 260.368 65.2404V65.2354C260.317 57.2723 260.267 49.3092 260.275 41.346L260.785 41.8558L255.097 41.8615L255.612 41.346C255.635 51.6792 255.627 62.0123 255.587 72.3456L255.097 71.8548L295.197 72.0348L294.886 72.3456L294.945 60.4008L295.197 60.653L282.399 60.6021C282.347 60.6018 282.297 60.5812 282.259 60.5445C282.221 60.5079 282.2 60.4581 282.198 60.4056L281.96 48.7442L282.115 48.8951L266.473 48.9333C266.422 48.9333 266.373 48.9129 266.337 48.8767C266.3 48.8405 266.28 48.7914 266.28 48.7402L266.22 39.3552C266.22 39.2881 266.247 39.2238 266.294 39.1764C266.342 39.1289 266.406 39.1021 266.473 39.1018L288.087 38.9435L287.676 39.355L287.647 19.1627L288.087 19.6027L274.721 19.5645L275.122 19.1627L275.082 30.823C275.082 30.9181 275.045 31.0096 274.978 31.0773C274.912 31.1451 274.821 31.1835 274.726 31.1842H274.72L255.097 31.0376C255.041 31.0382 254.986 31.0165 254.946 30.9772C254.906 30.9379 254.883 30.8842 254.882 30.828L254.882 30.823L255.047 16.8875C255.047 16.8742 255.052 16.8615 255.061 16.8521C255.071 16.8427 255.083 16.8374 255.097 16.8374C255.11 16.8374 255.123 16.8427 255.132 16.8521C255.142 16.8615 255.147 16.8742 255.147 16.8875L255.147 16.8873Z" fill="black"/>
<path d="M264.433 25.5615C264.34 23.6182 264.27 21.6749 264.221 19.7315C264.182 17.788 264.117 15.8446 264.1 13.9013C264.099 13.8514 264.108 13.802 264.127 13.7557C264.146 13.7095 264.173 13.6674 264.208 13.6318C264.243 13.5962 264.285 13.5678 264.331 13.5483C264.376 13.5288 264.426 13.5186 264.476 13.5181H264.483L271.948 13.4541C274.437 13.4728 276.925 13.4803 279.414 13.5571C281.902 13.6056 284.391 13.7043 286.879 13.7173C289.368 13.7574 291.856 13.7494 294.345 13.7214C294.392 13.7209 294.437 13.739 294.471 13.7716C294.504 13.8043 294.524 13.8489 294.524 13.8958V13.9012L294.799 29.0455L294.864 36.6175C294.888 39.1415 294.856 41.6656 294.855 44.1897C294.855 44.2567 294.842 44.3231 294.817 44.3851C294.791 44.447 294.753 44.5033 294.706 44.5508C294.658 44.5982 294.602 44.6358 294.54 44.6614C294.478 44.6871 294.412 44.7003 294.345 44.7003C290.695 44.7092 287.045 44.6152 283.395 44.5689C279.745 44.4891 276.096 44.3881 272.446 44.2398C272.433 44.2392 272.421 44.2337 272.412 44.2244C272.403 44.2151 272.398 44.2027 272.398 44.1898C272.398 44.1769 272.403 44.1645 272.412 44.1551C272.421 44.1458 272.433 44.1403 272.446 44.1397C276.096 43.9914 279.745 43.8906 283.395 43.8106C287.045 43.7644 290.695 43.6704 294.345 43.6793L293.834 44.1897C293.833 41.6656 293.801 39.1415 293.825 36.6175L293.891 29.0455L294.165 13.9012L294.345 14.0808C291.856 14.0528 289.368 14.0448 286.879 14.0849C284.391 14.0979 281.902 14.1966 279.414 14.2451C276.925 14.3219 274.437 14.3294 271.948 14.3481L264.483 14.2841L264.866 13.9012C264.848 15.8445 264.783 17.7879 264.744 19.7314C264.695 21.6747 264.624 23.6181 264.533 25.5614C264.532 25.5743 264.527 25.5864 264.517 25.5953C264.508 25.6041 264.496 25.6091 264.483 25.6091C264.47 25.6091 264.458 25.6041 264.448 25.5953C264.439 25.5864 264.433 25.5743 264.433 25.5614L264.433 25.5615Z" fill="black"/>
<path d="M255.097 35.3733C257.241 35.2462 259.386 35.1386 261.531 35.0825C263.676 35.0299 265.821 34.9425 267.966 34.9257C272.255 34.8593 276.545 34.8578 280.835 34.9214L280.383 35.3732C280.401 33.1928 280.483 31.0125 280.54 28.832C280.593 26.6516 280.707 24.4712 280.835 22.2908C280.963 24.4712 281.077 26.6516 281.13 28.832C281.187 31.0125 281.269 33.1928 281.287 35.3732C281.288 35.4916 281.242 35.6056 281.159 35.6902C281.077 35.7749 280.964 35.8234 280.845 35.8251L280.835 35.8252C276.545 35.8865 272.255 35.8851 267.966 35.8209C265.821 35.8039 263.676 35.7167 261.531 35.6639C259.386 35.608 257.241 35.5004 255.097 35.3733Z" fill="black"/>
<path d="M266.047 61.5383C265.694 59.9996 265.526 58.4242 265.547 56.8457C265.524 55.2671 265.692 53.6915 266.047 52.1531C266.401 53.6915 266.569 55.2671 266.546 56.8457C266.567 58.4242 266.399 59.9996 266.047 61.5383V61.5383Z" fill="black"/>
<path d="M257.656 13.9513L249.693 14.1213L249.913 13.9013C249.984 19.222 250.078 24.5425 250.089 29.8632C250.114 35.1839 250.164 40.5045 250.12 45.8252C250.115 51.1457 250 56.4664 249.941 61.7871C249.867 67.1078 249.839 72.4284 249.856 77.749L249.693 77.5863C257.577 77.5812 265.462 77.4373 273.346 77.3758C281.23 77.2748 289.115 77.2667 296.999 77.2224C297.068 77.222 297.136 77.2351 297.2 77.2611C297.263 77.2871 297.321 77.3254 297.37 77.3737C297.419 77.4221 297.458 77.4797 297.485 77.5431C297.512 77.6065 297.525 77.6746 297.526 77.7434V77.7493L297.523 82.8683C297.523 83.0069 297.468 83.14 297.37 83.2382C297.272 83.3365 297.14 83.3918 297.001 83.3921H296.999L285.172 83.3704L273.346 83.254L261.52 83.1273C257.577 83.1031 253.635 82.9858 249.693 82.9184C249.68 82.9184 249.667 82.9132 249.658 82.9038C249.648 82.8944 249.643 82.8817 249.643 82.8684C249.643 82.8552 249.648 82.8425 249.658 82.8331C249.667 82.8237 249.68 82.8184 249.693 82.8184C253.635 82.7511 257.577 82.6338 261.52 82.6096L273.346 82.4828L285.173 82.3663L296.999 82.3448L296.476 82.8684L296.473 77.7494L296.999 78.276C289.115 78.2317 281.23 78.2235 273.346 78.1226C265.462 78.0612 257.577 77.9172 249.693 77.9121C249.65 77.9122 249.609 77.8952 249.578 77.8649C249.548 77.8345 249.53 77.7933 249.53 77.7502V77.7491C249.549 72.4285 249.52 67.1078 249.445 61.7872C249.386 56.4665 249.272 51.1459 249.266 45.8253C249.223 40.5046 249.272 35.1839 249.297 29.8633C249.308 24.5426 249.402 19.2221 249.473 13.9014L249.473 13.8937C249.474 13.8654 249.479 13.8375 249.491 13.8115C249.502 13.7855 249.518 13.7619 249.538 13.7422C249.559 13.7225 249.582 13.7069 249.609 13.6964C249.635 13.686 249.663 13.6808 249.691 13.6812H249.693L257.656 13.8512C257.669 13.8514 257.682 13.8568 257.691 13.8662C257.7 13.8755 257.705 13.8881 257.705 13.9012C257.705 13.9143 257.7 13.9269 257.691 13.9363C257.682 13.9456 257.669 13.951 257.656 13.9513H257.656Z" fill="black"/>
<path d="M259.838 23.9805C260.226 23.967 260.595 23.8031 260.865 23.5232C261.135 23.2434 261.287 22.8695 261.287 22.4805C261.287 22.0914 261.135 21.7175 260.865 21.4377C260.595 21.1579 260.226 20.9939 259.838 20.9805C259.449 20.9939 259.08 21.1579 258.81 21.4377C258.54 21.7175 258.389 22.0914 258.389 22.4805C258.389 22.8695 258.54 23.2434 258.81 23.5232C259.08 23.8031 259.449 23.967 259.838 23.9805V23.9805Z" fill="black"/>
<path d="M284.485 35.9253C284.874 35.9118 285.242 35.7479 285.513 35.468C285.783 35.1882 285.934 34.8144 285.934 34.4253C285.934 34.0362 285.783 33.6624 285.513 33.3825C285.242 33.1027 284.874 32.9388 284.485 32.9253C284.096 32.9388 283.728 33.1027 283.458 33.3825C283.187 33.6624 283.036 34.0362 283.036 34.4253C283.036 34.8144 283.187 35.1882 283.458 35.468C283.728 35.7479 284.096 35.9118 284.485 35.9253V35.9253Z" fill="black"/>
<path d="M259.838 70.4326C260.226 70.4191 260.595 70.2552 260.865 69.9754C261.135 69.6956 261.287 69.3217 261.287 68.9326C261.287 68.5436 261.135 68.1697 260.865 67.8899C260.595 67.61 260.226 67.4461 259.838 67.4326C259.449 67.4461 259.08 67.61 258.81 67.8899C258.54 68.1697 258.389 68.5436 258.389 68.9326C258.389 69.3217 258.54 69.6956 258.81 69.9754C259.08 70.2552 259.449 70.4191 259.838 70.4326V70.4326Z" fill="black"/>
<path d="M265.146 70.4326C265.535 70.4191 265.903 70.2552 266.174 69.9754C266.444 69.6956 266.595 69.3217 266.595 68.9326C266.595 68.5436 266.444 68.1697 266.174 67.8899C265.903 67.61 265.535 67.4461 265.146 67.4326C264.757 67.4461 264.389 67.61 264.119 67.8899C263.848 68.1697 263.697 68.5436 263.697 68.9326C263.697 69.3217 263.848 69.6956 264.119 69.9754C264.389 70.2552 264.757 70.4191 265.146 70.4326V70.4326Z" fill="black"/>
<path d="M246.944 26.2559C247.333 26.2424 247.701 26.0785 247.972 25.7986C248.242 25.5188 248.393 25.1449 248.393 24.7559C248.393 24.3668 248.242 23.9929 247.972 23.7131C247.701 23.4333 247.333 23.2693 246.944 23.2559C246.555 23.2693 246.187 23.4333 245.917 23.7131C245.646 23.9929 245.495 24.3668 245.495 24.7559C245.495 25.1449 245.646 25.5188 245.917 25.7986C246.187 26.0785 246.555 26.2424 246.944 26.2559V26.2559Z" fill="black"/>
<path d="M297 46.9221C297.389 46.9086 297.757 46.7447 298.027 46.4649C298.298 46.185 298.449 45.8112 298.449 45.4221C298.449 45.0331 298.298 44.6592 298.027 44.3794C297.757 44.0995 297.389 43.9356 297 43.9221C296.611 43.9356 296.242 44.0995 295.972 44.3794C295.702 44.6592 295.551 45.0331 295.551 45.4221C295.551 45.8112 295.702 46.185 295.972 46.4649C296.242 46.7447 296.611 46.9086 297 46.9221V46.9221Z" fill="black"/>
<path d="M297.472 75.7415C297.861 75.728 298.23 75.5641 298.5 75.2842C298.77 75.0044 298.921 74.6305 298.921 74.2415C298.921 73.8524 298.77 73.4785 298.5 73.1987C298.23 72.9189 297.861 72.7549 297.472 72.7415C297.084 72.7549 296.715 72.9189 296.445 73.1987C296.175 73.4785 296.023 73.8524 296.023 74.2415C296.023 74.6305 296.175 75.0044 296.445 75.2842C296.715 75.5641 297.084 75.728 297.472 75.7415V75.7415Z" fill="black"/>
<path d="M268.938 17.7405C269.29 19.1668 269.458 20.6323 269.438 22.1013C269.461 23.5704 269.293 25.0362 268.938 26.4622C268.584 25.0362 268.416 23.5704 268.439 22.1013C268.418 20.6323 268.586 19.1668 268.938 17.7405Z" fill="black"/>
<path d="M287 48.7401C287.174 51.1101 287.245 53.4801 287.324 55.8501L286.95 55.4762C289.162 55.4552 291.374 55.39 293.586 55.4054C295.798 55.4181 298.01 55.5309 300.222 55.6056L299.978 55.8501C300.121 52.3542 300.082 48.8585 299.958 45.3628C299.82 41.8671 299.76 38.3713 299.721 34.8755C299.66 31.3797 299.676 27.884 299.769 24.3883C299.841 20.8924 299.955 17.3967 300.172 13.901C300.173 13.8883 300.179 13.8763 300.188 13.8676C300.197 13.8589 300.21 13.854 300.222 13.854C300.235 13.854 300.247 13.8589 300.257 13.8676C300.266 13.8763 300.272 13.8883 300.273 13.901C300.49 17.3967 300.604 20.8924 300.676 24.3883C300.765 27.884 300.781 31.3797 300.724 34.8755C300.685 38.3713 300.625 41.8671 300.487 45.3628C300.363 48.8585 300.324 52.3542 300.467 55.8501C300.47 55.9122 300.447 55.9728 300.405 56.0186C300.363 56.0643 300.304 56.0914 300.242 56.094L300.241 56.0941L300.222 56.0947C298.01 56.1694 295.798 56.2821 293.586 56.2949C291.374 56.3102 289.162 56.2451 286.95 56.2241L286.935 56.2239C286.887 56.2234 286.84 56.2136 286.796 56.195C286.753 56.1764 286.713 56.1494 286.68 56.1155C286.646 56.0816 286.62 56.0414 286.602 55.9974C286.585 55.9533 286.576 55.9062 286.576 55.8586L286.576 55.8501C286.656 53.4801 286.726 51.1101 286.9 48.7401C286.901 48.7275 286.907 48.7157 286.916 48.7071C286.926 48.6985 286.938 48.6937 286.95 48.6937C286.963 48.6937 286.975 48.6985 286.984 48.7071C286.994 48.7157 286.999 48.7275 287 48.7401H287Z" fill="black"/>
<path d="M290.362 50.3518C291.433 50.0018 292.555 49.833 293.681 49.8521C294.807 49.8308 295.929 49.9997 296.999 50.3518C295.929 50.7039 294.807 50.8728 293.681 50.8515C292.555 50.8707 291.433 50.7018 290.362 50.3518V50.3518Z" fill="black"/>
<path d="M300.222 59.2629C300.615 63.1971 300.706 67.1314 300.722 71.0656C300.708 74.9998 300.618 78.9341 300.222 82.8683C299.827 78.9341 299.737 74.9998 299.723 71.0656C299.739 67.1314 299.829 63.1972 300.222 59.2629Z" fill="black"/>
<path d="M343.866 38.2527C338.145 38.4156 332.276 38.5522 326.357 38.6011C323.405 38.6481 320.433 38.6565 317.46 38.6303C314.489 38.6132 311.517 38.5292 308.565 38.474L308.554 38.4738C308.521 38.4732 308.489 38.4661 308.458 38.453C308.428 38.4398 308.401 38.4208 308.378 38.3971C308.355 38.3734 308.337 38.3454 308.325 38.3148C308.313 38.2841 308.308 38.2514 308.308 38.2185V38.2172C308.347 36.5899 308.378 34.9624 308.384 33.335C308.39 31.7077 308.429 30.0802 308.407 28.4529C308.399 25.1981 308.36 21.9433 308.291 18.6885C308.29 18.6174 308.317 18.5486 308.366 18.4974C308.415 18.4461 308.483 18.4164 308.554 18.4149L308.565 18.4147C314.442 18.2798 320.32 18.2283 326.198 18.189C329.137 18.1568 332.075 18.1505 335.014 18.1701C337.953 18.1871 340.892 18.1663 343.83 18.2201L343.846 18.2203C343.906 18.2212 343.966 18.2341 344.022 18.2581C344.077 18.2822 344.128 18.3169 344.17 18.3604C344.212 18.4039 344.245 18.4553 344.267 18.5115C344.289 18.5678 344.3 18.628 344.299 18.6885C344.25 21.9956 344.218 25.3085 344.123 28.5738L343.866 38.2527ZM343.795 38.1819L343.539 28.3319C343.443 25.0878 343.411 21.8911 343.362 18.6885L343.83 19.1567C340.892 19.2106 337.953 19.1898 335.014 19.2067C332.075 19.2241 329.136 19.2178 326.198 19.1878C320.32 19.1485 314.442 19.097 308.565 18.9621L308.839 18.6884C308.773 21.9432 308.734 25.198 308.722 28.4528C308.701 30.0802 308.74 31.7076 308.746 33.3349C308.752 34.9624 308.782 36.5898 308.822 38.2171L308.565 37.9605C311.49 37.9054 314.397 37.8214 317.303 37.8043C320.208 37.778 323.113 37.7864 326.039 37.8334C331.875 37.8825 337.761 38.0191 343.795 38.1819V38.1819Z" fill="black"/>
<path d="M308.564 44.1898C311.503 43.9836 314.442 43.887 317.381 43.807C320.32 43.7156 323.259 43.7026 326.198 43.6902C329.136 43.7013 332.075 43.7146 335.014 43.8052L339.422 43.9447C340.891 44.0278 342.361 44.0764 343.83 44.1898C342.361 44.3032 340.891 44.3519 339.422 44.435L335.014 44.5745C332.075 44.665 329.136 44.6784 326.198 44.6896C323.259 44.677 320.32 44.6641 317.381 44.5726C314.442 44.4927 311.503 44.3961 308.564 44.1898Z" fill="black"/>
<path d="M308.564 51.1102C311.503 50.904 314.442 50.8074 317.381 50.7274C320.32 50.636 323.259 50.6232 326.198 50.6106C329.136 50.6218 332.075 50.635 335.014 50.7256L339.422 50.8651C340.891 50.9482 342.361 50.9968 343.83 51.1102C342.361 51.2236 340.891 51.2724 339.422 51.3554L335.014 51.4949C332.075 51.5855 329.136 51.5988 326.198 51.61C323.259 51.5974 320.32 51.5845 317.381 51.4932C314.442 51.4131 311.503 51.3165 308.564 51.1102Z" fill="black"/>
<path d="M308.564 58.1255C311.503 57.9192 314.442 57.8227 317.381 57.7427C320.32 57.6513 323.259 57.6384 326.198 57.6257C329.136 57.637 332.075 57.6503 335.014 57.7409L339.422 57.8804C340.891 57.9634 342.361 58.0121 343.83 58.1255C342.361 58.2389 340.891 58.2875 339.422 58.3706L335.014 58.5101C332.075 58.6007 329.136 58.614 326.198 58.6251C323.259 58.6127 320.32 58.5997 317.381 58.5083C314.442 58.4284 311.503 58.3317 308.564 58.1255Z" fill="black"/>
<path d="M329.456 82.9038L324.642 83.0913C323.008 83.1333 321.377 83.2121 319.71 83.2283L314.715 83.3083C313.041 83.2999 311.369 83.3017 309.702 83.2585L309.682 83.2581C309.581 83.2555 309.485 83.2129 309.416 83.1399C309.347 83.0668 309.309 82.9692 309.312 82.8684C309.388 79.9138 309.525 76.9592 309.535 74.0046C309.568 72.5273 309.532 71.05 309.524 69.5727C309.517 68.0954 309.458 66.6182 309.428 65.1409C309.427 65.0703 309.453 65.002 309.502 64.9508C309.55 64.8996 309.617 64.8697 309.688 64.8675L309.702 64.867C312.988 64.767 316.275 64.691 319.561 64.6651C322.847 64.6263 326.134 64.5837 329.42 64.6163L329.427 64.6164C329.565 64.6179 329.697 64.6738 329.794 64.772C329.891 64.8703 329.945 65.0029 329.945 65.1409C329.933 68.1597 329.841 71.1703 329.773 74.1506L329.456 82.9038ZM329.385 82.8331L329.068 73.8587C329 70.9299 328.907 68.0313 328.896 65.1408L329.42 65.6652C326.134 65.6978 322.847 65.6552 319.561 65.6165C316.275 65.5906 312.988 65.5147 309.702 65.4145L309.975 65.1409C309.945 66.6181 309.886 68.0954 309.88 69.5727C309.872 71.05 309.836 72.5273 309.869 74.0046C309.879 76.9592 310.016 79.9138 310.092 82.8684L309.702 82.4784C311.322 82.4352 312.935 82.437 314.547 82.4287L319.412 82.5087C321.031 82.5248 322.687 82.6037 324.339 82.6457L329.385 82.8331Z" fill="black"/>
<path d="M343.866 82.9037C342.283 83.0047 340.624 83.0967 338.929 83.1667C337.242 83.2636 335.502 83.2641 333.781 83.3014C333.726 83.3027 333.67 83.2929 333.619 83.2727C333.567 83.2526 333.519 83.2224 333.479 83.1839C333.439 83.1454 333.407 83.0994 333.384 83.0485C333.362 82.9976 333.35 82.9427 333.349 82.8871L333.348 82.8683C333.275 79.9137 333.45 76.9592 333.568 74.0046C333.616 72.5273 333.65 71.05 333.617 69.5727C333.611 68.0954 333.561 66.6181 333.508 65.1408C333.505 65.0713 333.53 65.0035 333.577 64.9524C333.625 64.9013 333.69 64.8709 333.76 64.868L333.781 64.867C335.456 64.7951 337.131 64.7409 338.806 64.7044L343.83 64.6251C343.897 64.624 343.963 64.6361 344.025 64.6606C344.087 64.6852 344.143 64.7217 344.191 64.7681C344.239 64.8145 344.277 64.8698 344.304 64.931C344.33 64.9922 344.344 65.058 344.345 65.1247L344.346 65.1265V65.1408C344.382 68.1545 344.351 71.1987 344.238 74.1735C344.155 77.16 344.012 80.0896 343.866 82.9037ZM343.795 82.8331C343.648 79.738 343.505 76.7586 343.422 73.8357C343.309 70.9014 343.278 68.0364 343.314 65.1408L343.83 65.6564L338.806 65.5772C337.131 65.5419 335.456 65.4877 333.781 65.4145L334.055 65.1408C334.001 66.6181 333.951 68.0954 333.945 69.5727C333.913 71.05 333.946 72.5273 333.994 74.0046C334.112 76.9592 334.287 79.9137 334.214 82.8683L333.781 82.4353C335.41 82.4727 337.02 82.4732 338.682 82.5701C340.337 82.6402 342.028 82.7321 343.795 82.8331V82.8331Z" fill="black"/>
<path d="M220.177 104.979C224.086 103.882 228.113 103.257 232.171 103.116C234.213 103.041 236.256 103.178 238.269 103.524C240.319 103.855 242.282 104.592 244.043 105.692C245.817 106.865 247.165 108.58 247.886 110.58C248.551 112.553 249.065 114.463 249.689 116.399C250.892 120.256 252.161 124.091 253.495 127.904C256.194 135.515 259.036 143.082 262.423 150.395C264.093 154.053 265.951 157.622 267.99 161.089C269.963 164.55 272.356 167.755 275.114 170.631C276.453 172.025 278.028 173.173 279.767 174.019C281.445 174.842 283.373 174.996 285.161 174.451C286.997 173.943 288.668 172.966 290.011 171.615C291.372 170.224 292.504 168.626 293.364 166.88C294.225 165.094 294.948 163.245 295.525 161.348C296.072 159.43 296.578 157.494 296.943 155.52C297.71 151.583 298.225 147.585 298.613 143.573C299.372 135.542 299.622 127.454 299.793 119.37C300.008 111.283 300.041 103.19 300.222 95.0977C300.497 111.277 300.999 127.473 299.824 143.677C299.543 147.738 299.029 151.78 298.284 155.781C297.924 157.79 297.419 159.776 296.868 161.751C296.279 163.73 295.537 165.66 294.649 167.525C293.729 169.419 292.512 171.154 291.045 172.665C289.53 174.202 287.64 175.319 285.563 175.906C284.51 176.242 283.402 176.366 282.301 176.272C281.207 176.169 280.138 175.885 279.138 175.431C277.221 174.521 275.483 173.276 274.004 171.753C271.169 168.768 268.713 165.444 266.693 161.856C264.649 158.334 262.789 154.708 261.119 150.994C257.79 143.59 254.863 136.013 252.35 128.294C251.077 124.445 249.873 120.576 248.737 116.686C248.155 114.761 247.647 112.751 247.053 110.88C246.421 109.033 245.214 107.438 243.608 106.328C241.956 105.232 240.102 104.476 238.154 104.106C236.187 103.709 234.184 103.517 232.177 103.533C230.16 103.536 228.145 103.668 226.145 103.926C224.137 104.164 222.145 104.515 220.177 104.979Z" fill="black"/>
<path d="M310.225 95.0977H283.775V105.07H310.225V95.0977Z" fill="black"/>
<path d="M379.058 132.218C379.058 132.878 379.048 133.538 379.038 134.198H377.078C377.068 133.538 377.058 132.878 377.058 132.218C377.058 130.138 377.138 128.068 377.278 125.988C377.409 123.894 377.67 121.81 378.058 119.748C378.455 121.809 378.716 123.893 378.837 125.988C378.988 128.068 379.068 130.138 379.058 132.218Z" fill="black"/>
<path d="M360.327 149.428C360.307 151.568 360.257 153.708 360.107 155.848C359.975 158.005 359.714 160.152 359.327 162.278C358.935 160.153 358.674 158.006 358.547 155.848C358.387 153.708 358.347 151.568 358.327 149.428C358.337 148.878 358.337 148.318 358.347 147.768H360.307C360.317 148.318 360.317 148.878 360.327 149.428Z" fill="black"/>
<path d="M370.428 142.148C370.418 144.018 370.398 145.898 370.358 147.768H368.498C368.458 145.898 368.438 144.018 368.428 142.148C368.448 139.498 368.468 136.848 368.568 134.198H370.288C370.388 136.848 370.408 139.498 370.428 142.148Z" fill="black"/>
<path d="M347.747 142.148C347.737 144.018 347.717 145.898 347.677 147.768H345.817C345.777 145.898 345.757 144.018 345.747 142.148C345.767 139.498 345.787 136.848 345.887 134.198H347.607C347.707 136.848 347.727 139.498 347.747 142.148Z" fill="black"/>
<path d="M339.808 149.428C339.788 151.568 339.738 153.708 339.587 155.848C339.455 158.005 339.195 160.152 338.808 162.278C338.415 160.153 338.155 158.006 338.028 155.848C337.868 153.708 337.828 151.568 337.808 149.428C337.818 148.878 337.818 148.318 337.828 147.768H339.788C339.798 148.318 339.798 148.878 339.808 149.428Z" fill="black"/>
<path d="M382.287 149.428C382.267 151.568 382.217 153.708 382.067 155.848C381.935 158.005 381.674 160.152 381.287 162.278C380.895 160.153 380.634 158.006 380.507 155.848C380.347 153.708 380.307 151.568 380.287 149.428C380.297 148.878 380.297 148.318 380.307 147.768H382.267C382.277 148.318 382.277 148.878 382.287 149.428Z" fill="black"/>
<path d="M359.708 132.068C359.708 132.778 359.698 133.488 359.678 134.198H357.738C357.718 133.488 357.708 132.778 357.708 132.068C357.698 129.998 357.778 127.918 357.928 125.838C358.054 123.747 358.315 121.666 358.708 119.608C359.101 121.666 359.362 123.747 359.488 125.838C359.628 127.918 359.708 129.998 359.708 132.068Z" fill="black"/>
<path d="M338.808 134.198C342.979 133.784 347.151 133.568 351.323 133.421C355.494 133.261 359.666 133.219 363.838 133.199C368.009 133.216 372.181 133.259 376.353 133.418C380.524 133.564 384.696 133.782 388.867 134.198C384.696 134.614 380.524 134.832 376.353 134.979C372.181 135.137 368.009 135.18 363.838 135.198C359.666 135.178 355.494 135.135 351.323 134.975C347.151 134.828 342.979 134.612 338.808 134.198Z" fill="black"/>
<path d="M384.867 147.768C380.696 148.182 376.524 148.399 372.353 148.546C368.181 148.705 364.009 148.748 359.838 148.768C355.666 148.75 351.494 148.708 347.323 148.549C343.151 148.402 338.979 148.185 334.808 147.768C338.979 147.352 343.151 147.134 347.323 146.988C351.494 146.829 355.666 146.786 359.838 146.769C364.009 146.789 368.181 146.831 372.353 146.991C376.524 147.138 380.696 147.355 384.867 147.768Z" fill="black"/>
<path d="M180.453 13.3763C180.453 14.0363 180.443 14.6964 180.433 15.3564H178.473C178.463 14.6964 178.453 14.0364 178.453 13.3763C178.453 11.2964 178.533 9.22636 178.673 7.14626C178.805 5.05221 179.065 2.96826 179.453 0.90625C179.851 2.96674 180.111 5.05131 180.233 7.14626C180.383 9.22634 180.463 11.2964 180.453 13.3763Z" fill="black"/>
<path d="M161.724 30.5863C161.704 32.7263 161.654 34.8663 161.503 37.0063C161.371 39.1631 161.111 41.3103 160.724 43.4362C160.331 41.311 160.071 39.1636 159.944 37.0063C159.784 34.8663 159.744 32.7263 159.724 30.5863C159.733 30.0363 159.733 29.4763 159.744 28.9263H161.704C161.714 29.4763 161.714 30.0363 161.724 30.5863Z" fill="black"/>
<path d="M171.823 23.3065C171.813 25.1764 171.793 27.0565 171.753 28.9264H169.893C169.853 27.0565 169.833 25.1764 169.823 23.3065C169.843 20.6564 169.863 18.0065 169.963 15.3564H171.683C171.783 18.0065 171.803 20.6564 171.823 23.3065Z" fill="black"/>
<path d="M149.144 23.3065C149.134 25.1764 149.114 27.0565 149.073 28.9264H147.214C147.174 27.0565 147.154 25.1764 147.144 23.3065C147.164 20.6564 147.184 18.0065 147.284 15.3564H149.003C149.104 18.0065 149.124 20.6564 149.144 23.3065Z" fill="black"/>
<path d="M141.203 30.5863C141.183 32.7263 141.133 34.8663 140.983 37.0063C140.851 39.1631 140.59 41.3103 140.203 43.4362C139.811 41.311 139.55 39.1636 139.423 37.0063C139.263 34.8663 139.223 32.7263 139.203 30.5863C139.213 30.0363 139.213 29.4763 139.223 28.9263H141.183C141.193 29.4763 141.193 30.0363 141.203 30.5863Z" fill="black"/>
<path d="M183.684 30.5863C183.664 32.7263 183.614 34.8663 183.464 37.0063C183.331 39.1631 183.071 41.3102 182.684 43.4362C182.291 41.311 182.031 39.1636 181.904 37.0063C181.744 34.8663 181.704 32.7263 181.684 30.5863C181.694 30.0363 181.694 29.4763 181.704 28.9263H183.664C183.674 29.4763 183.674 30.0363 183.684 30.5863Z" fill="black"/>
<path d="M161.103 13.2264C161.103 13.9363 161.093 14.6463 161.073 15.3564H159.133C159.113 14.6463 159.103 13.9363 159.103 13.2264C159.093 11.1563 159.173 9.07635 159.323 6.99635C159.45 4.90512 159.71 2.82418 160.103 0.766357C160.497 2.82418 160.757 4.90512 160.883 6.99635C161.023 9.07633 161.103 11.1563 161.103 13.2264Z" fill="black"/>
<path d="M140.203 15.3563C144.375 14.9425 148.546 14.726 152.718 14.5789C156.89 14.4194 161.061 14.3768 165.233 14.3569C169.405 14.3744 173.576 14.4169 177.748 14.5759C181.92 14.7225 186.091 14.9401 190.263 15.3563C186.091 15.7726 181.92 15.9902 177.748 16.1367C173.576 16.2957 169.405 16.3383 165.233 16.3557C161.061 16.3358 156.89 16.2932 152.718 16.1337C148.546 15.9865 144.375 15.7701 140.203 15.3563Z" fill="black"/>
<path d="M186.263 28.9262C182.091 29.34 177.92 29.5566 173.748 29.7037C169.576 29.8632 165.405 29.9057 161.233 29.9257C157.061 29.9081 152.89 29.8656 148.718 29.7065C144.546 29.5601 140.375 29.3425 136.203 28.9261C140.375 28.5099 144.546 28.2924 148.718 28.1459C152.89 27.9868 157.061 27.9442 161.233 27.9268C165.405 27.9468 169.576 27.9893 173.748 28.1488C177.92 28.2959 182.091 28.5125 186.263 28.9262Z" fill="black"/>
</svg>
