<svg width="350" height="472" viewBox="0 0 350 472" fill="none" xmlns="http://www.w3.org/2000/svg">
<path fill-rule="evenodd" clip-rule="evenodd" d="M210.294 90.1423C209.983 89.6822 200.853 85.5896 199.609 94.1139C199.044 98.0128 203.934 104.164 204.952 103.244C204.952 103.244 211.114 91.2563 210.294 90.1423Z" fill="#E7BFFF"/>
<path d="M210.294 90.1423C209.983 89.6822 200.853 85.5896 199.609 94.1139C199.044 98.0128 203.934 104.164 204.952 103.244C204.952 103.244 211.114 91.2563 210.294 90.1423Z" stroke="black" stroke-width="0.57" stroke-miterlimit="22.93" stroke-linecap="round"/>
<path fill-rule="evenodd" clip-rule="evenodd" d="M116.024 112.736C129.536 124.506 167.753 156.06 170.664 158.554C170.664 158.554 185.759 135.137 185.759 134.095C185.759 131.504 187.426 133.224 183.836 121.6C182.941 119.049 182.973 116.326 183.927 113.791C184.881 111.256 186.713 109.03 189.179 107.408C196.698 101.742 204.019 104.502 200.486 112.107C199.098 114.319 197.346 116.35 195.285 118.137V124.869C249.925 110.024 228.329 121.067 224.399 132.473C218.746 148.65 204.358 174.053 200.062 183.498C193.447 198.028 178.24 197.035 156.615 186.791C145.648 181.585 148.135 181.948 134.143 172.963C119.699 163.591 111.53 135.379 115.713 120.292C115.911 119.735 116.024 112.736 116.024 112.736Z" fill="#E7BFFF"/>
<path d="M116.024 112.736C129.536 124.506 167.753 156.06 170.664 158.554C170.664 158.554 185.759 135.137 185.759 134.095C185.759 131.504 187.426 133.224 183.836 121.6C182.941 119.049 182.973 116.326 183.927 113.791C184.881 111.256 186.713 109.03 189.179 107.408C196.698 101.742 204.019 104.502 200.486 112.107C199.098 114.319 197.346 116.35 195.285 118.137V124.869C249.925 110.024 228.329 121.067 224.399 132.473C218.746 148.65 204.358 174.053 200.062 183.498C193.447 198.028 178.24 197.035 156.615 186.791C145.648 181.585 148.135 181.948 134.143 172.963C119.699 163.591 111.53 135.379 115.713 120.292C115.911 119.735 116.024 112.736 116.024 112.736Z" stroke="black" stroke-width="0.57" stroke-miterlimit="22.93" stroke-linecap="round"/>
<path d="M219.182 84.9181L239.482 92.2896C243.147 93.6205 244.859 97.245 243.305 100.385L224.464 138.468C222.911 141.608 218.68 143.074 215.015 141.744L194.715 134.372C191.05 133.041 189.338 129.417 190.891 126.277L209.732 88.1938C211.286 85.0537 215.517 83.5872 219.182 84.9181Z" fill="black"/>
<path d="M219.182 84.9181L239.482 92.2896C243.147 93.6205 244.859 97.245 243.305 100.385L224.464 138.468C222.911 141.608 218.68 143.074 215.015 141.744L194.715 134.372C191.05 133.041 189.338 129.417 190.891 126.277L209.732 88.1938C211.286 85.0537 215.517 83.5872 219.182 84.9181Z" stroke="black" stroke-width="0.57" stroke-miterlimit="22.93" stroke-linecap="round"/>
<path fill-rule="evenodd" clip-rule="evenodd" d="M170.579 158.53L164.728 170.324C166.378 166.646 167.082 162.705 166.791 158.772C166.791 158.772 166 155.745 166.593 155.818L170.579 158.53Z" fill="black"/>
<path d="M170.579 158.53L164.728 170.324C166.378 166.646 167.082 162.705 166.791 158.772C166.791 158.772 166 155.745 166.593 155.818L170.579 158.53Z" stroke="black" stroke-width="0.57" stroke-linecap="round" stroke-linejoin="round"/>
<path fill-rule="evenodd" clip-rule="evenodd" d="M115.996 114.238L125.522 121.89C131.175 144.339 139.655 157.513 144.065 179.526C138.412 175.506 134.313 172.261 128.66 168.145L115.996 114.238Z" fill="black"/>
<path d="M115.996 114.238L125.522 121.89C131.175 144.339 139.655 157.513 144.065 179.526C138.412 175.506 134.313 172.261 128.66 168.145L115.996 114.238Z" stroke="black" stroke-width="0.57" stroke-miterlimit="22.93" stroke-linecap="round"/>
<path fill-rule="evenodd" clip-rule="evenodd" d="M131.74 430.195H72.3797C71.9065 430.212 71.4584 430.381 71.1235 430.668C70.7886 430.955 70.5913 431.339 70.5706 431.744L67.7439 466.035H162.777C164.558 451.675 152.29 447.34 137.818 441.165C132.164 437.605 131.74 430.195 131.74 430.195Z" fill="#E7BFFF"/>
<path d="M131.74 430.195H72.3797C71.9065 430.212 71.4584 430.381 71.1235 430.668C70.7886 430.955 70.5913 431.339 70.5706 431.744L67.7439 466.035H162.777C164.558 451.675 152.29 447.34 137.818 441.165C132.164 437.605 131.74 430.195 131.74 430.195Z" stroke="black" stroke-width="0.57" stroke-linecap="round" stroke-linejoin="round"/>
<path d="M66.7265 460.563H162.777C163.777 460.563 164.587 461.257 164.587 462.113V469.45C164.587 470.306 163.777 471 162.777 471H66.7265C65.7274 471 64.9174 470.306 64.9174 469.45V462.113C64.9174 461.257 65.7274 460.563 66.7265 460.563Z" fill="#E7BFFF"/>
<path d="M66.7265 460.563H162.777C163.777 460.563 164.587 461.257 164.587 462.113V469.45C164.587 470.306 163.777 471 162.777 471H66.7265C65.7274 471 64.9174 470.306 64.9174 469.45V462.113C64.9174 461.257 65.7274 460.563 66.7265 460.563Z" stroke="black" stroke-width="0.57" stroke-linecap="round" stroke-linejoin="round"/>
<path fill-rule="evenodd" clip-rule="evenodd" d="M73.2845 430.195H13.924C13.4509 430.212 13.0026 430.381 12.6678 430.668C12.3329 430.955 12.1357 431.339 12.1149 431.744L9.28822 466.035H104.378C106.159 451.675 93.8911 447.34 79.4184 441.165C73.7085 437.605 73.2845 430.195 73.2845 430.195Z" fill="#E7BFFF"/>
<path d="M73.2845 430.195H13.924C13.4509 430.212 13.0026 430.381 12.6678 430.668C12.3329 430.955 12.1357 431.339 12.1149 431.744L9.28822 466.035H104.378C106.159 451.675 93.8911 447.34 79.4184 441.165C73.7085 437.605 73.2845 430.195 73.2845 430.195Z" stroke="black" stroke-width="0.57" stroke-linecap="round" stroke-linejoin="round"/>
<path d="M8.24234 460.563H104.322C105.321 460.563 106.131 461.257 106.131 462.113V469.45C106.131 470.306 105.321 471 104.322 471H8.24234C7.24321 471 6.43326 470.306 6.43326 469.45V462.113C6.43326 461.257 7.24321 460.563 8.24234 460.563Z" fill="#E7BFFF"/>
<path d="M8.24234 460.563H104.322C105.321 460.563 106.131 461.257 106.131 462.113V469.45C106.131 470.306 105.321 471 104.322 471H8.24234C7.24321 471 6.43326 470.306 6.43326 469.45V462.113C6.43326 461.257 7.24321 460.563 8.24234 460.563Z" stroke="black" stroke-width="0.57" stroke-linecap="round" stroke-linejoin="round"/>
<path fill-rule="evenodd" clip-rule="evenodd" d="M115.006 41.2244C115.006 61.9539 115.006 61.5907 115.006 82.3929C115.006 137.123 144.065 148.674 145.874 204.978C146.213 215.271 135.471 213.987 133.634 227.815C120.066 230.648 83.7712 219.291 70.1748 222.124C56.6632 219.291 20.9339 242.297 7.39405 239.463C-16.3784 150.006 33.7953 132.594 33.7105 86.0255V41.297C33.7105 -4.6423 114.95 -3.06821 115.006 41.2244Z" fill="#E7BFFF"/>
<path d="M115.006 41.2244C115.006 61.9539 115.006 61.5907 115.006 82.3929C115.006 137.123 144.065 148.674 145.874 204.978C146.213 215.271 135.471 213.987 133.634 227.815C120.066 230.648 83.7712 219.291 70.1748 222.124C56.6632 219.291 20.9339 242.297 7.39405 239.463C-16.3784 150.006 33.7953 132.594 33.7105 86.0255V41.297C33.7105 -4.6423 114.95 -3.06821 115.006 41.2244Z" stroke="black" stroke-width="0.57" stroke-linecap="round" stroke-linejoin="round"/>
<path fill-rule="evenodd" clip-rule="evenodd" d="M115.006 41.2244C115.006 61.954 115.006 61.5907 115.006 82.393C114.984 88.478 115.381 94.5589 116.193 100.604H32.0428C33.1437 95.818 33.7022 90.952 33.7105 86.0739V41.3455C33.7105 -4.64227 114.95 -3.06819 115.006 41.2244Z" fill="#E7BFFF"/>
<path d="M115.006 41.2244C115.006 61.954 115.006 61.5907 115.006 82.393C114.984 88.478 115.381 94.5589 116.193 100.604H32.0428C33.1437 95.818 33.7022 90.952 33.7105 86.0739V41.3455C33.7105 -4.64227 114.95 -3.06819 115.006 41.2244Z" stroke="black" stroke-width="0.57" stroke-linecap="round" stroke-linejoin="round"/>
<path fill-rule="evenodd" clip-rule="evenodd" d="M33.9086 37.5673C37.9225 -3.28643 110.512 -1.97872 114.808 37.5673H33.9086Z" fill="#E7BFFF"/>
<path d="M33.9086 37.5673C37.9225 -3.28643 110.512 -1.97872 114.808 37.5673H33.9086Z" stroke="black" stroke-width="0.57" stroke-linecap="round" stroke-linejoin="round"/>
<path fill-rule="evenodd" clip-rule="evenodd" d="M1.91035 203.307C1.91035 203.816 1.91035 204.324 1.91035 204.809C1.37327 228.226 10.1926 241.134 10.136 262.517C9.96643 308.917 8.49653 428.136 8.66614 430.534H135.048C135.048 430.534 136.15 309.208 135.387 263.728C134.963 239.512 143.16 232.561 146.213 205.075C146.256 204.486 146.256 203.896 146.213 203.307H1.91035Z" fill="#E7BFFF"/>
<path d="M1.91035 203.307C1.91035 203.816 1.91035 204.324 1.91035 204.809C1.37327 228.226 10.1926 241.134 10.136 262.517C9.96643 308.917 8.49653 428.136 8.66614 430.534H135.048C135.048 430.534 136.15 309.208 135.387 263.728C134.963 239.512 143.16 232.561 146.213 205.075C146.256 204.486 146.256 203.896 146.213 203.307H1.91035Z" stroke="black" stroke-width="0.57" stroke-linecap="round" stroke-linejoin="round"/>
<path fill-rule="evenodd" clip-rule="evenodd" d="M111.417 65.2718C110.475 65.2766 109.553 65.0414 108.768 64.5962C107.982 64.151 107.369 63.5159 107.006 62.7715C106.643 62.0271 106.547 61.2071 106.729 60.4156C106.912 59.6242 107.365 58.897 108.03 58.3266C108.696 57.7562 109.545 57.3682 110.469 57.212C111.393 57.0558 112.35 57.1384 113.219 57.4493C114.088 57.7603 114.829 58.2855 115.349 58.9582C115.868 59.631 116.143 60.4209 116.137 61.2276C116.137 62.3002 115.64 63.3288 114.754 64.0873C113.869 64.8457 112.669 65.2718 111.417 65.2718Z" fill="#FEFEFE"/>
<path d="M111.417 65.2718C110.475 65.2766 109.553 65.0414 108.768 64.5962C107.982 64.151 107.369 63.5159 107.006 62.7715C106.643 62.0271 106.547 61.2071 106.729 60.4156C106.912 59.6242 107.365 58.897 108.03 58.3266C108.696 57.7562 109.545 57.3682 110.469 57.212C111.393 57.0558 112.35 57.1384 113.219 57.4493C114.088 57.7603 114.829 58.2855 115.349 58.9582C115.868 59.631 116.143 60.4209 116.137 61.2276C116.137 62.3002 115.64 63.3288 114.754 64.0873C113.869 64.8457 112.669 65.2718 111.417 65.2718Z" stroke="black" stroke-width="0.57" stroke-linecap="round" stroke-linejoin="round"/>
<path fill-rule="evenodd" clip-rule="evenodd" d="M71.7582 57.2556C72.6986 57.2508 73.6195 57.4853 74.4042 57.9294C75.1888 58.3735 75.8019 59.0072 76.1656 59.7502C76.5294 60.4932 76.6275 61.312 76.4474 62.1028C76.2674 62.8935 75.8174 63.6207 75.1544 64.1921C74.4914 64.7635 73.6453 65.1534 72.7234 65.3124C71.8014 65.4713 70.8451 65.3922 69.9757 65.085C69.1063 64.7778 68.363 64.2563 67.8399 63.5868C67.3169 62.9172 67.0376 62.1297 67.0376 61.324C67.0339 60.7909 67.1532 60.2624 67.3888 59.7689C67.6244 59.2754 67.9715 58.8267 68.4102 58.4486C68.8489 58.0705 69.3706 57.7705 69.9451 57.5657C70.5197 57.3609 71.1359 57.2556 71.7582 57.2556Z" fill="#FEFEFE"/>
<path d="M71.7582 57.2556C72.6986 57.2508 73.6195 57.4853 74.4042 57.9294C75.1888 58.3735 75.8019 59.0072 76.1656 59.7502C76.5294 60.4932 76.6275 61.312 76.4474 62.1028C76.2674 62.8935 75.8174 63.6207 75.1544 64.1921C74.4914 64.7635 73.6453 65.1534 72.7234 65.3124C71.8014 65.4713 70.8451 65.3922 69.9757 65.085C69.1063 64.7778 68.363 64.2563 67.8399 63.5868C67.3169 62.9172 67.0376 62.1297 67.0376 61.324C67.0339 60.7909 67.1532 60.2624 67.3888 59.7689C67.6244 59.2754 67.9715 58.8267 68.4102 58.4486C68.8489 58.0705 69.3706 57.7705 69.9451 57.5657C70.5197 57.3609 71.1359 57.2556 71.7582 57.2556Z" stroke="black" stroke-width="0.57" stroke-linecap="round" stroke-linejoin="round"/>
<path d="M73.8216 264.309C73.8216 254.405 92.7886 255.349 99.7423 241.255" stroke="black" stroke-width="0.57" stroke-linecap="round" stroke-linejoin="round"/>
<path d="M109.636 45.6076C111.498 45.386 113.396 45.6387 115.091 46.3341" stroke="black" stroke-width="0.57" stroke-miterlimit="22.93" stroke-linecap="round"/>
<path d="M73.7649 45.6075C71.9025 45.3815 70.0038 45.6344 68.3094 46.334" stroke="black" stroke-width="0.57" stroke-miterlimit="22.93" stroke-linecap="round"/>
<path fill-rule="evenodd" clip-rule="evenodd" d="M34.4738 94.3317H115.035C116.553 94.3317 118.009 94.8483 119.082 95.768C120.155 96.6876 120.759 97.935 120.759 99.2356C120.759 100.536 120.155 101.784 119.082 102.703C118.009 103.623 116.553 104.139 115.035 104.139H34.4738C32.9557 104.139 31.4997 103.623 30.4263 102.703C29.3528 101.784 28.7497 100.536 28.7497 99.2356C28.7497 97.935 29.3528 96.6876 30.4263 95.768C31.4997 94.8483 32.9557 94.3317 34.4738 94.3317Z" fill="#E7BFFF"/>
<path d="M34.4738 94.3317H115.035C116.553 94.3317 118.009 94.8483 119.082 95.768C120.155 96.6876 120.759 97.935 120.759 99.2356C120.759 100.536 120.155 101.784 119.082 102.703C118.009 103.623 116.553 104.139 115.035 104.139H34.4738C32.9557 104.139 31.4997 103.623 30.4263 102.703C29.3528 101.784 28.7497 100.536 28.7497 99.2356C28.7497 97.935 29.3528 96.6876 30.4263 95.768C31.4997 94.8483 32.9557 94.3317 34.4738 94.3317Z" stroke="black" stroke-width="0.57" stroke-miterlimit="22.93" stroke-linecap="round"/>
<path d="M33.7107 37.2043H157.661" stroke="black" stroke-width="0.57" stroke-miterlimit="22.93" stroke-linecap="round"/>
<path fill-rule="evenodd" clip-rule="evenodd" d="M116.165 103.825L117.381 108.087C101.673 105.958 85.837 104.6 69.9489 104.018L116.165 103.825Z" fill="black"/>
<path d="M116.165 103.825L117.381 108.087C101.673 105.958 85.837 104.6 69.9489 104.018L116.165 103.825Z" stroke="black" stroke-width="0.57" stroke-miterlimit="22.93" stroke-linecap="round"/>
<path fill-rule="evenodd" clip-rule="evenodd" d="M132.221 430.558L133.465 434.82C117.749 432.677 101.903 431.303 86.0047 430.704L132.221 430.558Z" fill="black"/>
<path d="M132.221 430.558L133.465 434.82C117.749 432.677 101.903 431.303 86.0047 430.704L132.221 430.558Z" stroke="black" stroke-width="0.57" stroke-miterlimit="22.93" stroke-linecap="round"/>
<path fill-rule="evenodd" clip-rule="evenodd" d="M72.9738 430.558L74.2175 434.82C58.5019 432.675 42.656 431.301 26.7574 430.704L72.9738 430.558Z" fill="black"/>
<path d="M72.9738 430.558L74.2175 434.82C58.5019 432.675 42.656 431.301 26.7574 430.704L72.9738 430.558Z" stroke="black" stroke-width="0.57" stroke-miterlimit="22.93" stroke-linecap="round"/>
<path fill-rule="evenodd" clip-rule="evenodd" d="M113.763 37.0345L114.978 41.3209C99.2999 39.1792 83.4919 37.8047 67.6311 37.2041L113.763 37.0345Z" fill="black"/>
<path d="M113.763 37.0345L114.978 41.3209C99.2999 39.1792 83.4919 37.8047 67.6311 37.2041L113.763 37.0345Z" stroke="black" stroke-width="0.57" stroke-miterlimit="22.93" stroke-linecap="round"/>
<path fill-rule="evenodd" clip-rule="evenodd" d="M113.508 61.7118C113.58 61.7083 113.652 61.7178 113.719 61.7396C113.786 61.7615 113.847 61.7953 113.897 61.8387C113.948 61.8822 113.987 61.9343 114.013 61.9917C114.038 62.0492 114.05 62.1106 114.045 62.1719C114.045 62.2939 113.989 62.411 113.888 62.4972C113.787 62.5835 113.651 62.632 113.508 62.632C113.368 62.6262 113.235 62.5758 113.136 62.4907C113.037 62.4057 112.978 62.292 112.971 62.1719C112.971 62.0499 113.028 61.9328 113.129 61.8465C113.229 61.7602 113.366 61.7118 113.508 61.7118Z" fill="black"/>
<path d="M113.508 61.7118C113.58 61.7083 113.652 61.7178 113.719 61.7396C113.786 61.7615 113.847 61.7953 113.897 61.8387C113.948 61.8822 113.987 61.9343 114.013 61.9917C114.038 62.0492 114.05 62.1106 114.045 62.1719C114.045 62.2939 113.989 62.411 113.888 62.4972C113.787 62.5835 113.651 62.632 113.508 62.632C113.368 62.6262 113.235 62.5758 113.136 62.4907C113.037 62.4057 112.978 62.292 112.971 62.1719C112.971 62.0499 113.028 61.9328 113.129 61.8465C113.229 61.7602 113.366 61.7118 113.508 61.7118Z" stroke="black" stroke-width="0.57" stroke-linecap="round" stroke-linejoin="round"/>
<path fill-rule="evenodd" clip-rule="evenodd" d="M74.4151 62.6561C74.3435 62.6596 74.2718 62.6501 74.2048 62.6282C74.1378 62.6063 74.0769 62.5726 74.0262 62.5291C73.9755 62.4857 73.9361 62.4335 73.9106 62.3761C73.885 62.3187 73.8739 62.2573 73.878 62.196C73.878 62.0739 73.9346 61.9569 74.0353 61.8706C74.1361 61.7843 74.2726 61.7358 74.4151 61.7358C74.5553 61.7417 74.688 61.7921 74.7873 61.8771C74.8865 61.9622 74.9453 62.0758 74.9521 62.196C74.9521 62.318 74.8956 62.435 74.7948 62.5213C74.6941 62.6076 74.5575 62.6561 74.4151 62.6561Z" fill="black"/>
<path d="M74.4151 62.6561C74.3435 62.6596 74.2718 62.6501 74.2048 62.6282C74.1378 62.6063 74.0769 62.5726 74.0262 62.5291C73.9755 62.4857 73.9361 62.4335 73.9106 62.3761C73.885 62.3187 73.8739 62.2573 73.878 62.196C73.878 62.0739 73.9346 61.9569 74.0353 61.8706C74.1361 61.7843 74.2726 61.7358 74.4151 61.7358C74.5553 61.7417 74.688 61.7921 74.7873 61.8771C74.8865 61.9622 74.9453 62.0758 74.9521 62.196C74.9521 62.318 74.8956 62.435 74.7948 62.5213C74.6941 62.6076 74.5575 62.6561 74.4151 62.6561Z" stroke="black" stroke-width="0.57" stroke-linecap="round" stroke-linejoin="round"/>
<path d="M73.9062 430.631V264.019" stroke="black" stroke-width="0.57" stroke-miterlimit="22.93" stroke-linecap="round"/>
<path d="M98.9226 52.1219H33.7391" stroke="black" stroke-width="0.57" stroke-miterlimit="22.93" stroke-linecap="round"/>
<path fill-rule="evenodd" clip-rule="evenodd" d="M89.1704 52.1219H58.8683V55.706C58.8683 59.1486 60.4646 62.4502 63.3059 64.8844C66.1473 67.3187 70.001 68.6863 74.0193 68.6863C78.0377 68.6863 81.8914 67.3187 84.7328 64.8844C87.5742 62.4502 89.1704 59.1486 89.1704 55.706V52.1219Z" fill="black"/>
<path d="M89.1704 52.1219H58.8683V55.706C58.8683 59.1486 60.4646 62.4502 63.3059 64.8844C66.1473 67.3187 70.001 68.6863 74.0193 68.6863C78.0377 68.6863 81.8914 67.3187 84.7328 64.8844C87.5742 62.4502 89.1704 59.1486 89.1704 55.706V52.1219Z" stroke="black" stroke-width="0.57" stroke-miterlimit="22.93" stroke-linecap="round"/>
<path fill-rule="evenodd" clip-rule="evenodd" d="M125.041 52.1219H94.7391V55.706C94.7391 59.1486 96.3354 62.4502 99.1768 64.8844C102.018 67.3187 105.872 68.6863 109.89 68.6863C113.909 68.6863 117.762 67.3187 120.604 64.8844C123.445 62.4502 125.041 59.1486 125.041 55.706V52.1219Z" fill="black"/>
<path d="M125.041 52.1219H94.7391V55.706C94.7391 59.1486 96.3354 62.4502 99.1768 64.8844C102.018 67.3187 105.872 68.6863 109.89 68.6863C113.909 68.6863 117.762 67.3187 120.604 64.8844C123.445 62.4502 125.041 59.1486 125.041 55.706V52.1219Z" stroke="black" stroke-width="0.57" stroke-miterlimit="22.93" stroke-linecap="round"/>
<path d="M66.8679 78.591C65.9414 78.1792 65.1196 77.614 64.4499 76.9281C63.7803 76.2422 63.2763 75.4493 62.9671 74.5952" stroke="black" stroke-width="0.57" stroke-miterlimit="22.93" stroke-linecap="round"/>
<path d="M65.7374 72.9965C64.8935 73.5954 63.9085 74.0311 62.8498 74.2735C61.7911 74.5159 60.6837 74.5594 59.6035 74.401" stroke="black" stroke-width="0.57" stroke-miterlimit="22.93" stroke-linecap="round"/>
<path fill-rule="evenodd" clip-rule="evenodd" d="M184.26 137.195C172.134 142.523 159.414 145.962 146.015 151.144C136.379 154.984 126.259 157.86 115.854 159.717C105.48 161.267 98.8942 161.921 90.725 159.426C78.966 155.842 34.6435 139.06 31.6755 134.532C23.7042 122.423 32.7496 109.54 49.2575 109.37L103.671 131.165L167.668 110.605C175.724 97.2861 187.454 104.454 188.02 103.825L202.69 98.836C206.93 97.383 216.569 95.0339 217.813 100.967C218.802 105.617 203.143 109.564 203.143 109.564C213.601 111.55 205.969 119.251 205.969 119.251C211.312 123.416 208.796 127.291 201.164 130.947C196.245 133.369 186.833 136.057 184.204 137.244" fill="#E7BFFF"/>
<path d="M49.2575 109.37L103.671 131.165L167.668 110.605C175.724 97.2861 187.454 104.454 188.02 103.825L202.69 98.836C206.93 97.383 216.569 95.0339 217.813 100.967C218.802 105.617 203.143 109.564 203.143 109.564C213.601 111.55 205.969 119.251 205.969 119.251C211.312 123.416 208.796 127.291 201.164 130.947C196.245 133.369 186.833 136.057 184.204 137.244C172.077 142.572 159.357 146.01 145.959 151.193C136.338 155.012 126.237 157.872 115.854 159.717C105.48 161.267 97.5091 161.509 89.3965 159.015C77.6657 155.431 34.6435 139.06 31.6754 134.532" stroke="black" stroke-width="0.57" stroke-miterlimit="22.93" stroke-linecap="round"/>
<path d="M204.867 109.08L195.624 111.744" stroke="black" stroke-width="0.57" stroke-linecap="round" stroke-linejoin="round"/>
<path d="M188.416 103.607L181.801 105.69" stroke="black" stroke-width="0.57" stroke-linecap="round" stroke-linejoin="round"/>
<path d="M206.082 119.202L197.065 121.624" stroke="black" stroke-width="0.57" stroke-linecap="round" stroke-linejoin="round"/>
<path fill-rule="evenodd" clip-rule="evenodd" d="M240.059 107.021C239.833 107.53 221.375 108.329 226.83 115.304C226.246 115.39 225.67 115.511 225.106 115.667C224.189 115.949 223.401 116.473 222.854 117.163C222.306 117.854 222.029 118.675 222.06 119.509C222.091 120.343 222.43 121.146 223.028 121.805C223.626 122.464 224.453 122.943 225.388 123.174C225.388 123.174 219.481 122.569 219.735 126.613C219.905 131.311 231.24 130.851 234.914 129.931C236.116 129.741 237.207 129.21 238.012 128.424C238.818 127.637 239.29 126.641 239.352 125.596C239.578 123.562 237.911 125.596 242.349 122.52C246.786 119.445 242.97 115.425 244.242 114.408C247.38 111.986 249.896 106.247 242.32 104.6C242.151 104.576 240.059 107.021 240.059 107.021Z" fill="#E7BFFF"/>
<path d="M240.059 107.021C239.833 107.53 221.375 108.329 226.83 115.304C226.246 115.39 225.67 115.511 225.106 115.667C224.189 115.949 223.401 116.473 222.854 117.163C222.306 117.854 222.029 118.675 222.06 119.509C222.091 120.343 222.43 121.146 223.028 121.805C223.626 122.464 224.453 122.943 225.388 123.174C225.388 123.174 219.481 122.569 219.735 126.613C219.905 131.311 231.24 130.851 234.914 129.931C236.116 129.741 237.207 129.21 238.012 128.424C238.818 127.637 239.29 126.641 239.352 125.596C239.578 123.562 237.911 125.596 242.349 122.52C246.786 119.445 242.97 115.425 244.242 114.408C247.38 111.986 249.896 106.247 242.32 104.6C242.151 104.576 240.059 107.021 240.059 107.021Z" stroke="black" stroke-width="0.57" stroke-miterlimit="22.93" stroke-linecap="round"/>
<path d="M244.243 114.335C243.266 114.765 242.231 115.091 241.161 115.303C236.639 116.234 231.938 116.333 227.367 115.594H227.028" stroke="black" stroke-width="0.57" stroke-miterlimit="22.93" stroke-linecap="round"/>
<path d="M240.059 123.876C235.141 123.876 228.752 124.506 224.286 122.811C224.175 122.776 224.07 122.727 223.975 122.665" stroke="black" stroke-width="0.57" stroke-miterlimit="22.93" stroke-linecap="round"/>
<path fill-rule="evenodd" clip-rule="evenodd" d="M135.472 155.818L136.97 159.548C126.285 161.97 113.395 164.149 102.315 163.18C93.4794 162.131 84.9758 159.588 77.2985 155.697C73.8554 153.927 70.3079 152.311 66.6702 150.854C67.1507 150.854 88.7183 161.219 104.887 161.219C109.865 161.178 114.813 160.543 119.586 159.33L135.472 155.818Z" fill="black"/>
<path d="M135.472 155.818L136.97 159.548C126.285 161.97 113.395 164.149 102.315 163.18C93.4794 162.131 84.9758 159.588 77.2985 155.697C73.8554 153.927 70.3079 152.311 66.6702 150.854C67.1507 150.854 88.7183 161.219 104.887 161.219C109.865 161.178 114.813 160.543 119.586 159.33L135.472 155.818Z" stroke="black" stroke-width="0.57" stroke-miterlimit="22.93" stroke-linecap="round"/>
<path fill-rule="evenodd" clip-rule="evenodd" d="M334.583 3.01025L257.189 30.5206L251.422 14.15L334.583 3.01025Z" fill="black"/>
<path d="M334.583 3.01025L257.189 30.5206L251.422 14.15L334.583 3.01025Z" stroke="black" stroke-width="0.57" stroke-linecap="round" stroke-linejoin="round"/>
<path fill-rule="evenodd" clip-rule="evenodd" d="M317.567 8.16846L258.715 18.4606L256.765 30.6901L317.567 8.16846Z" fill="#E7BFFF"/>
<path d="M317.567 8.16846L258.715 18.4606L256.765 30.6901L317.567 8.16846Z" stroke="black" stroke-width="0.57" stroke-linecap="round" stroke-linejoin="round"/>
<path fill-rule="evenodd" clip-rule="evenodd" d="M283.732 30.9804L258.715 18.4603L349 1L283.732 30.9804Z" fill="#E7BFFF"/>
<path d="M283.732 30.9804L258.715 18.4603L349 1L283.732 30.9804Z" stroke="black" stroke-width="0.57" stroke-linecap="round" stroke-linejoin="round"/>
<path fill-rule="evenodd" clip-rule="evenodd" d="M252.101 14.4888L227.057 1.94445L349 1L252.101 14.4888Z" fill="#E7BFFF"/>
<path d="M252.101 14.4888L227.057 1.94445L349 1L252.101 14.4888Z" stroke="black" stroke-width="0.57" stroke-linecap="round" stroke-linejoin="round"/>
<path d="M243.593 18.0972C235.906 20.8187 229.287 25.3639 224.512 31.1985C217.446 39.8439 215.015 60.8883 228.809 65.5621C238.674 68.9283 250.829 56.5293 245.543 52.6788C238.872 47.8354 229.035 62.753 229.798 79.6321" stroke="black" stroke-width="0.57" stroke-miterlimit="22.93" stroke-linecap="round"/>
</svg>
