<svg width="434" height="531" viewBox="0 0 434 531" fill="none" xmlns="http://www.w3.org/2000/svg">
<path fill-rule="evenodd" clip-rule="evenodd" d="M62.1085 454.758L120.083 486.89C120.537 487.165 120.853 487.576 120.968 488.042C121.084 488.509 120.991 488.995 120.708 489.405L98.162 524.504L5.41536 473.099C14.2233 458.065 29.4072 460.438 48.1406 462.219C56.2255 461.795 62.1085 454.758 62.1085 454.758Z" fill="#E7BFFF"/>
<path d="M62.1085 454.758L120.083 486.89C120.537 487.165 120.853 487.576 120.968 488.042C121.084 488.509 120.991 488.995 120.708 489.405L98.162 524.504L5.41536 473.099C14.2233 458.065 29.4072 460.438 48.1406 462.219C56.2255 461.795 62.1085 454.758 62.1085 454.758Z" stroke="black" stroke-width="0.57" stroke-linecap="round" stroke-linejoin="round"/>
<path d="M9.43948 467.761L103.35 519.781C104.326 520.322 104.608 521.441 103.979 522.281L98.5859 529.479C97.9568 530.319 96.6551 530.561 95.6786 530.02L1.76823 478C0.791653 477.459 0.509985 476.34 1.1391 475.5L6.53212 468.302C7.16123 467.462 8.4629 467.22 9.43948 467.761Z" fill="#E7BFFF"/>
<path d="M9.43948 467.761L103.35 519.781C104.326 520.322 104.608 521.441 103.979 522.281L98.5859 529.479C97.9568 530.319 96.6551 530.561 95.6786 530.02L1.76823 478C0.791653 477.459 0.509985 476.34 1.1391 475.5L6.53212 468.302C7.16123 467.462 8.4629 467.22 9.43948 467.761Z" stroke="black" stroke-width="0.57" stroke-linecap="round" stroke-linejoin="round"/>
<path fill-rule="evenodd" clip-rule="evenodd" d="M61.3526 454.843L57.0143 458.376C73.932 464.744 90.3939 471.972 106.313 480.023L61.3526 454.843Z" fill="black"/>
<path d="M61.3526 454.843L57.0143 458.376C73.932 464.744 90.3939 471.972 106.313 480.023L61.3526 454.843Z" stroke="black" stroke-width="0.57" stroke-miterlimit="22.93" stroke-linecap="round"/>
<path fill-rule="evenodd" clip-rule="evenodd" d="M313.53 476.942L381.266 465.469C381.813 465.393 382.374 465.5 382.832 465.768C383.29 466.036 383.612 466.444 383.731 466.91L395.825 505.626L287.566 523.996C281.782 507.915 294.83 504.976 309.718 495.114C315.173 489.942 313.53 476.942 313.53 476.942Z" fill="#E7BFFF"/>
<path d="M313.53 476.942L381.266 465.469C381.813 465.393 382.374 465.5 382.832 465.768C383.29 466.036 383.612 466.444 383.731 466.91L395.825 505.626L287.566 523.996C281.782 507.915 294.83 504.976 309.718 495.114C315.173 489.942 313.53 476.942 313.53 476.942Z" stroke="black" stroke-width="0.57" stroke-linecap="round" stroke-linejoin="round"/>
<path fill-rule="evenodd" clip-rule="evenodd" d="M287.008 517.722L321.746 517.383L395.661 499.127C395.931 499.077 396.21 499.075 396.481 499.12C396.752 499.164 397.01 499.255 397.24 499.387C397.469 499.518 397.666 499.688 397.818 499.886C397.97 500.084 398.075 500.306 398.126 500.54L400.065 509.018C400.146 509.487 400.018 509.966 399.708 510.358C399.397 510.751 398.927 511.029 398.389 511.137L323.258 529.591L288.815 529.732C287.665 529.732 286.449 529.308 286.35 528.319L285.331 519.841C285.233 518.852 285.956 517.722 287.008 517.722Z" fill="#E7BFFF"/>
<path d="M287.008 517.722L321.746 517.383L395.661 499.127C395.931 499.077 396.21 499.075 396.481 499.12C396.752 499.164 397.01 499.255 397.24 499.387C397.469 499.518 397.666 499.688 397.818 499.886C397.97 500.084 398.075 500.306 398.126 500.54L400.065 509.018C400.146 509.487 400.018 509.966 399.708 510.358C399.397 510.751 398.927 511.029 398.389 511.137L323.258 529.591L288.815 529.732C287.665 529.732 286.449 529.308 286.35 528.319L285.331 519.841C285.233 518.852 285.956 517.722 287.008 517.722Z" stroke="black" stroke-width="0.57" stroke-linecap="round" stroke-linejoin="round"/>
<path fill-rule="evenodd" clip-rule="evenodd" d="M313.925 477.31L313.662 482.425C331.018 476.919 348.729 472.277 366.707 468.521L313.925 477.31Z" fill="black"/>
<path d="M313.925 477.31L313.662 482.425C331.018 476.919 348.729 472.277 366.707 468.521L313.925 477.31Z" stroke="black" stroke-width="0.57" stroke-miterlimit="22.93" stroke-linecap="round"/>
<path fill-rule="evenodd" clip-rule="evenodd" d="M202.017 123.916C184.171 139.516 171.025 157.518 139.573 176.226C129.45 182.245 122.844 186.965 120.741 187.756C120.741 187.756 121.036 150.057 121.036 148.813C121.036 144.235 138.389 140.166 129.516 103.597C128.775 99.7078 128.336 95.7804 128.201 91.841C127.347 81.8652 117.98 80.1978 113.675 87.3194C111.604 90.7106 111.637 97.7756 112.064 101.789C112.459 105.265 108.515 102.947 93.7581 103.512C92.2057 103.455 90.6674 103.786 89.3286 104.464C87.9897 105.142 86.9076 106.139 86.2128 107.334C85.5179 108.528 85.24 109.871 85.4125 111.199C85.585 112.526 86.2005 113.783 87.1849 114.816C87.5465 115.24 77.3253 118.095 83.8984 126.912C75.6163 134.825 86.4619 138.809 86.7248 140.194C88.7296 150.905 79.9545 204.74 84.9172 215.734C96.5188 241.394 132.638 225.568 180.983 194.115C197.778 183.206 207.276 150.283 202.412 132.649C202.149 132.083 202.017 123.888 202.017 123.916Z" fill="#E7BFFF"/>
<path d="M202.017 123.916C184.171 139.516 171.025 157.518 139.573 176.226C129.45 182.245 122.844 186.965 120.741 187.756C120.741 187.756 121.036 150.057 121.036 148.813C121.036 144.235 138.389 140.166 129.516 103.597C128.775 99.7078 128.336 95.7804 128.201 91.841C127.347 81.8652 117.98 80.1978 113.675 87.3194C111.604 90.7106 111.637 97.7756 112.064 101.789C112.459 105.265 108.515 102.947 93.7581 103.512C92.2057 103.455 90.6674 103.786 89.3286 104.464C87.9897 105.142 86.9076 106.139 86.2128 107.334C85.5179 108.528 85.24 109.871 85.4125 111.199C85.585 112.526 86.2005 113.783 87.1849 114.816C87.5465 115.24 77.3253 118.095 83.8984 126.912C75.6163 134.825 86.4619 138.809 86.7248 140.194C88.7296 150.905 79.9545 204.74 84.9172 215.734C96.5188 241.394 132.638 225.568 180.983 194.115C197.778 183.206 207.276 150.283 202.412 132.649C202.149 132.083 202.017 123.888 202.017 123.916Z" stroke="black" stroke-width="0.57" stroke-miterlimit="22.93" stroke-linecap="round"/>
<path fill-rule="evenodd" clip-rule="evenodd" d="M120.708 185.75C120.708 187.021 120.708 197.563 120.708 200.699C120.9 196.105 122.222 191.597 124.586 187.474C124.586 187.474 126.886 183.969 126.361 184.365C124.75 185.312 123.032 186.117 121.234 186.767C121.168 186.598 120.839 185.778 120.708 185.75Z" fill="black"/>
<path d="M120.708 185.75C120.708 187.021 120.708 197.563 120.708 200.699C120.9 196.105 122.222 191.597 124.586 187.474C124.586 187.474 126.886 183.969 126.361 184.365C124.75 185.312 123.032 186.117 121.234 186.767C121.168 186.598 120.839 185.778 120.708 185.75Z" stroke="black" stroke-width="0.57" stroke-linecap="round" stroke-linejoin="round"/>
<path fill-rule="evenodd" clip-rule="evenodd" d="M202.05 125.753L190.974 134.655C184.401 160.881 174.542 176.254 169.415 201.943C175.988 197.252 180.753 193.465 187.326 188.661L202.05 125.753Z" fill="black"/>
<path d="M202.05 125.753L190.974 134.655C184.401 160.881 174.542 176.254 169.415 201.943C175.988 197.252 180.753 193.465 187.326 188.661L202.05 125.753Z" stroke="black" stroke-width="0.57" stroke-miterlimit="22.93" stroke-linecap="round"/>
<path fill-rule="evenodd" clip-rule="evenodd" d="M203.2 40.464C203.2 64.6265 203.2 64.2308 203.2 88.5063C203.2 152.403 169.415 165.883 167.311 231.588C166.917 243.598 179.406 242.1 181.542 258.237C197.317 261.543 239.55 248.289 255.325 251.567C271.035 248.289 312.577 275.108 328.32 271.83C355.96 167.437 297.623 147.118 297.722 92.7454V40.5771C297.82 -13.089 203.266 -11.2238 203.2 40.464Z" fill="#E7BFFF"/>
<path d="M203.2 40.464C203.2 64.6265 203.2 64.2308 203.2 88.5063C203.2 152.403 169.415 165.883 167.311 231.588C166.917 243.598 179.406 242.1 181.542 258.237C197.317 261.543 239.55 248.289 255.325 251.567C271.035 248.289 312.577 275.108 328.32 271.83C355.96 167.437 297.623 147.118 297.722 92.7454V40.5771C297.82 -13.089 203.266 -11.2238 203.2 40.464Z" stroke="black" stroke-width="0.57" stroke-linecap="round" stroke-linejoin="round"/>
<path fill-rule="evenodd" clip-rule="evenodd" d="M203.2 40.4648C203.2 64.6272 203.2 64.2316 203.2 88.5071C203.226 95.6175 202.765 102.723 201.82 109.787H299.562C298.283 104.202 297.633 98.5234 297.623 92.8309V40.6626C297.82 -13.0882 203.266 -11.223 203.2 40.4648Z" fill="#E7BFFF"/>
<path d="M203.2 40.4648C203.2 64.6272 203.2 64.2316 203.2 88.5071C203.226 95.6175 202.765 102.723 201.82 109.787H299.562C298.283 104.202 297.633 98.5234 297.623 92.8309V40.6626C297.82 -13.0882 203.266 -11.223 203.2 40.4648Z" stroke="black" stroke-width="0.57" stroke-linecap="round" stroke-linejoin="round"/>
<path fill-rule="evenodd" clip-rule="evenodd" d="M297.492 36.1969C292.825 -11.5062 208.426 -9.95193 203.43 36.1969H297.492Z" fill="#E7BFFF"/>
<path d="M297.492 36.1969C292.825 -11.5062 208.426 -9.95193 203.43 36.1969H297.492Z" stroke="black" stroke-width="0.57" stroke-linecap="round" stroke-linejoin="round"/>
<path fill-rule="evenodd" clip-rule="evenodd" d="M334.696 229.723C334.696 230.316 334.696 230.881 334.696 231.475C335.287 258.802 327.695 250.833 327.794 275.843C328.615 287.147 389.548 463.095 389.351 465.893C379.491 465.893 307.943 477.564 307.943 477.564C305.314 461.06 252.071 316.312 250.823 314.475L121.858 486.862C111.998 485.251 63.2916 455.465 61.1882 454.786C61.1882 454.786 168.33 296.53 170.795 290.878C171.124 271.745 165.668 247.47 166.687 229.553L334.696 229.723Z" fill="#E7BFFF"/>
<path d="M334.696 229.723C334.696 230.316 334.696 230.881 334.696 231.475C335.287 258.802 327.695 250.833 327.794 275.843C328.615 287.147 389.548 463.095 389.351 465.893C379.491 465.893 307.943 477.564 307.943 477.564C305.314 461.06 252.071 316.312 250.823 314.475L121.858 486.862C111.998 485.251 63.2916 455.465 61.1882 454.786C61.1882 454.786 168.33 296.53 170.795 290.878C171.124 271.745 165.668 247.47 166.687 229.553L334.696 229.723Z" stroke="black" stroke-width="0.57" stroke-linecap="round" stroke-linejoin="round"/>
<path fill-rule="evenodd" clip-rule="evenodd" d="M207.374 68.6112C208.46 68.6112 209.521 68.3345 210.424 67.8159C211.326 67.2973 212.03 66.5602 212.445 65.6979C212.861 64.8355 212.969 63.8866 212.757 62.9711C212.546 62.0556 212.023 61.2147 211.255 60.5546C210.488 59.8946 209.51 59.4451 208.445 59.263C207.38 59.0809 206.277 59.1744 205.274 59.5316C204.271 59.8888 203.414 60.4937 202.811 61.2698C202.208 62.0459 201.886 62.9584 201.886 63.8918C201.886 65.1435 202.464 66.3439 203.493 67.229C204.523 68.114 205.919 68.6112 207.374 68.6112Z" fill="#FEFEFE"/>
<path d="M207.374 68.6112C208.46 68.6112 209.521 68.3345 210.424 67.8159C211.326 67.2973 212.03 66.5602 212.445 65.6979C212.861 64.8355 212.969 63.8866 212.757 62.9711C212.546 62.0556 212.023 61.2147 211.255 60.5546C210.488 59.8946 209.51 59.4451 208.445 59.263C207.38 59.0809 206.277 59.1744 205.274 59.5316C204.271 59.8888 203.414 60.4937 202.811 61.2698C202.208 62.0459 201.886 62.9584 201.886 63.8918C201.886 65.1435 202.464 66.3439 203.493 67.229C204.523 68.114 205.919 68.6112 207.374 68.6112Z" stroke="black" stroke-width="0.57" stroke-linecap="round" stroke-linejoin="round"/>
<path fill-rule="evenodd" clip-rule="evenodd" d="M253.485 59.1724C252.399 59.1724 251.338 59.4491 250.435 59.9677C249.533 60.4863 248.829 61.2234 248.414 62.0857C247.998 62.9481 247.89 63.897 248.102 64.8125C248.313 65.728 248.836 66.5689 249.604 67.229C250.371 67.889 251.349 68.3385 252.414 68.5206C253.479 68.7027 254.582 68.6092 255.585 68.252C256.588 67.8948 257.445 67.2899 258.048 66.5138C258.651 65.7377 258.973 64.8252 258.973 63.8918C258.973 62.6401 258.395 61.4397 257.366 60.5546C256.336 59.6696 254.94 59.1724 253.485 59.1724Z" fill="#FEFEFE"/>
<path d="M253.485 59.1724C252.399 59.1724 251.338 59.4491 250.435 59.9677C249.533 60.4863 248.829 61.2234 248.414 62.0857C247.998 62.9481 247.89 63.897 248.102 64.8125C248.313 65.728 248.836 66.5689 249.604 67.229C250.371 67.889 251.349 68.3385 252.414 68.5206C253.479 68.7027 254.582 68.6092 255.585 68.252C256.588 67.8948 257.445 67.2899 258.048 66.5138C258.651 65.7377 258.973 64.8252 258.973 63.8918C258.973 62.6401 258.395 61.4397 257.366 60.5546C256.336 59.6696 254.94 59.1724 253.485 59.1724Z" stroke="black" stroke-width="0.57" stroke-linecap="round" stroke-linejoin="round"/>
<path d="M246.517 301.673C246.517 290.115 224.432 291.217 216.379 274.769" stroke="black" stroke-width="0.57" stroke-linecap="round" stroke-linejoin="round"/>
<path d="M209.445 45.5795C207.28 45.3209 205.074 45.6157 203.102 46.4273" stroke="black" stroke-width="0.57" stroke-miterlimit="22.93" stroke-linecap="round"/>
<path d="M251.151 45.5794C253.317 45.3157 255.524 45.6108 257.494 46.4272" stroke="black" stroke-width="0.57" stroke-miterlimit="22.93" stroke-linecap="round"/>
<path fill-rule="evenodd" clip-rule="evenodd" d="M296.834 102.325H203.168C201.402 102.325 199.71 102.928 198.462 104.002C197.213 105.075 196.512 106.53 196.512 108.048C196.512 109.566 197.213 111.021 198.462 112.095C199.71 113.168 201.402 113.771 203.168 113.771H296.834C298.599 113.771 300.292 113.168 301.54 112.095C302.789 111.021 303.49 109.566 303.49 108.048C303.49 106.53 302.789 105.075 301.54 104.002C300.292 102.928 298.599 102.325 296.834 102.325Z" fill="#E7BFFF"/>
<path d="M296.834 102.325H203.168C201.402 102.325 199.71 102.928 198.462 104.002C197.213 105.075 196.512 106.53 196.512 108.048C196.512 109.566 197.213 111.021 198.462 112.095C199.71 113.168 201.402 113.771 203.168 113.771H296.834C298.599 113.771 300.292 113.168 301.54 112.095C302.789 111.021 303.49 109.566 303.49 108.048C303.49 106.53 302.789 105.075 301.54 104.002C300.292 102.928 298.599 102.325 296.834 102.325Z" stroke="black" stroke-width="0.57" stroke-miterlimit="22.93" stroke-linecap="round"/>
<path d="M297.722 35.7729H153.606" stroke="black" stroke-width="0.57" stroke-miterlimit="22.93" stroke-linecap="round"/>
<path fill-rule="evenodd" clip-rule="evenodd" d="M201.853 113.489L200.44 118.491C218.696 115.953 237.111 114.349 255.588 113.686L201.853 113.489Z" fill="black"/>
<path d="M201.853 113.489L200.44 118.491C218.696 115.953 237.111 114.349 255.588 113.686L201.853 113.489Z" stroke="black" stroke-width="0.57" stroke-miterlimit="22.93" stroke-linecap="round"/>
<path fill-rule="evenodd" clip-rule="evenodd" d="M204.646 35.5753L203.233 40.5774C221.489 38.0396 239.905 36.4354 258.382 35.7732L204.646 35.5753Z" fill="black"/>
<path d="M204.646 35.5753L203.233 40.5774C221.489 38.0396 239.905 36.4354 258.382 35.7732L204.646 35.5753Z" stroke="black" stroke-width="0.57" stroke-miterlimit="22.93" stroke-linecap="round"/>
<path fill-rule="evenodd" clip-rule="evenodd" d="M207.933 63.0723C207.764 63.0721 207.602 63.1277 207.479 63.2277C207.357 63.3277 207.284 63.4643 207.276 63.6092C207.276 63.6822 207.293 63.7544 207.326 63.8214C207.36 63.8885 207.408 63.949 207.47 63.9992C207.532 64.0495 207.604 64.0884 207.684 64.1137C207.763 64.139 207.848 64.15 207.933 64.1461C208.099 64.1461 208.257 64.0896 208.374 63.9889C208.492 63.8882 208.557 63.7516 208.557 63.6092C208.549 63.469 208.481 63.3364 208.366 63.2371C208.25 63.1379 208.096 63.0791 207.933 63.0723Z" fill="black"/>
<path d="M207.933 63.0723C207.764 63.0721 207.602 63.1277 207.479 63.2277C207.357 63.3277 207.284 63.4643 207.276 63.6092C207.276 63.6822 207.293 63.7544 207.326 63.8214C207.36 63.8885 207.408 63.949 207.47 63.9992C207.532 64.0495 207.604 64.0884 207.684 64.1137C207.763 64.139 207.848 64.15 207.933 64.1461C208.099 64.1461 208.257 64.0896 208.374 63.9889C208.492 63.8882 208.557 63.7516 208.557 63.6092C208.549 63.469 208.481 63.3364 208.366 63.2371C208.25 63.1379 208.096 63.0791 207.933 63.0723Z" stroke="black" stroke-width="0.57" stroke-linecap="round" stroke-linejoin="round"/>
<path fill-rule="evenodd" clip-rule="evenodd" d="M253.386 64.2028C253.552 64.2028 253.71 64.1462 253.828 64.0455C253.945 63.9448 254.01 63.8083 254.01 63.6659C254.01 63.5235 253.945 63.3869 253.828 63.2862C253.71 63.1855 253.552 63.1289 253.386 63.1289C253.22 63.1289 253.062 63.1855 252.945 63.2862C252.827 63.3869 252.762 63.5235 252.762 63.6659C252.762 63.8083 252.827 63.9448 252.945 64.0455C253.062 64.1462 253.22 64.2028 253.386 64.2028Z" fill="black"/>
<path d="M253.386 64.2028C253.552 64.2028 253.71 64.1462 253.828 64.0455C253.945 63.9448 254.01 63.8083 254.01 63.6659C254.01 63.5235 253.945 63.3869 253.828 63.2862C253.71 63.1855 253.552 63.1289 253.386 63.1289C253.22 63.1289 253.062 63.1855 252.945 63.2862C252.827 63.3869 252.762 63.5235 252.762 63.6659C252.762 63.8083 252.827 63.9448 252.945 64.0455C253.062 64.1462 253.22 64.2028 253.386 64.2028Z" stroke="black" stroke-width="0.57" stroke-linecap="round" stroke-linejoin="round"/>
<path d="M252.433 317.046L246.517 300.712" stroke="black" stroke-width="0.57" stroke-miterlimit="22.93" stroke-linecap="round"/>
<path fill-rule="evenodd" clip-rule="evenodd" d="M335.024 211.664L288.059 169.924C288.947 171.902 302.323 184.309 316.126 200.389C316.652 200.982 336.503 229.581 335.616 229.723C334.728 229.864 335.024 211.664 335.024 211.664Z" fill="black"/>
<path d="M335.024 211.664L288.059 169.924C288.947 171.902 302.323 184.309 316.126 200.389C316.652 200.982 336.503 229.581 335.616 229.723C334.728 229.864 335.024 211.664 335.024 211.664Z" stroke="black" stroke-width="0.57" stroke-miterlimit="22.93" stroke-linecap="round"/>
<path fill-rule="evenodd" clip-rule="evenodd" d="M408.019 278.697C409.695 277.313 412.258 294.269 414.953 296.36C420.146 300.316 425.733 291.584 425.93 288.56C425.93 287.062 441.476 289.549 429.414 269.117C425.569 262.646 405.258 241.366 399.178 233.029C371.406 194.708 330.916 147.118 299.398 129.569C294.994 127.138 285.233 133.101 283.162 134.684C279.876 137.227 277.739 140.844 281.256 153.816C284.937 167.494 271.002 163.905 287.04 164.837C318.821 196.404 334.728 211.58 360.199 247.47C365.655 255.157 370.256 260.159 371.702 265.415C372.951 269.852 371.143 274.232 373.477 282.371C375.022 288.023 390.797 295.964 394.051 292.262C396.154 289.832 395.694 287.741 393.426 277.991C392.868 275.561 391.323 265.698 392.572 264.228C395.267 260.554 405.521 273.328 408.019 278.584" fill="#E7BFFF"/>
<path d="M406.31 275.815C409.8 281.014 411.952 286.796 412.62 292.771C413.211 296.897 416.662 297.208 419.719 296.106C423.991 294.551 425.503 290.454 424.123 282.23C422.589 275.23 419.474 268.558 414.953 262.589C412.324 259.17 417.024 255.807 413.146 250.692C396.91 231.107 357.274 174.389 306.793 132.564" stroke="black" stroke-width="0.57" stroke-linecap="round" stroke-linejoin="round"/>
<path d="M408.019 278.698C405.521 273.441 395.267 260.668 392.572 264.341C391.323 265.811 392.868 275.645 393.426 278.104C394.314 281.976 396.516 286.073 396.713 288.278C397.469 295.795 383.172 292.347 378.177 287.656C368.547 278.613 371.998 266.998 371.604 265.415C370.519 260.046 363.913 252.839 360.101 247.47C334.63 211.58 310.244 191.43 278.397 159.864" stroke="black" stroke-width="0.57" stroke-linecap="round" stroke-linejoin="round"/>
<path fill-rule="evenodd" clip-rule="evenodd" d="M398.685 264.963C405.915 271.124 416.794 293.364 411.502 301.164C408.939 304.979 402.76 305.855 400.788 303.99C395.99 299.384 398.422 296.445 395.168 288.051C392.276 280.764 388.025 273.93 382.581 267.817C378.177 263.183 383.534 256.004 395.037 262.561C396.372 263.217 397.599 264.025 398.685 264.963Z" fill="#E7BFFF"/>
<path d="M398.685 264.963C405.915 271.124 416.794 293.364 411.502 301.164C408.939 304.979 402.76 305.855 400.788 303.99C395.99 299.384 398.422 296.445 395.168 288.051C392.276 280.764 388.025 273.93 382.581 267.817C378.177 263.183 383.534 256.004 395.037 262.561C396.372 263.217 397.599 264.025 398.685 264.963Z" stroke="black" stroke-width="0.57" stroke-miterlimit="22.93" stroke-linecap="round"/>
<path d="M406.408 242.637C406.967 244.107 423.433 258.35 429.907 270.756C433.522 277.68 434.344 288.447 425.93 288.56" stroke="black" stroke-width="0.57" stroke-miterlimit="22.93" stroke-linecap="round"/>
<path fill-rule="evenodd" clip-rule="evenodd" d="M382.088 249.9C379.105 251.492 376.962 254.021 376.115 256.95C375.268 259.88 375.783 262.977 377.552 265.585C378.271 266.928 379.295 268.134 380.564 269.132C381.833 270.129 383.322 270.898 384.942 271.393C386.563 271.889 388.282 272.1 389.999 272.015C391.715 271.929 393.395 271.55 394.938 270.898C397.915 269.301 400.052 266.772 400.899 263.845C401.745 260.918 401.234 257.822 399.474 255.213C398.751 253.872 397.725 252.669 396.456 251.674C395.186 250.678 393.698 249.911 392.079 249.416C390.46 248.921 388.742 248.709 387.026 248.792C385.311 248.875 383.632 249.252 382.088 249.9Z" fill="#E7BFFF"/>
<path fill-rule="evenodd" clip-rule="evenodd" d="M402.431 242.581C400.065 243.683 403.122 266.122 412.061 262.815C421 259.509 423.334 273.695 425.667 272.565C428.001 271.435 424.419 264.652 422.545 261.6C420.672 258.548 404.765 241.479 402.431 242.581Z" fill="#E7BFFF"/>
<path d="M386.229 272.706C384.783 270.587 382.252 270.869 383.961 274.345C385.484 277.327 388.137 279.778 391.487 281.297" stroke="black" stroke-width="0.57" stroke-miterlimit="22.93" stroke-linecap="round"/>
<path d="M244.808 77.7111C243.526 80.3675 239.944 80.7066 236.986 80.7066" stroke="#373435" stroke-width="0.57" stroke-miterlimit="22.93" stroke-linecap="round"/>
<path d="M109.369 103.852C119.229 104.869 121.825 116.71 108.975 116.201C103.946 116.004 97.439 115.523 97.8663 115.608C99.4438 115.919 119.393 116.823 113.445 124.397C109.698 129.173 94.0867 127.223 94.6126 127.223C97.9628 127.501 101.232 128.275 104.275 129.512C113.51 132.677 111.144 139.375 102.106 140.053C99.8053 140.223 96.4859 140.279 94.0867 140.279" stroke="black" stroke-width="0.57" stroke-miterlimit="22.93" stroke-linecap="round"/>
</svg>
