<svg width="3010" height="374" viewBox="0 0 3010 374" fill="none" xmlns="http://www.w3.org/2000/svg">
<path d="M0.605113 369V5.36363H144.071C171.652 5.36363 195.148 10.6311 214.561 21.1662C233.974 31.5829 248.77 46.0833 258.95 64.6676C269.249 83.1335 274.398 104.44 274.398 128.588C274.398 152.736 269.189 174.043 258.773 192.509C248.356 210.974 233.264 225.357 213.496 235.655C193.846 245.953 170.054 251.102 142.118 251.102H50.6761V189.49H129.689C144.485 189.49 156.678 186.945 166.266 181.855C175.972 176.647 183.193 169.485 187.928 160.371C192.781 151.138 195.207 140.544 195.207 128.588C195.207 116.514 192.781 105.979 187.928 96.9829C183.193 87.8684 175.972 80.8253 166.266 75.8537C156.559 70.7637 144.249 68.2188 129.334 68.2188H77.4872V369H0.605113ZM682.248 187.182C682.248 226.836 674.731 260.572 659.698 288.389C644.783 316.206 624.423 337.454 598.618 352.132C572.932 366.692 544.049 373.972 511.971 373.972C479.655 373.972 450.654 366.633 424.968 351.955C399.281 337.277 378.98 316.029 364.066 288.212C349.151 260.394 341.694 226.718 341.694 187.182C341.694 147.527 349.151 113.792 364.066 85.9744C378.98 58.1572 399.281 36.9687 424.968 22.4091C450.654 7.73105 479.655 0.392032 511.971 0.392032C544.049 0.392032 572.932 7.73105 598.618 22.4091C624.423 36.9687 644.783 58.1572 659.698 85.9744C674.731 113.792 682.248 147.527 682.248 187.182ZM604.3 187.182C604.3 161.495 600.453 139.833 592.759 122.196C585.183 104.559 574.471 91.1828 560.621 82.0682C546.772 72.9536 530.555 68.3963 511.971 68.3963C493.386 68.3963 477.169 72.9536 463.32 82.0682C449.471 91.1828 438.699 104.559 431.005 122.196C423.429 139.833 419.641 161.495 419.641 187.182C419.641 212.868 423.429 234.53 431.005 252.168C438.699 269.805 449.471 283.181 463.32 292.295C477.169 301.41 493.386 305.967 511.971 305.967C530.555 305.967 546.772 301.41 560.621 292.295C574.471 283.181 585.183 269.805 592.759 252.168C600.453 234.53 604.3 212.868 604.3 187.182ZM762.949 369V5.36363H906.415C933.877 5.36363 957.314 10.276 976.727 20.1008C996.259 29.8073 1011.11 43.5975 1021.29 61.4716C1031.59 79.2273 1036.74 100.12 1036.74 124.149C1036.74 148.297 1031.53 169.071 1021.12 186.472C1010.7 203.754 995.607 217.011 975.839 226.244C956.19 235.477 932.397 240.094 904.462 240.094H808.403V178.304H892.033C906.711 178.304 918.903 176.292 928.609 172.267C938.316 168.242 945.536 162.205 950.271 154.156C955.125 146.107 957.551 136.105 957.551 124.149C957.551 112.075 955.125 101.895 950.271 93.6094C945.536 85.3234 938.257 79.0497 928.432 74.7883C918.725 70.4086 906.474 68.2188 891.678 68.2188H839.831V369H762.949ZM959.327 203.517L1049.7 369H964.831L876.408 203.517H959.327ZM1100.97 68.7514V5.36363H1399.62V68.7514H1288.3V369H1212.3V68.7514H1100.97ZM1472.56 369V5.36363H1713.33V68.7514H1549.44V155.399H1697.35V218.787H1549.44V369H1472.56ZM2122.95 187.182C2122.95 226.836 2115.43 260.572 2100.4 288.389C2085.49 316.206 2065.13 337.454 2039.32 352.132C2013.63 366.692 1984.75 373.972 1952.67 373.972C1920.36 373.972 1891.36 366.633 1865.67 351.955C1839.98 337.277 1819.68 316.029 1804.77 288.212C1789.85 260.394 1782.4 226.718 1782.4 187.182C1782.4 147.527 1789.85 113.792 1804.77 85.9744C1819.68 58.1572 1839.98 36.9687 1865.67 22.4091C1891.36 7.73105 1920.36 0.392032 1952.67 0.392032C1984.75 0.392032 2013.63 7.73105 2039.32 22.4091C2065.13 36.9687 2085.49 58.1572 2100.4 85.9744C2115.43 113.792 2122.95 147.527 2122.95 187.182ZM2045 187.182C2045 161.495 2041.16 139.833 2033.46 122.196C2025.89 104.559 2015.17 91.1828 2001.32 82.0682C1987.47 72.9536 1971.26 68.3963 1952.67 68.3963C1934.09 68.3963 1917.87 72.9536 1904.02 82.0682C1890.17 91.1828 1879.4 104.559 1871.71 122.196C1864.13 139.833 1860.34 161.495 1860.34 187.182C1860.34 212.868 1864.13 234.53 1871.71 252.168C1879.4 269.805 1890.17 283.181 1904.02 292.295C1917.87 301.41 1934.09 305.967 1952.67 305.967C1971.26 305.967 1987.47 301.41 2001.32 292.295C2015.17 283.181 2025.89 269.805 2033.46 252.168C2041.16 234.53 2045 212.868 2045 187.182ZM2203.65 369V5.36363H2280.53V305.612H2436.43V369H2203.65ZM2587.98 5.36363V369H2511.09V5.36363H2587.98ZM3009.14 187.182C3009.14 226.836 3001.63 260.572 2986.59 288.389C2971.68 316.206 2951.32 337.454 2925.51 352.132C2899.83 366.692 2870.94 373.972 2838.87 373.972C2806.55 373.972 2777.55 366.633 2751.86 351.955C2726.18 337.277 2705.88 316.029 2690.96 288.212C2676.05 260.394 2668.59 226.718 2668.59 187.182C2668.59 147.527 2676.05 113.792 2690.96 85.9744C2705.88 58.1572 2726.18 36.9687 2751.86 22.4091C2777.55 7.73105 2806.55 0.392032 2838.87 0.392032C2870.94 0.392032 2899.83 7.73105 2925.51 22.4091C2951.32 36.9687 2971.68 58.1572 2986.59 85.9744C3001.63 113.792 3009.14 147.527 3009.14 187.182ZM2931.19 187.182C2931.19 161.495 2927.35 139.833 2919.65 122.196C2912.08 104.559 2901.37 91.1828 2887.52 82.0682C2873.67 72.9536 2857.45 68.3963 2838.87 68.3963C2820.28 68.3963 2804.06 72.9536 2790.21 82.0682C2776.37 91.1828 2765.59 104.559 2757.9 122.196C2750.32 139.833 2746.54 161.495 2746.54 187.182C2746.54 212.868 2750.32 234.53 2757.9 252.168C2765.59 269.805 2776.37 283.181 2790.21 292.295C2804.06 301.41 2820.28 305.967 2838.87 305.967C2857.45 305.967 2873.67 301.41 2887.52 292.295C2901.37 283.181 2912.08 269.805 2919.65 252.168C2927.35 234.53 2931.19 212.868 2931.19 187.182Z" fill="black" fill-opacity="0.04"/>
</svg>
