<svg width="1440" height="374" viewBox="0 0 1440 374" fill="none" xmlns="http://www.w3.org/2000/svg">
<path d="M-124.395 369V5.36363H19.071C46.6515 5.36363 70.1482 10.6311 89.5611 21.1662C108.974 31.5829 123.77 46.0833 133.95 64.6676C144.249 83.1335 149.398 104.44 149.398 128.588C149.398 152.736 144.189 174.043 133.773 192.509C123.356 210.974 108.264 225.357 88.4957 235.655C68.8461 245.953 45.0535 251.102 17.1179 251.102H-74.3239V189.49H4.68892C19.4853 189.49 31.6776 186.945 41.2656 181.855C50.9721 176.647 58.1927 169.485 62.9276 160.371C67.7808 151.138 70.2074 140.544 70.2074 128.588C70.2074 116.514 67.7808 105.979 62.9276 96.9829C58.1927 87.8684 50.9721 80.8253 41.2656 75.8537C31.5592 70.7637 19.2486 68.2188 4.33381 68.2188H-47.5128V369H-124.395ZM557.248 187.182C557.248 226.836 549.731 260.572 534.698 288.389C519.783 316.206 499.423 337.454 473.618 352.132C447.932 366.692 419.049 373.972 386.971 373.972C354.655 373.972 325.654 366.633 299.968 351.955C274.281 337.277 253.98 316.029 239.066 288.212C224.151 260.394 216.694 226.718 216.694 187.182C216.694 147.527 224.151 113.792 239.066 85.9744C253.98 58.1572 274.281 36.9687 299.968 22.4091C325.654 7.73105 354.655 0.392032 386.971 0.392032C419.049 0.392032 447.932 7.73105 473.618 22.4091C499.423 36.9687 519.783 58.1572 534.698 85.9744C549.731 113.792 557.248 147.527 557.248 187.182ZM479.3 187.182C479.3 161.495 475.453 139.833 467.759 122.196C460.183 104.559 449.471 91.1828 435.621 82.0682C421.772 72.9536 405.555 68.3963 386.971 68.3963C368.386 68.3963 352.169 72.9536 338.32 82.0682C324.471 91.1828 313.699 104.559 306.005 122.196C298.429 139.833 294.641 161.495 294.641 187.182C294.641 212.868 298.429 234.53 306.005 252.168C313.699 269.805 324.471 283.181 338.32 292.295C352.169 301.41 368.386 305.967 386.971 305.967C405.555 305.967 421.772 301.41 435.621 292.295C449.471 283.181 460.183 269.805 467.759 252.168C475.453 234.53 479.3 212.868 479.3 187.182ZM637.949 369V5.36363H781.415C808.877 5.36363 832.314 10.276 851.727 20.1008C871.259 29.8073 886.114 43.5975 896.294 61.4716C906.592 79.2273 911.741 100.12 911.741 124.149C911.741 148.297 906.533 169.071 896.116 186.472C885.7 203.754 870.607 217.011 850.839 226.244C831.19 235.477 807.397 240.094 779.462 240.094H683.403V178.304H767.033C781.711 178.304 793.903 176.292 803.609 172.267C813.316 168.242 820.536 162.205 825.271 154.156C830.125 146.107 832.551 136.105 832.551 124.149C832.551 112.075 830.125 101.895 825.271 93.6094C820.536 85.3234 813.257 79.0497 803.432 74.7883C793.725 70.4086 781.474 68.2188 766.678 68.2188H714.831V369H637.949ZM834.327 203.517L924.703 369H839.831L751.408 203.517H834.327ZM975.974 68.7514V5.36363H1274.62V68.7514H1163.3V369H1087.3V68.7514H975.974ZM1347.56 369V5.36363H1588.33V68.7514H1424.44V155.399H1572.35V218.787H1424.44V369H1347.56ZM1997.95 187.182C1997.95 226.836 1990.43 260.572 1975.4 288.389C1960.49 316.206 1940.13 337.454 1914.32 352.132C1888.63 366.692 1859.75 373.972 1827.67 373.972C1795.36 373.972 1766.36 366.633 1740.67 351.955C1714.98 337.277 1694.68 316.029 1679.77 288.212C1664.85 260.394 1657.4 226.718 1657.4 187.182C1657.4 147.527 1664.85 113.792 1679.77 85.9744C1694.68 58.1572 1714.98 36.9687 1740.67 22.4091C1766.36 7.73105 1795.36 0.392032 1827.67 0.392032C1859.75 0.392032 1888.63 7.73105 1914.32 22.4091C1940.13 36.9687 1960.49 58.1572 1975.4 85.9744C1990.43 113.792 1997.95 147.527 1997.95 187.182ZM1920 187.182C1920 161.495 1916.16 139.833 1908.46 122.196C1900.89 104.559 1890.17 91.1828 1876.32 82.0682C1862.47 72.9536 1846.26 68.3963 1827.67 68.3963C1809.09 68.3963 1792.87 72.9536 1779.02 82.0682C1765.17 91.1828 1754.4 104.559 1746.71 122.196C1739.13 139.833 1735.34 161.495 1735.34 187.182C1735.34 212.868 1739.13 234.53 1746.71 252.168C1754.4 269.805 1765.17 283.181 1779.02 292.295C1792.87 301.41 1809.09 305.967 1827.67 305.967C1846.26 305.967 1862.47 301.41 1876.32 292.295C1890.17 283.181 1900.89 269.805 1908.46 252.168C1916.16 234.53 1920 212.868 1920 187.182ZM2078.65 369V5.36363H2155.53V305.612H2311.43V369H2078.65ZM2462.98 5.36363V369H2386.09V5.36363H2462.98ZM2884.14 187.182C2884.14 226.836 2876.63 260.572 2861.59 288.389C2846.68 316.206 2826.32 337.454 2800.51 352.132C2774.83 366.692 2745.94 373.972 2713.87 373.972C2681.55 373.972 2652.55 366.633 2626.86 351.955C2601.18 337.277 2580.88 316.029 2565.96 288.212C2551.05 260.394 2543.59 226.718 2543.59 187.182C2543.59 147.527 2551.05 113.792 2565.96 85.9744C2580.88 58.1572 2601.18 36.9687 2626.86 22.4091C2652.55 7.73105 2681.55 0.392032 2713.87 0.392032C2745.94 0.392032 2774.83 7.73105 2800.51 22.4091C2826.32 36.9687 2846.68 58.1572 2861.59 85.9744C2876.63 113.792 2884.14 147.527 2884.14 187.182ZM2806.19 187.182C2806.19 161.495 2802.35 139.833 2794.65 122.196C2787.08 104.559 2776.37 91.1828 2762.52 82.0682C2748.67 72.9536 2732.45 68.3963 2713.87 68.3963C2695.28 68.3963 2679.06 72.9536 2665.21 82.0682C2651.37 91.1828 2640.59 104.559 2632.9 122.196C2625.32 139.833 2621.54 161.495 2621.54 187.182C2621.54 212.868 2625.32 234.53 2632.9 252.168C2640.59 269.805 2651.37 283.181 2665.21 292.295C2679.06 301.41 2695.28 305.967 2713.87 305.967C2732.45 305.967 2748.67 301.41 2762.52 292.295C2776.37 283.181 2787.08 269.805 2794.65 252.168C2802.35 234.53 2806.19 212.868 2806.19 187.182Z" fill="black" fill-opacity="0.04"/>
</svg>
