<svg width="414" height="326" viewBox="0 0 414 326" fill="none" xmlns="http://www.w3.org/2000/svg">
<path d="M304.258 265.407C307.247 269.45 310.323 273.417 313.657 277.221H313.647C309.307 277.921 299.534 278.419 299.534 278.419L272.4 248.832C275.012 245.402 277.134 241.626 278.705 237.612C279.146 236.626 279.5 235.61 279.864 234.594C280.247 233.588 280.564 232.563 280.899 231.538C281.177 230.685 281.416 229.823 281.646 228.961C283.432 232.849 285.424 236.639 287.615 240.314C288.87 242.489 290.212 244.616 291.524 246.753C292.866 248.88 294.245 250.978 295.606 253.086C298.413 257.254 301.259 261.383 304.258 265.407Z" fill="#020202"/>
<path d="M329.993 276.129C324.592 276.99 319.124 277.356 313.657 277.221C311.309 272.746 308.742 268.425 306.116 264.162C304.823 262.006 303.443 259.918 302.111 257.79L298.001 251.496L293.805 245.268C292.358 243.217 290.978 241.129 289.503 239.098C286.983 235.476 284.386 231.931 281.809 228.328C282.068 227.322 282.355 226.316 282.585 225.3C283.016 223.193 283.476 221.095 283.754 218.958C284.07 216.831 284.31 214.704 284.453 212.558C284.664 210.421 284.635 208.265 284.683 206.129C284.645 203.982 284.54 201.846 284.338 199.709C283.898 201.817 283.629 203.925 283.275 206.024L282.748 209.157C282.575 210.201 282.441 211.245 282.23 212.28C282.029 213.324 281.838 214.359 281.675 215.403C281.512 216.438 281.272 217.463 281.071 218.498C280.688 220.567 280.218 222.618 279.778 224.668C279.308 226.709 278.848 228.769 278.293 230.791C277.804 232.832 277.172 234.834 276.606 236.855C275.405 240.915 274.001 244.912 272.4 248.832C249.329 291.985 226.526 311.253 226.526 311.253C157.321 356.581 115.509 280.814 115.509 280.814V280.804C123.921 277.068 132.381 271.501 138.868 263.213L133.205 232.86C133.205 232.86 137.086 232.017 142.978 230.225C143.371 231.653 143.783 233.071 144.204 234.489C145.21 237.852 146.283 241.205 147.481 244.511C149.818 251.169 152.583 257.669 155.759 263.97C159.007 270.236 162.744 276.387 167.86 281.533C170.416 284.224 173.548 286.304 177.02 287.616C180.648 288.911 184.636 288.757 188.153 287.185C191.485 285.627 194.443 283.369 196.824 280.565C199.174 277.886 201.28 275.004 203.119 271.951C206.827 266.011 210.602 260.1 214.501 254.274C222.329 242.652 230.575 231.321 239.24 220.28C243.571 214.78 248.01 209.373 252.558 204.059C257.109 198.761 261.794 193.568 266.805 188.787C269.237 186.395 271.901 184.251 274.757 182.386C275.982 181.539 277.397 181.006 278.877 180.835C279.605 180.72 280.947 182.003 281.981 183.211C284.126 185.878 286.076 188.695 287.816 191.642C289.627 194.602 291.333 197.649 293.009 200.706C296.401 206.809 299.553 213.046 302.725 219.284C305.886 225.531 308.975 231.819 311.99 238.149C318.093 250.758 324.043 263.443 329.993 276.129Z" fill="#020202"/>
<path d="M176.655 215.384C178.38 214.301 180.066 213.161 181.695 211.954C184.656 217.291 188.804 225.454 188.804 229.296C187.563 229.722 186.361 230.254 185.211 230.887C184.969 229.633 184.623 228.403 184.177 227.207C183.64 225.745 183.007 224.321 182.279 222.944C181.556 221.566 180.736 220.24 179.827 218.977C178.913 217.661 177.848 216.455 176.655 215.384V215.384Z" fill="#020202"/>
<path d="M330.127 276.11L330.271 276.042C325.183 262.964 319.722 250.03 314.03 237.201C308.272 224.4 302.38 211.638 295.702 199.23C294.025 196.136 292.281 193.07 290.432 190.042C288.612 186.946 286.542 184.005 284.243 181.246C283.608 180.518 282.916 179.842 282.173 179.225C281.749 178.871 281.282 178.572 280.784 178.334C280.48 178.182 280.158 178.069 279.826 177.999C279.52 177.938 279.208 177.909 278.896 177.912C277.825 177.942 276.77 178.183 275.792 178.621C274.915 179.001 274.069 179.449 273.263 179.963C270.267 181.971 267.478 184.272 264.937 186.832C259.93 191.813 255.212 197.076 250.804 202.593C246.34 208.036 242.143 213.669 237.985 219.331C229.697 230.676 221.706 242.212 213.735 253.757L201.778 271.08C199.877 273.965 197.729 276.68 195.358 279.195C193.082 281.664 190.319 283.634 187.243 284.982C184.252 286.232 180.898 286.308 177.854 285.193C174.754 283.977 171.954 282.108 169.642 279.712C167.216 277.295 165.033 274.644 163.127 271.798C161.169 268.939 159.365 265.978 157.724 262.926C154.417 256.784 151.467 250.456 148.89 243.974C147.606 240.726 146.332 237.469 145.134 234.182C144.636 232.793 144.137 231.394 143.668 230.005C152.463 227.284 165.379 222.532 176.656 215.384C176.868 216.973 177.264 218.533 177.834 220.031C178.92 222.954 180.386 225.721 182.194 228.261C182.934 229.301 183.757 230.278 184.656 231.183C184.273 231.394 183.88 231.624 183.497 231.854C181.845 232.871 180.264 233.998 178.764 235.227C177.26 236.464 175.85 237.813 174.548 239.261C173.218 240.725 172.081 242.354 171.166 244.109C172.858 243.148 174.493 242.089 176.062 240.937C177.624 239.816 179.128 238.657 180.594 237.44C182.06 236.233 183.497 234.968 184.877 233.636C186.296 232.293 187.609 230.842 188.805 229.296L197.217 222.235C197.217 222.235 248.649 166.022 261.2 161.155C276.112 158.937 291.301 159.401 306.049 162.525C321.82 190.655 335.971 212.05 339.162 229.018C342.688 247.749 355.172 266.749 355.172 266.749C347.708 272.191 338.175 274.835 330.127 276.11Z" fill="#020202"/>
<path d="M135.195 70.8839C136.882 72.6925 138.346 74.5012 139.832 76.3973C141.339 78.2682 142.661 80.2809 143.78 82.407C143.912 82.6826 144.044 82.959 144.175 83.2028C144.293 83.4602 144.439 83.7034 144.612 83.9275C144.934 84.3845 145.34 84.7759 145.808 85.0807C146.815 85.633 147.935 85.9447 149.083 85.9911C149.399 86.0198 149.712 86.0754 150.018 86.1572C150.206 86.2056 150.382 86.2885 150.539 86.4018C150.63 86.4806 150.711 86.5694 150.782 86.6666C150.83 86.7807 150.869 86.8985 150.898 87.0189C150.877 87.7145 150.612 88.3806 150.149 88.9C149.377 89.8539 148.494 90.7127 147.519 91.4586L147.51 90.834C148.441 91.7317 149.09 92.881 149.379 94.1416C149.698 95.331 149.865 96.556 149.875 97.7874C149.896 99.0015 149.832 100.215 149.683 101.421C149.551 102.608 149.434 103.797 149.278 104.994C149.215 106.262 148.848 107.497 148.207 108.593C147.791 109.107 147.258 109.516 146.654 109.784C146.092 110.066 145.522 110.263 144.963 110.482C143.913 110.949 142.965 111.619 142.174 112.452C141.345 113.29 140.581 114.19 139.89 115.145C139.19 116.101 138.551 117.1 137.977 118.137C137.688 118.654 137.418 119.181 137.18 119.719C136.926 120.231 136.748 120.778 136.652 121.342C136.653 123.714 136.735 126.118 136.775 128.504C136.857 133.285 137.011 138.066 137.147 142.847L137.148 142.909L137.112 142.956C136.382 143.902 135.569 144.783 134.684 145.587C133.807 146.408 132.827 147.113 131.769 147.684C130.7 148.277 129.516 148.636 128.296 148.734C127.055 148.764 125.827 148.462 124.741 147.859L124.569 147.767L124.597 147.555C125.04 144.278 125.301 140.961 125.465 137.653C125.607 134.342 125.672 131.025 125.532 127.719C125.426 124.416 125.09 121.124 124.527 117.868C123.977 114.632 123.037 111.474 121.728 108.463L122.169 108.748C120.161 108.584 118.288 107.672 116.92 106.192C115.617 104.721 114.76 102.909 114.449 100.969L114.248 99.5445C114.21 99.0674 114.195 98.5888 114.173 98.1111C114.169 97.6302 114.216 97.1413 114.245 96.6571C114.312 96.1555 114.438 95.6636 114.621 95.1919L114.767 94.8302L114.998 94.4911C115.15 94.2549 115.348 94.0514 115.579 93.8927C115.811 93.7274 116.069 93.6029 116.343 93.5245C116.61 93.4635 116.884 93.4387 117.157 93.4506C118.169 93.5395 119.138 93.8978 119.964 94.4883L119.61 94.4377C120.709 93.9872 121.744 93.3951 122.689 92.6763C123.66 91.9595 124.574 91.1674 125.421 90.3073C127.107 88.5564 128.576 86.609 129.797 84.5071C131.026 82.3993 132.085 80.1973 132.966 77.9219C133.393 76.7772 133.775 75.6165 134.177 74.4581L135.195 70.8839ZM135.219 70.977L134.39 74.5227C134.028 75.6932 133.683 76.8763 133.293 78.0422C132.482 80.3718 131.464 82.6236 130.249 84.7705C129.043 86.9359 127.582 88.9485 125.895 90.7648C125.037 91.6676 124.11 92.5017 123.122 93.2593C122.127 94.0454 121.031 94.6946 119.864 95.1895L119.698 95.2574L119.51 95.139C118.805 94.6564 117.986 94.3657 117.134 94.2955C116.754 94.2753 116.379 94.3871 116.072 94.6121C115.766 94.837 115.546 95.1612 115.451 95.5296C115.307 95.9288 115.21 96.3433 115.161 96.7647C115.145 97.2082 115.109 97.6494 115.121 98.0976L115.204 99.4506L115.397 100.789C115.68 102.547 116.457 104.188 117.637 105.521C118.829 106.798 120.45 107.591 122.19 107.748L122.511 107.772L122.631 108.033C124 111.118 124.964 114.366 125.497 117.698C126.041 121.002 126.354 124.34 126.435 127.687C126.538 131.025 126.473 134.365 126.239 137.696C126.016 141.026 125.696 144.341 125.19 147.647L125.046 147.343C126.028 147.908 127.141 148.203 128.274 148.198C129.42 148.122 130.537 147.805 131.551 147.266C132.587 146.731 133.549 146.065 134.415 145.284C135.298 144.517 136.107 143.668 136.83 142.747L136.796 142.856C136.689 138.073 136.601 133.29 136.441 128.507L136.225 121.324C136.307 120.705 136.484 120.101 136.748 119.534C136.982 118.973 137.244 118.428 137.526 117.894C138.087 116.824 138.714 115.791 139.405 114.801C140.095 113.802 140.861 112.857 141.695 111.976C142.537 111.052 143.555 110.304 144.689 109.778C145.77 109.467 146.758 108.894 147.565 108.11C148.106 107.119 148.411 106.017 148.455 104.889C148.6 103.713 148.709 102.521 148.832 101.33C148.971 100.16 149.039 98.983 149.035 97.8048C149.037 96.6415 148.891 95.4828 148.601 94.3564C148.454 93.8049 148.254 93.2691 148.002 92.7569C147.77 92.2721 147.45 91.8343 147.059 91.4657L146.674 91.1354L147.05 90.8407C147.976 90.1438 148.818 89.3407 149.558 88.4477C149.898 88.0757 150.114 87.6068 150.174 87.1064C150.235 86.9146 149.542 86.756 148.989 86.6924C147.746 86.6088 146.539 86.2377 145.464 85.6084C144.938 85.251 144.485 84.7964 144.129 84.2691C143.944 84.0163 143.788 83.7437 143.662 83.4564C143.519 83.1711 143.4 82.9072 143.28 82.6419C142.21 80.5282 140.96 78.5104 139.545 76.6107C138.178 74.6846 136.646 72.7796 135.219 70.977V70.977Z" fill="#020202"/>
<path d="M126.794 110.123C128.312 111.031 129.964 111.692 131.689 112.081C132.538 112.285 133.403 112.427 134.281 112.548C134.72 112.614 135.164 112.643 135.612 112.707C136.059 112.755 136.51 112.782 136.971 112.862C136.086 113.132 135.167 113.278 134.242 113.294C133.309 113.316 132.377 113.221 131.467 113.013C130.555 112.793 129.678 112.444 128.863 111.977C128.041 111.525 127.333 110.891 126.794 110.123V110.123Z" fill="#020202"/>
<path d="M148.752 98.5964C148.768 99.4535 148.5 100.292 147.989 100.98C147.709 101.339 147.345 101.624 146.93 101.812C146.514 101.999 146.06 102.082 145.605 102.055C144.72 101.973 143.9 101.556 143.313 100.889C142.719 100.263 142.351 99.4557 142.268 98.5964C142.227 98.146 142.283 97.6921 142.431 97.2649C142.579 96.8376 142.816 96.4468 143.127 96.1183C143.443 95.7767 143.826 95.5043 144.253 95.3184C144.679 95.1324 145.14 95.037 145.605 95.0381C146.066 95.0385 146.521 95.1436 146.936 95.3454C147.35 95.5473 147.714 95.8407 147.998 96.2035C148.508 96.8954 148.773 97.7372 148.752 98.5964V98.5964ZM148.667 98.5964C148.658 98.2035 148.556 97.8183 148.372 97.4716C148.187 97.1248 147.923 96.8262 147.602 96.5997C147.023 96.174 146.324 95.945 145.605 95.9466C144.899 95.9502 144.219 96.2129 143.693 96.6848C143.155 97.1864 142.814 97.8648 142.734 98.5964C142.693 98.9819 142.741 99.3718 142.876 99.7356C143.01 100.099 143.226 100.427 143.508 100.694C143.793 100.942 144.127 101.128 144.488 101.24C144.849 101.353 145.23 101.389 145.605 101.346C146.33 101.29 147.025 101.032 147.611 100.602C147.932 100.374 148.194 100.073 148.377 99.7248C148.561 99.3764 148.66 98.99 148.667 98.5964V98.5964Z" fill="#020202"/>
<path d="M134.528 85.5859C134.738 84.9053 135.13 84.2952 135.662 83.8217C136.186 83.3349 136.793 82.9461 137.454 82.6736C138.114 82.4158 138.811 82.2641 139.518 82.224C140.216 82.1805 140.916 82.2621 141.585 82.465C140.908 82.661 140.262 82.7887 139.634 82.9627C139.016 83.1276 138.409 83.3273 137.814 83.5611C136.611 84.0425 135.499 84.7274 134.528 85.5859V85.5859Z" fill="#020202"/>
<path d="M140.5 88.3453C140.793 88.3352 141.071 88.2116 141.274 88.0006C141.478 87.7897 141.592 87.5078 141.592 87.2145C141.592 86.9211 141.478 86.6393 141.274 86.4283C141.071 86.2173 140.793 86.0937 140.5 86.0836C140.206 86.0937 139.929 86.2173 139.725 86.4283C139.521 86.6393 139.407 86.9211 139.407 87.2145C139.407 87.5078 139.521 87.7897 139.725 88.0006C139.929 88.2116 140.206 88.3352 140.5 88.3453V88.3453Z" fill="#020202"/>
<path d="M124.894 147.601C119.33 167.956 112.002 153.572 112.002 153.572C105.217 122.361 94.3613 122.632 94.3613 122.632C97.2931 114.952 98.8547 106.816 98.9751 98.5963C98.9751 95.1165 99.054 92.4538 99.1693 90.4206C99.2826 88.4217 99.8361 86.4724 100.79 84.7122C101.744 82.952 103.075 81.4243 104.688 80.2382C120.733 68.4392 135.207 70.9304 135.207 70.9304C130.593 91.1498 119.737 94.8137 119.737 94.8137C119.737 94.8137 113.902 90.7427 114.716 99.4275C115.531 108.112 122.18 108.248 122.18 108.248C128.829 122.225 124.894 147.601 124.894 147.601Z" fill="#020202"/>
<path d="M145.887 109.703C145.887 109.703 146.206 137.016 150.545 140.816C150.545 140.816 149.455 158.186 136.971 142.852C136.971 142.852 136.428 123.175 136.428 121.411C136.428 119.647 140.906 111.64 144.841 110.123" fill="#020202"/>
<path d="M94.3445 122.724C90.5044 122.491 86.6625 123.151 83.1202 124.652C79.6094 126.189 76.513 128.536 74.085 131.501C71.7188 134.503 69.9078 137.903 68.7376 141.541C68.1456 143.36 67.6634 145.212 67.2936 147.088C66.9371 148.974 66.496 150.837 66.2504 152.75C63.9307 167.969 62.5626 183.344 61.1673 198.695C59.7838 214.051 58.5707 229.425 57.437 244.804C56.3344 260.186 55.2113 275.569 54.1908 290.954L53.4432 290.091C58.2034 290.439 62.9796 290.512 67.7482 290.311C70.122 290.228 72.4893 290.011 74.8387 289.661C77.1544 289.378 79.4166 288.759 81.5543 287.824L81.7026 287.752L81.8678 287.749C84.7296 287.676 87.5853 287.447 90.4224 287.065C93.2709 286.699 96.1 286.206 98.9097 285.583C101.717 284.971 104.499 284.239 107.232 283.355C109.981 282.514 112.652 281.45 115.301 280.341L114.994 280.814L114.994 280.804L114.996 280.465L115.302 280.331C119.792 278.388 124.057 275.96 128.021 273.091C131.986 270.222 135.539 266.822 138.579 262.986L138.507 263.281L131.804 226.906L131.755 226.64L132.02 226.573C136.162 225.533 140.283 224.374 144.372 223.129C148.462 221.884 152.522 220.54 156.531 219.063C160.543 217.605 164.474 215.932 168.305 214.05C170.209 213.105 172.05 212.039 173.815 210.856C175.582 209.726 177.145 208.306 178.438 206.655L178.804 206.153L179.109 206.676L182.231 212.031C183.236 213.835 184.214 215.656 185.139 217.506C186.062 219.357 186.941 221.234 187.717 223.165C188.096 224.134 188.463 225.111 188.752 226.125C189.082 227.152 189.274 228.218 189.322 229.296L188.477 228.902L196.859 221.805L196.823 222.632L196.813 222.623L196.736 222.547L196.691 222.439C192.606 212.8 188.554 203.14 184.535 193.46C182.529 188.62 180.547 183.77 178.59 178.908C177.611 176.477 176.647 174.038 175.699 171.591L174.313 167.899L173.655 166.026C173.432 165.408 173.261 164.706 173.065 164.048L172.77 163.057L173.884 163.054C184.918 163.023 195.959 162.944 206.993 162.745C218.027 162.551 229.06 162.254 240.073 161.72C245.581 161.469 251.074 161.101 256.554 160.617L260.645 160.19L264.751 159.687C266.134 159.524 267.515 159.34 268.904 159.248C270.292 159.14 271.678 159.002 273.07 158.958C278.628 158.676 284.199 158.747 289.749 159.17C295.314 159.569 300.842 160.372 306.291 161.572L305.07 162.512C305.116 160.38 305.231 158.286 305.397 156.177C305.565 154.072 305.79 151.969 306.101 149.871C306.401 147.754 306.838 145.659 307.409 143.599C307.71 142.543 308.09 141.511 308.547 140.513C309.021 139.421 309.716 138.439 310.59 137.631L311.11 139.329C283.87 136.592 256.582 134.143 229.263 132.251C215.604 131.287 201.933 130.497 188.252 129.958C174.576 129.399 160.876 128.958 147.193 129.537L147.182 129.346C160.868 128.54 174.587 128.742 188.282 129.085C201.98 129.502 215.668 130.169 229.344 131.011C243.02 131.841 256.689 132.794 270.349 133.869C284.008 134.955 297.662 136.069 311.304 137.413L313.523 137.631L311.824 139.111C311.171 139.743 310.65 140.5 310.294 141.336C309.883 142.243 309.54 143.18 309.269 144.138C308.725 146.115 308.31 148.125 308.026 150.156C307.449 154.26 307.118 158.395 307.035 162.538L307.006 163.747L305.814 163.478C300.472 162.315 295.052 161.538 289.598 161.155C284.133 160.746 278.648 160.684 273.176 160.971C271.807 161.016 270.445 161.154 269.081 161.262C267.715 161.354 266.359 161.537 265 161.699L260.887 162.21L256.74 162.632C251.214 163.096 245.689 163.444 240.165 163.676C229.117 164.168 218.069 164.421 207.021 164.573C195.973 164.713 184.929 164.796 173.877 164.717L174.696 163.723C174.876 164.32 175.004 164.896 175.219 165.512L175.847 167.35L177.191 171.024C178.116 173.468 179.056 175.908 180.01 178.345C181.922 183.216 183.861 188.078 185.825 192.932C189.746 202.644 193.714 212.337 197.73 222.011L197.608 221.828L197.617 221.838L198.051 222.275L197.581 222.665L189.139 229.69L188.294 230.393L188.294 229.296C188.253 228.313 188.084 227.339 187.791 226.4C187.524 225.429 187.175 224.472 186.812 223.521C186.07 221.621 185.217 219.756 184.319 217.912C183.418 216.069 182.462 214.251 181.479 212.446L178.425 207.096L179.095 207.117C177.733 208.834 176.088 210.307 174.232 211.473C172.428 212.653 170.554 213.724 168.621 214.68C164.761 216.561 160.801 218.231 156.76 219.684C152.731 221.154 148.655 222.487 144.552 223.722C140.447 224.956 136.315 226.093 132.155 227.133L132.371 226.801L139.235 263.146L139.266 263.31L139.162 263.442C136.093 267.345 132.521 270.825 128.538 273.79C124.551 276.745 120.254 279.256 115.723 281.278L116.03 280.805L116.03 280.814L116.032 281.154L115.723 281.288C113.052 282.443 110.357 283.552 107.583 284.435C104.824 285.362 102.015 286.135 99.18 286.785C96.347 287.449 93.487 287.98 90.6 288.38C87.709 288.802 84.7973 289.066 81.8777 289.171L82.1908 289.095C79.932 290.122 77.5349 290.813 75.0758 291.144C72.6748 291.529 70.2538 291.777 67.8247 291.887C65.4044 292.005 62.9854 292.046 60.5676 292.009C58.1475 291.972 55.7427 291.887 53.3135 291.715L52.5156 291.658L52.5659 290.852C53.5249 275.451 54.602 260.061 55.7973 244.681C56.9978 229.299 58.2778 213.924 59.7286 198.562C60.4604 190.881 61.2694 183.207 62.1556 175.54C62.6169 171.709 63.0383 167.873 63.583 164.05L64.366 158.312L65.2898 152.589C65.8764 148.752 66.7731 144.969 67.9711 141.277C69.2339 137.58 71.1474 134.138 73.6213 131.113C76.1529 128.131 79.3558 125.79 82.967 124.285C86.5811 122.827 90.4843 122.228 94.3693 122.534L94.3445 122.724Z" fill="#020202"/>
<path d="M85.1628 126.34C86.8666 126.876 88.4868 127.648 89.976 128.635C91.4879 129.608 92.8728 130.765 94.099 132.08C96.5563 134.76 98.3428 137.986 99.3116 141.491C99.5682 142.36 99.7643 143.247 99.8985 144.143C99.9701 144.589 100.089 145.032 100.121 145.483L100.226 146.835C100.344 148.625 100.348 150.42 100.239 152.211C100.186 153.996 99.9874 155.744 99.8559 157.511C99.7336 159.277 99.5123 161.028 99.3118 162.781C98.4933 169.795 97.3798 176.761 96.4636 183.751C95.5687 190.743 94.7717 197.746 94.0262 204.757C93.302 211.772 92.4972 218.776 91.6119 225.77C90.7259 232.763 89.8485 239.757 88.8488 246.735C86.8067 260.684 84.6045 274.611 81.9718 288.472L81.7822 288.444C83.2114 274.409 84.9736 260.425 86.8246 246.453C87.7724 239.47 88.8087 232.5 89.8258 225.527C90.8214 218.551 91.8968 211.586 92.9859 204.622C93.5088 201.137 94.0723 197.657 94.5187 194.162C94.9977 190.671 95.4674 187.179 95.8467 183.676L96.4 178.42L96.8615 173.155L97.32 167.891L97.7245 162.626C98.0401 159.121 98.2937 155.613 98.5438 152.128C98.8486 148.695 98.6233 145.235 97.8756 141.87C97.0834 138.497 95.5171 135.354 93.3006 132.69C91.0841 130.027 88.2782 127.915 85.1049 126.523L85.1628 126.34Z" fill="#020202"/>
<path d="M121.263 156.36C122.079 159.241 122.693 162.152 123.266 165.07C123.826 167.991 124.341 170.918 124.685 173.871C125.005 176.829 125.184 179.808 125.569 182.756C125.952 185.703 126.525 188.621 127.145 191.532C127.784 194.44 128.385 197.354 128.882 200.284C129.403 203.21 129.937 206.134 130.366 209.075C131.196 214.96 131.868 220.87 132.18 226.835L131.991 226.865C130.484 221.084 129.336 215.248 128.346 209.388C127.866 206.455 127.49 203.507 127.101 200.56C126.689 197.617 126.38 194.658 126.108 191.693C125.818 188.731 125.482 185.776 124.955 182.85C124.431 179.925 123.7 177.031 123.109 174.116C122.544 171.196 122.149 168.25 121.799 165.298C121.462 162.343 121.167 159.382 121.073 156.389L121.263 156.36Z" fill="#020202"/>
<path d="M147.65 148.431C149.273 150.692 150.715 153.05 152.121 155.428C153.514 157.811 154.868 160.216 156.069 162.703C157.248 165.201 158.302 167.766 159.54 170.233C160.776 172.701 162.182 175.079 163.629 177.434C165.093 179.78 166.523 182.144 167.861 184.557C169.22 186.96 170.591 189.355 171.868 191.801C174.396 196.707 176.784 201.687 178.851 206.839L178.682 206.93C175.549 202.347 172.736 197.593 170.065 192.764C168.742 190.343 167.513 187.871 166.271 185.406C165.009 182.952 163.839 180.449 162.704 177.928C161.551 175.415 160.356 172.925 158.992 170.526C157.63 168.126 156.084 165.823 154.663 163.454C153.264 161.073 152.018 158.611 150.811 156.127C149.617 153.637 148.459 151.128 147.481 148.522L147.65 148.431Z" fill="#020202"/>
<path d="M127.038 194.265C129.076 194.043 131.057 193.801 133.003 193.467C134.922 193.158 136.807 192.67 138.634 192.01C139.527 191.698 140.387 191.298 141.201 190.815C142.014 190.355 142.771 189.8 143.455 189.163C144.136 188.503 144.731 187.76 145.225 186.952C145.725 186.089 146.142 185.181 146.47 184.24C146.522 185.286 146.391 186.333 146.085 187.335C145.744 188.36 145.229 189.318 144.562 190.167C143.168 191.83 141.352 193.086 139.305 193.804C137.329 194.512 135.252 194.898 133.154 194.949C131.092 195.039 129.029 194.809 127.038 194.265V194.265Z" fill="#020202"/>
<path d="M152.17 180.984C154.222 180.534 156.022 180.211 157.791 179.682C158.681 179.433 159.556 179.138 160.414 178.797C161.311 178.486 162.153 178.049 163.167 177.681C162.674 178.625 161.988 179.456 161.153 180.117C160.318 180.779 159.353 181.258 158.321 181.523C157.303 181.82 156.24 181.935 155.182 181.863C154.123 181.808 153.092 181.507 152.17 180.984V180.984Z" fill="#020202"/>
<path d="M83.5254 277.062C86.0046 277.102 88.4818 276.901 90.9222 276.462C93.353 276.061 95.7598 275.525 98.1315 274.858C102.859 273.482 107.463 271.713 111.895 269.568L115.221 267.959L118.459 266.17L120.089 265.292L121.668 264.325C122.718 263.674 123.777 263.037 124.841 262.404C125.911 261.781 126.898 261.031 127.943 260.364L131.052 258.317C133.067 256.87 135.076 255.406 137.152 254.007C135.351 255.731 133.491 257.399 131.622 259.066C129.652 260.6 127.715 262.195 125.673 263.647C124.64 264.355 123.603 265.06 122.555 265.75L120.987 266.791L119.363 267.743L116.093 269.616L112.716 271.298C108.175 273.486 103.405 275.164 98.4949 276.302C97.2537 276.528 96.0304 276.828 94.7803 276.99C93.5285 277.142 92.287 277.337 91.0268 277.393C88.5226 277.606 86.0012 277.495 83.5254 277.062V277.062Z" fill="#020202"/>
<path d="M155.969 156.602C156.263 156.592 156.54 156.469 156.744 156.258C156.948 156.047 157.062 155.765 157.062 155.472C157.062 155.178 156.948 154.896 156.744 154.685C156.54 154.475 156.263 154.351 155.969 154.341C155.676 154.351 155.398 154.475 155.195 154.685C154.991 154.896 154.877 155.178 154.877 155.472C154.877 155.765 154.991 156.047 155.195 156.258C155.398 156.469 155.676 156.592 155.969 156.602V156.602Z" fill="#020202"/>
<path d="M162.755 171.801C163.048 171.791 163.325 171.667 163.529 171.456C163.733 171.245 163.847 170.963 163.847 170.67C163.847 170.377 163.733 170.095 163.529 169.884C163.325 169.673 163.048 169.549 162.755 169.539C162.461 169.549 162.184 169.673 161.98 169.884C161.776 170.095 161.662 170.377 161.662 170.67C161.662 170.963 161.776 171.245 161.98 171.456C162.184 171.667 162.461 171.791 162.755 171.801Z" fill="#020202"/>
<path d="M168.997 185.371C169.29 185.361 169.568 185.237 169.771 185.026C169.975 184.815 170.089 184.534 170.089 184.24C170.089 183.947 169.975 183.665 169.771 183.454C169.568 183.243 169.29 183.12 168.997 183.109C168.704 183.12 168.426 183.243 168.222 183.454C168.018 183.665 167.904 183.947 167.904 184.24C167.904 184.534 168.018 184.815 168.222 185.026C168.426 185.237 168.704 185.361 168.997 185.371Z" fill="#020202"/>
<path d="M174.967 196.227C175.261 196.217 175.538 196.093 175.742 195.882C175.946 195.671 176.06 195.389 176.06 195.096C176.06 194.803 175.946 194.521 175.742 194.31C175.538 194.099 175.261 193.975 174.967 193.965C174.674 193.975 174.397 194.099 174.193 194.31C173.989 194.521 173.875 194.803 173.875 195.096C173.875 195.389 173.989 195.671 174.193 195.882C174.397 196.093 174.674 196.217 174.967 196.227Z" fill="#020202"/>
<path d="M180.938 206.812C181.231 206.802 181.509 206.678 181.713 206.467C181.917 206.256 182.031 205.974 182.031 205.681C182.031 205.388 181.917 205.106 181.713 204.895C181.509 204.684 181.231 204.56 180.938 204.55C180.645 204.56 180.367 204.684 180.163 204.895C179.96 205.106 179.846 205.388 179.846 205.681C179.846 205.974 179.96 206.256 180.163 206.467C180.367 206.678 180.645 206.802 180.938 206.812V206.812Z" fill="#020202"/>
<path d="M186.909 218.482C187.202 218.472 187.48 218.348 187.683 218.137C187.887 217.926 188.001 217.644 188.001 217.351C188.001 217.058 187.887 216.776 187.683 216.565C187.48 216.354 187.202 216.23 186.909 216.22C186.616 216.23 186.338 216.354 186.134 216.565C185.93 216.776 185.816 217.058 185.816 217.351C185.816 217.644 185.93 217.926 186.134 218.137C186.338 218.348 186.616 218.472 186.909 218.482V218.482Z" fill="#020202"/>
<path d="M330.107 276.11L330.011 276.157C330.011 276.148 330.002 276.138 329.992 276.129C330.031 276.127 330.07 276.121 330.107 276.11V276.11Z" fill="white"/>
<path d="M331.543 303.694C331.799 303.8 332.055 303.898 332.312 303.988C331.663 304.034 331.015 304.086 330.366 304.147C328.033 304.335 325.719 304.711 323.446 305.27C322.189 305.552 320.891 305.603 319.616 305.421C318.741 305.28 317.876 305.075 317.03 304.81C316.691 304.704 316.359 304.576 316.027 304.441C313.707 303.549 311.623 302.135 309.936 300.309C308.237 298.469 307.163 296.139 306.868 293.652L306.762 292.733L306.8 291.805C306.822 291.187 306.853 290.584 306.89 290.011L306.951 289.137C306.966 288.85 306.935 288.556 306.928 288.262L306.898 287.388C306.875 287.101 306.822 286.807 306.785 286.521C306.602 285.153 306.258 283.812 305.759 282.525C305.418 281.613 305.007 280.728 304.531 279.879C303.383 277.796 301.904 275.914 300.15 274.308C303.922 277.364 306.491 281.655 307.403 286.423C307.448 286.724 307.516 287.018 307.546 287.32L307.622 288.232C307.637 288.533 307.682 288.835 307.674 289.137L307.652 290.049C307.629 290.667 307.622 291.255 307.622 291.828L307.614 292.687L307.75 293.532C308.118 295.796 309.17 297.892 310.765 299.54C312.367 301.191 314.324 302.455 316.487 303.234C316.729 303.332 316.977 303.415 317.226 303.491C318.066 303.742 318.922 303.931 319.789 304.056C320.878 304.188 321.981 304.124 323.046 303.868C325.138 303.297 327.27 302.887 329.424 302.639C329.831 302.88 330.246 303.099 330.661 303.302H330.668C330.962 303.445 331.248 303.574 331.543 303.694Z" fill="black"/>
<path d="M388.922 306.401C388.666 306.523 388.401 306.627 388.13 306.71C387.535 306.902 386.921 307.029 386.298 307.087L386.23 307.155C386.083 307.285 385.924 307.401 385.756 307.502C385.46 307.663 385.149 307.797 384.828 307.901C384.262 308.071 383.677 308.174 383.087 308.21C382.532 308.249 381.976 308.254 381.421 308.225C380.87 308.203 380.395 308.135 379.883 308.09L373.799 307.486L361.631 306.273L340.756 304.117C340.778 304.109 340.801 304.109 340.824 304.102C341.057 304.056 341.298 304.011 341.54 303.966C341.57 303.958 341.593 303.958 341.615 303.951C341.857 303.906 342.105 303.86 342.346 303.822C342.889 303.732 343.439 303.649 343.99 303.574H344.005C344.163 303.551 344.329 303.529 344.487 303.506C344.492 303.214 344.513 302.922 344.548 302.631L349.245 303.061H349.252L361.82 304.207L369.961 304.983L373.965 305.368L380.041 305.941C380.538 305.986 381.074 306.054 381.541 306.077C382.001 306.096 382.462 306.088 382.921 306.054C383.237 306.029 383.552 305.986 383.863 305.926C383.969 305.896 384.082 305.866 384.18 305.835C384.347 305.787 384.509 305.722 384.662 305.639C384.723 305.602 384.775 305.564 384.805 305.541C384.813 305.526 384.828 305.519 384.828 305.511C384.836 305.511 384.836 305.511 384.828 305.526L384.813 305.549C384.793 305.576 384.778 305.607 384.768 305.639L385.582 305.059L385.643 305.014L385.687 304.984C385.786 304.976 385.884 304.968 385.982 304.953C386.027 305.054 386.058 305.161 386.072 305.27C386.09 305.416 386.071 305.564 386.017 305.701C385.963 305.838 385.876 305.959 385.763 306.054L385.74 306.099C386.125 306.137 386.494 306.167 386.864 306.205C387.323 306.25 387.768 306.288 388.206 306.333C388.447 306.356 388.688 306.378 388.922 306.401Z" fill="black"/>
<path d="M386.321 301.817C386.245 302.013 386.185 302.209 386.125 302.398C386.049 302.375 385.974 302.352 385.899 302.337C385.597 302.254 385.295 302.179 384.994 302.104C384.383 301.953 383.765 301.81 383.154 301.614C383.794 301.556 384.438 301.558 385.077 301.621C385.496 301.657 385.911 301.723 386.321 301.817V301.817Z" fill="black"/>
<path d="M385.763 306.054C385.837 305.903 385.865 305.734 385.842 305.567C385.819 305.4 385.747 305.244 385.635 305.119C385.619 305.097 385.601 305.077 385.582 305.059C385.506 304.977 385.417 304.908 385.318 304.855C384.886 304.605 384.422 304.415 383.938 304.29C383.456 304.139 382.943 304.018 382.431 303.89C381.926 303.747 381.405 303.626 380.893 303.438C381.43 303.371 381.974 303.361 382.513 303.408C383.06 303.44 383.602 303.536 384.127 303.694C384.68 303.839 385.192 304.107 385.627 304.478C385.646 304.494 385.664 304.512 385.68 304.531C385.657 304.691 385.645 304.852 385.642 305.014L385.687 304.983C385.785 304.976 385.883 304.968 385.981 304.953C386.027 305.054 386.058 305.16 386.072 305.27C386.09 305.416 386.07 305.564 386.016 305.701C385.963 305.838 385.875 305.959 385.763 306.054V306.054Z" fill="black"/>
<path d="M394.998 306.959V306.966L394.561 312.545C394.435 314.187 393.861 315.764 392.902 317.103C391.942 318.441 390.633 319.491 389.118 320.137C385.558 321.665 381.846 322.809 378.043 323.552C373.877 322.64 369.941 320.885 366.478 318.395C366.478 318.395 353.044 312.394 349.342 317.8C344.684 316.02 330.548 311.542 333.006 323.982C333.119 324.524 333.255 325.097 333.428 325.708L301.606 322.293C301.606 322.293 304.682 318.599 302.835 314.633C301.175 310.921 300.767 306.769 301.674 302.805C301.975 301.418 302.368 299.857 302.888 298.108C303.694 295.431 304.16 292.662 304.275 289.868C304.358 287.41 304.147 284.915 303.076 284.086L305.76 282.525L305.979 282.397C307.286 285.014 307.724 287.98 307.23 290.863C306.537 297.889 311.965 302.503 317.121 304.154C319.077 304.865 321.194 305.009 323.228 304.569C325.666 303.94 328.152 303.516 330.661 303.302H330.669C330.963 303.446 331.249 303.574 331.543 303.694C331.799 303.8 332.056 303.898 332.312 303.988H332.327C332.516 304.056 332.712 304.124 332.9 304.184C334.357 304.667 335.89 304.879 337.423 304.81C337.926 304.784 338.424 304.703 338.909 304.569C339.195 304.486 339.497 304.41 339.806 304.335C340.032 304.275 340.251 304.222 340.484 304.177C340.575 304.154 340.658 304.139 340.748 304.117H340.756C340.778 304.109 340.801 304.109 340.824 304.101C341.057 304.056 341.299 304.011 341.54 303.966C341.57 303.958 341.593 303.958 341.615 303.951C341.857 303.905 342.105 303.86 342.347 303.822C342.889 303.732 343.439 303.649 343.99 303.574H344.005C344.156 303.596 344.322 303.611 344.48 303.626C344.479 303.586 344.481 303.546 344.488 303.506C344.493 303.213 344.513 302.922 344.548 302.631L349.245 303.061H349.252C349.682 303.031 350.089 303.008 350.458 302.986C350.601 302.978 350.745 302.971 350.881 302.963C351.431 302.933 351.898 302.91 352.26 302.903C352.411 302.895 352.547 302.888 352.66 302.888C352.939 302.873 353.097 302.873 353.097 302.873C353.662 302.94 354.296 303.008 354.989 303.084C355.118 303.099 355.253 303.114 355.389 303.129C355.947 303.189 356.542 303.249 357.176 303.317C357.44 303.348 357.711 303.37 357.99 303.4C358.037 303.409 358.085 303.415 358.133 303.415C358.299 303.43 358.465 303.453 358.631 303.468C358.796 303.483 358.962 303.506 359.136 303.521C359.271 303.536 359.415 303.551 359.558 303.566C359.762 303.581 359.965 303.604 360.169 303.626C360.304 297.731 366.509 294.419 370.376 291.222C370.376 291.222 370.836 287.614 374.04 288.865C376.385 289.77 376.129 289.182 377.531 290.056C377.531 290.057 377.531 290.058 377.531 290.059C377.532 290.06 377.532 290.061 377.533 290.062C377.534 290.062 377.535 290.063 377.535 290.063C377.536 290.064 377.537 290.064 377.538 290.064C378.352 290.564 379.135 291.113 379.883 291.707C379.513 291.941 379.151 292.167 378.805 292.409C371.643 297.211 370.218 302.194 369.992 304.606C369.975 304.732 369.965 304.857 369.962 304.983C369.93 305.353 369.938 305.724 369.984 306.092C376.483 306.702 381.255 307.14 381.255 307.14C384.76 307.343 385.59 306.333 385.741 306.099C386.125 306.137 386.495 306.167 386.864 306.205C387.324 306.25 387.769 306.288 388.206 306.333C388.447 306.356 388.688 306.378 388.922 306.401H388.93C389.171 306.423 389.405 306.446 389.638 306.469C389.872 306.484 390.098 306.506 390.317 306.529C390.581 306.552 390.829 306.574 391.078 306.597C391.417 306.627 391.742 306.657 392.051 306.687C392.367 306.717 392.669 306.748 392.955 306.77C393.234 306.8 393.498 306.823 393.747 306.845C394.124 306.876 394.471 306.913 394.787 306.944C394.862 306.951 394.93 306.959 394.998 306.959Z" fill="black"/>
<path d="M314.321 278.319C313.858 278.505 313.361 278.589 312.862 278.566C312.363 278.543 311.876 278.413 311.431 278.186C310.968 277.93 310.604 277.526 310.4 277.037C310.211 276.572 310.167 276.061 310.277 275.571C310.405 276.007 310.593 276.423 310.834 276.807C311.063 277.154 311.373 277.439 311.738 277.637C312.12 277.839 312.528 277.988 312.951 278.08C313.387 278.175 313.842 278.262 314.321 278.319Z" fill="black"/>
<path d="M56.4272 291.063C56.7483 292.995 56.9225 294.948 56.9483 296.906C57.0701 298.922 56.7627 300.941 56.0463 302.83C55.8099 303.344 55.4653 303.802 55.036 304.171C54.5581 304.559 53.9642 304.775 53.349 304.785C52.4654 304.839 51.4791 305.004 50.5362 305.152L44.8115 306.163L21.9256 310.54C18.1072 311.253 14.2936 311.995 10.5011 312.822C8.60477 313.233 6.71421 313.676 4.85506 314.208C3.92782 314.456 3.01675 314.761 2.12706 315.121C1.91713 315.208 1.71377 315.31 1.51859 315.427C1.44145 315.471 1.37041 315.525 1.30725 315.587C1.29737 315.597 1.28877 315.624 1.30286 315.553C1.29011 315.508 1.29069 315.543 1.3011 315.579L1.31993 315.673C1.42227 316.178 1.49059 316.63 1.61837 317.079C1.88235 317.959 2.42268 318.729 3.15921 319.277C3.93233 319.809 4.78736 320.21 5.6903 320.465C7.5341 320.993 9.43943 321.275 11.357 321.305C15.2219 321.375 19.0868 321.161 22.9204 320.666L23.6144 321.24C23.6637 321.343 23.7209 321.442 23.7854 321.537C23.8829 321.675 23.9975 321.8 24.1264 321.909C24.4098 322.154 24.7245 322.362 25.0622 322.525C25.7982 322.87 26.5737 323.123 27.3714 323.279C29.0381 323.595 30.7313 323.751 32.4278 323.744C35.9007 323.766 39.3883 323.74 42.8675 323.622C46.3479 323.513 49.8219 323.324 53.2895 323.057C56.7558 322.811 60.2083 322.44 63.6276 321.953C65.3338 321.694 67.0301 321.389 68.6914 320.992C70.3322 320.63 71.9332 320.107 73.4709 319.43C74.1794 319.118 74.8294 318.688 75.3926 318.157C75.8355 317.596 76.106 316.918 76.1714 316.207C76.4525 314.524 76.6081 312.822 76.637 311.116C76.762 307.657 76.7061 304.166 76.5776 300.681C76.4599 297.193 76.2854 293.703 76.0814 290.214L76.272 290.193C77.3237 297.13 77.9336 304.127 78.098 311.141C78.1234 312.931 78.0144 314.721 77.7719 316.495C77.6966 316.966 77.5891 317.432 77.4501 317.89C77.3676 318.141 77.2699 318.386 77.1576 318.625C77.0168 318.884 76.8406 319.121 76.6341 319.33C75.9517 320.03 75.1528 320.605 74.2731 321.031C70.9864 322.493 67.5055 323.472 63.9384 323.938C56.9749 324.953 49.948 325.471 42.911 325.487C39.4026 325.529 35.8982 325.541 32.3832 325.39C30.5831 325.341 28.7919 325.119 27.0343 324.727C26.1199 324.522 25.2371 324.195 24.4098 323.754C23.9711 323.515 23.5666 323.218 23.2071 322.871C23.0127 322.686 22.8418 322.477 22.6984 322.25C22.5154 321.982 22.3962 321.676 22.3499 321.355L23.0437 321.929C19.1409 322.246 15.2207 322.294 11.3114 322.071C9.33908 321.974 7.38543 321.642 5.49179 321.082C4.52509 320.792 3.61284 320.345 2.7918 319.758C1.97178 319.117 1.3671 318.241 1.0587 317.247C0.914443 316.762 0.831403 316.252 0.735553 315.806L0.717563 315.721C0.705012 315.67 0.699619 315.619 0.701556 315.567C0.700789 315.435 0.749178 315.307 0.837344 315.208C0.939452 315.093 1.05898 314.994 1.19161 314.915C1.41202 314.779 1.64216 314.66 1.88015 314.558C2.79997 314.165 3.72702 313.856 4.65894 313.557C6.52552 312.974 8.40294 312.45 10.2819 311.931C14.0435 310.906 17.8266 309.976 21.6167 309.077C29.1996 307.288 36.862 305.893 44.5575 304.668C46.4825 304.363 48.4105 304.078 50.3558 303.858C51.3393 303.753 52.2807 303.63 53.3412 303.615C53.7283 303.605 54.1038 303.481 54.4208 303.259C54.7378 303.036 54.9823 302.725 55.1238 302.365C55.5229 301.533 55.7973 300.647 55.9384 299.736C56.1102 298.795 56.2228 297.844 56.2755 296.889C56.3764 294.956 56.3635 293.019 56.237 291.087L56.4272 291.063Z" fill="#020202"/>
<path d="M51.4801 312.341C46.5878 313.523 41.7264 314.831 36.9394 316.319C34.5502 317.07 32.1762 317.867 29.8775 318.781C28.7333 319.243 27.6029 319.733 26.5506 320.286C26.041 320.545 25.5506 320.84 25.0831 321.168C24.8815 321.31 24.6908 321.466 24.5125 321.636C24.4492 321.711 24.3845 321.782 24.3169 321.849C24.3064 321.896 24.2837 321.939 24.2511 321.974L21.7148 320.621C21.8645 320.399 22.0266 320.182 22.1954 319.977L22.681 319.539C22.9817 319.302 23.2996 319.088 23.632 318.898C24.229 318.557 24.8494 318.259 25.4884 318.006C26.6953 317.523 27.9257 317.102 29.1749 316.743C31.6344 316.028 34.1026 315.455 36.5765 314.928C41.5258 313.894 46.4953 313.053 51.4801 312.341Z" fill="#020202"/>
<path d="M334.763 172.697C336.596 176.49 338.333 180.332 339.926 184.255C340.716 186.22 341.471 188.203 342.124 190.251C342.46 191.292 342.743 192.35 342.972 193.42C343.096 193.991 343.179 194.57 343.22 195.154C343.244 195.484 343.242 195.816 343.216 196.146L343.13 196.717C343.061 196.949 342.979 197.177 342.885 197.401L340.36 196.027C340.361 196.005 340.374 195.991 340.4 195.976C340.415 195.907 340.434 195.838 340.456 195.771C340.495 195.58 340.518 195.386 340.526 195.191C340.546 194.723 340.532 194.254 340.484 193.787C340.385 192.78 340.236 191.779 340.036 190.786C339.637 188.763 339.121 186.735 338.565 184.717C337.439 180.681 336.152 176.671 334.763 172.697Z" fill="#020202"/>
<path d="M310.087 139.616C314.469 139.784 318.827 140.352 323.106 141.312C327.35 142.346 331.749 143.556 335.301 146.657C336.138 147.468 336.866 148.384 337.469 149.381C338.004 150.362 338.555 151.339 339.041 152.336L340.384 155.36C340.795 156.379 341.195 157.401 341.586 158.426C343.098 162.542 344.374 166.726 345.609 170.914L349.195 183.504C350.428 187.689 351.582 191.892 352.755 196.103C352.897 196.63 353.045 197.155 353.174 197.691C353.302 198.236 353.454 198.723 353.553 199.349C353.672 200.471 353.673 201.603 353.556 202.726C353.483 203.895 353.201 205.041 352.723 206.111C352.436 206.745 351.956 207.273 351.351 207.62C351.012 207.777 350.644 207.861 350.271 207.866C349.897 207.872 349.527 207.8 349.183 207.653C348.082 207.146 347.107 206.401 346.328 205.472C345.571 204.637 344.872 203.752 344.236 202.822C342.989 200.994 341.846 199.097 340.812 197.142L342.055 197.522C341.903 197.599 341.74 197.654 341.572 197.685C341.45 197.707 341.328 197.721 341.204 197.727C340.982 197.734 340.759 197.721 340.539 197.686C340.15 197.614 339.773 197.492 339.416 197.323C338.773 197.018 338.176 196.626 337.64 196.158C336.642 195.287 335.74 194.312 334.951 193.248C333.453 191.177 332.119 188.992 330.96 186.713C329.757 184.494 328.647 182.239 327.563 179.971C326.471 177.708 325.419 175.428 324.406 173.131C323.398 170.832 322.396 168.531 321.433 166.212C320.465 163.894 319.524 161.568 318.701 159.173C318.539 158.615 318.315 158.077 318.035 157.568C317.746 157.104 317.351 156.714 316.883 156.432C315.851 155.88 314.688 155.621 313.52 155.683C311.047 155.818 308.618 156.385 306.341 157.359L306.257 157.187C308.5 155.975 310.95 155.196 313.48 154.887C314.82 154.725 316.179 154.954 317.393 155.545C318.02 155.88 318.56 156.357 318.969 156.939C319.331 157.505 319.628 158.111 319.854 158.744C321.792 163.317 323.886 167.872 326.057 172.368C328.237 176.863 330.428 181.358 332.764 185.748C333.882 187.931 335.14 190.04 336.53 192.061C337.215 193.024 338.001 193.911 338.874 194.706C339.274 195.073 339.722 195.383 340.206 195.629C340.412 195.733 340.631 195.812 340.857 195.862C340.946 195.877 341.036 195.884 341.126 195.886C341.168 195.889 341.193 195.879 341.225 195.88C341.228 195.883 341.306 195.849 341.189 195.906L342.434 196.286C343.406 198.201 344.477 200.064 345.643 201.868C346.208 202.758 346.833 203.607 347.515 204.411C348.112 205.181 348.866 205.815 349.726 206.272C349.879 206.352 350.047 206.399 350.219 206.41C350.391 206.421 350.564 206.396 350.726 206.336C351.075 206.14 351.357 205.842 351.533 205.482C351.984 204.574 352.271 203.594 352.383 202.586C352.546 201.547 352.597 200.494 352.536 199.444C352.388 198.478 352.134 197.353 351.901 196.313C349.967 187.817 347.542 179.441 344.636 171.227C343.203 167.115 341.642 163.052 340.047 159.023C339.625 158.026 339.213 157.026 338.811 156.022L337.488 153.077C337.031 152.11 336.521 151.179 336.029 150.241C335.516 149.366 334.893 148.559 334.176 147.841C332.613 146.458 330.83 145.347 328.901 144.551C326.92 143.719 324.891 143.007 322.823 142.422C318.631 141.287 314.373 140.414 310.072 139.808L310.087 139.616Z" fill="#020202"/>
<path d="M124.368 5.59251V1.86871C124.367 1.61589 124.266 1.3737 124.087 1.19521C123.908 1.01673 123.665 0.916504 123.413 0.916504C123.16 0.916504 122.917 1.01673 122.738 1.19521C122.559 1.3737 122.458 1.61589 122.457 1.86871V5.59251C122.45 5.71995 122.469 5.84756 122.515 5.96692C122.56 6.08628 122.63 6.19467 122.72 6.28494C122.81 6.37522 122.919 6.44532 123.038 6.49064C123.158 6.53595 123.285 6.55544 123.413 6.54782C123.666 6.54764 123.909 6.44693 124.088 6.26781C124.267 6.0887 124.368 5.84582 124.368 5.59251V5.59251ZM113.382 9.22367C113.597 9.0851 113.754 8.87352 113.825 8.62801C113.895 8.38251 113.875 8.11969 113.767 7.88811L111.949 4.6372C111.786 4.45253 111.569 4.32525 111.328 4.27431C111.087 4.22336 110.837 4.25146 110.613 4.35444C110.398 4.49248 110.241 4.70438 110.171 4.95029C110.101 5.19621 110.123 5.45924 110.233 5.68994L112.046 8.93609C112.2 9.13297 112.418 9.26963 112.662 9.3222C112.906 9.37476 113.161 9.33989 113.382 9.22367H113.382ZM104.882 16.9636C105.11 17.0878 105.377 17.1168 105.627 17.0444C105.876 16.9721 106.087 16.8041 106.213 16.5771C106.339 16.3502 106.37 16.0826 106.299 15.8327C106.229 15.5829 106.063 15.3709 105.837 15.2431L102.591 13.4299C102.478 13.3667 102.354 13.3263 102.226 13.3111C102.097 13.2959 101.967 13.3062 101.843 13.3414C101.719 13.3766 101.603 13.4359 101.501 13.5161C101.4 13.5963 101.315 13.6956 101.252 13.8085C101.19 13.9214 101.15 14.0456 101.135 14.174C101.12 14.3023 101.131 14.4324 101.166 14.5566C101.202 14.6808 101.262 14.7968 101.342 14.8978C101.423 14.9989 101.522 15.0831 101.635 15.1456L104.882 16.9636ZM97.9069 26.6093C97.8993 26.7367 97.9188 26.8644 97.9641 26.9837C98.0094 27.1031 98.0795 27.2115 98.1698 27.3017C98.2601 27.392 98.3685 27.4621 98.4878 27.5074C98.6072 27.5528 98.7348 27.5722 98.8622 27.5646H102.591C102.844 27.5646 103.087 27.464 103.266 27.2848C103.445 27.1057 103.546 26.8627 103.546 26.6093C103.546 26.3559 103.445 26.113 103.266 25.9338C103.087 25.7546 102.844 25.654 102.591 25.654H98.8622C98.6091 25.655 98.3667 25.756 98.1878 25.9349C98.0088 26.1139 97.9079 26.3563 97.9068 26.6093H97.9069ZM143.474 26.4192C143.467 26.5467 143.486 26.6743 143.531 26.7936C143.577 26.913 143.647 27.0214 143.737 27.1116C143.827 27.2019 143.936 27.272 144.055 27.3173C144.174 27.3626 144.302 27.3821 144.429 27.3745H148.158C148.411 27.3745 148.654 27.2739 148.834 27.0947C149.013 26.9155 149.113 26.6726 149.113 26.4192C149.113 26.1658 149.013 25.9228 148.834 25.7437C148.654 25.5645 148.411 25.4639 148.158 25.4639H144.429C144.176 25.4649 143.934 25.5659 143.755 25.7449C143.576 25.9238 143.475 26.1662 143.474 26.4192V26.4192ZM144.337 13.235L141.086 15.0529C140.859 15.1805 140.693 15.3925 140.622 15.6426C140.551 15.8927 140.582 16.1607 140.709 16.3879C140.835 16.6151 141.046 16.7832 141.295 16.8555C141.545 16.9277 141.813 16.8982 142.041 16.7735L145.292 14.9555C145.519 14.8281 145.686 14.6161 145.757 14.3658C145.828 14.1156 145.796 13.8475 145.67 13.6201C145.544 13.3928 145.333 13.2246 145.083 13.1525C144.833 13.0803 144.565 13.11 144.337 13.235ZM134.686 8.84344L136.504 5.59251C136.628 5.36455 136.658 5.09674 136.585 4.84743C136.513 4.59813 136.345 4.38753 136.118 4.26151C135.891 4.13549 135.623 4.10427 135.373 4.17464C135.124 4.245 134.912 4.41126 134.784 4.6372L132.966 7.88811C132.901 8.00063 132.86 8.12491 132.845 8.25359C132.83 8.38228 132.84 8.51274 132.876 8.63728C132.912 8.76181 132.972 8.87787 133.054 8.97859C133.135 9.07932 133.236 9.16266 133.351 9.22367C133.584 9.31642 133.842 9.32942 134.083 9.26065C134.325 9.19188 134.537 9.04521 134.686 8.84344V8.84344ZM111.281 33.1064C114.136 36.5921 115.75 40.9287 115.868 45.4327C115.138 45.5744 114.481 45.9667 114.01 46.5417C113.539 47.1167 113.284 47.8382 113.289 48.5814C113.309 49.3919 113.613 50.1697 114.147 50.7796C113.865 51.0705 113.644 51.4147 113.497 51.7922C113.349 52.1696 113.279 52.5727 113.289 52.9777C113.296 53.8119 113.631 54.6098 114.221 55.1997C114.811 55.7895 115.609 56.1241 116.443 56.1312H117.013C117.114 57.761 117.832 59.291 119.021 60.4095C120.211 61.528 121.782 62.1507 123.415 62.1507C125.048 62.1507 126.619 61.528 127.809 60.4095C128.998 59.291 129.717 57.761 129.817 56.1312H130.387C131.222 56.1241 132.02 55.7895 132.609 55.1997C133.199 54.6098 133.534 53.8119 133.541 52.9777C133.519 52.1676 133.216 51.3904 132.683 50.7796C132.966 50.4892 133.187 50.145 133.335 49.7675C133.482 49.3899 133.552 48.9866 133.541 48.5814C133.531 47.8423 133.27 47.1285 132.802 46.5565C132.334 45.9846 131.685 45.5885 130.963 45.4327C131.14 40.9405 132.747 36.6223 135.549 33.1064C137.713 30.3926 138.892 27.0244 138.893 23.5533C138.889 19.4506 137.257 15.517 134.355 12.6171C131.453 9.71724 127.518 8.08829 123.415 8.08829C119.312 8.08829 115.378 9.71724 112.475 12.6171C109.573 15.517 107.941 19.4506 107.938 23.5533C107.936 27.0248 109.115 30.3937 111.281 33.1064H111.281ZM123.413 60.1426C122.299 60.1525 121.223 59.7469 120.392 59.0051C119.562 58.2633 119.039 57.2386 118.924 56.1312H127.999C127.833 57.2343 127.281 58.2427 126.441 58.9771C125.601 59.7116 124.528 60.1245 123.413 60.1426V60.1426ZM130.387 54.1232H116.443C116.28 54.1236 116.118 54.0919 115.967 54.0297C115.816 53.9676 115.679 53.8763 115.563 53.7611C115.448 53.6459 115.356 53.509 115.293 53.3582C115.231 53.2075 115.199 53.0459 115.199 52.8827C115.199 52.7195 115.231 52.5579 115.293 52.4072C115.356 52.2564 115.448 52.1195 115.563 52.0043C115.679 51.8891 115.816 51.7978 115.967 51.7356C116.118 51.6735 116.28 51.6418 116.443 51.6422H130.387C130.551 51.6418 130.712 51.6735 130.863 51.7356C131.014 51.7978 131.151 51.8891 131.267 52.0043C131.382 52.1195 131.474 52.2564 131.537 52.4072C131.599 52.5579 131.631 52.7195 131.631 52.8827C131.631 53.0459 131.599 53.2075 131.537 53.3582C131.474 53.509 131.382 53.6459 131.267 53.7611C131.151 53.8763 131.014 53.9676 130.863 54.0297C130.712 54.0919 130.551 54.1236 130.387 54.1232H130.387ZM131.63 48.4888C131.624 48.8164 131.491 49.1289 131.259 49.3606C131.028 49.5923 130.715 49.7253 130.387 49.7316H116.443C116.113 49.7316 115.797 49.6007 115.564 49.3676C115.331 49.1345 115.2 48.8184 115.2 48.4887C115.2 48.1591 115.331 47.843 115.564 47.6099C115.797 47.3768 116.113 47.2459 116.443 47.2459H130.387C130.715 47.2522 131.027 47.3852 131.259 47.6169C131.491 47.8486 131.624 48.1611 131.63 48.4888H131.63ZM120.454 30.0503C121.687 29.8397 122.805 29.1969 123.608 28.2372C124.382 29.1338 125.416 29.7675 126.566 30.0503C125.265 35.034 124.813 40.2015 125.231 45.3353H122.077C122.643 40.1829 122.09 34.9689 120.454 30.0503V30.0503ZM123.413 9.8914C127.007 9.90558 130.45 11.3398 132.992 13.8814C135.534 16.4231 136.968 19.8662 136.982 23.4606C136.966 26.4988 135.96 29.4489 134.116 31.8635C131.064 35.6782 129.292 40.3581 129.052 45.2378H127.044C126.607 40.0982 127.093 34.9218 128.477 29.9529C128.54 29.7455 128.556 29.5265 128.523 29.3122C128.49 29.0978 128.409 28.8937 128.287 28.7148C128.176 28.5279 128.024 28.3696 127.841 28.2527C127.658 28.1359 127.45 28.0638 127.234 28.0423C126.717 27.9609 126.221 27.775 125.778 27.496C125.335 27.2169 124.953 26.8506 124.656 26.4193C124.506 26.2353 124.316 26.0882 124.101 25.9893C123.885 25.8904 123.65 25.8424 123.413 25.8489C123.182 25.861 122.958 25.9279 122.759 26.044C122.56 26.1602 122.391 26.3222 122.267 26.5167C121.956 26.9689 121.544 27.3422 121.064 27.6071C120.583 27.8719 120.047 28.0209 119.499 28.0423C119.278 28.0441 119.062 28.1081 118.876 28.2271C118.689 28.346 118.541 28.5151 118.446 28.7149C118.312 28.9088 118.233 29.135 118.217 29.3699C118.201 29.6049 118.248 29.8399 118.353 30.0504C120.104 34.9102 120.628 40.127 119.879 45.2379H117.681C117.548 40.3373 115.766 35.6249 112.622 31.8635C110.736 29.4711 109.725 26.5064 109.756 23.4607C109.806 19.8624 111.264 16.4271 113.817 13.8907C116.37 11.3543 119.814 9.91871 123.413 9.89144L123.413 9.8914Z" fill="black"/>
<path d="M306.367 95.7744C297.859 95.8296 289.351 95.8258 280.844 95.9292L255.32 96.2801C246.813 96.4293 238.305 96.449 229.797 96.5089C225.544 96.5524 221.29 96.5323 217.036 96.5154L210.655 96.4939C209.588 96.4836 208.556 96.5154 207.381 96.4158C206.243 96.2786 205.131 95.9801 204.078 95.5292C201.976 94.5976 200.211 93.0442 199.02 91.0783C197.84 89.1339 197.268 86.8813 197.378 84.6096L197.514 71.8481L197.654 59.0867L197.716 46.3248C197.779 37.8173 197.742 29.3093 197.711 20.8018L197.69 14.4211C197.698 13.3479 197.64 12.3159 197.695 11.209C197.74 10.1041 197.962 9.01365 198.352 7.97907C199.125 5.8858 200.515 4.07605 202.338 2.78851C203.254 2.15597 204.255 1.65534 205.311 1.30128C206.379 0.97757 207.486 0.80036 208.602 0.774498C225.617 0.590178 242.633 0.464483 259.648 0.397423L285.171 0.300117L297.933 0.292114L304.314 0.301476C305.382 0.309896 306.406 0.274806 307.608 0.374916C308.765 0.512059 309.897 0.813574 310.969 1.27035C313.112 2.21289 314.919 3.78201 316.154 5.77135C316.776 6.7557 317.237 7.83379 317.517 8.96429C317.661 9.52707 317.767 10.099 317.833 10.6761C317.861 11.2487 317.904 11.8578 317.891 12.3682C317.886 16.6217 317.884 20.8757 317.834 25.1297C317.753 33.6372 317.703 42.1451 317.552 50.6526L317.187 76.1755L317.123 82.5567C317.103 83.6243 317.143 84.6737 317.073 85.7567C317.015 86.8383 316.783 87.9034 316.386 88.9113C315.607 90.9388 314.23 92.6822 312.439 93.9115C311.544 94.5108 310.57 94.9818 309.544 95.3108C308.511 95.6076 307.442 95.7636 306.367 95.7744V95.7744ZM306.367 95.583C307.421 95.5602 308.467 95.3957 309.477 95.0941C310.475 94.7614 311.422 94.2909 312.29 93.6963C314.018 92.4824 315.338 90.7731 316.075 88.7939C316.891 86.8299 316.715 84.6817 316.72 82.5568L316.655 76.1756L316.291 50.6526C316.139 42.1452 316.09 33.6372 316.009 25.1297C315.958 20.8757 315.956 16.6218 315.952 12.3683C315.963 11.8143 315.918 11.362 315.9 10.8726C315.842 10.3936 315.751 9.91894 315.63 9.45181C315.397 8.51406 315.013 7.62054 314.492 6.80623C313.463 5.15821 311.96 3.85991 310.18 3.08183C309.291 2.70844 308.354 2.46182 307.396 2.34921C306.477 2.27248 305.372 2.29822 304.314 2.29635L297.933 2.3057L285.171 2.29729L259.648 2.19997C242.633 2.14431 225.617 2.01878 208.602 1.82338C207.589 1.83096 206.581 1.97413 205.606 2.24909C204.638 2.55651 203.717 2.9974 202.871 3.55904C201.174 4.71473 199.867 6.35765 199.124 8.27105C198.298 10.1714 198.436 12.2803 198.405 14.4211L198.384 20.8019C198.353 29.3094 198.317 37.8173 198.379 46.3248L198.441 59.0867L198.581 71.8482L198.718 84.6096C198.711 85.157 198.761 85.6328 198.785 86.1339C198.85 86.6263 198.947 87.1139 199.077 87.5935C199.326 88.5541 199.729 89.4678 200.272 90.2989C201.343 91.9706 202.889 93.2849 204.711 94.0739C205.619 94.4533 206.575 94.7031 207.552 94.8159C208.498 94.8921 209.596 94.8636 210.655 94.8636L217.036 94.8421C221.29 94.8252 225.543 94.8056 229.797 94.8486C238.305 94.9085 246.813 94.9286 255.32 95.0774L280.843 95.4283C289.351 95.5316 297.859 95.5278 306.367 95.583V95.583Z" fill="black"/>
<path d="M247.734 50.9436C241.802 50.9137 235.87 51.2215 229.938 51.4494C226.972 51.5738 224.006 51.6754 221.04 51.6908L218.815 51.709C218.049 51.6945 217.395 51.7333 216.503 51.6627C214.818 51.4786 213.265 50.664 212.157 49.3823C211.048 48.1006 210.465 46.4469 210.526 44.7533L210.662 40.3043C210.761 37.3382 210.854 34.3722 210.885 31.4061L210.901 22.4781C211.037 20.8809 211.758 19.3902 212.925 18.2917C214.093 17.1932 215.624 16.5643 217.227 16.5254C223.159 16.3411 229.091 16.2045 235.023 16.1488L243.922 16.0515L246.146 16.0314C246.917 16.0426 247.553 15.9991 248.476 16.0678C250.217 16.2486 251.828 17.0757 252.989 18.3859C254.15 19.696 254.777 21.3939 254.748 23.1442L254.688 27.5933C254.644 30.5593 254.527 33.5259 254.396 36.4919C254.25 39.4687 254.178 42.3997 254.002 45.4143C253.798 46.9486 253.045 48.3571 251.883 49.3792C250.739 50.3923 249.262 50.9492 247.734 50.9436V50.9436ZM247.734 50.7523C249.205 50.7372 250.616 50.1724 251.691 49.1692C252.748 48.1741 253.385 46.8131 253.472 45.3643C253.411 42.4497 253.255 39.4463 253.135 36.4919C253.004 33.5259 252.887 30.5594 252.843 27.5933L252.783 23.1442C252.777 21.8963 252.313 20.6941 251.48 19.7647C250.647 18.8353 249.503 18.243 248.263 18.0996C247.706 18.051 246.858 18.0767 246.146 18.0683L243.922 18.0482L235.023 17.9509C229.091 17.8952 223.159 17.7586 217.227 17.5743C215.831 17.5425 214.474 18.0345 213.423 18.9535C212.372 19.8725 211.703 21.1518 211.549 22.5393C211.452 25.4427 211.492 28.4541 211.506 31.4061C211.538 34.3721 211.63 37.3382 211.729 40.3043L211.866 44.7533C211.902 46.0575 212.41 47.3043 213.295 48.2627C214.181 49.2211 215.383 49.826 216.68 49.9654C217.267 50.0127 218.098 49.9822 218.815 49.9874L221.04 50.0056C224.006 50.0206 226.972 50.1221 229.938 50.2466C235.87 50.4749 241.802 50.7822 247.734 50.7523Z" fill="black"/>
<path d="M299.301 82.8417C293.369 82.8113 287.436 83.1191 281.504 83.3474C278.538 83.4719 275.572 83.5734 272.606 83.5883L270.382 83.6066C269.616 83.5926 268.962 83.6309 268.069 83.5603C266.385 83.3763 264.832 82.5616 263.723 81.2801C262.615 79.9985 262.032 78.3449 262.092 76.6514L262.229 72.2023C262.328 69.2363 262.42 66.2702 262.452 63.3042L262.467 54.3761C262.603 52.7789 263.324 51.2882 264.492 50.1897C265.659 49.0911 267.191 48.462 268.793 48.423C274.726 48.2391 280.658 48.1025 286.59 48.0464L295.488 47.9491L297.713 47.9289C298.483 47.9402 299.12 47.8967 300.043 47.9654C301.784 48.1462 303.394 48.9734 304.555 50.2836C305.716 51.5939 306.344 53.2919 306.314 55.0423L306.254 59.4914C306.21 62.4574 306.093 65.4234 305.963 68.3895C305.816 71.3663 305.744 74.2972 305.568 77.3119C305.364 78.8464 304.611 80.255 303.449 81.2773C302.305 82.29 300.829 82.8468 299.301 82.8417V82.8417ZM299.301 82.6499C300.771 82.6351 302.183 82.0705 303.258 81.0672C304.314 80.072 304.951 78.7108 305.038 77.2619C304.977 74.3473 304.822 71.3439 304.701 68.3895C304.57 65.4235 304.454 62.4574 304.409 59.4914L304.35 55.0423C304.343 53.7944 303.879 52.5922 303.047 51.6627C302.214 50.7333 301.069 50.141 299.83 49.9977C299.273 49.9486 298.424 49.9748 297.713 49.9663L295.488 49.9462L286.59 49.8489C280.658 49.7928 274.726 49.6562 268.793 49.4723C267.398 49.4403 266.041 49.9322 264.99 50.8512C263.938 51.7701 263.27 53.0494 263.115 54.4369C263.019 57.3407 263.058 60.3517 263.073 63.3042C263.104 66.2702 263.197 69.2363 263.296 72.2023L263.432 76.6514C263.469 77.9555 263.976 79.2024 264.862 80.1608C265.747 81.1191 266.95 81.7241 268.247 81.8635C268.834 81.9107 269.665 81.8798 270.382 81.885L272.606 81.9032C275.572 81.9187 278.538 82.0202 281.504 82.1446C287.436 82.3725 293.369 82.6803 299.301 82.6499Z" fill="black"/>
<path d="M228.897 42.4235L224.555 42.6523L224.334 42.664L224.326 42.4235C224.258 40.1859 224.179 37.9482 224.137 35.7102C224.094 33.4725 224.086 31.2349 224.076 28.9973L224.074 28.5159L224.555 28.5187L228.897 28.5421L229.357 28.5444L229.353 28.9973C229.33 31.2896 229.267 33.5792 229.178 35.8267C229.111 38.0831 228.996 40.2874 228.897 42.4235ZM228.897 42.4235C228.799 40.0844 228.684 37.8131 228.617 35.5941C228.528 33.3663 228.465 31.1801 228.442 28.9973L228.897 29.4525L224.555 29.4759L225.034 28.9973C225.024 31.2349 225.016 33.4725 224.973 35.7102C224.931 37.9482 224.852 40.1859 224.784 42.4235L224.555 42.1948L228.897 42.4235Z" fill="black"/>
<path d="M233.239 42.4235C231.896 42.5194 230.42 42.6635 228.897 42.73L228.606 42.7431L228.59 42.4235C228.469 39.9108 228.428 37.3976 228.418 34.8849L228.416 34.4026L228.897 34.4059C230.344 34.4162 231.792 34.4204 233.239 34.4625L233.67 34.4751L233.661 34.8849C233.609 37.5029 233.409 40.0858 233.239 42.4235ZM233.239 42.4235C233.069 39.7354 232.87 37.2924 232.817 34.8849L233.239 35.3069C231.792 35.349 230.344 35.3532 228.897 35.3635L229.376 34.8849C229.365 37.3977 229.324 39.9108 229.203 42.4235L228.897 42.1171C230.268 42.1835 231.688 42.3276 233.239 42.4235Z" fill="black"/>
<path d="M237.582 42.4234L235.466 42.5558C234.74 42.597 233.995 42.6602 233.24 42.6798L232.991 42.6864L232.983 42.4234C232.93 40.6466 232.84 38.8703 232.816 37.0934C232.775 35.3166 232.772 33.5403 232.761 31.7634L232.758 31.2806L233.24 31.2849C234.687 31.297 236.135 31.2914 237.582 31.3204L238.03 31.3298L238.025 31.7634C238.006 33.5941 237.928 35.4172 237.852 37.2052C237.789 39.0008 237.673 40.7416 237.582 42.4234ZM237.582 42.4234C237.491 40.5521 237.376 38.7397 237.312 36.9816C237.237 35.2165 237.159 33.4865 237.139 31.7635L237.582 32.2065C236.135 32.2355 234.687 32.2298 233.24 32.242L233.718 31.7634C233.707 33.5402 233.705 35.3166 233.664 37.0934C233.639 38.8702 233.55 40.6466 233.496 42.4234L233.24 42.167C233.932 42.1867 234.635 42.2499 235.356 42.291L237.582 42.4234Z" fill="black"/>
<path d="M242.64 42.4234C238.974 42.6386 235.307 42.7256 231.641 42.8136C227.974 42.8819 224.308 42.909 220.642 42.895L220.168 42.8927L220.17 42.4234C220.184 39.3549 220.202 36.2869 220.296 33.2184C220.366 30.1499 220.463 27.0819 220.641 24.0134C220.819 27.0819 220.917 30.15 220.987 33.2184C221.081 36.2869 221.099 39.355 221.113 42.4234L220.642 41.9523C224.308 41.9369 227.974 41.9639 231.641 42.0332C235.307 42.1212 238.974 42.2082 242.64 42.4234Z" fill="black"/>
<path d="M279.468 57.2073C282.804 56.8678 286.156 56.708 289.51 56.7288C292.863 56.7057 296.215 56.8654 299.551 57.2073C296.215 57.5493 292.863 57.709 289.51 57.6859C286.156 57.7067 282.804 57.5469 279.468 57.2073V57.2073Z" fill="black"/>
<path d="M271.326 61.5497C274.662 61.2102 278.015 61.0504 281.368 61.0712C284.721 61.0481 288.074 61.2078 291.41 61.5497C288.074 61.8917 284.721 62.0514 281.368 62.0283C278.015 62.0491 274.662 61.8893 271.326 61.5497Z" fill="black"/>
<path d="M271.326 66.0784C274.662 65.7388 278.015 65.579 281.368 65.5998C284.721 65.5769 288.074 65.7367 291.41 66.0784C288.074 66.4202 284.721 66.5801 281.368 66.5574C278.015 66.5783 274.662 66.4184 271.326 66.0784V66.0784Z" fill="black"/>
<path d="M271.326 70.6074C274.662 70.2675 278.015 70.1075 281.368 70.1284C284.721 70.1054 288.074 70.2654 291.41 70.6074C288.074 70.9491 284.721 71.1089 281.368 71.086C278.015 71.1068 274.662 70.947 271.326 70.6074V70.6074Z" fill="black"/>
<path d="M279.468 74.3614C282.804 74.0214 286.156 73.8614 289.51 73.8823C292.863 73.8593 296.215 74.0193 299.551 74.3614C296.215 74.703 292.863 74.8628 289.51 74.8399C286.156 74.8607 282.804 74.7009 279.468 74.3614V74.3614Z" fill="black"/>
<path d="M315.839 274.308C318.446 276.469 320.512 279.209 321.872 282.31C321.883 282.334 321.889 282.359 321.889 282.386L321.889 282.397L321.89 282.404L321.822 282.242L321.837 282.271L321.889 282.348C323.041 285.027 323.531 287.946 323.315 290.855L323.305 290.913C323.31 290.897 323.312 290.88 323.31 290.863L323.309 290.863L323.309 290.863L323.307 290.906L323.277 291.928C323.272 292.268 323.288 292.608 323.325 292.945L323.326 292.962L323.327 292.981L323.327 292.989L323.326 292.956C323.363 293.27 323.399 293.582 323.46 293.897C323.508 294.218 323.601 294.502 323.671 294.786L323.691 294.868C323.694 294.873 323.697 294.88 323.698 294.886C323.7 294.893 323.699 294.9 323.698 294.907L323.721 294.973C323.845 295.371 323.994 295.76 324.168 296.139L324.411 296.717L324.716 297.264L325.41 298.314C325.652 298.652 325.913 298.977 326.19 299.287L326.274 299.411C326.247 299.34 326.196 299.28 326.131 299.241L326.242 299.339C326.565 299.697 326.913 300.033 327.282 300.343C327.662 300.645 328.008 300.991 328.412 301.258C328.804 301.539 329.236 301.787 329.644 302.054C330.069 302.296 330.508 302.509 330.937 302.739L330.661 302.674H330.668C330.753 302.673 330.837 302.69 330.915 302.725L330.943 302.738C331.462 302.971 331.987 303.19 332.527 303.377L332.312 303.34H332.326C332.395 303.339 332.463 303.349 332.528 303.372L332.559 303.383C333.841 303.838 335.185 304.09 336.544 304.128C337.2 304.146 337.855 304.08 338.493 303.931C339.111 303.757 339.915 303.542 340.566 303.392L340.572 303.391C340.63 303.378 340.689 303.371 340.748 303.37H340.755L340.519 303.408L340.586 303.392L340.681 303.367L341.066 303.29L341.258 303.251C341.324 303.239 341.404 303.218 341.375 303.233L341.475 303.207C342.287 303.046 343.081 302.931 343.883 302.797C343.908 302.793 343.933 302.79 343.958 302.79L343.989 302.789H344.004L343.893 302.797C344.773 302.662 345.673 302.56 346.544 302.465L347.874 302.331L349.251 302.217L349.192 302.219L351.129 302.085L353.096 301.984L353.151 301.985L353.202 301.99L358.132 302.485L358.216 302.49L385.758 305.042L385.664 305.038L385.74 305.045L385.843 305.05L389.023 305.345L388.921 305.341H388.928C388.96 305.341 388.997 305.342 389.028 305.345L394.997 305.887L395.174 305.901L395.309 305.916L395.227 305.905L396.111 305.982L396.553 306.021C396.666 306.027 396.778 306.039 396.89 306.056L396.899 306.262C396.901 306.296 396.912 306.329 396.932 306.357C396.951 306.384 396.978 306.406 397.01 306.419C397.041 306.432 397.075 306.435 397.109 306.429C397.142 306.423 397.173 306.408 397.198 306.385C397.223 306.362 397.241 306.332 397.25 306.3C397.258 306.267 397.258 306.232 397.247 306.2C397.237 306.167 397.218 306.139 397.192 306.117C397.166 306.095 397.134 306.081 397.1 306.077C396.906 306.052 397.031 306.071 397.069 306.067L397.217 306.072L397.513 306.083C397.716 306.094 397.889 306.081 398.078 306.082C398.438 306.074 398.796 306.046 399.152 305.997C399.469 305.95 399.781 305.871 400.082 305.761C400.197 305.717 400.308 305.661 400.412 305.594C400.444 305.573 400.474 305.55 400.502 305.524C400.516 305.513 400.515 305.512 400.515 305.512C400.502 305.538 400.524 305.477 400.447 305.641L401.374 304.979C401.978 304.949 402.575 304.845 403.154 304.669C403.412 304.591 403.661 304.484 403.895 304.351C403.996 304.293 404.092 304.228 404.182 304.156C404.224 304.122 404.257 304.091 404.288 304.061C404.299 304.055 404.366 303.961 404.299 304.062L404.954 303.57C405.383 303.472 405.794 303.309 406.173 303.087C406.311 303.007 406.434 302.905 406.537 302.784C406.568 302.749 406.594 302.71 406.615 302.667C406.622 302.652 406.624 302.644 406.627 302.64C406.626 302.667 406.624 302.586 406.623 302.758L407.371 301.691C407.876 301.539 408.348 301.291 408.759 300.96C408.951 300.8 409.124 300.618 409.275 300.418C409.402 300.249 409.509 300.066 409.592 299.872C409.692 299.591 409.893 299.359 410.155 299.218C410.5 299.064 410.813 298.846 411.078 298.577C411.222 298.354 411.216 298.422 411.145 298.186C410.956 297.86 410.701 297.578 410.396 297.358C410.034 297.072 409.645 296.822 409.234 296.61L409.409 296.677L392.403 291.812C386.732 290.198 381.074 288.536 375.416 286.875L375.47 286.888L373.905 286.509L374.092 286.532H374.07L374.035 286.531C373.983 286.531 373.933 286.523 373.883 286.509C370.074 285.458 366.386 284.009 362.879 282.187C359.395 280.368 356.083 278.235 352.985 275.816C349.901 273.406 346.981 270.793 344.246 267.993C341.505 265.212 338.98 262.227 336.691 259.064C339.141 262.087 341.788 264.946 344.614 267.62C347.428 270.291 350.417 272.771 353.562 275.044C356.69 277.313 359.999 279.321 363.456 281.047C366.907 282.742 370.527 284.07 374.255 285.009L374.069 284.987L374.092 284.986C374.142 284.986 374.193 284.991 374.242 285.001L374.28 285.009L375.789 285.339C375.806 285.342 375.827 285.347 375.844 285.352C381.539 286.878 387.236 288.402 392.918 289.974L409.973 294.669L409.985 294.672C410.041 294.688 410.095 294.709 410.147 294.735C410.695 295.011 411.215 295.34 411.697 295.719C412.261 296.136 412.722 296.675 413.046 297.297C413.254 297.718 413.333 298.191 413.272 298.656C413.255 298.781 413.233 298.905 413.207 299.026L413.067 299.347L412.908 299.659C412.847 299.743 412.782 299.818 412.717 299.897C412.255 300.421 411.687 300.841 411.051 301.129L411.614 300.475C411.467 300.908 411.251 301.313 410.974 301.676C410.726 302.011 410.439 302.316 410.12 302.584C409.494 303.097 408.774 303.484 408.001 303.722L408.748 302.656C408.753 302.833 408.731 303.01 408.685 303.181C408.651 303.304 408.608 303.424 408.556 303.541C408.461 303.749 408.34 303.943 408.196 304.12C407.947 304.424 407.649 304.684 407.315 304.889C406.748 305.233 406.131 305.487 405.486 305.643L406.141 305.151C406.051 305.296 405.944 305.431 405.823 305.553C405.735 305.643 405.642 305.728 405.544 305.807C405.366 305.954 405.176 306.086 404.976 306.202C404.61 306.414 404.221 306.585 403.816 306.712C403.069 306.946 402.295 307.086 401.513 307.129L402.439 306.467C402.379 306.604 402.301 306.733 402.206 306.85C402.147 306.925 402.083 306.995 402.014 307.061C401.897 307.176 401.77 307.281 401.634 307.373C401.401 307.53 401.151 307.662 400.889 307.765C400.432 307.941 399.957 308.065 399.473 308.134C399.027 308.195 398.578 308.229 398.128 308.237C397.912 308.237 397.68 308.248 397.479 308.236L397.168 308.225L397.013 308.219C396.901 308.218 396.789 308.207 396.679 308.187L396.89 308.208L395.04 308.042L394.957 308.031L394.821 308.016L394.997 308.03L394.714 308.013L394.516 307.994L394.141 307.958L393.386 307.885L391.861 307.74L388.83 307.456L388.929 307.461H388.921C388.887 307.461 388.852 307.459 388.819 307.456L385.637 307.148L385.74 307.153L385.664 307.145L385.57 307.141L371.798 305.793L358.048 304.341L358.132 304.345L355.513 304.062L352.99 303.754L353.096 303.761L351.217 303.815L349.311 303.903L349.252 303.905L347.999 303.985L346.703 304.085C345.825 304.161 344.976 304.238 344.115 304.35L344.096 304.352C344.066 304.356 344.035 304.358 344.004 304.357H343.989L344.095 304.35C343.313 304.463 342.518 304.561 341.754 304.694L341.854 304.668C341.693 304.709 341.641 304.714 341.575 304.726L341.371 304.763L340.965 304.835L341.059 304.81L340.991 304.825L340.856 304.853C340.823 304.86 340.789 304.863 340.755 304.863H340.748L340.928 304.841C340.18 304.998 339.596 305.141 338.828 305.335C338.066 305.498 337.286 305.561 336.507 305.523C334.996 305.448 333.506 305.135 332.094 304.594L332.326 304.637H332.312L332.294 304.636C332.226 304.635 332.159 304.623 332.095 304.599C331.517 304.385 330.951 304.134 330.393 303.867L330.668 303.93H330.661L330.623 303.93C330.539 303.929 330.457 303.907 330.384 303.866C329.926 303.61 329.46 303.368 329.013 303.099C328.581 302.805 328.14 302.538 327.717 302.22C327.284 301.918 326.915 301.538 326.513 301.201C326.116 300.85 325.744 300.474 325.399 300.073L325.51 300.171C325.414 300.102 325.335 300.013 325.276 299.911L325.36 300.034C325.061 299.685 324.782 299.319 324.522 298.94L323.808 297.771L323.496 297.158L323.25 296.516C323.076 296.091 322.928 295.655 322.809 295.211L322.831 295.278C322.804 295.187 322.781 295.094 322.763 295L322.783 295.082C322.611 294.407 322.505 293.717 322.465 293.022L322.464 293.012L322.464 292.989L322.464 292.981L322.465 293.017C322.439 292.65 322.436 292.283 322.454 291.916L322.528 290.82L322.526 290.862C322.529 290.815 322.536 290.769 322.546 290.723L322.536 290.781C322.847 287.981 322.478 285.147 321.46 282.521L321.51 282.598L321.496 282.567L321.437 282.444C321.431 282.432 321.428 282.418 321.428 282.404L321.428 282.397L321.445 282.484C320.835 280.937 320.051 279.463 319.111 278.092C318.175 276.704 317.077 275.434 315.839 274.308V274.308Z" fill="#020202"/>
<path d="M410.605 300.172C410.397 299.787 410.104 299.454 409.749 299.199C409.409 298.948 409.039 298.742 408.647 298.586C407.865 298.235 407.005 298.046 406.119 297.731C406.58 297.642 407.051 297.618 407.518 297.663C407.992 297.708 408.457 297.824 408.896 298.009C409.35 298.195 409.756 298.48 410.085 298.844C410.426 299.2 410.614 299.678 410.605 300.172V300.172Z" fill="#020202"/>
<path d="M407.685 302.71C407.728 302.229 407.291 301.995 406.963 301.761C406.59 301.536 406.203 301.336 405.804 301.163C404.966 300.807 404.15 300.405 403.358 299.957C404.296 299.983 405.218 300.2 406.07 300.593C406.509 300.788 406.914 301.054 407.268 301.379C407.454 301.549 407.607 301.752 407.718 301.979C407.779 302.092 407.808 302.22 407.803 302.349C407.797 302.477 407.756 302.602 407.685 302.71V302.71Z" fill="#020202"/>
<path d="M405.219 304.61C405.196 304.305 405.062 304.019 404.843 303.806C404.641 303.592 404.407 303.411 404.149 303.269C403.617 302.98 403.054 302.753 402.47 302.591C401.886 302.404 401.282 302.255 400.674 302.106C400.067 301.951 399.451 301.813 398.834 301.617C400.121 301.497 401.418 301.624 402.657 301.991C403.296 302.172 403.895 302.469 404.427 302.866C404.717 303.045 404.948 303.307 405.089 303.617C405.23 303.928 405.275 304.273 405.219 304.61V304.61Z" fill="#020202"/>
<path d="M401.442 306.056C401.542 305.838 401.551 305.589 401.468 305.364C401.385 305.139 401.217 304.956 400.999 304.855C400.57 304.604 400.107 304.415 399.624 304.294C399.136 304.141 398.627 304.019 398.116 303.889C397.607 303.75 397.088 303.629 396.572 303.44C397.656 303.306 398.757 303.392 399.807 303.692C400.36 303.837 400.873 304.105 401.308 304.476C401.548 304.677 401.707 304.957 401.757 305.266C401.773 305.414 401.753 305.563 401.698 305.7C401.643 305.838 401.555 305.96 401.442 306.056V306.056Z" fill="#020202"/>
<path d="M411.237 299.759L411.229 299.827L410.242 312.545C410.116 314.187 409.542 315.764 408.582 317.102C407.622 318.441 406.314 319.49 404.799 320.137C398.896 322.654 388.582 325.866 378.043 323.552C373.877 322.639 369.941 320.885 366.478 318.395C366.478 318.395 353.044 312.394 349.342 317.799C348.279 319.353 348.023 321.848 349.116 325.708L333.005 323.981L317.287 322.293C317.287 322.293 320.37 318.599 318.523 314.633C317.125 311.56 316.609 308.159 317.031 304.81C317.05 304.59 317.08 304.371 317.121 304.154C317.145 303.931 317.18 303.71 317.227 303.491C317.264 303.257 317.31 303.031 317.355 302.805C317.656 301.417 318.048 299.857 318.569 298.108C319.382 295.432 319.848 292.663 319.956 289.868C320.038 287.41 319.827 284.915 318.764 284.085L321.66 282.397V282.404C321.667 282.412 321.667 282.427 321.675 282.434C322.971 285.025 323.409 287.961 322.926 290.818C322.922 290.832 322.919 290.848 322.918 290.863C322.876 291.271 322.856 291.681 322.858 292.092C322.858 292.303 322.865 292.506 322.873 292.71C322.881 292.8 322.888 292.891 322.896 292.981V292.989C322.911 293.185 322.926 293.381 322.956 293.577C322.979 293.773 323.009 293.969 323.047 294.165C323.062 294.255 323.084 294.353 323.107 294.444C323.136 294.61 323.176 294.774 323.228 294.934C323.233 294.988 323.245 295.041 323.265 295.092C323.31 295.266 323.363 295.439 323.424 295.613C323.568 296.064 323.744 296.505 323.951 296.932C324.049 297.135 324.155 297.331 324.268 297.527C324.496 297.943 324.75 298.343 325.029 298.726C325.143 298.884 325.271 299.05 325.391 299.201C325.52 299.359 325.64 299.51 325.776 299.661C325.787 299.68 325.802 299.695 325.821 299.706C325.964 299.872 326.115 300.038 326.281 300.196C326.379 300.302 326.484 300.407 326.597 300.513C326.979 300.877 327.379 301.222 327.796 301.545C327.97 301.674 328.135 301.802 328.309 301.915C328.671 302.179 329.047 302.413 329.424 302.639C329.832 302.88 330.246 303.099 330.661 303.302H330.668C330.962 303.445 331.249 303.574 331.543 303.694C331.799 303.8 332.055 303.898 332.312 303.988H332.327C332.516 304.056 332.711 304.124 332.9 304.184C334.357 304.667 335.89 304.879 337.423 304.81C337.926 304.784 338.424 304.703 338.908 304.569C339.195 304.486 339.496 304.41 339.806 304.335C340.032 304.275 340.25 304.222 340.484 304.177C340.575 304.154 340.657 304.139 340.748 304.116H340.756C340.778 304.109 340.801 304.109 340.823 304.101C341.057 304.056 341.298 304.011 341.54 303.965C341.57 303.958 341.592 303.958 341.615 303.95C341.856 303.905 342.105 303.86 342.346 303.822C342.889 303.732 343.439 303.649 343.99 303.573H344.005C344.163 303.551 344.329 303.528 344.487 303.506C344.909 303.453 345.324 303.408 345.739 303.362C346.131 303.325 346.508 303.287 346.885 303.249C347.367 303.204 347.834 303.166 348.279 303.129C348.423 303.121 348.566 303.106 348.702 303.098C348.89 303.083 349.071 303.068 349.244 303.061H349.252C349.682 303.031 350.089 303.008 350.458 302.985C350.601 302.978 350.745 302.97 350.88 302.963C351.43 302.933 351.898 302.91 352.26 302.902C352.411 302.895 352.546 302.887 352.66 302.887C352.938 302.872 353.097 302.872 353.097 302.872C353.662 302.94 354.296 303.008 354.989 303.083C355.117 303.098 355.253 303.114 355.388 303.129C355.946 303.189 356.542 303.249 357.175 303.317C357.439 303.347 357.711 303.37 357.99 303.4C358.037 303.409 358.085 303.414 358.133 303.415C358.298 303.43 358.464 303.453 358.63 303.468C358.796 303.483 358.962 303.506 359.135 303.521C359.271 303.536 359.414 303.551 359.558 303.566C359.761 303.581 359.965 303.604 360.168 303.626C360.304 297.731 364.88 292.702 368.748 289.506C369.351 289.001 369.939 288.541 370.489 288.141C370.964 287.779 371.416 287.463 371.824 287.184C373.165 286.257 374.07 285.759 374.07 285.759H374.093C385.559 283.422 395.563 291.707 395.563 291.707C394.391 292.429 393.268 293.227 392.201 294.097C391.57 294.603 390.969 295.144 390.399 295.718C388.605 297.424 387.212 299.507 386.321 301.817C386.245 302.013 386.185 302.209 386.125 302.397C385.907 303.092 385.758 303.807 385.68 304.531C385.657 304.691 385.645 304.852 385.642 305.013C385.636 305.048 385.634 305.083 385.635 305.119C385.618 305.443 385.628 305.769 385.665 306.091C385.687 306.091 385.718 306.099 385.74 306.099C386.125 306.137 386.494 306.167 386.863 306.204C387.323 306.25 387.768 306.295 388.206 306.333C388.447 306.355 388.688 306.378 388.922 306.4H388.929C389.17 306.423 389.404 306.446 389.638 306.468C389.872 306.483 390.098 306.506 390.316 306.529C390.58 306.551 390.829 306.574 391.078 306.596C391.417 306.627 391.741 306.657 392.051 306.687C392.367 306.717 392.669 306.747 392.955 306.77C393.234 306.8 393.498 306.823 393.747 306.845C394.124 306.875 394.47 306.913 394.787 306.943C394.855 306.951 394.93 306.958 394.998 306.966C395.043 306.966 395.089 306.973 395.134 306.973C395.91 307.041 396.468 307.094 396.74 307.117C396.807 307.124 396.852 307.132 396.89 307.132C396.908 307.136 396.925 307.138 396.943 307.139C400.901 307.365 401.444 306.054 401.444 306.054C404.482 305.858 405.221 304.606 405.221 304.606C407.746 303.958 407.686 302.706 407.686 302.706C408.338 302.544 408.942 302.23 409.449 301.79C409.956 301.35 410.352 300.796 410.604 300.173L411.237 299.759Z" fill="#020202"/>
<path d="M330.004 278.319C329.541 278.505 329.043 278.589 328.545 278.566C328.046 278.543 327.558 278.414 327.114 278.186C326.65 277.931 326.287 277.526 326.083 277.037C325.893 276.573 325.85 276.061 325.96 275.571C326.088 276.007 326.275 276.423 326.516 276.808C326.746 277.154 327.056 277.439 327.421 277.637C328.235 278.015 329.109 278.246 330.004 278.319V278.319Z" fill="#020202"/>
</svg>
