<svg width="153" height="136" viewBox="0 0 153 136" fill="none" xmlns="http://www.w3.org/2000/svg">
<path d="M130.636 84.6823C130.756 84.7337 130.864 84.8227 130.946 84.94C131.028 85.0573 131.083 85.1986 131.104 85.3495C131.13 85.5879 131.215 85.8117 131.348 85.9923C131.405 86.0531 131.383 86.2202 131.396 86.3325C131.647 86.5656 131.844 86.8699 131.97 87.2174C131.841 87.6353 131.909 88.1618 131.644 88.5907C131.367 88.7613 131.099 88.9559 130.812 89.0961C130.505 89.2458 130.238 88.83 129.899 88.9852C129.882 89.0433 129.877 89.1591 129.826 89.2127C129.108 89.5366 128.374 89.8067 127.628 90.0215C127.536 90.2249 127.604 90.453 127.581 90.6638C127.611 90.7432 127.672 90.7438 127.725 90.7738C128.046 90.9219 128.313 91.1989 128.48 91.557C128.607 91.8167 128.783 92.0376 128.993 92.2019C129.107 92.3098 129.21 92.4321 129.302 92.5669C129.502 92.822 129.563 93.1958 129.896 93.3574C130.149 93.4801 130.328 93.8172 130.552 94.0721L130.838 94.1096C130.81 94.4621 131.306 94.5261 131.119 94.9124C131.492 95.4175 131.919 95.8615 132.39 96.2324C132.417 96.4099 132.411 96.5921 132.374 96.7669C132.338 96.9418 132.27 97.1053 132.176 97.2467C131.665 97.6589 131.122 98.0119 130.555 98.3008C129.986 98.6344 129.385 98.8823 128.765 99.0391L128.658 98.9204C128.485 99.2003 128.228 99.0021 128.01 99.0895C127.895 99.2502 127.688 99.2483 127.556 99.3795C127.433 99.5022 127.158 99.433 127.191 99.763C127.018 99.8084 126.901 100.006 126.695 99.9816C126.487 99.9659 126.278 99.9637 126.07 99.9751C125.481 100.249 125.084 100.813 124.48 100.884C124.067 101.392 123.467 101.38 122.979 101.658C122.395 101.991 121.789 102.246 121.205 102.564C121.03 102.66 120.786 102.598 120.668 102.843C120.176 102.903 119.699 103.08 119.266 103.363C118.384 103.735 117.499 104.103 116.629 104.512C115.63 104.982 114.599 105.338 113.602 105.816C113.031 106.131 112.425 106.349 111.802 106.461C111.762 106.465 111.722 106.479 111.687 106.502C111.651 106.524 111.619 106.556 111.594 106.593C111.352 106.839 111.058 107 110.743 107.056C110.181 107.184 109.644 107.436 109.159 107.799C108.823 108.038 108.451 108.198 108.064 108.27C107.507 108.413 106.976 108.671 106.493 109.032C106.24 109.161 105.976 109.256 105.706 109.315C105.272 109.519 104.817 109.655 104.385 109.888C104.085 110.077 103.742 110.145 103.407 110.081C102.918 110.451 102.375 110.71 101.807 110.844C101.568 110.877 101.395 111.092 101.157 111.164C100.833 111.262 100.519 111.395 100.19 111.488C99.8884 111.574 99.5814 111.783 99.2631 111.899C99.2438 111.906 99.2144 111.889 99.201 111.901C98.8509 112.16 98.4681 112.35 98.0672 112.464C97.478 112.71 96.8972 112.99 96.2994 113.201C95.834 113.358 95.385 113.578 94.961 113.856H94.3763C94.329 113.909 94.2911 113.983 94.2375 114.007C93.2334 114.456 92.2338 114.923 91.2173 115.328C90.9629 115.43 90.6616 115.41 90.3994 115.528C90.1624 115.634 89.9392 115.784 89.6415 115.953H89.1423C88.7588 116.15 88.4672 116.487 88.0548 116.428C87.7759 116.708 87.398 116.726 87.095 116.944C86.8087 117.153 86.4878 117.285 86.1545 117.331C86.0759 117.343 85.9999 117.373 85.9306 117.418C85.5475 117.652 85.1457 117.84 84.7311 117.977C84.3969 118.106 84.0743 118.275 83.768 118.48C83.3941 118.742 82.9845 118.924 82.5579 119.017C82.2514 119.088 81.9538 119.205 81.6722 119.366C80.8419 119.706 80.0307 120.109 79.2434 120.572C78.8834 120.817 78.4528 120.806 78.0754 121.038C77.6622 121.298 77.2278 121.507 76.7788 121.662C76.3049 121.816 75.83 121.977 75.3716 122.177C74.9667 122.312 74.5786 122.511 74.2174 122.768C73.8651 122.75 73.5158 122.851 73.209 123.058C72.914 123.241 72.598 123.372 72.271 123.445C71.8395 123.548 71.5174 123.946 71.067 124.001C70.7724 124.073 70.4812 124.164 70.1944 124.272C69.8778 124.406 69.5543 124.516 69.226 124.601C68.9681 124.692 68.7255 124.836 68.509 125.027H68.0489C67.9343 125.206 67.7792 125.343 67.6016 125.422C67.424 125.5 67.2314 125.516 67.0464 125.468C66.7357 125.83 66.2837 125.736 66.0155 126.088C65.6496 126.067 65.401 126.384 65.0973 126.542C64.3647 126.922 63.6277 127.292 62.9046 127.697C62.6355 127.848 62.444 127.635 62.1811 127.569C62.2248 127.3 61.9863 127.087 62.0309 126.771C61.7841 126.463 61.4686 126.193 61.5191 125.704C61.4117 125.585 61.3001 125.665 61.1976 125.629C60.8403 124.672 60.195 123.91 59.3895 123.494C59.4082 123.257 59.3449 122.964 59.2357 122.899C58.9848 122.751 58.8873 122.433 58.6763 122.252C58.6228 122.154 58.5995 122.036 58.6106 121.919C58.6217 121.803 58.6665 121.695 58.7373 121.613L58.4897 121.506V121.016C58.1367 120.923 58.1556 120.327 57.7444 120.332V119.678C57.3644 119.298 57.0588 118.823 56.8493 118.287C56.6681 117.872 56.3355 117.646 56.0948 117.25C56.1422 116.993 55.9081 116.775 55.9312 116.495C55.5488 116.237 55.22 115.88 54.9692 115.45C54.742 115.125 54.5664 114.739 54.3273 114.416C54.28 114.37 54.2419 114.311 54.2157 114.245C54.1895 114.178 54.1758 114.106 54.1755 114.033C54.1803 113.924 53.8606 113.502 53.7625 113.408C53.6981 113.347 53.5795 113.269 53.5858 113.215C53.6446 112.711 53.2147 112.701 53.0458 112.429V112.114C52.6337 111.777 52.4728 111.16 52.084 110.846C52.0115 110.704 52.1317 110.712 52.1126 110.585L51.7971 109.852C51.6916 109.707 51.5389 109.847 51.4594 109.776C51.3759 109.701 51.3062 109.605 51.2543 109.497C51.2025 109.388 51.1696 109.268 51.1576 109.143C51.1125 108.831 50.9731 108.55 50.7657 108.352C50.691 108.263 50.6207 108.168 50.5414 108.086C49.9485 107.414 49.4262 106.66 48.9858 105.838C48.8615 105.627 48.6704 105.485 48.6058 105.204C48.578 105.115 48.5265 105.039 48.4591 104.989C48.3917 104.938 48.3123 104.915 48.233 104.924V104.549C47.8335 104.139 47.5048 103.641 47.265 103.081C47.1296 102.841 46.9704 102.62 46.7911 102.425C46.6277 102.261 46.6115 101.98 46.3649 101.871C46.0935 101.751 45.9548 101.363 45.858 101.08C45.7687 100.817 45.6243 100.585 45.4385 100.407C45.2956 100.24 45.1868 100.035 45.1208 99.8098C44.8987 99.3932 44.6271 99.0173 44.3144 98.694V98.3967C43.95 98.343 44.0723 97.7163 43.6833 97.6682V97.1731C43.5579 97.0918 43.4308 97.0835 43.3534 96.9488C43.2302 96.7345 43.2745 96.3678 42.9604 96.3252C42.9277 96.0646 42.8268 95.823 42.672 95.6351C42.5237 95.4171 42.4351 95.1406 42.2837 94.9266C42.1376 94.7199 42.1005 94.4572 41.9758 94.2459C41.7827 93.8837 41.571 93.5361 41.3421 93.205C41.1616 92.9682 41.1222 92.5552 40.7759 92.512C40.8386 92.3138 40.6062 92.2564 40.6343 92.0482C40.6719 91.7687 40.4684 91.6996 40.2953 91.6452C40.2571 91.5383 40.3464 91.5282 40.352 91.512C40.4765 91.2345 40.1284 91.1097 40.2649 90.8704C40.2564 90.8472 40.2449 90.8256 40.2308 90.8066C39.7499 90.3192 39.3699 89.7058 39.1204 89.0144C38.9992 88.7214 38.694 88.5398 38.7497 88.0993C38.2262 87.9241 38.4419 87.0426 37.9125 86.8326C37.719 86.2965 37.4968 85.7758 37.2473 85.2737C37.0284 84.7729 36.6165 84.4116 36.5773 83.8312C36.4646 83.8172 36.3956 83.8497 36.3469 83.7497V83.1804C36.1178 82.8621 35.96 82.5018 35.7655 82.1731C35.5905 81.942 35.4783 81.6529 35.444 81.3441C35.4266 81.2313 35.3819 81.127 35.3156 81.044C34.882 80.625 34.856 79.9472 34.5683 79.4414C34.3019 78.9729 34.1914 78.3866 33.8084 78.0057V77.5674C33.5887 77.405 33.5506 77.0238 33.3071 76.8128V76.2506L32.2926 74.5437L32.4166 74.3753C32.4101 73.9083 31.9827 73.7455 31.9092 73.3331C31.8416 72.9542 31.5249 72.735 31.4861 72.3591C31.402 72.3406 31.3293 72.3869 31.2916 72.2758L31.363 72.1762C30.9189 71.1619 30.5324 70.1132 30.2062 69.0372L29.7993 68.5519C29.7247 68.1875 29.6091 67.8367 29.4556 67.5093C29.3375 67.3665 29.2472 67.1945 29.1911 67.0053C29.1351 66.8162 29.1147 66.6145 29.1314 66.4149C28.9957 66.2342 28.7487 66.0411 28.7695 65.9074C28.83 65.5192 28.3459 65.4291 28.5173 65.0305C28.0211 64.7036 27.9936 64.0857 27.8732 63.5437C27.8152 63.2825 27.7232 63.1676 27.5362 63.134C27.4547 62.8182 27.3243 62.5235 27.1518 62.265C26.9604 62.0744 27.1033 61.6481 26.7724 61.6207C26.7551 61.359 26.6201 61.1429 26.5833 60.8805C26.519 60.6288 26.4026 60.4005 26.245 60.2166C26.1227 60.0357 26.1333 59.7688 25.896 59.6307C25.7886 59.5682 25.7203 59.2835 25.5784 59.1498L25.6847 59.0231C25.4098 58.4535 25.0972 57.9107 24.75 57.4002C24.638 57.2493 24.7795 56.9825 24.5725 56.8835C24.6838 56.575 24.2147 56.736 24.3124 56.4169C24.3719 56.2224 24.1065 56.1087 24.1812 55.8734C24.1963 55.826 24.1019 55.7114 24.0415 55.6512C23.8862 55.4641 23.764 55.2416 23.6822 54.9971C23.4377 54.3499 23.1241 53.7429 22.7493 53.1915C22.6598 53.0661 22.5916 52.9211 22.5485 52.7647C22.3232 52.0093 21.864 51.4015 21.6216 50.6563C21.5872 50.5505 21.475 50.4809 21.3957 50.3909C21.4292 49.9628 21.3507 49.5329 21.1709 49.1603C21.2108 49.1313 21.2421 49.088 21.2601 49.0365C21.2782 48.9851 21.2822 48.9281 21.2716 48.8738C21.1856 48.6832 20.9268 48.9167 20.8065 48.6464C20.7285 48.4711 20.6148 48.3371 20.6524 48.1222C20.8519 48.0881 20.9577 47.895 21.0912 47.7484C21.2176 47.7482 21.3441 47.7483 21.4674 47.7483C21.9303 47.3036 22.4737 46.9937 23.0545 46.8431C23.4993 46.5007 23.9862 46.2432 24.4975 46.0798C24.864 45.8968 25.2103 45.6608 25.5287 45.3772C25.9062 45.1329 26.3151 44.9651 26.7388 44.8808C26.9806 44.789 27.2222 44.696 27.4613 44.6047C27.3234 44.033 27.1214 43.4861 26.8606 42.979L26.9576 42.8635C26.6095 42.4046 27.0816 41.932 26.9587 41.4566C26.5258 41.3428 26.5257 41.3428 26.4691 40.8924C26.5115 40.7944 26.5735 40.7103 26.6497 40.648C26.7259 40.5856 26.8138 40.5467 26.9057 40.5347C27.687 40.4682 28.3881 39.846 29.2216 40.0839C29.2906 40.1366 29.3428 40.2154 29.3698 40.3076C29.3969 40.3998 29.3974 40.5001 29.3712 40.5926C29.1628 40.8156 28.898 40.9494 28.6188 40.9728C28.1022 41.0081 27.5921 41.1282 27.103 41.3299C27.4589 41.87 27.7732 42.4476 28.0418 43.0554C28.5663 43.8259 29.0153 44.6652 29.3803 45.5572V45.8597C29.4607 46.0364 29.6212 46.0783 29.7578 46.165L29.6179 46.3318L29.9182 46.5638L29.7271 46.8156C30.0694 47.1567 30.1547 47.6893 30.3771 48.1382L30.3017 48.2338C30.267 48.4412 30.4476 48.2964 30.4872 48.3891C30.5148 48.503 30.5568 48.6111 30.612 48.7097C30.6678 48.7827 30.6482 48.9378 30.6624 49.059C30.8894 49.0965 30.9976 49.3249 31.1501 49.4787V50.3505C31.2781 50.6255 31.4021 50.8659 31.5049 51.1187C31.6033 51.477 31.7557 51.811 31.9544 52.1041C32.1775 52.36 32.1465 52.7556 32.3395 53.0534C32.4658 53.3656 32.5437 53.7025 32.5693 54.0478L32.9083 54.4241V55.0275C33.1024 55.3061 33.3285 55.5623 33.3045 55.9664C33.2951 56.0374 33.3096 56.1101 33.3447 56.1686C33.5846 56.4873 33.7433 56.881 33.8022 57.3036C33.9194 57.6849 34.1525 57.9808 34.2858 58.348C34.3406 58.4989 34.2956 58.576 34.1929 58.6817C34.42 59.1081 34.6536 59.5346 34.8755 59.9698C34.9573 60.1286 35.0229 60.2987 35.0709 60.4761C35.2458 61.0961 35.4738 61.693 35.7512 62.2573C35.9824 62.6899 36.1717 63.1524 36.3155 63.6359C36.3903 64.0408 36.5939 64.3953 36.8833 64.6248C36.9636 64.7045 37.0403 64.7893 37.0701 64.8207C37.1175 65.3658 37.2854 65.8861 37.5566 66.3284C37.8702 66.7365 38.0092 67.2776 38.3133 67.6924C38.4849 67.9267 38.4291 68.3746 38.7967 68.4281C38.8883 68.7077 39.0004 68.9771 39.1316 69.2333C39.2804 69.4366 39.4466 69.6211 39.6274 69.7833V70.293C39.6925 70.4224 39.7629 70.3793 39.7993 70.3878C40.0738 70.7292 39.9982 71.3498 40.5052 71.4983C40.4534 71.8979 40.9305 71.9863 40.8951 72.4016C41.1513 72.5866 41.11 73.114 41.4224 73.13C42.067 74.4904 42.8138 75.7782 43.6535 76.9775C43.6645 77.1407 43.7093 77.2983 43.784 77.4357C43.8586 77.5731 43.9606 77.6861 44.081 77.7648C44.2616 77.894 44.2521 78.1877 44.4106 78.2243C44.6525 78.2802 44.6359 78.5359 44.751 78.6823C44.8729 78.8134 44.9484 78.9949 44.9622 79.1899C45.0059 79.3984 45.1052 79.5843 45.2452 79.7194C45.6355 80.1394 45.9372 80.6634 46.1256 81.2489C46.1952 81.4849 46.4505 81.5156 46.4557 81.7494C46.4608 81.9749 46.6444 82.1172 46.61 82.3697C46.6007 82.438 46.8695 82.5181 46.8809 82.7373C47.2282 82.8101 47.2724 83.1622 47.3458 83.4752C47.3951 83.6851 47.4769 83.8232 47.6865 83.8319C47.8628 84.5866 48.5493 85.0146 48.6391 85.89C48.8435 86.1571 49.13 86.4022 49.1418 86.8868C49.1443 86.9881 49.3731 87.2523 49.4627 87.2686C49.564 87.2937 49.6552 87.3589 49.7216 87.4535C49.788 87.548 49.8258 87.6666 49.8288 87.7899C49.9015 88.2303 50.2025 88.5093 50.3032 88.9201C50.3307 88.9909 50.3761 89.0496 50.433 89.0882C50.4898 89.1267 50.5553 89.1432 50.6204 89.1352C50.6557 89.5863 50.9654 89.9128 51.0411 90.3838C51.4629 90.9868 51.7867 91.7181 52.2586 92.3223C52.3007 92.4413 52.1272 92.4292 52.1681 92.5505C52.246 92.7643 52.2871 93.0297 52.5349 93.1011V93.4278C52.6567 93.5924 52.7923 93.7417 52.9395 93.8735C53.0735 93.9732 52.9754 94.32 53.2403 94.247C53.3231 94.4581 53.3814 94.6816 53.4138 94.9114C53.4137 95.0942 53.4515 95.2742 53.5238 95.4353C53.5962 95.5965 53.7007 95.7338 53.8282 95.835C54.1005 96.0529 54.2775 96.3881 54.5558 96.5819L54.4316 96.7526L54.6767 96.8564V97.2822C55.054 97.8407 55.3721 98.4324 55.7767 98.9467C55.8864 99.112 55.9634 99.3046 56.0019 99.5103C56.1202 99.8638 56.3036 100.181 56.5384 100.439C56.6439 100.554 56.7104 100.711 56.7251 100.881C56.7413 101.15 56.9407 101.202 57.1564 101.181C57.3674 101.57 57.3774 102.067 57.7072 102.537L58.0802 102.74C58.1282 102.824 58.0216 102.829 58.008 102.891C58.2038 103.456 58.5513 103.927 58.9958 104.231V104.742C59.154 104.835 59.2939 104.967 59.4063 105.129C59.5188 105.291 59.6011 105.479 59.648 105.682C59.8428 105.722 60.0248 105.824 60.1745 105.978C60.3242 106.132 60.436 106.332 60.4979 106.556C60.5394 106.719 60.6266 106.861 60.7449 106.956C60.9261 107.093 60.8637 107.307 60.9236 107.506C61.3699 107.429 61.4105 107.866 61.5678 108.251C61.7338 108.315 62.0388 108.243 62.0352 108.692C62.0324 109.039 62.3676 109.09 62.5208 109.312C62.6489 109.463 62.7851 109.603 62.9286 109.733C63.1018 109.916 63.2517 110.131 63.4251 110.314C63.5799 110.512 63.7486 110.693 63.9293 110.856C64.0991 111.015 64.2423 111.21 64.3514 111.431C64.4725 111.635 64.7214 111.672 64.8015 111.875C64.9064 112.086 65.0417 112.273 65.2013 112.428C65.3166 112.569 65.3038 112.863 65.5476 112.851C65.5161 113.135 65.8571 113.08 65.8633 113.366C65.8678 113.569 66.1581 113.484 66.2067 113.707C66.2571 113.939 66.4504 114.036 66.5601 114.212C66.6549 114.364 66.7121 114.606 66.835 114.667C67.2121 114.852 67.3151 115.267 67.5163 115.649H68.0623C68.4385 115.367 68.8545 115.169 69.29 115.065C69.563 115 69.8208 114.865 70.0455 114.67C70.1658 114.528 70.4255 114.517 70.5809 114.417C70.8226 114.262 71.1099 114.393 71.319 114.165C71.527 113.987 71.7636 113.862 72.014 113.799C72.4378 113.624 72.8517 113.405 73.2843 113.273C73.4839 113.211 73.6425 113.079 73.8261 113.006C74.1225 112.888 74.3629 112.563 74.7166 112.654C75.4096 112.218 76.1862 112.038 76.8935 111.632C77.2365 111.41 77.5952 111.224 77.9655 111.077C78.3237 110.958 78.6806 110.831 79.033 110.689C79.578 110.505 80.1131 110.281 80.6352 110.019C80.9166 109.858 81.2398 109.838 81.5371 109.702C82.1013 109.443 82.6414 109.1 83.2201 108.904C83.9803 108.606 84.7272 108.262 85.4578 107.873C85.7693 107.725 86.0992 107.664 86.4162 107.539C86.9553 107.326 87.454 106.999 87.9987 106.808C88.7865 106.532 89.5076 106.022 90.2927 105.773C90.8146 105.607 91.273 105.304 91.7704 105.096C92.4318 104.82 93.0856 104.512 93.7417 104.217C94.2884 103.971 94.8624 103.797 95.4228 103.588C95.9609 103.387 96.466 103.055 97.0077 102.874C97.7275 102.635 98.3909 102.237 99.0903 101.945C99.1691 101.907 99.2419 101.852 99.3053 101.785C99.6034 101.817 99.902 101.731 100.155 101.541C100.575 101.206 101.103 101.111 101.534 100.78C101.968 100.818 102.248 100.41 102.609 100.233C102.969 100.056 103.339 99.8695 103.701 99.7408C104.385 99.4977 104.978 99.0367 105.639 98.7567C106.121 98.4484 106.627 98.1968 107.15 98.0056C107.769 97.5563 108.436 97.2079 109.132 96.9695C109.478 96.6904 109.881 96.5292 110.298 96.5032C110.392 96.242 110.673 96.466 110.777 96.2436C110.876 96.0291 111.087 96.1172 111.204 96.0199C111.698 95.682 112.234 95.4418 112.793 95.3084C113.084 95.2035 113.318 94.9906 113.59 94.8672C113.86 94.8015 114.122 94.6968 114.371 94.5556C114.444 94.4969 114.554 94.4682 114.621 94.3761C114.734 94.1585 114.889 93.9769 115.074 93.8469C115.259 93.717 115.467 93.6424 115.681 93.63C115.811 93.5779 115.935 93.5093 116.052 93.4254C116.064 93.3066 116.075 93.1878 116.086 93.0738C116.135 93.0572 116.192 93.0186 116.207 93.0351C116.54 93.3992 116.882 93.1086 117.162 92.9764C117.618 92.7613 118.064 92.5461 118.538 92.3762C118.978 92.2188 119.41 91.9727 119.863 91.8313C119.957 91.8021 119.995 91.7225 120.062 91.6712C120.642 91.284 121.242 90.9406 121.858 90.6426C122.287 90.394 122.767 90.2322 123.219 90.0114C123.473 89.8868 123.624 89.5249 123.948 89.5597C124.518 89.1933 125.13 88.931 125.765 88.7812C126.346 88.5595 126.931 88.3661 127.521 88.1825C127.766 88.1031 128.018 88.0588 128.271 88.0502C128.586 87.7011 129.065 87.7924 129.35 87.3692C129.341 87.1235 129.27 86.8868 129.144 86.6916C129.019 86.4965 128.846 86.3522 128.649 86.2788C128.616 86.0428 128.548 85.8159 128.447 85.6092L128.581 85.4179C128.555 85.2953 128.455 85.3523 128.381 85.3106C128.305 85.1152 128.385 84.7914 128.109 84.733C127.909 84.6907 127.864 84.5276 127.813 84.3311C127.658 83.9295 127.525 83.5165 127.414 83.0946L127.214 83.0325C127.242 82.7966 127.119 82.599 127.053 82.3703C126.769 82.2658 126.525 82.043 126.367 81.7423C126.209 81.4417 126.146 81.0833 126.19 80.7322C126.071 80.5703 125.912 80.4468 125.876 80.2074C125.846 80.0044 125.579 80.136 125.539 79.8542C125.512 79.6698 125.305 79.5222 125.174 79.353V78.7616C125.06 78.6583 125.01 78.4444 124.81 78.5587L124.795 78.1955C124.431 77.7869 124.169 77.2654 124.039 76.6892C123.703 76.4219 123.848 75.7625 123.406 75.5808C123.196 75.1064 123.002 74.6192 122.768 74.1619C122.558 73.8367 122.427 73.4487 122.39 73.0406L121.905 72.5132C121.92 71.9333 121.499 71.6195 121.429 71.1244C121.36 70.637 120.924 70.3866 120.82 69.7769L120.492 69.4614V68.7824L120.232 68.6727C120.385 68.2151 119.964 67.917 119.987 67.4401L119.516 66.9338C119.467 66.2308 118.918 65.8431 118.869 65.2393C118.817 64.5942 118.209 64.2278 118.352 63.5537C118.301 63.418 118.199 63.4674 118.138 63.4246C117.948 62.9325 117.977 62.3429 117.639 61.93C117.567 61.8423 117.595 61.7474 117.585 61.6534C117.575 61.5582 117.591 61.4323 117.547 61.3732C117.26 60.8402 117.011 60.2796 116.802 59.6975C116.597 59.2529 116.421 58.7899 116.277 58.3128H116.128C115.989 58.1655 116.126 57.9722 115.969 57.6802L115.794 57.5181C115.832 57.1115 115.773 56.7004 115.623 56.3324C115.598 56.2951 115.484 56.3765 115.364 56.3447C115.136 55.9007 115.031 55.3831 115.062 54.8642C114.662 54.7096 114.517 54.3317 114.352 53.9451C114.139 53.445 113.984 52.9073 113.764 52.4277C113.596 51.9025 113.398 51.3921 113.169 50.9007C113.091 50.7753 112.999 50.8101 112.914 50.7043V50.1258C112.684 49.785 112.675 49.3502 112.41 49.1959C112.377 48.9892 112.485 48.9595 112.518 48.8738C112.468 48.8279 112.424 48.774 112.387 48.7135C112.275 48.4676 111.924 48.5378 111.897 48.2166C111.875 47.9364 111.685 47.7326 111.661 47.5086C111.626 47.2803 111.53 47.0718 111.387 46.9149L111.479 46.8051L110.859 46.0671L110.98 45.8863C110.753 45.3431 110.495 44.8191 110.208 44.3182C110.06 44.0159 109.946 43.692 109.868 43.3546C109.829 43.071 109.716 42.8092 109.546 42.6055C109.086 41.887 108.662 41.1357 108.278 40.3559H107.989C108.038 39.9359 107.686 39.665 107.712 39.2195C107.609 39.1845 107.516 39.1198 107.44 39.031C107.363 38.9421 107.307 38.8321 107.275 38.7107C107.216 38.5025 107.162 38.225 106.84 38.238C106.863 38.1113 106.852 37.9791 106.807 37.8609C106.762 37.7428 106.687 37.6451 106.592 37.5822C106.554 37.3628 106.669 37.3384 106.703 37.2133C106.464 37.1826 106.195 37.1741 106.173 36.7783C105.93 36.7894 105.952 36.4871 105.825 36.3579C105.697 36.2275 105.519 36.0988 105.477 35.9294C105.355 35.4268 105.065 35.0268 104.902 34.5319C104.712 34.4636 104.55 34.3117 104.45 34.1069C104.133 33.5427 103.713 33.0825 103.378 32.5383C103.273 32.3176 103.127 32.1286 102.952 31.9858C102.712 31.8192 102.598 31.4156 102.393 31.1543C102.227 30.9207 102.078 30.6705 101.948 30.4063C101.761 30.1578 101.61 29.8731 101.503 29.5642C101.475 29.438 101.336 29.3457 101.245 29.2407C100.845 28.822 100.509 28.3244 100.251 27.7694C100.193 27.6284 100.007 27.7208 100.009 27.6047C100.014 27.2633 99.6648 27.3876 99.6115 27.1297C99.5634 26.9038 99.5008 26.6826 99.4241 26.4682C99.2236 25.9973 98.9531 25.5739 98.6257 25.2183C98.4648 25.0596 98.4833 24.7337 98.2632 24.6601C98.0383 24.5848 98.0579 24.2764 97.8779 24.1604C97.6905 24.0396 97.7145 23.7127 97.5184 23.5862C97.4519 23.5432 97.4814 23.4527 97.4604 23.389C97.3842 23.1577 97.3945 22.8561 97.2314 22.7044C97.0717 22.5559 97.028 22.3118 96.8552 22.1905C96.6137 22.021 96.5676 21.6651 96.3655 21.4497C96.1563 21.2519 95.9846 21.0034 95.8619 20.7205C95.8345 20.5942 95.8168 20.465 95.8093 20.3348C95.3181 19.8971 95.1855 19.1758 94.8801 18.4884C94.8233 18.4325 94.6591 18.4321 94.5924 18.2958C94.6138 18.222 94.6224 18.1438 94.6177 18.066C94.613 17.9881 94.5951 17.9123 94.565 17.8429C94.5349 17.7736 94.4934 17.7123 94.4428 17.6627C94.3922 17.6132 94.3337 17.5765 94.2709 17.5548C94.0203 17.4344 94.0017 17.109 93.8987 16.8605C93.844 16.7374 93.6666 16.8936 93.6594 16.7L91.7368 17.163C92.1714 17.4854 91.9902 18.1529 92.3845 18.5142V19.1246L92.776 19.5915L92.6095 19.8076H92.1449C92.103 19.8355 92.0623 19.8659 92.0231 19.8988C91.755 20.183 91.4226 20.3668 91.0675 20.4271C90.8278 20.5272 90.5963 20.6537 90.3761 20.8048C89.9144 20.9202 89.4748 21.1375 89.0801 21.4457C88.6539 21.4719 88.3067 21.8331 87.9151 21.9007C87.3547 22.0319 86.8177 22.2779 86.3278 22.6279C86.2226 22.6725 86.1121 22.6972 86.0005 22.7009L85.6179 23.2117C84.5945 23.4611 83.6094 23.8973 82.6974 24.5048C82.2078 24.4794 81.7232 24.6315 81.3075 24.9408C80.928 25.2524 80.4769 25.4159 80.0163 25.4088C79.3727 25.6317 78.7493 25.9307 78.1556 26.3016C77.2608 26.2845 76.4653 26.99 75.5863 26.9212C74.9625 27.3095 74.287 27.5661 73.5898 27.6792C73.2029 27.7569 72.8275 27.9017 72.4757 28.109C72.1178 28.3255 71.7216 28.4363 71.3203 28.4325C70.9722 28.3867 70.7004 28.7522 70.3499 28.7295C69.5519 29.2567 68.6081 29.2758 67.8007 29.7701C67.3644 29.7985 66.9392 29.9436 66.5563 30.1947C66.4784 30.2186 66.3988 30.2333 66.3184 30.2386C66.1131 30.2273 65.9072 30.2467 65.7059 30.2965C65.3594 30.4324 65.0279 30.6174 64.7183 30.8475C64.3554 30.7173 64.0074 31.1194 63.6219 30.9807L63.3567 31.297C63.1979 31.264 63.0348 31.2748 62.88 31.3288C62.7252 31.3827 62.5829 31.4782 62.464 31.608C62.1885 31.5508 61.905 31.6045 61.6578 31.7604C60.9926 31.9565 60.3381 32.2005 59.6978 32.4914C59.2365 32.4003 58.8571 32.7858 58.4147 32.8052C58.3537 32.7978 58.2926 32.8179 58.2434 32.8616C57.8497 33.1894 57.3675 33.3299 56.8915 33.2555L56.7138 33.5449C56.1389 33.5935 55.579 33.7861 55.0706 34.1103C54.7401 34.1717 54.4187 34.2897 54.1164 34.4606C53.8313 34.7 53.454 34.562 53.1434 34.7557C53.0292 34.8269 52.8575 34.7673 52.7408 34.7673C52.3907 35.1011 51.9663 35.3052 51.52 35.3543C51.2819 35.3862 51.0463 35.4418 50.816 35.5207C50.1104 35.8721 49.3782 36.1417 48.6293 36.3258C47.8732 36.502 47.1701 36.9087 46.4044 37.0235C46.2519 37.0701 46.1069 37.1467 45.9754 37.25C45.6492 37.476 45.2831 37.6079 44.9066 37.635C44.8266 37.6367 44.7484 37.6639 44.6801 37.7137C44.2287 37.991 43.7048 38.1199 43.2856 38.42C42.7198 38.8251 42.0532 38.7527 41.5079 39.1446C41.3536 39.1373 41.2001 39.1748 41.0607 39.254C40.9212 39.3331 40.8 39.4515 40.7075 39.5989C40.4101 39.6001 40.1166 39.679 39.8475 39.83C39.2693 40.1861 38.6404 40.4102 37.9932 40.491C37.6913 40.5025 37.5164 40.8647 37.2125 40.8049C36.5281 41.2124 35.7949 41.491 35.039 41.6308C34.3316 41.931 33.6043 42.1597 32.8648 42.3144C32.4408 42.6019 31.947 42.7076 31.4657 42.6138C31.3222 42.4536 31.2204 42.2311 30.9906 42.3181C30.5179 41.8144 30.112 41.2282 29.7867 40.5793C29.61 40.2727 29.4785 39.9322 29.3978 39.5727C29.2805 39.1575 29.2281 38.7201 29.2432 38.2822C29.2678 37.9687 29.2366 37.6526 29.1517 37.3544C29.0861 37.1587 29.0725 36.9435 29.113 36.7383C29.1534 36.5331 29.2458 36.3478 29.3776 36.2074V35.6053C29.6448 35.2453 30.0086 34.9742 30.023 34.4067C30.0273 34.2372 30.295 34.1745 30.2704 33.9265L30.9702 33.5189C31.0612 33.0036 31.637 33.0203 31.7642 32.611C31.8981 32.416 32.0417 32.5724 32.1516 32.4492C32.5742 32.0646 33.0526 31.7762 33.5628 31.5984C33.5808 31.5896 33.6051 31.6009 33.6256 31.5968C33.9932 31.5226 34.214 31.1185 34.5561 30.9986C34.9055 30.9235 35.2382 30.7634 35.5336 30.5284C35.7448 30.3497 35.9956 30.2494 36.2543 30.2399C36.4948 30.2296 36.7254 30.1229 36.9088 29.9372L37.2883 29.937C37.34 29.6354 37.5675 29.5751 37.7549 29.4902C38.1194 29.3251 38.4732 29.13 38.8408 28.9708C39.4061 28.7148 39.9568 28.4148 40.4892 28.0728C41.237 27.6086 41.9681 27.1061 42.7032 26.6132C42.788 26.543 42.8659 26.4616 42.9357 26.3708C43.1576 26.0819 43.4087 25.827 43.6834 25.6121C43.9136 25.4625 44.0213 25.1349 44.1886 24.8936C44.5268 24.5415 44.8006 24.11 44.9928 23.626C45.0275 23.4911 45.1651 23.4307 45.3176 23.4076C45.3155 23.0995 45.3568 22.7933 45.4398 22.5015C45.6784 21.8882 45.7227 21.191 45.9574 20.5693C45.7847 20.2153 46.1806 20.3417 46.2302 20.1096C46.3102 19.7354 46.5552 19.4151 46.6603 19.0438C46.7656 18.6879 46.9197 18.3553 47.1162 18.0597C47.1945 17.9633 47.2554 17.8489 47.2953 17.7234C47.3351 17.5979 47.353 17.4642 47.3479 17.3301C47.5104 17.2051 47.5704 16.9056 47.8189 16.9485C47.8489 16.7998 47.9036 16.6598 47.9798 16.5368C48.056 16.4138 48.1521 16.3103 48.2624 16.2324C48.349 16.1857 48.4188 16.1038 48.4596 16.0015C48.5003 15.8991 48.5093 15.7828 48.485 15.6733C48.756 15.5529 48.9793 15.3157 49.111 15.0085C49.1473 14.8961 49.2097 14.7985 49.291 14.727C49.4959 14.595 49.7624 14.5554 49.92 14.3745C50.0682 14.1775 50.2491 14.0194 50.4512 13.9102C50.5825 13.8481 50.7815 13.7932 50.8202 13.5131C50.8447 13.3356 51.0336 13.3063 51.1876 13.3347C51.5828 12.9389 52.0244 12.6141 52.4982 12.3703C53.0063 12.1158 53.4937 11.8061 53.9543 11.4453C54.2728 11.2196 54.6143 11.044 54.9704 10.9225C55.0453 10.8948 55.1214 10.8719 55.1984 10.8541C55.4678 10.7682 55.5954 10.3917 55.9531 10.4394C56.2003 10.4724 56.4246 10.1514 56.731 10.1391C56.9201 10.1315 57.0547 9.8012 57.2842 9.73603C57.6267 9.77021 57.9697 9.67641 58.2655 9.46745C58.4632 9.28186 58.7955 9.51697 59.0113 9.25772C59.6496 9.22179 60.2794 9.06905 60.8788 8.80487C61.2774 8.92031 61.6335 8.58856 62.0288 8.65195C62.2544 8.68812 62.4334 8.45559 62.6732 8.49386C62.8718 8.4946 63.0691 8.4567 63.2575 8.38171C63.6762 8.33131 64.0975 8.31957 64.5178 8.34666C64.7824 8.40064 65.0545 8.35467 65.2961 8.21514C65.4714 8.07287 65.7211 8.24641 65.9229 8.28044C66.0974 8.30986 66.1812 8.12766 66.3462 8.19282C67.0545 8.47268 67.8445 8.20016 68.5333 8.63793C68.9224 8.61839 69.2736 8.9688 69.6496 8.77092L69.9427 9.10369C69.9859 9.11831 70.0322 9.11301 70.0723 9.08875C70.1123 9.06449 70.1433 9.02299 70.1589 8.97273C70.3999 9.11555 70.6488 9.23902 70.9037 9.34202C71.2538 9.51155 71.575 9.75584 71.8515 10.0631C72.2422 10.3944 72.6699 10.6512 73.0609 10.9826C73.4155 11.3212 73.8026 11.6083 74.2141 11.8378C74.4896 11.97 74.6183 12.3883 74.9332 12.4996C75.0076 12.5259 75.0775 12.5695 75.1618 12.6112C75.1679 12.7075 75.1953 12.8002 75.2411 12.8798C75.2869 12.9594 75.3495 13.0232 75.4226 13.0646C75.6001 13.1647 75.6554 13.4256 75.8363 13.4777C76.0654 13.5435 76.0358 13.824 76.1651 13.9626C76.2553 14.0593 76.313 14.1957 76.4471 14.2419C76.8998 14.3978 77.2989 14.7824 77.8091 14.6916C78.691 14.8625 79.5864 14.9113 80.4776 14.8373C80.7431 14.8494 80.9684 15.0694 81.2488 15.0006C81.3874 14.9666 81.5397 15.0103 81.5814 14.8609C81.7157 14.8195 81.7414 14.9229 81.7937 14.9395C82.3858 15.0251 82.9851 15.0074 83.5729 14.8873C83.8586 14.7798 84.1549 14.7186 84.4542 14.7051C84.9928 14.6474 85.525 14.5239 86.0424 14.3363C86.52 14.2231 87.0117 14.2248 87.4887 14.3413C87.8711 14.4341 88.2669 14.4108 88.6399 14.2736L90.2162 14.8788L91.0467 15.8786C91.7651 15.9127 92.4826 15.791 93.1645 15.5193C93.4746 15.4367 93.786 15.3565 94.0998 15.2987C94.4586 15.3066 94.8107 15.4159 95.1273 15.6176C95.2111 15.6489 95.2816 15.7651 95.3977 15.7611C95.4315 16.0872 95.6936 16.214 95.7863 16.3892C95.8793 16.8071 95.9076 17.1607 96.2757 17.2873C96.456 17.3494 96.4734 17.5835 96.4565 17.7806C96.8116 18.307 97.4157 18.631 97.3412 19.4573C97.4661 19.5066 97.579 19.5916 97.6701 19.7047C97.7612 19.8179 97.8278 19.9558 97.864 20.1067C97.8958 20.2968 97.963 20.4759 98.0608 20.6307C98.1586 20.7855 98.2843 20.912 98.4287 21.0009C98.6471 21.0902 98.6581 21.2969 98.7056 21.4121C98.8272 21.823 99.0492 22.1812 99.343 22.4401C99.4014 22.493 99.446 22.5647 99.4716 22.6467C99.4972 22.7287 99.5027 22.8175 99.4876 22.9031C99.6202 22.9981 99.8288 23.0382 99.8556 23.2277C99.884 23.429 99.8792 23.5613 100.08 23.6542C100.181 23.7006 100.169 24.0337 100.276 24.1327C100.405 24.2521 100.571 24.2898 100.498 24.5479C100.666 24.8527 100.982 25.0172 101.064 25.4048H101.31C101.457 25.5055 101.34 25.6876 101.407 25.8095C101.481 25.8375 101.553 25.874 101.621 25.9185C101.885 26.1291 101.801 26.6269 102.185 26.7875C102.501 26.9197 102.501 27.4109 102.658 27.7299C102.806 28.0294 102.903 28.4114 103.268 28.4631L103.302 28.8409C103.531 28.9065 103.842 28.8737 103.788 29.3205C103.756 29.5829 103.998 29.4277 104.064 29.6265C104.128 29.8091 104.222 29.9739 104.342 30.1108C104.462 30.2476 104.604 30.3535 104.759 30.4218C104.822 30.6236 104.988 30.8048 104.932 31.0712C105.254 31.2349 105.518 31.5271 105.68 31.8978C105.764 32.079 106.063 32.114 105.946 32.4311C106.101 32.6127 106.235 32.8265 106.438 32.8611C106.468 33.0444 106.388 33.0986 106.328 33.1745C106.362 33.2308 106.402 33.2819 106.447 33.3265C106.529 33.3896 106.623 33.4288 106.706 33.4905C106.982 33.6965 106.969 34.1575 107.207 34.3644C107.436 34.5644 107.686 34.7134 107.771 35.0632C107.837 35.2665 107.945 35.4473 108.084 35.5893C108.138 35.6572 108.233 35.6956 108.221 35.8224C108.18 36.2596 108.461 36.2574 108.716 36.3205L108.733 36.6485L109.142 37.0397L109.032 37.1945C108.932 37.3019 109.048 37.3183 109.073 37.3629C109.106 37.4247 109.17 37.4644 109.201 37.5272C109.23 37.5853 109.223 37.6692 109.252 37.7272C109.285 37.7914 109.331 37.8458 109.385 37.8864C109.442 37.9196 109.502 37.945 109.564 37.9622C109.707 38.3789 109.89 38.7748 110.108 39.1424C110.131 39.172 110.18 39.1727 110.218 39.187C110.247 39.2797 110.161 39.2911 110.138 39.3528C110.146 39.5033 110.258 39.4144 110.334 39.4858C110.426 39.833 110.577 40.1537 110.778 40.4279C111.042 40.8674 111.247 41.3533 111.386 41.8682C111.392 41.9161 111.405 41.9622 111.427 42.0036C111.448 42.0449 111.476 42.0807 111.509 42.1085C111.542 42.1364 111.58 42.1558 111.62 42.1655C111.659 42.1753 111.7 42.1751 111.74 42.1651C111.758 42.873 112.222 43.1895 112.516 43.5914C112.527 43.6458 112.522 43.7028 112.503 43.7539C112.485 43.8051 112.452 43.8474 112.411 43.8746C112.485 44.1405 112.759 44.0972 112.865 44.3068C112.937 44.4441 112.888 44.5964 112.907 44.7795C113.126 45.0219 113.222 45.4198 113.492 45.6566C113.558 45.7145 113.516 45.7977 113.538 45.861C113.729 46.4735 113.968 47.0626 114.254 47.6201C114.368 47.8258 114.256 48.0685 114.412 48.3057C114.604 48.57 114.82 48.8094 115.054 49.0199L114.921 49.1989L115.169 49.3018V49.9496C115.719 50.8447 116.165 51.8245 116.494 52.8625L116.832 53.2561C116.695 53.785 117.082 54.1014 117.261 54.5104C117.391 54.8097 117.273 55.097 117.348 55.3877C117.432 55.4677 117.488 55.6309 117.648 55.596C117.771 55.962 118.037 56.2702 117.965 56.717C118.273 56.9828 118.273 57.5058 118.587 57.7682C118.565 57.7876 118.547 57.8128 118.535 57.8418C118.523 57.8708 118.516 57.9027 118.516 57.9352C118.516 57.9676 118.522 57.9996 118.535 58.0287C118.547 58.0577 118.564 58.083 118.586 58.1025C118.649 58.1884 118.598 58.3919 118.598 58.5422C119.014 58.6371 118.899 59.1447 119.079 59.4267C119.275 59.7346 119.167 60.1733 119.434 60.5281C119.563 60.5865 119.672 60.6911 119.748 60.8275C119.824 60.9639 119.863 61.1254 119.858 61.289C119.882 61.582 119.891 61.8426 120.184 61.9566C120.282 61.9949 120.338 62.2215 120.348 62.3126C120.37 62.6262 120.488 62.9191 120.681 63.134C120.719 63.1774 120.745 63.2332 120.756 63.2943C120.767 63.3554 120.762 63.4189 120.743 63.4769C120.691 63.6843 120.83 63.813 120.888 63.9366C121.24 64.6821 121.252 64.6734 121.255 65.2037C121.723 65.4724 121.613 66.3004 122.14 66.5396C122.141 66.64 122.141 66.7405 122.141 66.843L122.508 67.2767C122.507 67.3458 122.512 67.4149 122.522 67.4829C122.549 67.8132 122.647 68.1294 122.809 68.3997C122.984 68.6834 123.097 69.0155 123.137 69.3651C123.203 69.6457 123.292 69.7966 123.543 69.8053L123.448 69.9672C123.519 70.5401 124.018 70.8199 124.131 71.4023L124.04 71.5272C124.54 72.0361 124.867 72.7459 124.957 73.5225L125.426 74.0818V74.4067C125.707 74.5364 125.713 75.0127 126.047 75.1202L126.077 75.4461C126.129 75.587 126.261 75.45 126.3 75.6011L126.201 75.7418C126.288 75.9167 126.472 76.0084 126.459 76.2887C126.479 76.4768 126.558 76.6486 126.681 76.7687C126.804 76.9037 126.962 76.9748 127.031 77.1926C127.07 77.4085 127.086 77.6293 127.079 77.85C127.346 78.0376 127.544 78.339 127.632 78.6934C127.742 79.0157 127.858 79.3365 128 79.6764C128.227 79.7691 128.383 80.0371 128.577 80.2543C128.594 80.5135 128.671 80.7617 128.8 80.9709C128.856 81.0703 128.918 81.1648 128.986 81.2535C129.123 81.4914 129.024 81.9045 129.294 81.9969C129.576 82.0934 129.564 82.4392 129.768 82.6025C129.899 82.7064 130.002 82.8543 130.063 83.0275C130.125 83.2007 130.142 83.3917 130.112 83.5765C130.175 83.7055 130.246 83.6619 130.32 83.6775C130.22 83.9408 130.442 84.1458 130.354 84.4017L130.705 84.4473C130.779 84.5674 130.65 84.5677 130.636 84.6823ZM47.1622 35.063C47.5551 35.0735 47.9441 34.9688 48.2952 34.7583C48.3811 34.7296 48.4587 34.6483 48.5583 34.6065C49.52 34.2016 50.5088 33.9067 51.4816 33.5491C51.8775 33.4036 52.2879 33.3574 52.6825 33.187C53.106 33.0042 53.5058 32.7604 53.922 32.5632C54.3622 32.3546 54.8837 32.4695 55.266 32.0557C55.3007 32.0182 55.3887 32.0524 55.452 32.0506C55.607 32.0236 55.76 31.9819 55.9095 31.9259C56.3411 31.835 56.7166 31.4589 57.1548 31.6031C57.3289 31.3447 57.5814 31.1788 57.8575 31.1412C58.3693 31.0842 58.8689 30.9211 59.3337 30.659C59.982 30.3211 60.6641 30.0842 61.3631 29.9541C61.6963 29.8959 62.0246 29.803 62.3443 29.6767C62.5335 29.5959 62.7328 29.4074 62.9758 29.4801C63.1485 29.5317 63.2837 29.3559 63.3986 29.2589C63.5569 29.1253 63.7561 29.108 63.8792 29.0077C64.1564 28.7817 64.4942 29.0224 64.7445 28.7457C64.9932 28.471 65.3883 28.7172 65.6445 28.4281C65.9783 28.5982 66.1467 28.1757 66.4243 28.1189C66.9654 27.8848 67.5295 27.7351 68.1027 27.6735C68.2792 27.4739 68.5217 27.554 68.726 27.4648C69.0511 27.3044 69.3868 27.1761 69.7295 27.0812C70.1004 26.998 70.411 26.6199 70.8248 26.7678C71.0551 26.5096 71.3869 26.6046 71.6531 26.4119C71.9344 26.2462 72.2357 26.1336 72.546 26.0782C73.1551 25.7938 73.7955 25.6164 74.4473 25.5516C75.2282 25.0431 76.0763 24.9572 76.8362 24.507C77.5048 24.556 78.0975 23.9594 78.7931 24.0569C78.9138 23.9249 79.0589 23.8288 79.2165 23.7758C79.3742 23.7228 79.54 23.7146 79.7008 23.752C79.8991 23.378 80.251 23.3682 80.5273 23.1916C81.1019 22.8402 81.7094 22.5714 82.337 22.3907C82.6886 22.3466 83.0313 22.2307 83.3501 22.0481C83.6701 21.7712 84.045 21.7004 84.354 21.4676C84.6093 21.2753 84.8749 21.1387 85.1327 20.9764C85.4198 20.7957 85.7189 20.7037 85.9984 20.5497C86.2121 20.4879 86.4143 20.3797 86.5951 20.2304C86.7798 20.0482 87.0159 19.9571 87.2551 19.9757C87.5164 19.9846 87.7744 19.9041 87.9985 19.7435C88.3169 19.548 88.5929 19.281 88.9468 19.0871C89.4471 18.9643 89.959 18.9224 90.4686 18.9626C90.386 18.8958 90.3216 18.8018 90.283 18.692C90.2445 18.5823 90.2336 18.4615 90.2516 18.3445C90.2669 18.1989 90.2465 18.051 90.1927 17.9189C90.139 17.7869 90.0543 17.6764 89.9489 17.6007C89.5304 17.376 89.4591 16.9088 89.2894 16.4916C88.8622 16.6339 88.9048 16.0786 88.6532 15.8941C88.2639 16.0057 87.8921 15.7142 87.4723 15.7299C87.08 15.7446 86.7237 16.0029 86.3226 15.9033C85.9569 15.8695 85.5895 15.9371 85.2494 16.1009C84.8801 16.2147 84.4934 16.249 84.149 16.3857C83.7484 16.4947 83.3363 16.5312 82.9266 16.4942C82.2107 16.5276 81.4927 16.4906 80.776 16.5078C80.2272 16.413 79.6739 16.3592 79.1195 16.3468C78.9851 16.3696 78.8845 16.1049 78.7317 16.2058C78.2996 16.4913 77.8389 16.2814 77.4175 16.3578C77.2225 16.1736 76.9869 16.0607 76.7393 16.033C76.2601 16.0226 75.7959 15.8315 75.4133 15.487C75.3193 15.37 75.1599 15.5322 75.1435 15.5043C74.9519 15.0363 74.9111 14.5991 74.48 14.6731C74.0683 14.2765 73.7373 13.7738 73.5116 13.2028C73.2018 13.1224 72.9981 12.8333 72.6826 12.8601L72.2263 12.2864C72.1091 12.2512 71.9854 12.3414 71.9139 12.2135C71.7232 11.9578 71.4951 11.7458 71.2407 11.5877C70.8916 11.1977 70.4803 10.8954 70.0314 10.6989C69.4842 10.5323 68.9647 10.2467 68.3988 10.1158C68.0935 10.0453 67.8092 9.80339 67.4788 9.86681C67.1408 9.9317 66.848 9.7186 66.519 9.69637C65.4328 9.623 64.3619 9.88705 63.2812 9.85482C62.899 9.86564 62.5205 9.94577 62.1585 10.0926C61.8508 10.1677 61.5481 10.2703 61.2531 10.3992C60.9472 10.5076 60.6311 10.5702 60.3123 10.5857C59.9559 10.6451 59.6031 10.731 59.2557 10.843C58.8991 10.9728 58.5304 11.0358 58.1748 11.1863C57.8922 11.279 57.6153 11.3946 57.3459 11.5323C57.0468 11.6478 56.754 11.7852 56.4691 11.9439C56.1967 12.1601 55.8082 12.189 55.5037 12.4277C55.1796 12.5972 54.8663 12.7946 54.5662 13.0183C54.5271 13.0733 54.4783 13.1174 54.4234 13.1475C54.3684 13.1775 54.3085 13.193 54.248 13.1925C54.1582 13.1915 54.0694 13.2144 53.988 13.2598C53.9066 13.3052 53.8347 13.3717 53.7777 13.4546C53.5785 13.6516 53.3506 13.8033 53.1054 13.9021C52.9493 13.9929 52.7917 14.1016 52.6335 14.1777C52.2452 14.3642 51.954 14.7461 51.5514 14.888C51.5365 14.9561 51.5406 15.0512 51.5037 15.088C51.1974 15.3937 50.826 15.5846 50.5092 15.8805C50.4238 15.9603 50.165 15.9677 50.1677 16.1055C50.1731 16.3875 49.9568 16.3395 49.8707 16.4792C49.5756 17.0549 49.239 17.5988 48.8647 18.1047V18.4574C48.8256 18.4425 48.7842 18.4381 48.7434 18.4443C48.7027 18.4505 48.6635 18.4672 48.6288 18.4934C48.594 18.5195 48.5645 18.5544 48.5422 18.5955C48.5199 18.6367 48.5054 18.6831 48.4998 18.7317C48.4431 19.27 48.0778 19.6294 47.9742 20.1375C47.9436 20.2875 47.8137 20.4087 47.7311 20.5403C47.706 21.1628 47.5275 21.7626 47.2181 22.2647L47.331 22.4818C47.0788 22.789 46.8935 23.165 46.7912 23.5773C46.7461 23.8621 46.6245 24.1218 46.4448 24.317C46.3426 24.4591 46.2636 24.6227 46.2117 24.7994C46.1491 24.944 46.1238 25.1316 46.031 25.2345C45.4489 25.9806 44.83 26.6845 44.1777 27.3427C43.9873 27.5085 43.7742 27.5125 43.5858 27.674C43.2048 28.0008 42.7667 28.2385 42.3885 28.581C42.1167 28.7659 41.8297 28.917 41.532 29.0315C41.0155 29.3595 40.4851 29.6555 39.943 29.9184C39.5723 30.0772 39.2514 30.3548 38.8686 30.4712C38.3602 30.5563 37.8731 30.7714 37.4407 31.1019C37.2896 31.2441 37.0703 31.1475 36.8701 31.2791C35.8791 31.9309 34.7862 32.3205 33.7736 32.9229C33.4794 32.8166 33.3723 33.2062 33.1319 33.2643C32.7405 33.359 32.4497 33.7241 32.0806 33.8762C31.7614 34.0076 31.69 34.3971 31.4626 34.6168C31.2352 34.7915 31.0502 35.0343 30.9261 35.3211C30.8019 35.6078 30.743 35.9284 30.7551 36.2508C30.3861 36.3683 30.6101 36.8476 30.4126 37.1148C30.3696 37.2008 30.3521 37.3016 30.363 37.4009C30.374 37.5002 30.4126 37.5922 30.4727 37.6621C30.5773 37.7799 30.511 37.9472 30.5153 38.0906C30.5252 38.4171 30.5314 38.7454 30.5147 39.0712C30.5179 39.3569 30.5871 39.636 30.7147 39.8778C30.813 40.1026 31.0041 40.3011 31.0133 40.5574C31.0246 40.8713 31.3999 40.9809 31.2799 41.3362C31.4265 41.4751 31.4073 41.7549 31.6006 41.8623C31.6259 41.8297 31.6491 41.7715 31.6833 41.7601C32.1938 41.5892 32.7049 41.4206 33.2184 41.2626C33.2975 41.2523 33.3739 41.2223 33.4427 41.1746C33.902 40.8664 34.3794 40.5983 34.8711 40.3722C35.0147 40.283 35.1766 40.3652 35.3446 40.2783C35.8675 39.9624 36.4136 39.7045 36.976 39.5078C37.2192 39.4408 37.4514 39.2612 37.6795 39.1778C37.9112 39.0569 38.1533 38.9666 38.4015 38.9087C38.7737 38.8875 39.0132 38.5777 39.3389 38.4719C39.5112 38.4159 39.708 38.483 39.8596 38.3425C40.0988 38.121 40.4204 38.1242 40.665 37.9323C40.9147 37.7365 41.2504 37.7734 41.4613 37.4892C41.8052 37.5858 42.0138 37.2572 42.2771 37.1076C42.3501 37.0721 42.4259 37.0452 42.5033 37.0273C42.6966 36.9898 42.8865 36.9302 43.0702 36.8493C43.2616 36.7251 43.5308 36.8243 43.6637 36.5326C43.7793 36.2789 44.0792 36.5676 44.2169 36.3157C44.9325 36.0794 45.6355 35.7921 46.3224 35.4555C46.5968 35.3373 46.9258 35.3856 47.1622 35.063Z" fill="#212222"/>
<path d="M73.1027 67.203C73.0044 66.9984 72.8704 66.8214 72.7097 66.6841C72.549 66.5468 72.3654 66.4524 72.1714 66.4072L71.4811 65.5604C71.3791 65.5862 71.2733 65.5798 71.1741 65.5415C71.0749 65.5033 70.9859 65.4346 70.9159 65.3425C70.4826 64.797 69.8349 64.5101 69.5716 63.7635C69.3022 63.5844 69.0622 63.3482 68.8634 63.0668V62.7278C68.1273 62.5263 67.7013 61.8063 67.1793 61.2144C67.0731 61.118 66.906 61.2564 66.7927 61.0685C66.7101 60.9316 66.7219 60.7382 66.5791 60.6398C66.477 60.5696 66.358 60.5567 66.2664 60.4366C66.0431 60.2256 65.8893 59.9275 65.8321 59.5947C65.8207 59.3831 65.6856 59.3099 65.5831 59.1507C65.5286 58.7295 65.6795 58.2445 65.3809 57.867L65.9511 57.2679H66.133C66.1938 57.0667 66.2997 56.8893 66.4391 56.7549C67.186 56.1154 67.9326 55.4753 68.685 54.845C69.042 54.5458 69.412 54.2686 69.7755 53.9806C69.9081 53.8756 70.039 53.7678 70.1915 53.6445C70.724 53.6186 71.2471 53.8178 71.6687 54.2069C71.847 54.3991 72.0732 54.5163 72.3126 54.5404C72.6987 54.8328 72.8918 55.3895 73.3378 55.5976C73.551 56.0507 74.0607 56.1904 74.2094 56.7815C74.4142 56.8146 74.6124 56.891 74.7947 57.0071L74.8262 57.3533C74.9229 57.4568 75.0313 57.3871 75.1303 57.4055C75.3092 57.192 75.488 56.9786 75.6778 56.7523C75.6881 56.6479 75.662 56.484 75.7176 56.4175C76.0664 55.9294 76.3591 55.3881 76.5882 54.8079C76.7397 54.5236 76.9106 54.2548 77.0991 54.004C77.3103 53.7353 77.4382 53.3884 77.4615 53.021C77.8546 52.4695 78.1625 51.8392 78.3713 51.1594C78.492 50.7349 78.6859 50.3451 78.9403 50.0152C79.2083 49.6413 79.2499 49.1534 79.4753 48.7599C79.5377 48.6148 79.6098 48.4758 79.6907 48.3444C79.7481 48.2708 79.8501 48.2107 79.8627 48.1293C79.9672 47.4525 80.408 46.9951 80.6452 46.4029C80.855 45.879 81.1583 45.3904 81.3269 44.854C81.6136 43.9421 82.1479 43.2061 82.4701 42.3256C82.5627 42.0725 82.7974 41.8934 82.8901 41.6405C82.9981 41.3455 83.2936 41.1186 83.1693 40.7226C83.3247 40.4523 83.4511 40.16 83.5457 39.8523C83.5776 39.7837 83.618 39.7212 83.6653 39.6667V39.0759C83.9764 38.7562 84.2455 38.3826 84.4637 37.9676C84.5617 37.7382 84.7498 37.8159 84.8975 37.7553C85.2321 37.594 85.5985 37.5509 85.953 37.6312C86.1423 37.647 86.3323 37.6484 86.5218 37.6351C86.9427 37.6453 87.3595 37.7365 87.756 37.9053C87.7924 37.9243 87.8316 37.9345 87.8713 37.9354C88.3967 37.8663 88.9045 38.0997 89.4211 38.0726C89.6645 38.0598 89.8192 38.3113 90.0667 38.2495C90.2803 38.2207 90.4958 38.2174 90.71 38.2394C90.7568 38.3486 90.8302 38.4384 90.9207 38.4967C91.0112 38.555 91.1143 38.5792 91.2166 38.566C91.7197 39.1224 91.4398 39.6754 91.3171 40.2039C91.1822 40.7137 91.0242 41.2144 90.8438 41.7037C90.7206 42.1699 90.5643 42.6227 90.3765 43.0571C90.1852 43.3775 90.0258 43.7232 89.9015 44.0875L89.9553 44.1519C89.6872 44.8113 89.4293 45.4601 89.1604 46.1026C88.8957 46.7349 88.8419 47.4491 88.5239 48.1972L88.1115 48.6402V49.4867C87.8613 49.6012 87.6579 49.8268 87.544 50.1163C87.4205 50.3894 87.5796 50.8002 87.2476 50.9528C87.2094 51.2357 87.019 51.4914 87.0047 51.7276C86.9772 52.1808 86.7314 52.4561 86.5931 52.8229C86.6318 52.8838 86.7246 52.9265 86.7136 53.0015L86.2208 53.5703C86.2321 54.0501 86.1041 54.5199 85.8584 54.8999C85.7013 55.1138 85.7056 55.4905 85.5577 55.7214C85.3099 56.1081 85.3087 56.6143 85.0282 56.9584L85.1693 57.1697C85.154 57.1985 85.1419 57.2453 85.1154 57.266C85.0075 57.3759 84.9295 57.522 84.8917 57.6851C84.6981 58.1931 84.5055 58.7018 84.3004 59.2033C84.1035 59.685 83.8579 60.1424 83.6971 60.6397C83.5984 60.9499 83.4449 61.2313 83.2471 61.4646C82.9967 62.1353 82.6249 62.7314 82.1584 63.2103V63.52C81.4825 64.1985 81.0862 65.1737 80.4313 65.8979C79.9444 66.5191 79.3906 67.0607 78.7845 67.5085C78.2366 67.6966 77.7482 68.0528 77.1998 68.2339C77.0804 68.2659 76.9581 68.2791 76.8359 68.2732C76.4356 68.2835 76.0332 68.2505 75.6349 68.2858C75.3531 68.3006 75.0737 68.2181 74.8303 68.048C74.6021 67.902 74.3044 67.9249 74.1371 67.6848C73.9673 67.441 73.6419 67.6058 73.5036 67.2746C73.4686 67.1905 73.2372 67.2229 73.1027 67.203Z" fill="#DEDEDE"/>
<path d="M70.7886 46.5447C70.971 46.5135 71.1567 46.5591 71.3139 46.6737C71.7293 46.4573 72.1546 46.2691 72.5878 46.1098C72.7271 46.0665 72.8079 45.8566 72.9737 45.9373C73.3917 45.3517 74.0266 45.1987 74.541 44.808C74.7383 44.6582 75.0778 44.705 75.1131 44.2943C75.2914 44.2729 75.4196 44.0348 75.624 44.1259C76.194 43.8178 76.786 43.571 77.3928 43.3886C77.4292 43.3715 77.4977 43.3551 77.5096 43.3746C77.648 43.6018 77.8143 43.2793 77.9056 43.3838C77.9598 43.44 78.0237 43.4815 78.0927 43.5054C78.1617 43.5293 78.2342 43.535 78.3052 43.5221C78.4305 43.5219 78.5558 43.5221 78.6711 43.5221L78.9683 43.8769V44.3753L78.6254 44.7842C78.1887 44.9849 77.7216 45.0746 77.2542 45.0475C76.9182 45.0777 76.5926 45.201 76.3034 45.4075C75.732 45.8575 75.1196 46.2284 74.478 46.5134C74.151 46.67 73.84 46.8707 73.5511 47.1114C73.3592 47.2584 73.1006 47.2028 72.9659 47.4468C72.3398 47.4575 71.798 47.9468 71.1616 47.8998C71.1406 47.8983 71.112 47.8889 71.0995 47.9013C70.6974 48.189 70.2768 48.4381 69.8417 48.6465C69.6223 48.8026 69.3914 48.9523 69.1684 49.0881C68.8939 49.2553 68.5917 49.3645 68.3198 49.5564C67.9768 49.7786 67.6209 49.9713 67.255 50.1331C66.9864 50.2653 66.7207 50.4171 66.4516 50.5527C65.802 50.9286 65.133 51.2546 64.4487 51.5289C64.2876 51.6139 64.1315 51.7116 63.9814 51.8215C63.5531 52.0453 63.1122 52.2366 62.6905 52.4763C62.003 52.8914 61.343 53.3686 60.7163 53.9037C60.4524 54.1345 60.202 54.3864 59.9667 54.6576C59.7058 54.9698 59.43 55.2639 59.1409 55.5385C58.8737 55.7906 58.6902 56.1476 58.6229 56.5459C58.5828 56.7813 58.495 57.0013 58.3671 57.1867C58.3287 57.998 58.4106 58.8234 58.3173 59.6436C58.3131 59.6804 58.2585 59.7092 58.2301 59.7389C58.3128 59.8932 58.3591 60.0711 58.3642 60.2541C58.3693 60.4371 58.3328 60.6183 58.2588 60.7787C58.385 61.0278 58.3273 61.3985 58.6018 61.5295C58.7777 62.6336 59.0192 63.7214 59.3244 64.7847L59.2455 64.8884C59.2455 64.9135 59.2368 64.9463 59.2468 64.9627C59.4817 65.3458 59.4862 65.8571 59.7409 66.2443C59.8325 66.575 59.6058 66.9788 59.8764 67.2936C59.8004 67.6704 60.0811 67.9835 60.0107 68.3594C60.2785 68.5739 60.3119 68.9732 60.5059 69.2738C60.5185 69.7273 60.4702 70.2435 60.9895 70.4333C61.0252 70.5248 60.9333 70.5337 60.9254 70.558C60.8007 70.8279 61.1531 70.952 61.0011 71.2148C61.2752 71.4635 61.4769 71.8085 61.5778 72.2013C61.6184 72.3374 61.5944 72.4953 61.6418 72.6485C61.669 72.7383 61.7162 72.8176 61.7784 72.8778C61.8406 72.9379 61.9153 72.9769 61.9946 72.9901C62.0303 73.3284 62.1281 73.6532 62.2811 73.9412C62.4342 74.2292 62.6386 74.4732 62.8799 74.656C62.9725 74.7189 63.0489 74.8107 63.1009 74.9216C63.2231 75.2046 63.3418 75.4788 63.6348 75.5501C63.7144 75.8321 63.8747 76.0716 64.0876 76.2267C64.312 76.4964 64.595 76.6864 64.9048 76.7751C64.8998 77.2612 65.4789 77.2347 65.6059 77.7566C65.6881 77.8646 65.9097 77.7006 66.0064 77.923C66.0886 78.112 66.2408 78.1048 66.3909 78.0879C66.495 78.2035 66.5011 78.3832 66.6117 78.5072C67.0246 79.0282 67.4722 79.5086 67.9502 79.9434C67.9994 79.983 68.0225 80.056 68.1029 80.0535C68.5344 80.0401 68.708 80.439 68.9037 80.8032C69.2704 80.8209 69.6592 80.716 69.9397 81.1072C70.235 81.1072 70.5316 81.0867 70.8251 81.1134C71.0819 81.1368 71.3662 80.974 71.5924 81.2485C71.7884 80.9013 72.1893 81.336 72.3363 80.9673C72.4769 80.9329 72.5247 81.0233 72.614 81.128C72.898 80.8531 73.2729 80.9455 73.6168 80.8273C74.2119 80.6228 75.6293 80.0712 76.2868 79.7641C76.7832 79.4836 77.3057 79.2742 77.8433 79.1401C77.9401 79.1183 78.0305 79.0668 78.1057 78.9908C78.4031 78.7623 78.7309 78.5959 79.0752 78.4989C79.6052 78.2679 80.1142 77.9692 80.6357 77.7096C81.2485 77.4643 81.8372 77.1403 82.3913 76.7432C82.459 76.6867 82.5352 76.5623 82.6474 76.5799C83.0475 76.5663 83.4322 76.3925 83.7395 76.0865C84.2173 75.6693 84.7618 75.3736 85.3392 75.2177C85.5063 75.1959 85.5976 74.9972 85.7281 74.8954C86.0292 74.6606 86.401 74.6359 86.6802 74.3278C86.9638 74.0738 87.2638 73.8471 87.5774 73.6496C87.8775 73.4129 88.1754 73.1688 88.4536 72.8981C88.5704 72.7845 88.6857 72.8287 88.801 72.7983C88.9187 72.7489 88.7822 72.4506 88.9918 72.5053C89.1813 72.4968 89.0574 72.7204 89.1549 72.7811C89.1857 72.7686 89.2143 72.7497 89.2396 72.7254C89.7322 72.1144 90.3021 71.5997 90.9286 71.1997C91.1251 71.0913 91.3129 70.9619 91.4899 70.8131C91.6548 70.6405 91.8789 70.5508 92.0093 70.3104L91.8679 70.123C92.1515 69.7122 92.3743 69.2469 92.5268 68.7467C92.547 68.6517 92.4866 68.6103 92.4465 68.5564C92.507 68.4246 92.5406 68.2776 92.5443 68.1273C92.548 67.9771 92.5219 67.828 92.468 67.6922C92.3098 67.4112 92.4808 67.0842 92.2933 66.7876C92.1565 66.5713 92.39 66.1747 92.1536 65.9317L92.2698 65.7931C92.1781 65.6659 92.0024 65.6904 91.9302 65.5244C91.9348 65.3963 91.9289 65.2681 91.9126 65.1414C91.8885 64.6397 91.7294 64.1605 91.459 63.7751C91.2769 63.5202 91.1602 63.2081 91.1232 62.8761C91.1049 62.6523 91.0139 62.4461 90.8696 62.3016C91.0113 61.8462 90.6668 61.503 90.6416 61.0862C90.6121 60.5986 90.2732 60.361 90.1239 59.9789C90.1037 59.856 90.2149 59.8287 90.2438 59.7409L89.8913 59.3206C89.863 59.2201 90.0465 59.2006 89.9585 59.1053C89.6692 58.7922 89.8482 58.1522 89.3896 57.9565C89.3638 57.9455 89.383 57.8163 89.363 57.7499C89.2563 57.2587 89.0438 56.8092 88.7465 56.4463C88.6593 56.1563 88.8711 56.0118 88.8823 55.7905C89.0148 55.6894 89.2293 55.8389 89.3184 55.5891C89.505 55.6866 89.6715 55.8314 89.8063 56.0135C90.3187 56.597 90.7309 57.2937 91.0201 58.0651C91.0595 58.1831 91.1249 58.2862 91.2093 58.3636C91.2937 58.4409 91.3941 58.4899 91.4997 58.5049V58.9848C91.8812 59.247 91.8718 59.7865 91.9899 60.2113C92.0816 60.616 92.2286 61 92.425 61.3476C92.6805 61.7348 92.6796 62.2648 93.0046 62.5809C93.014 62.9169 93.244 63.1948 93.1449 63.5595L93.3606 63.6122C93.4993 63.8555 93.5296 64.1925 93.7982 64.4185C93.796 65.1208 93.9322 65.8138 94.1959 66.4417C94.1918 66.4144 94.0749 66.4539 94.0598 66.5363C94.0392 66.6478 93.9982 66.7925 94.0887 66.8863C94.1753 66.9761 94.1528 67.0165 94.0867 67.1078C94.0107 67.2126 94.1753 67.2311 94.174 67.3251C94.1643 67.4503 94.1659 67.5764 94.1789 67.7012C94.2103 67.7941 94.2539 67.8804 94.3081 67.9569C94.0527 68.3986 94.2259 68.9076 94.1658 69.3903C93.9195 69.759 93.7068 70.1581 93.5315 70.5807C93.4833 70.7783 93.3968 70.9596 93.2791 71.1101C93.1613 71.2605 93.0156 71.3759 92.8537 71.4469C92.1234 72.1406 91.3365 72.7448 90.5048 73.2506C90.4568 73.2858 90.3848 73.3038 90.3569 73.3622C89.9792 74.1525 89.2712 74.4343 88.6972 74.9275C87.8276 75.6115 86.9124 76.2091 85.9606 76.714C85.6278 77.0088 85.2546 77.2324 84.8577 77.3748C84.3814 77.5123 83.9291 77.7489 83.5218 78.0739C82.6669 78.6362 81.7668 79.0946 80.835 79.4417C80.7592 79.4658 80.6851 79.4967 80.6133 79.5343C80.2168 79.7877 79.799 79.9904 79.3667 80.1387C78.7572 80.387 78.1698 80.7072 77.6135 81.0946C77.0415 81.1589 76.4832 81.3418 75.9638 81.6351C75.4603 81.889 74.9405 82.0944 74.4095 82.2493C73.9595 82.3364 73.5144 82.4563 73.0766 82.6083C72.8286 82.69 72.567 82.5805 72.2988 82.7452C72.0857 82.876 71.7759 82.6973 71.5339 82.9114C71.4956 82.9339 71.4536 82.9458 71.4109 82.9461C71.3683 82.9463 71.3263 82.9348 71.2879 82.9127C70.8553 82.6328 70.3923 82.8141 69.9453 82.7719C69.6938 82.7482 69.4056 82.8561 69.1961 82.742C69.0025 82.6326 68.7995 82.5485 68.5906 82.4914C68.356 82.4441 68.1314 82.3423 67.9297 82.1918C67.8687 82.1442 67.7696 82.1661 67.6509 82.1518C67.4655 81.8821 67.2233 81.6759 66.9492 81.5545C66.6676 81.4641 66.6329 81.0242 66.2894 80.9238C66.0258 80.8467 65.9192 80.3977 65.7806 80.0648H65.4202C64.9778 79.7021 64.8181 79.0476 64.3265 78.6962H64.1318C63.8028 78.3691 63.5641 77.935 63.119 77.7653C62.926 77.6917 62.7953 77.3857 62.6538 77.2076C62.3875 77.184 62.2282 77.1411 62.1333 76.7902C62.0469 76.4711 61.9585 76.0327 61.5628 75.9518C61.457 75.8066 61.6192 75.5371 61.402 75.4427C61.4545 75.3634 61.5466 75.3189 61.5312 75.2466C61.4865 74.9063 61.1698 74.9643 61.0874 74.6652C61.0659 74.5523 61.0218 74.4474 60.9588 74.3594C60.8959 74.2713 60.8159 74.203 60.7258 74.16C60.5095 74.0897 60.5325 73.6947 60.2749 73.6591L60.3857 73.4343C60.3739 73.3851 60.3745 73.3272 60.3505 73.2972C60.1261 73.0174 59.8664 72.7693 59.8711 72.3218C59.8719 72.247 59.763 72.1787 59.7284 72.0938C59.5706 71.7971 59.4465 71.4767 59.3594 71.1411C59.2623 70.5729 58.9283 70.0985 58.8276 69.5195C58.8168 69.457 58.7338 69.4326 58.7377 69.3374C58.6622 68.4455 58.4665 67.5739 58.1582 66.7564C58.1095 66.5426 58.0995 66.5458 58.2315 66.2421C57.9677 65.9276 58.0066 65.4442 57.7847 65.1064C57.7024 65.1094 57.6126 65.1268 57.6015 64.9839C57.5807 64.8589 57.67 64.8127 57.7208 64.7327L57.6034 64.5788L57.7098 64.4388C57.3466 63.7008 57.2387 62.8388 56.8325 62.1183C56.9368 61.9381 56.9822 61.7183 56.9599 61.5009C56.9376 61.2835 56.8491 61.0834 56.7114 60.9385C56.76 60.7068 56.631 60.433 56.8307 60.1846C56.9126 60.0827 56.8427 59.8612 56.7253 59.736C56.8854 59.6215 56.8377 59.433 56.8403 59.2649C56.855 59.039 56.8537 58.812 56.8367 58.5864C56.8385 57.9488 56.89 57.313 56.9906 56.6868C57.0667 56.2657 57.2578 55.8866 57.534 55.6092C57.7737 55.2411 57.9905 54.8526 58.1827 54.4467C58.3531 54.4764 58.4096 54.1336 58.6165 54.0898C58.8014 54.0507 58.7345 53.6626 58.984 53.721C58.9281 53.4115 59.2093 53.406 59.2946 53.3803C59.5947 53.2901 59.6796 52.8573 59.9901 52.8231C60.0333 52.4327 60.3237 52.4062 60.5482 52.2752C61.0747 51.9681 61.5938 51.643 62.122 51.3402C62.6114 51.0506 63.1143 50.7946 63.6282 50.5734C63.8612 50.5028 64.0778 50.3702 64.2618 50.1856C64.4948 50.0159 64.755 49.906 65.0256 49.8628C65.4554 49.7051 65.8829 49.5206 66.2974 49.3318C66.7109 49.1164 67.109 48.8612 67.4877 48.5687C67.6541 48.4519 67.8206 48.2846 68.0448 48.3515C68.136 48.3787 68.1915 48.3054 68.2621 48.247C68.6234 47.9666 69.0118 47.7396 69.419 47.5709C69.8667 47.3399 70.3043 47.0814 70.7297 46.7965C70.7646 46.7751 70.7621 46.6663 70.7886 46.5447Z" fill="#212222"/>
<path d="M47.1622 35.0629C46.9258 35.3856 46.5968 35.3374 46.3224 35.4556C45.6355 35.7922 44.9325 36.0793 44.2168 36.3156C44.0792 36.5675 43.7793 36.2789 43.6637 36.5325C43.5308 36.8242 43.2616 36.725 43.0702 36.8492C42.8865 36.9301 42.6966 36.9897 42.5033 37.0273C42.4259 37.0451 42.3501 37.072 42.2771 37.1075C42.0138 37.2571 41.8051 37.5857 41.4612 37.4891C41.2503 37.7733 40.9147 37.7364 40.665 37.9322C40.4204 38.1241 40.0988 38.121 39.8596 38.3425C39.7079 38.4829 39.5112 38.4158 39.3389 38.4718C39.0131 38.5776 38.7736 38.8875 38.4014 38.9088C38.1532 38.9667 37.9112 39.0569 37.6795 39.1777C37.4514 39.2611 37.2192 39.4407 36.976 39.5077C36.4136 39.7044 35.8675 39.9624 35.3446 40.2782C35.1766 40.3651 35.0146 40.2829 34.871 40.3721C34.3793 40.5982 33.9019 40.8665 33.4426 41.1747C33.3738 41.2224 33.2974 41.2523 33.2183 41.2625C32.7049 41.4205 32.1937 41.5891 31.6832 41.76C31.649 41.7714 31.6259 41.8296 31.6006 41.8622C31.4073 41.7548 31.4265 41.4752 31.2799 41.3363C31.3999 40.981 31.0246 40.8712 31.0133 40.5573C31.0041 40.3011 30.813 40.1025 30.7147 39.8777C30.587 39.6359 30.5179 39.3568 30.5147 39.0711C30.5314 38.7453 30.5252 38.417 30.5153 38.0905C30.511 37.9471 30.5773 37.7798 30.4727 37.662C30.4126 37.5921 30.3739 37.5001 30.363 37.4008C30.3521 37.3015 30.3696 37.2009 30.4126 37.1149C30.6101 36.8478 30.3861 36.3682 30.7551 36.2507C30.7429 35.9283 30.8019 35.6077 30.926 35.321C31.0502 35.0343 31.2352 34.7914 31.4626 34.6167C31.69 34.397 31.7615 34.0076 32.0806 33.8761C32.4496 33.7241 32.7405 33.3589 33.1319 33.2642C33.3723 33.2061 33.4794 32.8165 33.7735 32.9228C34.7862 32.3204 35.879 31.9308 36.87 31.2791C37.0702 31.1474 37.2896 31.244 37.4407 31.1018C37.8731 30.7714 38.3601 30.5562 38.8685 30.4711C39.2513 30.3548 39.5723 30.0771 39.943 29.9183C40.4851 29.6554 41.0154 29.3595 41.532 29.0314C41.8297 28.9169 42.1167 28.766 42.3884 28.5811C42.7667 28.2386 43.2047 28.0008 43.5857 27.6739C43.7741 27.5124 43.9873 27.5084 44.1776 27.3426C44.83 26.6844 45.4488 25.9805 46.0309 25.2344C46.1238 25.1316 46.149 24.9439 46.2117 24.7993C46.2636 24.6226 46.3426 24.459 46.4448 24.3169C46.6244 24.1217 46.746 23.8622 46.7912 23.5774C46.8934 23.1651 47.0788 22.7889 47.331 22.4817L47.2181 22.2646C47.5275 21.7625 47.7059 21.1627 47.731 20.5402C47.8136 20.4086 47.9436 20.2876 47.9741 20.1376C48.0778 19.6295 48.4431 19.2699 48.4997 18.7316C48.5054 18.683 48.5199 18.6366 48.5422 18.5955C48.5645 18.5543 48.594 18.5194 48.6288 18.4933C48.6635 18.4671 48.7027 18.4504 48.7434 18.4442C48.7842 18.438 48.8256 18.4424 48.8647 18.4573V18.1046C49.239 17.5987 49.5756 17.0548 49.8707 16.4791C49.9568 16.3394 50.1731 16.3876 50.1677 16.1056C50.165 15.9678 50.4237 15.9602 50.5092 15.8804C50.826 15.5846 51.1974 15.3938 51.5037 15.0881C51.5406 15.0513 51.5366 14.9562 51.5515 14.8881C51.954 14.7461 52.2452 14.3641 52.6334 14.1776C52.7918 14.1015 52.9493 13.9928 53.1054 13.902C53.3506 13.8032 53.5785 13.6517 53.7777 13.4547C53.8347 13.3718 53.9066 13.3053 53.988 13.2599C54.0694 13.2145 54.1582 13.1914 54.248 13.1924C54.3085 13.1929 54.3683 13.1775 54.4233 13.1474C54.4782 13.1173 54.527 13.0733 54.5661 13.0183C54.8662 12.7945 55.1796 12.5971 55.5037 12.4276C55.8082 12.1889 56.1967 12.16 56.4691 11.9438C56.754 11.7851 57.0467 11.6477 57.3458 11.5322C57.6152 11.3945 57.8922 11.2789 58.1748 11.1862C58.5304 11.0357 58.8991 10.973 59.2557 10.8431C59.6031 10.7311 59.9559 10.645 60.3123 10.5856C60.6311 10.5701 60.9472 10.5075 61.2531 10.3991C61.5481 10.2702 61.8507 10.1676 62.1585 10.0925C62.5205 9.94568 62.899 9.86556 63.2812 9.85474C64.3618 9.88697 65.4327 9.62292 66.519 9.69629C66.8481 9.71851 67.1408 9.9318 67.4788 9.86691C67.8092 9.80345 68.0936 10.0452 68.3988 10.1158C68.9647 10.2466 69.4843 10.5322 70.0314 10.6988C70.4803 10.8953 70.8915 11.1976 71.2406 11.5876C71.495 11.7457 71.7231 11.9578 71.9138 12.2135C71.9853 12.3413 72.109 12.2511 72.2263 12.2863L72.6826 12.86C72.9981 12.8332 73.2017 13.1223 73.5115 13.2027C73.7372 13.7738 74.0683 14.2764 74.48 14.6731C74.9111 14.599 74.9519 15.0362 75.1435 15.5043C75.1598 15.5321 75.3193 15.37 75.4133 15.4869C75.7959 15.8314 76.2601 16.0227 76.7393 16.0331C76.9869 16.0608 77.2225 16.1735 77.4175 16.3578C77.8389 16.2814 78.2996 16.4912 78.7317 16.2058C78.8845 16.1048 78.9851 16.3695 79.1195 16.3467C79.6739 16.3591 80.2272 16.4129 80.776 16.5077C81.4927 16.4905 82.2107 16.5277 82.9266 16.4943C83.3363 16.5313 83.7483 16.4946 84.1489 16.3856C84.4933 16.2488 84.8801 16.2146 85.2494 16.1008C85.5895 15.937 85.9569 15.8694 86.3226 15.9032C86.7238 16.0028 87.08 15.7445 87.4723 15.7298C87.8921 15.7141 88.2639 16.0056 88.6532 15.894C88.9048 16.0786 88.8622 16.6338 89.2894 16.4915C89.4591 16.9087 89.5304 17.3761 89.9489 17.6008C90.0543 17.6765 90.139 17.787 90.1927 17.919C90.2465 18.0511 90.2669 18.1988 90.2516 18.3444C90.2336 18.4615 90.2444 18.5822 90.283 18.6919C90.3215 18.8017 90.386 18.8957 90.4685 18.9625C89.9589 18.9223 89.4471 18.9642 88.9468 19.0871C88.5929 19.2809 88.3169 19.5479 87.9985 19.7434C87.7744 19.904 87.5164 19.9846 87.2551 19.9756C87.0159 19.957 86.7798 20.0481 86.5951 20.2303C86.4143 20.3796 86.2121 20.4878 85.9984 20.5497C85.7189 20.7036 85.4197 20.7956 85.1326 20.9763C84.8748 21.1386 84.6093 21.2752 84.354 21.4675C84.045 21.7002 83.6701 21.7711 83.3501 22.048C83.0313 22.2306 82.6886 22.3465 82.337 22.3906C81.7094 22.5714 81.1018 22.8404 80.5272 23.1917C80.2509 23.3683 79.8991 23.3779 79.7008 23.7519C79.54 23.7146 79.3742 23.7227 79.2165 23.7757C79.0589 23.8287 78.9138 23.925 78.793 24.057C78.0974 23.9595 77.5048 24.556 76.8362 24.5069C76.0763 24.9571 75.2282 25.043 74.4473 25.5515C73.7955 25.6163 73.155 25.7937 72.5459 26.0782C72.2356 26.1335 71.9344 26.2461 71.653 26.4118C71.3869 26.6045 71.0551 26.5095 70.8248 26.7677C70.411 26.6198 70.1004 26.9979 69.7295 27.0811C69.3868 27.176 69.0511 27.3045 68.726 27.4649C68.5217 27.5542 68.2792 27.4739 68.1027 27.6734C67.5295 27.735 66.9653 27.8847 66.4243 28.1189C66.1466 28.1756 65.9783 28.5981 65.6445 28.428C65.3883 28.7171 64.9932 28.4709 64.7445 28.7457C64.4942 29.0223 64.1563 28.7817 63.8792 29.0076C63.756 29.1079 63.5569 29.1252 63.3986 29.2588C63.2837 29.3558 63.1485 29.5316 62.9758 29.48C62.7328 29.4074 62.5334 29.5958 62.3442 29.6766C62.0245 29.8029 61.6963 29.8958 61.3631 29.9541C60.6641 30.0842 59.9819 30.3211 59.3336 30.6589C58.8688 30.9211 58.3693 31.0843 57.8574 31.1413C57.5814 31.1789 57.3289 31.3447 57.1547 31.603C56.7165 31.4589 56.3411 31.8351 55.9095 31.926C55.76 31.982 55.6069 32.0236 55.4519 32.0505C55.3887 32.0523 55.3006 32.0181 55.266 32.0556C54.8837 32.4694 54.3622 32.3545 53.922 32.5631C53.5058 32.7603 53.106 33.0041 52.6825 33.1869C52.2879 33.3573 51.8775 33.4036 51.4816 33.549C50.5087 33.9066 49.52 34.2015 48.5583 34.6064C48.4587 34.6483 48.3811 34.7295 48.2952 34.7582C47.9441 34.9687 47.5551 35.0734 47.1622 35.0629ZM62.1626 15.7363C62.0786 15.7372 61.9949 15.7256 61.9133 15.702C61.6955 15.6047 61.4914 15.4094 61.2448 15.4519C60.963 15.4603 60.6835 15.39 60.4286 15.2464C60.3196 15.1922 60.2043 15.1583 60.0867 15.146C59.6881 15.1116 59.2878 15.117 58.89 15.1624C58.5138 15.1766 58.1434 15.2771 57.799 15.4583C57.5906 15.5853 57.3747 15.6939 57.153 15.7832C56.9267 15.9005 56.6321 15.9267 56.4877 16.239C56.4524 16.2972 56.3994 16.3367 56.34 16.3491C55.8251 16.4604 55.4713 16.9895 54.961 17.1032C54.9018 17.1193 54.8466 17.1516 54.7997 17.1976C54.7529 17.2436 54.7156 17.3019 54.691 17.3681C54.5334 17.7118 54.3181 18.0131 54.0586 18.2531C53.9404 18.3386 53.8377 18.4515 53.7565 18.5851C53.6754 18.7187 53.6175 18.8703 53.5862 19.031C53.7722 19.2392 53.6349 19.5066 53.6513 19.5857L53.9879 20.1263C54.1487 20.1263 54.2836 20.0757 54.3542 20.1346C54.7669 20.4021 55.2406 20.5049 55.7058 20.4279C56.0214 20.4296 56.3374 20.4402 56.6523 20.4235C56.8244 20.4144 56.9241 20.6666 57.1048 20.5784C57.6567 20.3948 58.218 20.2545 58.7853 20.1588C59.4501 19.9647 60.1003 19.7053 60.7292 19.3829C61.0355 19.1285 61.387 18.9623 61.7562 18.8974C61.9721 18.4401 62.4273 18.3207 62.6634 17.9166C62.6102 17.4336 62.9098 17.0579 62.9197 16.587L62.1626 15.7363Z" fill="white"/>
<path d="M62.1627 15.7363L62.9199 16.5869C62.9101 17.0578 62.6104 17.4334 62.6636 17.9165C62.4275 18.3206 61.9723 18.4399 61.7564 18.8972C61.3872 18.9621 61.0357 19.1284 60.7294 19.3828C60.1005 19.7051 59.4503 19.9645 58.7855 20.1586C58.2182 20.2543 57.6569 20.3946 57.105 20.5782C56.9244 20.6664 56.8246 20.4142 56.6526 20.4233C56.3376 20.44 56.0216 20.4294 55.706 20.4277C55.2408 20.5047 54.7671 20.4019 54.3544 20.1344C54.2838 20.0755 54.1488 20.1261 53.988 20.1261L53.6515 19.5855C53.6351 19.5064 53.7724 19.2391 53.5864 19.0308C53.6177 18.8701 53.6756 18.7185 53.7567 18.585C53.8379 18.4514 53.9406 18.3384 54.0588 18.2529C54.3184 18.0129 54.5336 17.7118 54.6912 17.3681C54.7158 17.3019 54.7531 17.2434 54.8 17.1974C54.8468 17.1514 54.902 17.1191 54.9612 17.103C55.4715 16.9894 55.8253 16.4603 56.3402 16.3489C56.3996 16.3366 56.4526 16.2971 56.4879 16.2388C56.6323 15.9266 56.9269 15.9003 57.1532 15.783C57.3749 15.6937 57.5908 15.5852 57.7992 15.4581C58.1436 15.277 58.5139 15.1764 58.8901 15.1623C59.288 15.1168 59.6883 15.1114 60.0869 15.1458C60.2045 15.1582 60.3198 15.192 60.4287 15.2462C60.6836 15.3898 60.9631 15.4602 61.2449 15.4517C61.4916 15.4092 61.6957 15.6045 61.9135 15.7018C61.9951 15.7255 62.0788 15.7372 62.1627 15.7363Z" fill="#212222"/>
</svg>
