<svg width="1440" height="375" viewBox="0 0 1440 375" fill="none" xmlns="http://www.w3.org/2000/svg">
<path d="M-213.395 369V5.36363H-69.929C-42.3485 5.36363 -18.8518 10.6311 0.561093 21.1662C19.974 31.5829 34.7704 46.0833 44.9503 64.6676C55.2486 83.1335 60.3977 104.44 60.3977 128.588C60.3977 152.736 55.1894 174.043 44.7727 192.509C34.3561 210.974 19.2637 225.357 -0.504251 235.655C-20.1539 245.953 -43.9465 251.102 -71.8821 251.102H-163.324V189.49H-84.3111C-69.5147 189.49 -57.3224 186.945 -47.7344 181.855C-38.0279 176.647 -30.8073 169.485 -26.0724 160.371C-21.2192 151.138 -18.7926 140.544 -18.7926 128.588C-18.7926 116.514 -21.2192 105.979 -26.0724 96.9829C-30.8073 87.8684 -38.0279 80.8253 -47.7344 75.8537C-57.4408 70.7637 -69.7514 68.2188 -84.6662 68.2188H-136.513V369H-213.395ZM134.086 369V5.36363H277.551C305.014 5.36363 328.451 10.276 347.864 20.1008C367.395 29.8073 382.251 43.5975 392.431 61.4716C402.729 79.2273 407.878 100.12 407.878 124.149C407.878 148.297 402.67 169.071 392.253 186.472C381.837 203.754 366.744 217.011 346.976 226.244C327.327 235.477 303.534 240.094 275.598 240.094H179.54V178.304H263.169C277.847 178.304 290.04 176.292 299.746 172.267C309.453 168.242 316.673 162.205 321.408 154.156C326.261 146.107 328.688 136.105 328.688 124.149C328.688 112.075 326.261 101.895 321.408 93.6094C316.673 85.3234 309.393 79.0497 299.569 74.7883C289.862 70.4086 277.611 68.2188 262.814 68.2188H210.968V369H134.086ZM330.463 203.517L420.84 369H335.968L247.544 203.517H330.463ZM820.123 187.182C820.123 226.836 812.606 260.572 797.573 288.389C782.658 316.206 762.298 337.454 736.493 352.132C710.807 366.692 681.924 373.972 649.846 373.972C617.53 373.972 588.529 366.633 562.843 351.955C537.156 337.277 516.855 316.029 501.941 288.212C487.026 260.394 479.569 226.718 479.569 187.182C479.569 147.527 487.026 113.792 501.941 85.9744C516.855 58.1572 537.156 36.9687 562.843 22.4091C588.529 7.73105 617.53 0.392032 649.846 0.392032C681.924 0.392032 710.807 7.73105 736.493 22.4091C762.298 36.9687 782.658 58.1572 797.573 85.9744C812.606 113.792 820.123 147.527 820.123 187.182ZM742.175 187.182C742.175 161.495 738.328 139.833 730.634 122.196C723.058 104.559 712.346 91.1828 698.496 82.0682C684.647 72.9536 668.43 68.3963 649.846 68.3963C631.261 68.3963 615.044 72.9536 601.195 82.0682C587.346 91.1828 576.574 104.559 568.88 122.196C561.304 139.833 557.516 161.495 557.516 187.182C557.516 212.868 561.304 234.53 568.88 252.168C576.574 269.805 587.346 283.181 601.195 292.295C615.044 301.41 631.261 305.967 649.846 305.967C668.43 305.967 684.647 301.41 698.496 292.295C712.346 283.181 723.058 269.805 730.634 252.168C738.328 234.53 742.175 212.868 742.175 187.182ZM1046.42 5.36363H1122.41V258.915C1122.41 282.352 1117.15 302.712 1106.61 319.994C1096.2 337.277 1081.7 350.593 1063.11 359.945C1044.53 369.296 1022.92 373.972 998.303 373.972C976.404 373.972 956.518 370.125 938.643 362.43C920.888 354.618 906.802 342.781 896.385 326.919C885.968 310.939 880.819 290.875 880.938 266.727H957.464C957.701 276.315 959.654 284.542 963.324 291.408C967.112 298.155 972.261 303.363 978.771 307.033C985.4 310.584 993.213 312.359 1002.21 312.359C1011.68 312.359 1019.67 310.347 1026.18 306.322C1032.81 302.179 1037.84 296.143 1041.27 288.212C1044.7 280.281 1046.42 270.515 1046.42 258.915V5.36363ZM1209.73 369V5.36363H1454.76V68.7514H1286.61V155.399H1442.15V218.787H1286.61V305.612H1455.47V369H1209.73ZM1860.48 132.672H1782.71C1781.29 122.61 1778.39 113.673 1774.01 105.861C1769.63 97.9299 1764.01 91.1828 1757.14 85.6193C1750.27 80.0559 1742.34 75.7945 1733.35 72.8352C1724.47 69.8759 1714.82 68.3963 1704.41 68.3963C1685.58 68.3963 1669.19 73.072 1655.22 82.4233C1641.25 91.6562 1630.42 105.151 1622.73 122.906C1615.03 140.544 1611.19 161.969 1611.19 187.182C1611.19 213.105 1615.03 234.885 1622.73 252.523C1630.54 270.16 1641.43 283.477 1655.4 292.473C1669.37 301.469 1685.52 305.967 1703.87 305.967C1714.17 305.967 1723.7 304.606 1732.46 301.884C1741.34 299.161 1749.21 295.196 1756.07 289.987C1762.94 284.661 1768.62 278.209 1773.12 270.634C1777.74 263.058 1780.93 254.417 1782.71 244.71L1860.48 245.065C1858.47 261.756 1853.43 277.854 1845.39 293.361C1837.45 308.749 1826.74 322.539 1813.25 334.732C1799.87 346.805 1783.89 356.393 1765.31 363.496C1746.84 370.48 1725.95 373.972 1702.63 373.972C1670.2 373.972 1641.19 366.633 1615.63 351.955C1590.18 337.277 1570.05 316.029 1555.26 288.212C1540.58 260.394 1533.24 226.718 1533.24 187.182C1533.24 147.527 1540.7 113.792 1555.61 85.9744C1570.53 58.1572 1590.77 36.9687 1616.34 22.4091C1641.91 7.73105 1670.67 0.392032 1702.63 0.392032C1723.7 0.392032 1743.23 3.35131 1761.22 9.26988C1779.33 15.1884 1795.37 23.8295 1809.34 35.1932C1823.31 46.4384 1834.67 60.2287 1843.43 76.5639C1852.31 92.8991 1857.99 111.602 1860.48 132.672ZM1925.51 68.7514V5.36363H2224.16V68.7514H2112.83V369H2036.84V68.7514H1925.51ZM2494.36 109.945C2492.94 95.6217 2486.84 84.4948 2476.07 76.5639C2465.3 68.633 2450.68 64.6676 2432.21 64.6676C2419.67 64.6676 2409.07 66.4432 2400.43 69.9943C2391.79 73.4271 2385.16 78.2211 2380.55 84.3764C2376.05 90.5317 2373.8 97.5156 2373.8 105.328C2373.56 111.839 2374.92 117.52 2377.88 122.374C2380.96 127.227 2385.16 131.429 2390.49 134.98C2395.81 138.413 2401.97 141.431 2408.95 144.036C2415.94 146.521 2423.4 148.652 2431.33 150.428L2464 158.24C2479.86 161.791 2494.42 166.526 2507.68 172.445C2520.93 178.363 2532.42 185.643 2542.12 194.284C2551.83 202.925 2559.34 213.105 2564.67 224.824C2570.12 236.543 2572.9 249.978 2573.02 265.129C2572.9 287.383 2567.22 306.678 2555.97 323.013C2544.84 339.23 2528.75 351.836 2507.68 360.832C2486.72 369.71 2461.45 374.149 2431.86 374.149C2402.5 374.149 2376.93 369.651 2355.15 360.655C2333.49 351.659 2316.57 338.342 2304.37 320.705C2292.3 302.949 2285.97 280.991 2285.37 254.831H2359.77C2360.6 267.023 2364.09 277.203 2370.25 285.371C2376.52 293.42 2384.87 299.516 2395.28 303.659C2405.82 307.684 2417.71 309.696 2430.97 309.696C2443.99 309.696 2455.3 307.802 2464.88 304.014C2474.59 300.226 2482.11 294.959 2487.43 288.212C2492.76 281.464 2495.42 273.711 2495.42 264.952C2495.42 256.784 2493 249.919 2488.14 244.355C2483.41 238.792 2476.43 234.057 2467.19 230.151C2458.08 226.244 2446.89 222.693 2433.63 219.497L2394.04 209.554C2363.38 202.097 2339.17 190.437 2321.42 174.575C2303.66 158.714 2294.84 137.348 2294.96 110.477C2294.84 88.4602 2300.7 69.2249 2312.54 52.7713C2324.5 36.3177 2340.89 23.4744 2361.72 14.2415C2382.56 5.00851 2406.23 0.392032 2432.75 0.392032C2459.74 0.392032 2483.29 5.00851 2503.41 14.2415C2523.66 23.4744 2539.4 36.3177 2550.64 52.7713C2561.89 69.2249 2567.69 88.2827 2568.05 109.945H2494.36Z" fill="black" fill-opacity="0.04"/>
</svg>
