<svg width="122" height="130" viewBox="0 0 122 130" fill="none" xmlns="http://www.w3.org/2000/svg">
<path d="M57.0303 25.2819L57.5238 24.4805C57.7378 24.388 57.9382 24.326 58.1248 24.2158C58.5208 23.9568 58.9691 23.9124 59.3862 24.091C59.65 24.1516 59.9184 24.1615 60.184 24.1202C60.4181 24.099 60.6311 24.2609 60.8483 24.2537C61.07 24.2464 61.2553 24.3985 61.4624 24.4126C61.6791 24.4644 61.8886 24.5655 62.0831 24.7116C62.2855 24.8379 62.483 24.9798 62.6747 25.1368C62.913 25.1233 63.1483 25.2175 63.3471 25.406C63.5836 25.5855 63.8454 25.6863 64.1129 25.701C64.3842 25.6985 64.6503 25.8074 64.8796 26.0148C65.0524 26.2041 65.2484 26.1445 65.4265 26.2189C65.6831 26.326 65.9247 26.4952 66.1678 26.6286C66.397 26.7545 66.6427 26.6378 66.8601 26.8566C67.0772 27.0217 67.3268 27.0772 67.5686 27.0141C67.6808 27.0116 67.791 27.0559 67.8859 27.1416C68.0914 27.3048 68.3189 27.4035 68.5532 27.4314C68.928 27.5127 69.2963 27.6474 69.6524 27.8334C69.7982 27.8845 69.902 27.9075 69.9971 27.7389C70.4475 27.9564 70.9139 28.1001 71.387 28.1672C71.732 28.246 72.0737 28.3516 72.4107 28.4836C72.5729 28.5097 72.7276 28.7602 72.9345 28.7475C73.1349 28.7352 73.3358 28.7449 73.5174 28.7449C73.7616 29.0167 74.0634 29.1613 74.3728 29.155C74.9413 29.2631 75.5039 29.4272 76.0567 29.6462C76.3471 29.7106 76.6305 29.8764 76.9365 29.9107C77.1404 29.9336 77.3339 30.0562 77.551 30.0571C77.7723 30.0768 77.9908 30.1372 78.2013 30.2369C78.3965 30.314 78.5886 30.4064 78.7768 30.5134C78.8947 30.5833 79.0211 30.6184 79.1487 30.6167C79.4674 30.6262 79.7813 30.7286 80.0714 30.9175C80.2759 31.0377 80.4882 31.1136 80.6904 31.2205C80.9343 31.3015 81.1678 31.4372 81.382 31.6228C81.5678 31.8286 81.8421 31.8139 82.0289 31.9839C82.2361 32.1558 82.475 32.2337 82.7138 32.2072C82.8786 32.5288 83.198 32.5591 83.2721 32.8691C83.5841 33.0012 83.8403 33.1066 84.0951 33.2184C84.3324 33.3225 84.3317 33.3255 84.4821 33.7197C84.7765 33.8823 85.0537 34.1028 85.3055 34.3749C85.4602 34.5935 85.6387 34.7483 85.7937 34.9516C86.1853 35.4654 86.7263 35.6824 87.0737 36.2806C87.0838 36.2981 87.0922 36.3176 87.1054 36.3444V36.6197L87.674 37.0106C87.7305 37.1783 87.773 37.4176 87.9765 37.4267C88.0083 37.6776 88.1517 37.8108 88.2611 37.9789H88.4676L88.6716 38.5735C88.8388 38.7117 88.9986 38.8544 89.1651 38.9792C89.429 39.1771 89.5362 39.5937 89.7646 39.839C89.8677 39.9524 89.9423 40.1105 89.9773 40.2897C90.0171 40.4755 90.2578 40.3509 90.2295 40.6328C90.4854 40.949 90.669 41.3679 90.7567 41.835C91.1246 42.1167 91.168 42.8093 91.5382 43.0631V43.3715C91.6097 43.5116 91.7584 43.4734 91.832 43.6878V44.2381C91.9091 44.3484 91.9901 44.419 92.0239 44.5213C92.1098 44.7818 92.1524 45.0754 92.2541 45.3204C92.3514 45.5546 92.5153 45.7308 92.6217 45.9594C92.6699 46.063 92.6499 46.2316 92.6651 46.4252L92.9547 46.759C92.9286 47.1504 93.1351 47.399 93.0329 47.7385C93.2869 47.8373 93.2882 48.1926 93.3229 48.4212C93.3823 48.8001 93.5234 49.1427 93.7264 49.4005C93.9178 50.5405 94.1054 51.6042 94.3665 52.7002C94.3496 52.8413 94.2226 52.9973 94.2627 53.2295C94.2974 53.4302 94.2164 53.66 94.3166 53.8467C94.3396 53.881 94.3569 53.9222 94.3675 53.9673C94.3781 54.0123 94.3816 54.0601 94.3777 54.1073C94.3739 54.1545 94.3628 54.1999 94.3452 54.2402C94.3276 54.2806 94.3041 54.3149 94.2762 54.3407C94.3977 54.5061 94.3648 54.7209 94.3665 54.9238C94.3818 55.139 94.3794 55.3561 94.3594 55.5704C94.3286 55.7593 94.5414 55.9177 94.3747 56.0978C94.5202 56.2299 94.4765 56.4434 94.4621 56.6185C94.4434 56.8455 94.5591 57.0135 94.5611 57.2088C94.5571 57.4016 94.5993 57.5904 94.6807 57.7441C94.6418 57.9144 94.5649 57.8801 94.496 57.9097C94.3595 58.3051 94.6185 58.6468 94.5814 59.0507C94.5069 59.4457 94.5406 59.8664 94.6756 60.2271C94.5177 60.5178 94.4414 60.8824 94.4618 61.2493C94.4728 61.446 94.5315 61.6841 94.3769 61.8437C94.4928 61.9829 94.4654 62.1747 94.4676 62.355C94.4691 62.4751 94.5038 62.6412 94.4621 62.708C94.1877 63.1466 94.2871 63.6782 94.2622 64.1718L94.061 64.4598C94.1439 64.9818 93.8228 65.2901 93.6908 65.7191C93.6485 65.8309 93.7651 65.8363 93.7595 65.9217C93.8 66.0915 93.6229 66.1364 93.6665 66.3233L93.7449 66.4561C93.7199 66.5818 93.6791 66.7002 93.6247 66.8052C93.3871 67.1389 93.2031 67.5425 93.0856 67.9882C92.9681 68.4339 92.9199 68.9109 92.9445 69.3859C92.6869 69.6246 92.6109 70.1105 92.3459 70.3608L92.451 70.5294C92.3482 70.9758 92.2113 71.4045 92.0426 71.8079C92.0193 71.8686 91.9326 71.8796 91.8673 71.9181C91.862 72.0766 91.8345 72.2318 91.7866 72.3749C91.7387 72.5181 91.6713 72.6461 91.5883 72.7514C91.3471 73.0316 91.2029 73.4669 90.8854 73.6311C90.8317 73.6588 90.8221 73.8311 90.7743 73.9164C90.3612 74.6263 89.8872 75.2591 89.3637 75.7999C89.2444 75.9276 89.1355 76.0741 89.0391 76.2366C88.7294 76.7763 88.3424 77.2147 87.904 77.522C87.613 77.7257 87.3572 78.0192 87.1551 78.3814C86.8794 78.3203 86.7507 78.6571 86.5624 78.8071C86.1631 79.125 85.7917 79.5141 85.4042 79.8632C85.253 79.9777 85.0951 80.0728 84.9323 80.1478C84.7861 80.2331 84.6467 80.4283 84.4903 80.538C84.3792 80.616 84.2775 80.7516 84.1297 80.6898C83.9365 80.6091 83.8909 80.9438 83.7135 81.0005C83.4197 81.1408 83.1372 81.3257 82.871 81.5522C82.6769 81.539 82.4831 81.5855 82.3027 81.6887C82.0537 81.8196 81.789 81.8897 81.5311 81.9855C81.4784 82.005 81.4397 82.0388 81.4506 82.1299C81.0517 82.1248 80.6584 82.2649 80.3078 82.537C80.0193 82.6931 79.7206 82.8082 79.4163 82.8805C79.1884 83.1632 78.9758 83.4606 78.7394 83.712C78.4198 84.0389 78.1412 84.4409 77.9154 84.9008C77.8321 85.1068 77.716 85.2818 77.5766 85.4118C77.4806 85.4648 77.3954 85.5512 77.3287 85.6632C77.262 85.7753 77.2159 85.9094 77.1946 86.0534C77.1549 86.293 76.9476 86.4758 76.8152 86.684C76.8462 86.7135 76.8717 86.7532 76.8898 86.7996C76.9079 86.8461 76.9181 86.8981 76.9194 86.9513C76.9207 87.0044 76.9133 87.0572 76.8976 87.1054C76.8818 87.1536 76.8583 87.1958 76.8289 87.2285C76.6595 87.4977 76.5344 87.8177 76.4628 88.1651C76.4007 88.4583 76.43 88.8242 76.2033 89.0196C76.2718 89.2517 76.0894 89.3843 76.0965 89.6092C76.1118 90.0916 76.167 90.5973 75.8556 90.939L75.9878 91.128C75.8188 91.3662 75.6876 91.6535 75.603 91.9705C75.5184 92.2875 75.4825 92.6267 75.4976 92.9653C75.3723 93.4342 75.1628 93.8476 74.89 94.1635C74.9155 94.5362 74.7564 94.8361 74.7288 95.1579C74.6995 95.4995 74.5093 95.7459 74.5047 96.0321C74.4981 96.4358 74.2496 96.6024 74.2013 96.9443C74.2326 96.9997 74.3053 97.0434 74.2783 97.1865L73.8823 97.6961V98.208C73.7689 98.4265 73.5486 98.5929 73.4835 98.9253V99.52C73.2859 99.7805 73.1271 100.095 73.0166 100.446C72.8849 100.746 72.6312 100.897 72.4662 101.177C72.1122 101.725 71.6828 102.162 71.2049 102.461C70.9935 102.541 70.7852 102.637 70.5809 102.748C70.4889 102.812 70.4053 102.898 70.3339 103.003C70.4079 103.154 70.4529 103.33 70.4643 103.514C70.4757 103.697 70.4532 103.882 70.399 104.049C70.3392 104.238 70.5098 104.295 70.4583 104.47C70.4222 104.593 70.4604 104.756 70.4493 104.898C70.4317 105.123 70.486 105.344 70.3699 105.576C70.3354 105.683 70.3247 105.802 70.3394 105.918C70.3541 106.033 70.3935 106.14 70.452 106.222C70.465 106.373 70.3668 106.458 70.3325 106.584C70.2147 107.017 70.0881 107.449 69.958 107.876C69.7793 108.416 69.7072 109.015 69.7494 109.61C69.6933 109.69 69.629 109.746 69.601 109.828C69.4092 110.386 69.216 110.945 69.0463 111.518C69.0137 111.621 68.9719 111.717 68.9218 111.805C68.6903 112.244 68.4488 112.674 68.2387 113.133C68.1736 113.275 68.1402 113.417 68.009 113.44C67.9992 113.442 67.5858 114.139 67.5784 114.156C67.4074 114.573 67.205 114.962 66.9748 115.315C66.8705 115.468 66.699 115.461 66.6204 115.667C66.4695 116.063 66.185 116.295 66.0122 116.665C65.9825 116.729 65.9355 116.732 65.8985 116.764C65.5883 117.023 65.3109 117.355 65.0782 117.746C64.8534 117.744 64.6364 117.863 64.4704 118.08C64.2662 118.323 63.9758 118.318 63.817 118.634C63.5494 118.609 63.3489 118.882 63.1132 118.995C62.9055 119.094 62.7161 118.961 62.4665 119.158L62.3415 119.338C62.0106 119.295 61.6806 119.729 61.3197 119.381C61.0985 119.528 60.8826 119.868 60.6023 119.502C60.5839 119.478 60.537 119.499 60.5034 119.499C59.8261 119.512 59.1581 119.26 58.4775 119.353C58.3791 119.367 58.279 119.355 58.1908 119.355L58.0014 119.084C57.855 119.067 57.6715 119.123 57.5709 119.017C57.4167 118.855 57.3551 119.103 57.2315 119.083C57.1084 119.077 56.9874 119.036 56.876 118.961C56.7645 118.886 56.6651 118.779 56.5836 118.647H55.9756L55.7364 118.201H55.1631L54.9749 117.929H54.6644C54.5261 117.615 54.2519 117.56 54.0533 117.335C53.7348 117.426 53.6595 116.874 53.3941 116.825C53.2963 116.495 53.0546 116.372 52.8988 116.123C52.727 115.848 52.5138 115.619 52.4733 115.22C52.1989 115.005 51.9354 114.763 51.6845 114.495C51.6681 113.976 51.27 113.618 51.2592 113.026L51.0087 112.987C50.8749 112.503 50.9191 111.93 50.6144 111.552C50.5372 111.216 50.4883 110.868 50.4688 110.515C50.2407 110.069 50.1027 109.542 50.07 108.991C50.0543 108.802 50.0705 108.607 50.0667 108.415C50.0629 108.227 50.0976 107.993 50.0328 107.864C49.9573 107.714 50.132 107.524 49.9666 107.441C50.0781 107.168 49.9212 106.894 49.9698 106.624C49.9939 106.545 50.027 106.472 50.0678 106.408C50.0696 106.229 49.9465 106.14 49.96 105.948C49.9748 105.613 49.9769 105.276 49.9661 104.94C49.9687 104.688 49.9384 104.437 49.8768 104.2C49.7066 103.564 49.7292 103.552 49.8657 102.523C49.7562 102.323 49.8709 102.123 49.8667 101.922C49.8622 101.706 49.8657 101.489 49.8657 101.238C49.4597 100.875 49.4397 100.083 49.0411 99.6455C49.1588 98.993 48.8988 98.3638 48.9575 97.701C48.9231 97.6551 48.8959 97.5992 48.8779 97.5371C48.8598 97.4749 48.8513 97.4079 48.8529 97.3406C48.8546 97.2734 48.8663 97.2075 48.8872 97.1472C48.9082 97.0869 48.938 97.0338 48.9745 96.9913L48.8541 96.7353C49.009 96.2252 49.0789 95.6706 49.0583 95.1152C49.0417 94.7438 49.0723 94.3712 49.1485 94.0153C49.2054 93.8601 49.277 93.7167 49.3611 93.5892C49.3611 93.341 49.349 93.0543 49.3637 92.7707C49.4257 92.2172 49.4626 91.6587 49.4743 91.0984C49.4767 90.9959 49.4951 90.8955 49.5282 90.8045C49.5612 90.7135 49.608 90.6342 49.6653 90.5724C49.7256 90.506 49.7673 90.4106 49.7825 90.3039C49.7977 90.1972 49.7856 90.0862 49.7484 89.9913C49.6891 89.8289 49.659 89.6481 49.6609 89.465C49.6629 89.2818 49.6967 89.1022 49.7593 88.9425C49.875 88.599 49.815 88.1773 49.9613 87.8366C49.7852 87.6102 49.8978 87.3964 49.9605 87.1627C49.98 87.0956 49.99 87.0236 49.9899 86.9509C49.9897 86.8783 49.9794 86.8064 49.9597 86.7395C49.7934 86.3616 49.8896 85.9571 49.8683 85.5668C49.8582 85.3807 49.8799 85.1897 49.7503 85.0391C50.079 84.4406 49.6552 83.8314 49.7744 83.2335L49.5628 82.9158C49.5368 82.7128 49.751 82.6124 49.6153 82.2769L49.4673 82.1435V81.5083C49.1515 81.1019 49.1487 80.4808 48.9192 79.9838H48.632C48.4461 79.8358 48.432 79.5735 48.319 79.3999C47.9838 78.8369 47.5382 78.4308 47.0398 78.234C46.8785 77.891 46.5638 78.0243 46.3623 77.7809C46.1714 77.5503 45.8646 77.598 45.7065 77.2649C45.3834 77.2609 45.1082 76.9686 44.7929 76.9431C44.696 76.9483 44.5995 76.925 44.5092 76.8746C44.4189 76.8242 44.3368 76.7477 44.2679 76.6501H43.7693C43.676 76.5064 43.5621 76.3931 43.4354 76.3181C43.3087 76.243 43.1721 76.208 43.0351 76.2153C42.4012 76.1724 41.7789 75.9553 41.2024 75.5761C41.0464 75.4829 40.8255 75.5365 40.7603 75.1787C40.4624 75.3378 40.2215 74.9959 39.9329 75.0614L39.7197 74.7696H39.3318C39.1369 74.545 38.8628 74.5224 38.7264 74.1879C38.5903 74.2189 38.4512 74.2051 38.3194 74.1477C38.1876 74.0903 38.0666 73.9909 37.9657 73.8568C37.8932 73.753 37.8033 73.6778 37.7045 73.6387C37.6056 73.5995 37.5013 73.5977 37.4018 73.6334L36.9982 73.0358C36.854 73.1775 36.7138 72.7939 36.5737 73.0397C36.3531 72.9155 36.1012 72.842 36.1218 72.3711C36.1245 72.3098 36.0399 72.2174 35.9828 72.1782C35.7638 72.0103 35.5352 71.8692 35.2996 71.7562C35.2082 71.7163 35.1241 71.6484 35.0529 71.5573C34.772 71.2301 34.4719 70.9382 34.1559 70.6849C34.0691 70.6225 33.9738 70.5884 33.8767 70.5849C33.8059 70.3958 33.762 70.0909 33.655 70.0355C33.5869 69.9988 33.5261 69.9385 33.4782 69.8602C33.4303 69.7819 33.3966 69.688 33.3802 69.5866L33.1818 69.573C32.9101 69.2946 32.7369 68.8315 32.4082 68.6312C32.2665 68.2206 32.0697 67.8537 31.8292 67.5514C31.5177 67.078 31.2343 66.5681 30.982 66.0273C30.8042 65.6378 30.7015 65.1882 30.684 64.7237L30.4018 64.3631V63.5998C30.2426 63.4212 30.1323 63.1683 30.0903 62.8852C30.0952 62.7905 30.2369 62.6921 30.1483 62.3548C30.1129 62.279 29.9207 62.1618 29.9201 61.865C29.8292 61.4789 29.9757 61.0383 29.7905 60.6478C29.755 60.5731 29.818 60.431 29.8348 60.3253C29.9419 59.8575 29.9242 59.3495 29.7851 58.8992C29.9145 58.7116 29.8441 58.4028 29.9866 58.2248C29.8555 57.5891 29.8255 56.9194 29.8989 56.2649C29.9221 55.8827 30.0189 55.517 30.1787 55.2088C30.11 55.1052 30.0657 54.9734 30.0521 54.832C30.0384 54.6905 30.0561 54.5466 30.1026 54.4203C30.2316 53.7667 30.3257 53.1001 30.3843 52.4262C30.4064 52.2964 30.4466 52.1743 30.5025 52.0674C30.7351 51.5431 30.8673 50.9407 30.8857 50.3204C30.91 49.9925 31.0171 49.6885 31.1869 49.4656C31.194 49.0793 31.2245 48.6947 31.2782 48.3161C31.3317 48.085 31.6211 48.0646 31.5001 47.7363C31.6618 47.581 31.5394 47.214 31.7397 47.0824C31.7819 47.0546 31.7857 46.966 31.8075 46.9097C32.0206 46.359 32.0789 45.6728 32.4895 45.2934C32.6179 44.7563 32.8239 44.2638 33.0941 43.8479C33.144 43.7349 33.1839 43.6135 33.2129 43.4864C33.222 43.4039 33.2229 43.32 33.2156 43.2371C33.5403 42.8049 33.8033 42.2867 33.9898 41.7112C34.1881 41.085 34.4766 40.5258 34.8365 40.0703V39.7677C34.8713 39.7459 34.9031 39.7063 34.9278 39.7138C35.066 39.7558 35.2227 39.6184 35.2087 39.513C35.1666 39.1941 35.391 39.1488 35.4479 38.9329C35.5006 38.7331 35.6698 38.6251 35.8108 38.5009C36.0191 38.3173 36.0306 37.9203 36.1859 37.6062C36.2796 37.5598 36.3659 37.4872 36.4397 37.3923C36.5135 37.2975 36.5733 37.1824 36.6155 37.0539C36.7216 36.7061 36.8959 36.4096 37.1173 36.2004C37.3174 35.994 37.4821 35.7251 37.5988 35.4141C37.717 35.0799 38.0084 34.9317 38.1529 34.5995C38.1726 34.561 38.2005 34.5324 38.2322 34.5177C38.264 34.503 38.2982 34.5028 38.33 34.5174C38.372 34.5236 38.4143 34.5098 38.4502 34.4779C38.4861 34.4459 38.5135 34.3979 38.5281 34.3412C38.6659 33.9463 38.8904 33.6268 39.1671 33.4316C39.2051 33.4072 39.2362 33.3652 39.2554 33.3124C39.2745 33.2595 39.2806 33.1987 39.2726 33.1403C39.4325 33.0429 39.5853 32.9238 39.729 32.7843C39.8437 32.5868 39.9846 32.4238 40.1435 32.3045C40.2935 32.1724 40.4334 32.018 40.5608 31.8439C40.686 31.7143 40.8908 31.6529 40.922 31.3518H41.1155C41.2137 31.0962 41.3462 30.8708 41.5055 30.6887C41.6648 30.5066 41.8478 30.3714 42.0438 30.2907C42.2071 30.0259 42.3938 29.7926 42.5993 29.5969C42.7902 29.3777 43.0376 29.3482 43.2194 29.1023C43.4356 28.8097 43.7527 28.7331 43.9903 28.4612C44.2213 28.2313 44.4657 28.03 44.7206 27.8595C44.9839 27.6991 45.2273 27.4788 45.4413 27.2071C45.7612 27.2094 45.9243 26.668 46.2598 26.7245C46.497 26.3423 46.8521 26.3184 47.1567 26.1672C47.3765 26.058 47.5418 25.7071 47.8168 25.8308C48.017 25.6008 48.2895 25.7866 48.5041 25.5837C48.5609 25.5299 48.6409 25.4872 48.7099 25.4303C48.9108 25.2567 49.1303 25.1312 49.3595 25.059C49.8268 24.8148 50.3216 24.6954 50.8191 24.7071C50.9963 24.7419 51.1763 24.6842 51.3261 24.5445C51.416 24.4659 51.5027 24.3638 51.5904 24.4239C51.7732 24.5491 51.9408 24.4061 52.1149 24.4138C52.3164 24.4228 52.5183 24.4159 52.7201 24.4159C52.9218 24.4159 53.1239 24.4051 53.3252 24.4196C53.3881 24.4316 53.4521 24.4248 53.5132 24.3997C53.5742 24.3746 53.6309 24.3318 53.6798 24.2738C53.7691 24.251 53.7987 24.3547 53.8586 24.4218C54.119 24.2625 54.4117 24.249 54.6787 24.3842C55.0054 24.4677 55.3392 24.4785 55.6681 24.4159L55.8194 24.6323V25.2817C55.7132 25.3868 55.5861 25.4397 55.457 25.4326C55.3269 25.4032 55.1497 25.3567 55.0651 25.4503C54.9074 25.5841 54.7191 25.6234 54.5412 25.5596C54.3544 25.549 54.2201 25.7426 54.0274 25.7257C53.4682 25.6767 52.9188 25.9623 52.3542 25.8613C52.3061 25.8573 52.258 25.8688 52.2134 25.8948C51.9334 26.0649 51.6322 26.1524 51.328 26.1518C51.2471 26.1378 51.1651 26.1509 51.0884 26.1903C50.8011 26.3779 50.4864 26.4637 50.171 26.4405C50.0333 26.5609 49.8845 26.653 49.729 26.7143C49.2915 26.7944 48.8679 26.9886 48.4794 27.2872C48.4009 27.3415 48.3348 27.4529 48.2233 27.4526C47.9085 27.4839 47.6058 27.6378 47.3478 27.8976C46.972 28.2176 46.5792 28.495 46.1731 28.7274C46.0792 28.8103 45.9783 28.8753 45.8726 28.9207C45.7637 28.9447 45.7143 29.2338 45.5467 29.1765C45.368 29.1154 45.4719 29.4231 45.3383 29.4764C44.6725 29.7421 44.2836 30.7123 43.5853 30.911C43.5573 30.919 43.5123 30.9594 43.5118 30.9859C43.5071 31.2891 43.2581 31.2159 43.1862 31.4313C43.1137 31.6488 42.9145 31.6547 42.797 31.8321C42.6763 31.9738 42.5374 32.0803 42.388 32.1454C42.2187 32.2266 42.0778 32.3981 41.9947 32.6242C41.9304 32.8248 41.8229 32.9906 41.6879 33.0974C41.5529 33.2043 41.3975 33.2465 41.2445 33.2178C41.0394 33.5215 40.8616 33.8605 40.7153 34.2271H40.5085C40.3963 34.59 40.1035 34.6974 39.8983 34.968C39.6888 35.2444 39.5121 35.5615 39.3041 35.8359C39.1585 36.0898 38.98 36.301 38.7783 36.4578C38.731 36.4837 38.6883 36.5241 38.653 36.5759C38.6177 36.6278 38.5908 36.69 38.574 36.7583C38.5499 37.0135 38.413 37.1224 38.3067 37.2468C38.1738 37.391 38.0555 37.5608 37.9551 37.7513C37.8355 37.9845 37.692 38.1902 37.5293 38.3619C37.4063 38.4947 37.4985 38.6823 37.4263 38.8114C37.2524 38.9262 37.0997 39.0977 36.9806 39.3123C36.8614 39.5269 36.7791 39.7785 36.7402 40.0469C36.6649 40.5368 36.1062 40.4279 36.1403 41.0845C35.845 41.4884 35.6066 41.9695 35.4382 42.5018C35.2093 42.8302 35.0173 43.207 34.8687 43.619C34.7722 43.9035 34.6506 44.169 34.5069 44.4093C34.3247 44.6498 34.2033 44.97 34.1619 45.3197L34.2135 45.4165C34.1042 45.6174 33.9883 45.8107 33.8802 46.0084C33.73 46.2833 33.6922 46.6517 33.5013 46.8722C33.3558 47.0557 33.2442 47.2877 33.1762 47.5475C33.1082 47.8073 33.086 48.0871 33.1114 48.3621L32.9045 48.5758V49.0524L32.5123 49.5869C32.4871 49.7826 32.5675 49.9911 32.4325 50.1361C32.4968 50.4682 32.2345 50.592 32.2054 50.8675C32.1412 51.4775 32.0719 52.0865 32.0046 52.6958C31.8895 53.0436 31.8182 53.4176 31.7939 53.8008C31.7998 53.986 31.7764 54.1707 31.7255 54.3413C31.6746 54.5118 31.5975 54.6636 31.5 54.7858V55.8559C31.5 56.048 31.5034 56.2403 31.499 56.4323C31.4949 56.6147 31.5432 56.8205 31.4005 56.95C31.5865 57.1032 31.3752 57.2482 31.3913 57.4077C31.4064 57.5582 31.4476 57.7374 31.3538 57.8841C31.2504 58.0459 31.3087 58.2369 31.3093 58.4106L31.4957 58.6772L31.4024 58.8269C31.4331 58.902 31.5144 58.9347 31.5003 59.053C31.4356 59.1718 31.3963 59.315 31.3875 59.465C31.3786 59.6151 31.4003 59.7657 31.4501 59.8985C31.507 60.069 31.523 60.2617 31.4952 60.4465C31.4597 60.9373 31.5305 61.4318 31.6981 61.8631C31.6722 61.8826 31.6494 61.9096 31.6312 61.9424C31.6129 61.9752 31.5996 62.013 31.5921 62.0535C31.5846 62.094 31.5832 62.1362 31.5877 62.1776C31.5922 62.219 31.6026 62.2585 31.6184 62.2938C31.7791 62.5426 31.6327 62.8915 31.7989 63.1328C31.9176 63.3687 32.0013 63.637 32.0449 63.9209C32.1137 64.1738 32.1641 64.4301 32.2225 64.6821C32.3348 65.1114 32.5144 65.4981 32.7474 65.8127C32.8961 65.9616 32.9984 66.1876 33.0325 66.4427C33.0788 66.713 33.1967 66.947 33.3613 67.0953C33.767 67.484 34.1433 67.9321 34.4841 68.4322C34.7657 68.9457 35.138 69.3426 35.5626 69.582C35.6197 69.6052 35.6571 69.7289 35.7141 69.7513C35.8808 69.8166 35.9457 70.0493 36.0848 70.1739C36.4181 70.4725 36.8296 70.5793 37.1024 71.0197C37.5102 71.1037 37.7561 71.6127 38.133 71.8142C38.4179 71.9982 38.6931 72.2113 38.9565 72.452C39.2808 72.7104 39.658 72.8293 39.9874 73.061C40.3418 73.2924 40.7118 73.4714 41.0917 73.5948C41.3353 73.6852 41.527 74.0271 41.8105 73.9054C42.1526 74.1486 42.5472 74.1351 42.8917 74.348C43.0544 74.4475 43.2306 74.4935 43.4073 74.4825C43.4453 74.5789 43.5021 74.6573 43.5708 74.7082C43.6394 74.7592 43.717 74.7804 43.7939 74.7692C44.065 74.8089 44.3344 74.8683 44.6013 74.947C44.7116 74.9313 44.8228 74.9606 44.9219 75.0316C45.0211 75.1026 45.1042 75.2123 45.1615 75.3481H45.9281C46.2666 75.5657 46.5313 75.8932 46.8093 75.8034C47.298 76.0307 47.629 76.4617 48.0491 76.6467C48.5401 76.8973 48.9927 77.281 49.382 77.777C49.5323 77.9655 49.7008 78.1218 49.8825 78.2412C50.1569 78.7211 50.452 79.1762 50.7659 79.6037L50.7857 79.926L50.968 79.9939C50.9686 80.3474 51.0351 80.6944 51.1606 80.9989C51.3821 81.5436 51.5233 82.1474 51.5754 82.7731C51.6205 83.0844 51.5373 83.4199 51.6772 83.7247C51.7513 83.886 51.5865 84.0038 51.5806 84.165C51.6404 84.2989 51.6767 84.4515 51.6862 84.6099C51.6739 85.1137 51.6811 85.6185 51.6825 86.1229C51.6667 86.2633 51.6726 86.4069 51.6998 86.5436C51.7753 86.7767 51.8065 87.034 51.7903 87.2898C51.7741 87.5456 51.7109 87.7909 51.6073 88.0008C51.6368 88.0715 51.6996 88.0969 51.6819 88.1896C51.6909 88.2478 51.6895 88.3081 51.6781 88.3654C51.6667 88.4227 51.6455 88.4751 51.6165 88.5177C51.6803 88.7881 51.7019 89.0752 51.6797 89.3588L51.3791 90.1932C51.3694 90.4346 51.3714 90.6766 51.3851 90.9177C51.4026 91.1092 51.2971 91.2086 51.2783 91.3638C51.3269 91.6093 51.1237 91.7618 51.1718 92.0255C51.2188 92.3229 51.1826 92.6347 51.0708 92.8943C50.9813 93.1429 50.9492 93.4259 50.9795 93.7022C50.99 94.0372 50.9195 94.3672 50.7796 94.6364C50.8903 94.7201 50.8652 94.8463 50.8768 94.9618C50.9219 95.4119 50.6969 95.8163 50.7737 96.2695C50.7817 96.4477 50.7309 96.6496 50.874 96.7725C50.8149 96.8753 50.7797 97.0023 50.7737 97.1352C50.739 97.448 50.8548 97.7936 50.6782 98.0771C50.7136 98.123 50.7452 98.1745 50.7723 98.2307C50.8804 98.6451 51.0139 99.0451 51.171 99.426C51.4023 99.8481 51.6119 100.269 52.0282 100.314C52.0868 100.32 52.1033 100.474 52.1864 100.454C52.2937 100.427 52.3631 100.52 52.4506 100.59C52.8525 101.039 53.343 101.294 53.8523 101.321C54.012 101.597 54.2509 101.351 54.4108 101.478C54.6056 101.598 54.8194 101.642 55.0302 101.605C55.5177 101.614 56.0054 101.607 56.493 101.609C56.5922 101.599 56.6918 101.607 56.7898 101.63C57.2721 101.784 57.7713 101.797 58.2572 101.668C58.097 101.108 58.0914 100.482 58.2418 99.9173C58.3033 99.7014 58.1426 99.5844 58.1379 99.3899C58.3676 99.1028 58.1939 98.806 58.1283 98.5287C58.1739 98.4574 58.2226 98.4129 58.2384 98.3513C58.3069 98.083 58.1138 97.897 58.1273 97.6178C58.1399 97.3565 58.3051 97.157 58.2406 96.8855C58.2322 96.8199 58.2137 96.7578 58.1865 96.7036C58.1275 96.6242 58.1412 96.5318 58.1405 96.4403C58.1389 96.248 58.0938 96.0187 58.1511 95.872C58.2335 95.661 58.0983 95.4037 58.1493 95.3529C58.3304 95.1726 58.1204 95.0192 58.1689 94.8227C58.3045 94.2315 58.294 93.5915 58.1392 93.0099L58.3584 92.7647L58.2437 92.5841C58.3742 92.474 58.3389 92.2946 58.3414 92.1334C58.3327 91.7995 58.3395 91.4651 58.3618 91.1324C58.3873 90.9008 58.4968 90.7234 58.4715 90.43C58.449 90.1702 58.5636 89.8625 58.5436 89.5596C58.53 89.4807 58.5315 89.3979 58.5482 89.3202C58.5648 89.2425 58.5959 89.1726 58.6382 89.1181C58.5872 89.0734 58.55 89.0029 58.5339 88.9206C58.5177 88.8383 58.5237 88.7503 58.5509 88.6741C58.6465 88.1812 58.6815 87.6682 58.6541 87.1581C58.2516 87.3082 58.0014 86.7729 57.6625 86.8674C57.5168 86.6855 57.5336 86.4165 57.3515 86.3036C57.307 86.2867 57.2181 86.3635 57.1474 86.2656C56.6914 85.1075 56.8236 85.5896 56.8416 83.3816C56.9587 83.065 57.1227 82.7888 57.3222 82.5723C57.5217 82.3558 57.7519 82.2041 57.9966 82.1279C58.5992 81.8976 59.2164 81.7531 59.8389 81.6967C60.2045 81.5999 60.5401 81.9554 60.8998 81.8287C60.9684 81.9147 61.0934 81.9648 61.105 81.9952C61.1916 82.2202 61.3698 82.0486 61.461 82.1905C61.6429 82.4257 61.8018 82.6948 61.9335 82.9907C62.0495 83.3065 62.0374 83.7207 62.2773 83.9425C62.2207 84.1228 62.3806 84.2809 62.3254 84.4272C62.2701 84.6243 62.2553 84.84 62.2829 85.0487C62.2883 85.2688 62.105 85.4051 62.1801 85.6463C61.8742 86.2135 61.4473 86.6227 60.9643 86.8118C60.5739 86.932 60.1737 86.9869 59.7788 87.0707C59.7296 87.2321 59.7927 87.4398 59.6719 87.5663C59.8917 87.9786 59.5663 88.2654 59.5725 88.6856C59.6433 88.907 59.7011 89.1518 59.6421 89.2766C59.5717 89.4655 59.5296 89.6733 59.5184 89.8867C59.5072 90.1002 59.5272 90.3148 59.5772 90.5165C59.6252 90.8403 59.6249 91.1561 59.6566 91.4733C59.673 91.6379 59.5095 91.68 59.5553 91.8518L59.6788 92.0915C59.6111 92.1623 59.5627 92.2644 59.5418 92.3806C59.521 92.4968 59.529 92.6198 59.5645 92.7285C59.7493 93.2359 59.5979 93.7578 59.6536 94.264C59.4736 94.6012 59.5864 94.9869 59.5493 95.3267L59.7539 95.619C59.7276 95.8517 59.7825 96.0863 59.6744 96.3493C59.6344 96.4671 59.6153 96.5971 59.6188 96.7279C59.6222 96.8587 59.6481 96.9864 59.6941 97.0996C59.7427 97.2207 59.7633 97.3605 59.7529 97.4993C59.7567 98.1484 59.744 98.7983 59.7611 99.4465C59.7661 99.6349 59.6594 99.7306 59.6533 99.8908C59.8174 100.18 59.686 100.55 59.7673 100.834C59.8579 101.15 59.6691 101.431 59.7803 101.717C60.1306 101.976 60.5127 102.137 60.9056 102.19C61.0787 102.203 61.2596 102.097 61.4277 102.315C61.4804 102.353 61.5386 102.373 61.5977 102.374C61.6568 102.375 61.7152 102.356 61.7684 102.319C62.1514 102.047 62.5541 102.267 62.9399 102.177C63.0684 102.147 63.0889 102.377 63.2397 102.313C63.2734 102.14 63.3992 102.186 63.513 102.185C63.8997 102.184 64.287 102.204 64.673 102.18C65.0663 102.235 65.4633 102.194 65.8471 102.06C65.9316 102.007 66.0249 101.988 66.1164 102.007C66.2078 102.025 66.2939 102.08 66.3647 102.165C66.4077 102.201 66.4565 102.221 66.5064 102.223C66.5564 102.224 66.6058 102.207 66.6498 102.173C66.7144 102.098 66.7913 102.047 66.8735 102.025C66.9556 102.004 67.0403 102.013 67.1194 102.051C67.5052 102.131 67.8578 101.823 68.2393 101.891C68.2754 101.897 68.3152 101.807 68.3588 101.789C68.7043 101.65 69.043 101.45 69.3865 101.341C70.0529 101.087 70.6559 100.57 71.1262 99.8488C71.1571 99.5441 71.3722 99.4276 71.4714 99.1658V98.7625C71.8514 98.3744 71.8985 97.6986 72.1783 97.1643V96.3222C72.249 96.232 72.3797 96.3223 72.3683 96.1251C72.4848 95.9325 72.4749 95.6977 72.4657 95.3432L72.7843 95.0359V94.4151L73.0735 94.0413C73.0877 93.693 73.1807 93.3606 73.3385 93.0946C73.5709 92.5864 73.7166 92.0074 73.764 91.404C73.8047 90.8747 73.9392 90.3872 73.9882 89.8682C73.9997 89.746 74.0783 89.6368 74.13 89.5119C74.1826 89.5013 74.2328 89.4733 74.2765 89.4302C74.3202 89.3871 74.3562 89.33 74.3818 89.2634C74.4494 89.0421 74.3067 88.9132 74.2841 88.7394C74.5462 88.213 74.6891 87.5844 74.6934 86.9382C75.0061 86.7056 74.9123 86.0916 75.192 85.8112L75.135 85.7212C75.1351 85.5851 75.1623 85.4518 75.2133 85.3369C75.2643 85.222 75.3371 85.1302 75.4232 85.0722C75.7016 84.9358 75.7278 84.5877 75.8407 84.3062C75.8908 84.3131 75.9411 84.2964 75.9841 84.2588C76.027 84.2212 76.0603 84.1648 76.0789 84.0978C76.1252 83.985 76.11 83.8108 76.2566 83.8563C76.5475 83.3316 76.9803 83.0228 77.251 82.4531C77.57 81.9021 77.9872 81.4846 78.4584 81.2447C78.8162 81.0849 79.1568 80.8544 79.4701 80.5599C79.6173 80.5729 79.7649 80.5518 79.9074 80.4975C80.3676 80.2841 80.842 80.1395 81.323 80.066C81.5203 79.8627 81.7505 79.7346 81.992 79.6936C82.3193 79.6243 82.6363 79.4783 82.9303 79.2613C83.2079 79.0115 83.4958 78.7862 83.7926 78.5867C84.1699 78.4155 84.4665 78.018 84.8569 77.8992C84.9749 77.8632 84.9516 77.6194 85.0377 77.5125C85.3785 77.4567 85.5539 76.879 85.935 76.9363C86.1975 76.6045 86.4012 76.1518 86.7754 76.0342C86.7926 75.9464 86.8178 75.8623 86.8506 75.7842C86.9651 75.5806 87.1591 75.5688 87.2873 75.4377C87.3165 75.2986 87.3648 75.1692 87.4293 75.057C87.4937 74.9448 87.5731 74.852 87.6628 74.7839C87.9542 74.5088 88.296 74.3354 88.4321 73.8115C88.4393 73.7837 88.4873 73.778 88.516 73.761C88.7827 73.6038 88.843 73.2274 88.9503 72.9311L89.5115 72.5518L89.5384 72.2272C89.7656 72.1571 89.762 71.7893 89.9266 71.657C89.9112 71.2604 90.2395 71.3663 90.3367 71.0453V70.4826C90.4172 70.47 90.4913 70.4139 90.5438 70.3257C90.5963 70.2375 90.6233 70.124 90.6192 70.0083C90.618 69.5563 90.8288 69.2587 90.9359 68.889C90.9442 68.3208 91.0498 67.7642 91.2434 67.2679C91.4248 66.7224 91.5616 66.1491 91.6512 65.5588C91.6547 65.4368 91.685 65.3195 91.738 65.2238C91.791 65.1281 91.8639 65.059 91.9461 65.0263V64.6848L92.1466 64.4702C92.1499 63.8239 92.0911 63.2007 92.4494 62.7209C92.4144 62.3418 92.4187 61.9575 92.4618 61.5802C92.6822 60.5914 92.4515 60.3532 92.3511 59.6096C92.596 59.0231 92.3135 58.3524 92.5216 57.7891C92.4547 57.5777 92.2701 57.3613 92.3589 57.1697C92.6112 56.6253 92.3154 56.1401 92.3088 55.6307C92.2618 55.2097 92.2715 54.7796 92.3374 54.3638C92.3659 54.1812 92.4022 53.9167 92.3375 53.8052C92.1684 53.5136 92.2951 53.2036 92.2215 52.8381L92.0336 52.6267C92.0871 52.2659 91.9631 51.9029 92.1296 51.5906C91.9395 51.328 91.788 51.0137 91.6839 50.6663C91.5798 50.319 91.5251 49.9454 91.5231 49.5675C91.4635 49.4825 91.4041 49.3975 91.3462 49.3148C91.3161 49.2029 91.3772 49.0742 91.3123 48.9754C91.1347 48.9019 90.9724 48.7671 90.8397 48.5831V47.3908L90.3243 46.7004C90.1536 46.1741 90.0121 45.6293 89.9012 45.0712C89.7564 44.4888 89.3014 44.163 89.3058 43.5125C89.1019 43.2616 88.9336 42.9568 88.8102 42.615C88.7227 42.3188 88.492 42.1777 88.3622 41.8991C88.2237 41.6021 88.0868 41.2988 87.9398 41.0107C87.8606 40.9916 87.781 41.0382 87.7054 40.9401C87.273 40.253 86.8009 39.6193 86.294 39.0457C86.1572 38.631 85.8217 38.5083 85.6435 38.1477C85.6126 38.0851 85.4916 38.1135 85.4211 38.1015C85.2584 37.8688 85.0985 37.6546 84.9507 37.4248C84.8157 37.2149 84.5292 37.2238 84.5547 36.8186C84.4942 36.8334 84.4322 36.8298 84.3727 36.808C84.3133 36.7861 84.2578 36.7465 84.2099 36.6918C84.1269 36.6079 83.9827 36.743 83.9062 36.6546L83.6197 35.7978C83.4068 35.936 83.2373 35.6187 83.0111 35.6726C82.8511 35.3894 82.6065 35.1985 82.5178 34.8115H81.9111C81.7362 34.5815 81.5926 34.2408 81.3284 34.2398C81.1343 34.2391 81.0031 34.0526 80.8376 34.012C80.5698 33.9463 80.3671 33.6596 80.0863 33.6193C79.9992 33.6069 79.8844 33.495 79.7719 33.5095C79.6068 33.5308 79.5831 33.2575 79.4041 33.2018H78.852L78.573 32.7777C78.4035 32.8951 78.3067 32.6393 78.1559 32.6337C77.8246 32.6046 77.5004 32.4835 77.2015 32.2772C77.0001 32.1382 76.7807 32.0606 76.5573 32.0493C76.2845 32.0278 76.0134 31.9716 75.7475 31.8815C75.5302 31.8444 75.3185 31.7586 75.12 31.6271C74.8936 31.4934 74.6471 31.4449 74.4038 31.4862C74.387 31.4858 74.3628 31.4966 74.3544 31.4846C74.1802 31.2369 73.933 31.3129 73.7255 31.2208C73.477 31.1616 73.2239 31.1539 72.9739 31.1975C72.8768 30.9399 72.5825 31.1067 72.5466 30.7895C72.3338 30.7012 72.1364 30.8542 71.9435 30.676C71.7704 30.5161 71.5479 30.6042 71.3412 30.5016C70.9292 30.297 70.4859 30.219 70.0581 30.0618C69.6045 29.8105 69.1179 29.7048 68.6326 29.7522C68.5522 29.7728 68.4818 29.6984 68.408 29.6642C68.0128 29.4498 67.603 29.295 67.1854 29.2023C66.8961 29.1645 66.6088 29.1006 66.3252 29.0109C66.1402 28.9395 65.9501 28.8981 65.7586 28.8877C65.711 28.886 65.6641 28.8717 65.6202 28.8454C65.2745 28.6544 64.9389 28.4278 64.6161 28.1674C64.3695 28.2792 64.123 27.9638 63.8407 28.0235C63.6685 27.6389 63.3029 27.758 63.1163 27.433C62.791 27.4793 62.4635 27.384 62.1766 27.1597C61.9223 26.9481 61.6301 26.8478 61.3363 26.8716C61.0967 26.6026 60.8025 26.6001 60.5885 26.3849C60.4018 26.2005 60.1756 26.1161 59.9496 26.1467C59.8826 26.1514 59.7986 26.1849 59.7507 26.1414C59.4577 25.8754 59.137 26.0566 58.8321 26.0034C58.5142 25.907 58.1904 25.8563 57.8654 25.8521C57.5872 25.8751 57.3083 25.8744 57.0302 25.8505L57.0303 25.2819ZM59.356 106.082C59.4557 106.084 59.4915 105.855 59.616 105.936C59.6716 105.985 59.7358 106.012 59.8012 106.012C59.8667 106.012 59.9308 105.986 59.9865 105.937C60.11 106.166 60.2305 105.913 60.3575 105.925C60.709 105.959 61.0633 105.937 61.4165 105.937C61.7692 105.913 62.1227 105.917 62.4751 105.949C62.8296 106.005 63.1476 105.767 63.4938 105.788C63.8593 105.87 64.2321 105.86 64.5952 105.757C64.9431 105.587 65.3104 105.806 65.6341 105.513C65.7657 105.394 65.9056 105.596 66.041 105.656C66.1369 105.467 66.2748 105.506 66.4041 105.504C66.5214 105.489 66.6394 105.492 66.7563 105.511C66.8676 105.543 66.9668 105.246 67.0754 105.497C67.151 105.317 67.2755 105.363 67.3887 105.36C67.5217 105.357 67.6548 105.359 67.7554 105.359L68.1166 105.672V106.235L67.7833 106.8C67.5353 106.815 67.2994 106.727 67.1124 106.962L66.9432 106.799C66.743 106.935 66.5313 107.032 66.3134 107.089C65.9371 107.069 65.5604 107.11 65.1906 107.212C65.0536 107.28 64.9082 107.306 64.7637 107.289C64.6206 107.259 64.4573 107.259 64.3021 107.239C64.152 107.22 63.999 107.248 63.8486 107.232C63.6962 107.214 63.6047 107.416 63.4351 107.394C63.0681 107.347 62.6962 107.38 62.3262 107.38C61.9424 107.314 61.5542 107.325 61.1725 107.412C60.8319 107.53 60.4759 107.52 60.1388 107.384C60.0592 107.349 59.9737 107.358 59.8985 107.409C59.8157 107.507 59.7778 107.507 59.7129 107.395C59.6149 107.227 59.5543 107.623 59.4305 107.433C59.3467 107.305 59.2088 107.397 59.0957 107.38C58.7731 107.334 58.4401 107.486 58.1244 107.246C58.0799 107.212 58.0288 107.199 57.9787 107.208C57.9286 107.218 57.882 107.25 57.8454 107.3C57.8232 107.335 57.7947 107.361 57.7631 107.375C57.7315 107.388 57.6979 107.39 57.6658 107.378C57.3278 107.311 56.9732 107.529 56.6447 107.243C56.5638 107.207 56.4775 107.205 56.3959 107.238C56.1606 107.271 55.9232 107.219 55.7059 107.086C55.4775 107.395 55.3022 107.195 55.1684 106.952C54.73 106.984 54.2906 106.938 53.8601 106.817C53.7404 106.767 53.6477 106.633 53.5006 106.649C53.2766 106.68 53.0507 106.647 52.8357 106.552C52.6208 106.457 52.421 106.303 52.2479 106.097C52.0652 106.038 51.8775 106.053 51.6851 105.969C51.4896 105.882 51.3372 105.645 51.0963 105.648C51.3237 106.079 50.9578 106.461 51.1027 106.901C51.1528 107.025 51.2186 107.179 51.2761 107.339C51.2879 107.372 51.2686 107.428 51.2644 107.467C51.2443 107.526 51.1784 107.539 51.1982 107.626C51.2907 107.756 51.3952 107.874 51.4018 108.07C51.9856 108.427 52.2095 108.64 52.3073 108.912C52.9567 109.48 53.7336 109.474 54.4264 109.991H55.0728L55.2792 110.286C55.4776 110.21 55.6773 110.378 55.8748 110.389C56.3789 110.418 56.8655 110.583 57.3576 110.661C57.8915 110.746 58.4362 110.812 58.9779 110.839C59.3307 110.856 59.6849 110.823 60.0372 110.849C60.3547 110.882 60.674 110.845 60.9837 110.74C61.0735 110.697 61.1707 110.7 61.2593 110.747C61.6725 110.914 62.111 110.902 62.5196 110.714L62.6921 110.875C62.8088 110.615 62.9999 110.705 63.1756 110.7C63.4446 110.692 63.7142 110.684 63.9826 110.702C64.2462 110.72 64.4796 110.456 64.7482 110.554C64.903 110.225 65.1698 110.478 65.3844 110.298C65.5723 110.141 65.876 110.251 66.1276 110.269C66.2772 110.258 66.4265 110.298 66.563 110.386C66.6995 110.475 66.8192 110.608 66.9122 110.776V111.253C66.7074 111.394 66.6022 111.701 66.3886 111.873C66.1979 112.026 65.9781 111.935 65.8022 112.13C65.7392 112.199 65.6058 112.13 65.5059 112.144C65.4089 112.158 65.3951 111.956 65.2674 112.01C65.1808 112.119 65.0782 112.199 64.9671 112.244C64.8561 112.289 64.7394 112.297 64.6256 112.269C64.5017 112.236 64.3743 112.239 64.2514 112.279C63.8482 112.309 63.4443 112.307 63.0412 112.275C62.6241 112.228 62.2349 112.477 61.8208 112.435C61.5404 112.354 61.251 112.363 60.9735 112.463C60.8817 112.522 60.7811 112.548 60.6806 112.54C60.58 112.532 60.4824 112.489 60.3958 112.416C60.2158 112.311 60.0213 112.267 59.8275 112.286C59.6762 112.283 59.5248 112.285 59.3734 112.285C59.2389 112.285 59.1043 112.286 58.9698 112.285C58.8314 112.316 58.6897 112.278 58.5684 112.178C58.4488 112.387 58.2865 112.255 58.1449 112.281C58.0291 112.302 57.8789 112.35 57.7982 112.272C57.5998 112.133 57.3857 112.047 57.1659 112.015C56.9325 111.982 56.6977 111.974 56.4634 111.99C56.0981 111.953 55.7366 111.86 55.3851 111.713C55.1614 111.608 54.9152 111.592 54.6996 111.466C54.2377 111.188 53.7581 110.975 53.2677 110.828C52.9422 110.758 52.6345 110.571 52.3735 110.284C52.2179 110.089 52.064 110.174 51.9412 110.11C51.7844 109.969 51.7297 109.69 51.5378 109.68C51.44 109.805 51.4819 109.943 51.5007 110.078C51.6356 110.151 51.7503 110.21 51.7926 110.472C51.8351 110.823 51.9331 111.157 52.079 111.446C52.2102 111.669 52.1457 111.894 52.2355 112.06L52.4372 112.453C52.8641 112.365 53.2987 112.507 53.6574 112.849L53.7892 112.676C54.0275 113.01 54.4364 112.847 54.6558 113.292H55.2577L55.4815 113.596C55.8113 113.488 56.1112 113.844 56.4456 113.728C56.6361 114.003 56.9047 113.756 57.0977 113.912C57.349 114.115 57.6399 113.936 57.8885 114.151C58.0005 114.248 58.0999 113.978 58.2469 114.009C58.4116 114.043 58.5835 113.999 58.7502 114.022C58.8919 114.041 59.0407 113.934 59.1772 114.118C59.3401 114.337 59.4664 113.979 59.6255 114.016C59.657 114.024 59.7042 114.015 59.7175 114.041C59.8185 114.24 59.9627 114.15 60.0883 114.158C60.6661 114.196 61.2309 113.91 61.8128 114.01C61.8458 114.015 61.887 113.924 61.9244 113.878C61.9793 113.964 62.0541 114.019 62.1351 114.032C62.2161 114.046 62.2979 114.017 62.3652 113.951C62.4192 113.903 62.481 113.875 62.5446 113.871C62.7781 113.914 63.0145 113.907 63.2467 113.852C63.3535 113.782 63.47 113.746 63.5876 113.749C63.7052 113.751 63.821 113.792 63.9263 113.867C63.9495 113.877 63.9738 113.879 63.9978 113.874C64.0217 113.869 64.0446 113.856 64.0647 113.837C64.3845 113.605 64.7458 113.517 65.1013 113.585C65.3281 113.718 65.5281 113.929 65.6833 114.201C65.9172 113.663 66.2048 113.176 66.537 112.757C66.5694 112.707 66.5961 112.65 66.6159 112.588C66.8114 112.03 67.0753 111.527 67.3951 111.103C67.4372 111.051 67.4827 111.005 67.5308 110.965V110.191L67.8277 109.846C67.8277 109.747 67.7994 109.619 67.8321 109.56C68.0631 109.008 68.264 108.433 68.4334 107.838C68.3621 107.392 68.6196 106.941 68.5278 106.466C68.8034 105.988 68.782 105.384 68.9437 104.876L68.8415 104.713C68.9796 104.509 68.9219 104.199 69.0554 104.014C68.9821 103.908 68.9347 103.84 68.887 103.772C68.6062 103.718 68.3569 104.005 68.0737 103.926C67.9111 104.194 67.695 104.005 67.5074 104.061C67.3065 104.139 67.1012 104.192 66.8937 104.218C66.1658 104.15 65.435 104.189 64.7127 104.334C64.4128 104.399 64.108 104.402 63.8074 104.344C63.5011 104.316 63.1796 104.481 62.8882 104.21C62.8401 104.185 62.7878 104.184 62.7393 104.207C62.4361 104.325 62.1168 104.329 61.8123 104.218C61.4822 104.122 61.1414 104.131 60.8139 104.243C60.4267 104.362 60.0284 104.389 59.6351 104.322C59.5011 104.324 59.345 104.17 59.153 104.243C59.0632 104.5 58.8626 104.612 58.7245 104.737C58.5791 104.7 58.4403 104.622 58.3161 104.508C58.192 104.394 58.0849 104.245 58.001 104.072C57.7142 104.087 57.427 104.066 57.143 104.006C56.8412 103.849 56.5226 103.768 56.2015 103.767C55.7585 103.815 55.3131 103.774 54.8779 103.647C54.7664 103.606 54.6967 103.452 54.5696 103.481C54.0553 103.601 53.5602 103.276 53.0531 103.34C52.8039 103.037 52.4467 103.073 52.2244 102.762C51.7487 102.804 51.2772 102.612 50.8888 102.216C50.8378 102.398 50.9253 102.461 50.9724 102.547L50.8786 102.695C50.8349 102.846 50.9495 102.892 50.961 102.992L50.8833 103.135L51.0915 103.433V104.179C51.2921 104.368 51.5069 104.523 51.732 104.643C52.0098 104.805 52.3076 104.873 52.5837 105.015C52.9445 105.183 53.3179 105.288 53.6962 105.328C53.9943 105.444 54.3018 105.503 54.6108 105.504C54.8533 105.824 55.1692 105.58 55.4523 105.731C55.7618 105.824 56.0798 105.844 56.3939 105.792C57.1006 105.897 57.8108 105.944 58.5213 105.933C58.6352 105.916 58.6652 106.145 58.7825 106.081C58.9733 105.808 59.1641 105.93 59.356 106.082Z" fill="#212222"/>
<path d="M18.079 49.5217C18.079 49.5457 18.0752 49.589 18.0797 49.5909C18.3771 49.7357 18.7019 49.7132 18.9881 49.5279C19.0136 49.5328 19.0383 49.5434 19.0615 49.5593C19.0893 49.5834 19.114 49.6586 19.133 49.6538C19.5182 49.557 19.8309 49.9786 20.2051 49.9559C20.3389 49.9411 20.4733 49.9422 20.6071 49.9589C20.8481 50.0014 21.0958 49.8471 21.3343 50.0537C21.5278 50.2213 21.7734 50.0056 21.9925 50.2235C22.1056 50.3359 22.3184 50.2459 22.486 50.2426C22.8833 50.2442 23.2735 50.3936 23.6183 50.676C23.7008 50.6962 23.7283 50.589 23.7923 50.521C24.0336 50.7601 24.3176 50.6547 24.5902 50.6795L24.9257 51.1591V51.9116C24.8002 52.1219 24.6445 52.291 24.4692 52.4075C24.3607 52.4075 24.2428 52.3978 24.1261 52.4106C24.0309 52.4211 23.9237 52.3454 23.8415 52.4664C23.7246 52.6387 23.6766 52.3082 23.5534 52.402C23.1645 52.601 22.7454 52.6464 22.3399 52.5335C22.0563 52.4483 21.7668 52.4089 21.477 52.4163C21.2797 52.4706 21.1564 52.186 20.9635 52.259C20.8091 52.3174 20.6493 52.2583 20.4818 52.3251C20.4113 52.3781 20.3338 52.4094 20.2542 52.417C20.1747 52.4246 20.095 52.4083 20.0201 52.3692L19.8451 52.119C19.7848 52.1242 19.7243 52.1235 19.6641 52.1169C19.5235 52.0907 19.3673 52.2007 19.2437 51.9947C19.2153 51.9703 19.1832 51.9564 19.1501 51.954C19.1171 51.9515 19.0842 51.9607 19.0542 51.9808C18.8834 52.0812 18.7005 52.1322 18.5158 52.1312C18.3312 52.1301 18.1484 52.0769 17.9782 51.9746C17.986 51.8319 17.8831 51.7897 17.8534 51.8372C17.6689 52.1336 17.4767 51.9305 17.3312 51.8187C16.873 51.5169 16.3575 51.442 15.8662 51.6059C15.8529 51.6086 15.8422 51.6381 15.8177 51.6732C15.7186 51.558 15.6032 51.4749 15.4794 51.4299C15.3556 51.3849 15.2264 51.379 15.1009 51.4126L14.9484 51.1155C14.7809 51.134 14.6125 51.102 14.4543 51.0216C14.296 50.9412 14.1514 50.8142 14.0296 50.6488C13.7563 50.3883 13.5189 50.0582 13.3292 49.6748C13.1321 49.1173 12.8274 48.6523 12.4512 48.3349C12.2512 48.1684 12.0709 47.9576 11.917 47.7104C12.1346 47.5176 12.305 47.7435 12.4329 47.8904C12.7532 48.2695 13.1511 48.4889 13.5664 48.5156C13.739 48.5479 13.9088 48.6058 14.0731 48.6883C14.2247 48.7566 14.3823 48.793 14.5412 48.7964C14.7508 48.7499 14.9649 48.8239 15.1365 49.0021C15.259 49.1588 15.3935 49.0917 15.5157 49.0806C15.8059 49.0503 16.0965 49.1302 16.358 49.3124C16.4455 49.3753 16.5451 49.3955 16.6413 49.3699C16.8163 49.3272 16.9504 49.4735 17.1047 49.5195C17.2544 49.564 17.3491 49.2815 17.5175 49.3726C17.6039 49.4194 17.7108 49.329 17.7943 49.4678C17.869 49.5923 17.984 49.4951 18.079 49.5217Z" fill="#212222"/>
<path d="M97.2934 86.0257C97.2663 85.7334 97.0384 85.7763 96.9389 85.5888C96.7557 85.6221 96.5697 85.6025 96.392 85.531C96.2142 85.4594 96.0484 85.3375 95.9043 85.1725C95.8471 85.0851 95.7716 85.0264 95.6893 85.0052C95.6069 84.9839 95.5219 85.0012 95.4469 85.0545L95.17 84.5818H94.8325C94.5766 84.2701 94.2889 84.0164 93.9793 83.8293C93.6158 83.5275 93.2279 83.2903 92.8241 83.1233L92.1322 82.1339H91.9066C91.7365 81.8849 91.5768 81.6218 91.4282 81.3461C91.2485 81.1625 91.0514 81.0167 90.8428 80.913V79.7368C91.0346 79.4005 91.2789 79.1333 91.5561 78.9565H92.3053C92.4142 79.1726 92.6125 79.3006 92.6745 79.6504C92.7146 79.7286 92.8059 79.6577 92.926 79.6888L93.1668 80.1148C93.2784 80.1148 93.3892 80.0799 93.4048 80.1203C93.5377 80.4642 93.8311 80.4089 94.0214 80.6482C94.2067 80.8593 94.4366 80.9741 94.6735 80.974C94.7072 80.9757 94.7396 80.9919 94.7666 81.0206C94.7936 81.0493 94.8139 81.0891 94.8247 81.1347C94.9345 81.576 95.194 81.5635 95.4431 81.5508C95.4519 81.6357 95.4725 81.7172 95.5035 81.7906C95.5345 81.864 95.5754 81.9279 95.6238 81.9786C95.6815 81.9441 95.7004 81.8189 95.7825 81.8414C95.9272 81.8954 95.9757 82.061 96.0101 82.2429C96.2104 82.3259 96.3912 82.4853 96.533 82.704H96.8538C97.012 83.1799 97.2351 83.5528 97.6968 83.3971C97.6879 83.8487 98.0211 83.833 98.1176 84.1833C98.1966 84.4702 98.4205 84.6782 98.5858 84.9131C98.73 85.1859 98.9201 85.4023 99.1385 85.5417C99.269 85.7987 99.1934 86.1641 99.4125 86.3142C99.4196 86.4992 99.5679 86.5349 99.6248 86.764C99.241 86.6001 98.8386 86.5446 98.44 86.6007L98.2045 86.1895C97.863 86.12 97.561 86.2805 97.2934 86.0257Z" fill="#212222"/>
<path d="M30.1884 29.0334C30.2376 29.1387 30.3068 29.2217 30.388 29.2727C30.4691 29.3236 30.5587 29.3402 30.6462 29.3208L30.9918 29.8923V30.0941C31.0163 30.1351 31.037 30.1712 31.0589 30.2056C31.2096 30.442 31.489 30.4034 31.6009 30.7222C31.7045 31.0171 31.9331 31.117 32.0774 31.3586C32.2853 31.722 32.5325 32.0355 32.8095 32.2874C32.8838 32.3345 32.9645 32.3572 33.0457 32.3541C33.2879 32.5658 33.415 32.947 33.6399 33.1999C33.7161 33.2964 33.7726 33.4206 33.8033 33.5594C33.8339 33.6982 33.8376 33.8463 33.814 33.9879C33.73 34.1966 33.5937 34.352 33.4327 34.4227C33.1198 34.6074 32.7809 34.6839 32.4435 34.6458C32.3796 34.1969 32.1087 34.171 31.8407 34.1212C31.784 34.0345 31.7327 33.941 31.6871 33.8417C31.4454 33.3059 31.0956 32.8877 30.6841 32.6424C30.6336 32.6102 30.5889 32.5619 30.5535 32.5011C30.5182 32.4404 30.493 32.3689 30.4801 32.292C30.4698 32.2464 30.4534 32.204 30.4315 32.1677C30.4096 32.1314 30.3828 32.1016 30.3527 32.0804C30.3226 32.0592 30.2899 32.047 30.2564 32.0443C30.2229 32.0416 30.1894 32.0484 30.1578 32.0646C29.8098 31.5658 29.3735 31.2119 28.8956 31.0408C28.7255 30.7877 28.534 30.4878 28.3306 30.2054C28.26 30.0947 28.172 30.0093 28.0741 29.9561C27.9761 29.9029 27.8708 29.8834 27.7666 29.8991C27.6457 29.3203 27.2479 29.1211 26.9733 28.7615C26.8441 28.5924 26.6975 28.4793 26.6407 28.2205C26.5511 27.9462 26.4184 27.7054 26.2529 27.5166C26.2529 27.2772 26.2529 27.0379 26.2529 26.7985C26.3333 26.6081 26.4885 26.5676 26.5905 26.4758C27.0402 26.2585 27.3986 26.7708 27.8222 26.7322L28.0156 27.0088H28.3268C28.714 27.5158 29.1188 27.9944 29.5398 28.4431C29.5947 28.5193 29.6646 28.5701 29.74 28.5887C29.9824 28.5666 30.0936 28.7737 30.1884 29.0334Z" fill="#222222"/>
<path d="M22.4181 74.0498C22.6508 73.8538 22.9177 73.7566 23.1876 73.7694C23.3674 73.8142 23.4785 73.5527 23.6493 73.6171C24.1159 73.1927 24.7046 73.2301 25.1712 72.7951C25.2632 72.7473 25.3619 72.7329 25.4587 72.7529C25.6754 72.7477 25.8922 72.7513 26.097 72.7513C26.2243 72.8929 26.3688 72.9995 26.5233 73.0661C26.5614 73.3055 26.7454 73.4894 26.6621 73.7014C26.6391 73.999 26.3802 74.0087 26.4523 74.2563C26.1159 74.6191 25.6668 74.5832 25.3993 75.0534C25.0185 75.094 24.6766 75.4299 24.2873 75.3408C24.1691 75.5798 23.9221 75.5128 23.8308 75.7813C23.2907 75.8144 22.7578 75.9706 22.2523 76.2441C21.6747 76.5261 21.0876 76.766 20.493 76.9627C20.2204 76.9678 19.9575 77.1088 19.7497 77.3613C19.5099 77.3518 19.2705 77.3976 19.0409 77.4969C18.8261 77.6279 18.5745 77.4678 18.3233 77.6292C18.0624 77.7065 17.7939 77.7154 17.5308 77.656C17.9234 77.08 18.3682 76.5822 18.8536 76.1757C19.2935 75.7399 19.7972 75.4532 20.3262 75.3375C20.4513 75.3012 20.5634 75.2028 20.6425 75.0596C20.8238 74.7668 21.0736 74.5785 21.3449 74.5299C21.6752 74.3968 22 74.2371 22.3177 74.0516C22.3509 74.0445 22.3847 74.0438 22.4181 74.0498Z" fill="#222222"/>
<path d="M51.2782 91.3639C51.297 91.2087 51.4025 91.1096 51.385 90.918C51.3713 90.6769 51.3695 90.4348 51.3792 90.1933L51.6796 89.3589C51.7018 89.0754 51.6802 88.7882 51.6164 88.5179C51.6454 88.4752 51.6667 88.423 51.6781 88.3657C51.6896 88.3084 51.6908 88.2479 51.6818 88.1897C51.7636 88.1656 51.7792 88.2978 51.8465 88.3273C51.9398 87.8292 52.3631 87.5531 52.2748 86.8241L52.5901 86.5073V86.1045L52.7893 85.8058V85.309L52.5954 85.1094C52.5398 84.4512 52.8115 83.9863 52.9304 83.4565C52.9636 83.3438 53.0262 83.254 53.1049 83.2061C53.4288 83.0184 53.5821 82.5202 53.9077 82.3682C53.882 82.1731 53.9457 81.9996 53.8547 81.838C53.7601 81.887 53.7092 81.7857 53.6521 81.6987H53.0503L52.8334 81.4032H52.5527C52.3955 81.224 52.271 80.9934 52.1894 80.7307C52.3404 80.6414 52.3076 80.4533 52.2669 80.3084C52.2175 80.1411 52.1461 79.9888 52.0569 79.8595C51.8358 79.4745 51.5676 79.1503 51.2654 78.9026V78.4345C51.0854 78.2141 50.9339 77.9503 50.8176 77.6551C50.7212 77.3353 50.6503 76.9727 50.3718 76.846C50.3551 76.8383 50.384 76.7084 50.3006 76.6377C50.0978 76.6139 49.8937 76.6354 49.6956 76.7014C49.6254 76.7516 49.5482 76.7783 49.4698 76.7795C49.3913 76.7807 49.3137 76.7564 49.2428 76.7084C49.0845 76.6069 48.8974 76.5954 48.8119 76.357C48.5287 76.3759 48.2411 76.2603 48.0491 76.6469C47.6289 76.4618 47.298 76.0308 46.8093 75.8035C46.5313 75.8934 46.2666 75.566 45.9281 75.3484H45.1614C45.1041 75.2126 45.021 75.1028 44.9219 75.0318C44.8227 74.9607 44.7116 74.9314 44.6012 74.9471C44.3344 74.8684 44.0649 74.8092 43.7938 74.7696C43.7169 74.7807 43.6393 74.7595 43.5707 74.7086C43.502 74.6576 43.4452 74.5791 43.4072 74.4827V74.2635C42.9635 74.0025 42.45 73.9776 42.1168 73.4605C41.988 73.4918 41.9448 73.7119 41.8241 73.5884L41.6519 73.0437C41.2643 73.1176 41.0112 72.6889 40.6957 72.5638C40.6172 72.173 40.4492 71.8313 40.2186 71.5936H39.8817L39.3895 70.9726C39.3518 70.8113 39.4072 70.6794 39.3207 70.5884H39.1114C39.0463 70.4916 38.9768 70.3881 38.907 70.2848C38.7923 70.0767 38.648 69.9058 38.4838 69.7833C38.3195 69.6608 38.139 69.5895 37.954 69.574C37.8242 69.5739 37.7968 69.3427 37.6653 69.2785H37.2952L36.9921 68.8453C36.8572 68.8798 36.7182 68.8542 36.5938 68.7719C36.4695 68.6896 36.3657 68.5546 36.2967 68.3852C36.1357 68.0881 35.9494 67.835 35.7824 67.5385C35.5694 67.6672 35.4966 67.3713 35.3566 67.2559H34.8585C34.802 66.8034 34.4298 66.6888 34.3889 66.281C34.0282 66.2537 33.9281 65.809 33.6748 65.5736C33.8335 65.2215 33.6014 64.9486 33.6195 64.5923C33.4249 64.3186 33.2526 64.0142 33.1058 63.685V62.6894C32.9224 62.5771 32.9277 62.3255 32.8824 62.1058C32.6489 60.9736 32.3868 60.5531 32.6098 59.5794C32.5359 58.9638 32.7731 58.3927 32.7113 57.8358C32.8396 57.5833 33.0506 57.4813 33.0057 57.0857L32.7246 56.6833C32.7138 56.4996 32.6935 56.3172 32.6638 56.1378C32.5672 55.9307 32.5148 55.688 32.5132 55.439C32.5484 55.1443 32.3856 54.9224 32.4037 54.6332C32.4231 54.3237 32.4088 54.01 32.4079 53.698C32.4072 53.4219 32.2802 53.1898 32.2846 52.8989C32.2865 52.7738 32.1425 52.6448 32.0044 52.6959C32.0717 52.0866 32.141 51.4776 32.2052 50.8676C32.2342 50.5921 32.4966 50.4684 32.4323 50.1363C32.5673 49.9913 32.487 49.7829 32.5122 49.5872L32.9044 49.0527V48.576L33.1112 48.3623C33.0858 48.0872 33.1081 47.8075 33.1761 47.5476C33.2441 47.2878 33.3557 47.0558 33.5012 46.8723C33.6921 46.6519 33.7297 46.2835 33.88 46.0085C33.9881 45.8108 34.1041 45.6176 34.2134 45.4166L34.1618 45.3198C34.2032 44.9702 34.3245 44.6499 34.5067 44.4094C34.6504 44.1692 34.772 43.9036 34.8685 43.6192C35.0171 43.2071 35.2091 42.8303 35.4379 42.502C35.6064 41.9697 35.8448 41.4887 36.14 41.0848C36.106 40.4282 36.6646 40.5369 36.7399 40.047C36.7788 39.7787 36.8613 39.5272 36.9805 39.3126C37.0996 39.098 37.2523 38.9264 37.4263 38.8115C37.4984 38.6824 37.4062 38.495 37.5292 38.3622C37.6919 38.1906 37.8354 37.9846 37.955 37.7514C38.0554 37.561 38.1736 37.3913 38.3065 37.2472C38.4128 37.1228 38.5497 37.0137 38.5738 36.7584C38.5906 36.6901 38.6175 36.6279 38.6528 36.5761C38.6881 36.5242 38.7308 36.4839 38.7781 36.4579C38.9798 36.3012 39.1584 36.09 39.304 35.836C39.512 35.5616 39.6885 35.2445 39.8981 34.9682C40.1033 34.6976 40.3961 34.5903 40.5083 34.2274H40.7151C40.8614 33.8608 41.0392 33.5216 41.2443 33.218C41.3973 33.2466 41.5528 33.2046 41.6878 33.0977C41.8228 32.9909 41.9303 32.8249 41.9946 32.6243C42.0777 32.3983 42.2185 32.2269 42.3878 32.1458C42.5371 32.0806 42.6761 31.974 42.7968 31.8323C42.9142 31.6549 43.1135 31.6491 43.186 31.4317C43.2579 31.2163 43.5069 31.2892 43.5116 30.9861C43.512 30.9596 43.5571 30.9191 43.5851 30.9111C44.2833 30.7124 44.6725 29.7422 45.3382 29.4766C45.4719 29.4232 45.3679 29.1155 45.5467 29.1766C45.7143 29.2339 45.7635 28.9449 45.8724 28.9208C45.978 28.8754 46.0791 28.8106 46.1731 28.7277C46.5791 28.4954 46.9718 28.2178 47.3476 27.8978C47.6056 27.6379 47.9085 27.4841 48.2232 27.4527C48.3348 27.4531 48.4007 27.3416 48.4792 27.2873C48.8677 26.9888 49.2913 26.7947 49.7288 26.7146C49.8843 26.6534 50.0331 26.5612 50.1707 26.4408C50.4862 26.4641 50.8009 26.3782 51.0882 26.1906C51.1649 26.1512 51.2469 26.1381 51.3278 26.1522C51.632 26.1527 51.9333 26.0653 52.2133 25.8951C52.2579 25.8691 52.3059 25.8576 52.354 25.8616C52.9186 25.9626 53.4679 25.6768 54.0272 25.7258C54.2199 25.7427 54.3543 25.5492 54.5411 25.5597C54.719 25.6236 54.9073 25.5843 55.065 25.4504C55.1496 25.3568 55.3266 25.4035 55.4568 25.4329C55.5859 25.44 55.7131 25.387 55.8193 25.2818C55.9613 25.2128 56.0385 25.4463 56.1761 25.431C56.3579 25.4048 56.5411 25.4061 56.7227 25.4347C56.8561 25.4604 56.9223 25.3055 57.0302 25.2818V25.8505C57.3084 25.8744 57.5874 25.875 57.8656 25.8521C58.1905 25.8562 58.5144 25.9069 58.8322 26.0033C59.1371 26.0566 59.4578 25.8754 59.7508 26.1414C59.7987 26.1849 59.8826 26.1514 59.9497 26.1467C60.1756 26.1161 60.4019 26.2005 60.5886 26.3849C60.8027 26.6 61.0967 26.6026 61.3364 26.8716C61.6302 26.8478 61.9224 26.948 62.1768 27.1597C62.4636 27.384 62.7911 27.4793 63.1164 27.433C63.3031 27.758 63.6685 27.6389 63.8407 28.0235C64.123 27.9638 64.3697 28.2791 64.6163 28.1674C64.939 28.4278 65.2745 28.6544 65.6202 28.8453C65.6641 28.8717 65.7111 28.886 65.7586 28.8877C65.9502 28.8981 66.1403 28.9394 66.3254 29.0109C66.609 29.1005 66.8963 29.1644 67.1855 29.2022C67.6032 29.2949 68.0128 29.4497 68.408 29.6642C68.4819 29.6984 68.5523 29.7727 68.6327 29.7522C69.118 29.7048 69.6047 29.8104 70.0583 30.0618C70.4861 30.2189 70.9294 30.297 71.3414 30.5015C71.548 30.6041 71.7705 30.5161 71.9435 30.6759C72.1364 30.8542 72.334 30.7012 72.5467 30.7895C72.5827 31.1066 72.877 30.9398 72.974 31.1975C72.9859 31.2385 72.997 31.3148 73.0097 31.3153C73.3265 31.3459 73.631 31.5032 73.8883 31.7693C74.0794 31.9757 74.3128 32.0862 74.5523 32.0835C74.7595 32.4588 75.1058 32.5093 75.3571 32.79C75.5489 33.0241 75.7658 33.2123 75.9996 33.3472C76.3056 33.5119 76.6024 33.7096 76.8873 33.9388C77.1913 33.9917 77.4997 33.9209 77.7769 33.7346C77.8468 33.86 77.9183 34.0749 77.9697 34.0656C78.2214 34.0198 78.3625 34.3519 78.5925 34.3817C78.8325 34.4128 78.923 34.9064 79.2108 34.8486C79.7491 35.3521 80.3259 35.7678 80.8623 36.2682C81.1756 36.512 81.4492 36.8479 81.6653 37.2537C81.8232 37.5639 82.0361 37.8083 82.282 37.9614C82.5519 38.1387 82.6672 38.484 82.8428 38.7618C82.8584 38.7885 82.87 38.8197 82.8767 38.8531C82.8835 38.8866 82.8853 38.9216 82.882 38.9561C82.8788 38.9906 82.8705 39.0237 82.8579 39.0534C82.8452 39.0831 82.8283 39.1088 82.8083 39.1287C82.7263 39.1572 82.681 39.0382 82.6327 39.0316C82.4318 39.0041 82.3638 38.6296 82.1203 38.6879C81.9103 38.7382 81.8008 38.3136 81.5647 38.3522C81.5337 38.3573 81.4825 38.2207 81.4439 38.2721C81.2797 38.4909 81.1331 38.2085 80.9686 38.2557C80.7851 38.2868 80.5998 38.2903 80.4159 38.2661C80.3015 38.2898 80.1849 38.2783 80.0739 38.2325C79.7539 37.9902 79.4196 38.1935 79.097 38.123C78.8997 38.3965 78.6369 38.1589 78.4378 38.2824C78.2236 38.3902 77.9962 38.434 77.7696 38.4109C77.6185 38.415 77.4658 38.3927 77.3164 38.4162C77.1079 38.4078 76.9054 38.5162 76.7519 38.7181C76.5989 38.9546 76.3881 39.0979 76.1632 39.1183C76.0192 39.1205 75.8788 39.1834 75.7597 39.2992C75.6406 39.415 75.5481 39.5786 75.4937 39.7693C75.4639 39.8509 75.418 39.918 75.3615 39.9622C75.3051 40.0064 75.2407 40.0255 75.1766 40.0174C74.9389 40.4914 74.6767 40.9394 74.3924 41.3576C74.3696 41.7919 74.2444 42.2021 74.0371 42.521L74.3904 42.9306C74.3865 43.1067 74.4128 43.2815 74.467 43.4397C74.5212 43.5978 74.6016 43.7346 74.7013 43.838V44.5394C75.1698 45.1931 75.5444 45.9715 75.8039 46.8309L75.7012 46.9989C75.903 47.2318 75.9669 47.6319 76.1913 47.8455C76.1663 48.1306 76.4769 48.1958 76.405 48.5116C76.3248 48.5144 76.2459 48.4821 76.1788 48.4194C75.9123 48.1891 75.7102 47.7766 75.3351 47.7885C75.2525 47.6069 75.1447 47.4515 75.0183 47.3322C74.8919 47.2129 74.7496 47.1322 74.6004 47.095C74.0197 46.9499 73.5266 46.4583 72.9462 46.3428C72.8188 46.3175 72.7942 46.0278 72.6255 46.0561C72.3554 46.1015 72.1807 45.8418 71.9929 45.6202C71.6098 45.6186 71.2315 45.4974 70.8846 45.2648C70.582 45.1469 70.273 44.8801 69.9699 44.7956C69.6425 44.7044 69.3475 44.4049 68.9986 44.4715C68.851 44.2004 68.6074 44.3037 68.4185 44.2194C68.2092 44.0981 67.9868 44.0298 67.7612 44.0175C67.5732 44.0273 67.3822 43.7792 67.189 43.7676C66.9581 43.7539 66.7451 43.6322 66.5246 43.6218C66.3814 43.615 66.3003 43.4502 66.163 43.4576C65.6978 43.4286 65.2356 43.3355 64.7829 43.1796C64.6093 43.1412 64.4677 42.9808 64.2693 43.0167C63.8616 43.0903 63.4657 42.7859 63.0507 42.8844C62.9445 42.6659 62.8037 42.9733 62.7381 42.8738C62.6075 42.6759 62.4596 42.7458 62.3184 42.7439C61.6794 42.7354 61.0399 42.7222 60.4013 42.7453C59.7738 42.7014 59.1449 42.741 58.5227 42.864C58.1383 42.9261 57.7506 42.9333 57.3653 42.8853C57.2667 42.8661 57.1665 42.8745 57.0702 42.91C56.7136 43.1333 56.3229 43.2225 55.9355 43.1688C55.6042 43.1319 55.3015 43.4158 54.9673 43.3222C54.948 43.3168 54.9193 43.4088 54.8948 43.4088C54.5672 43.4815 54.2459 43.604 53.9364 43.774C53.606 43.8045 53.2828 43.9258 52.9846 44.1314C52.7954 44.2967 52.5724 44.365 52.3525 44.325C52.0753 44.5476 51.7855 44.7362 51.4861 44.8889C51.3222 45.0624 51.1461 45.2108 50.9605 45.3316C50.6422 45.4748 50.4016 45.8248 50.0843 45.9667C49.9637 46.0207 50.0069 46.2634 49.901 46.3476C49.4981 46.5281 49.1499 46.8986 48.9131 47.3986C48.6522 47.7946 48.5109 48.3609 48.257 48.8032C48.1417 49.0042 47.9777 49.2106 48.043 49.5452C48.0544 49.6035 47.9818 49.6949 47.9485 49.7714C47.7413 50.2463 47.6429 50.7956 47.4319 51.2665L47.5682 51.5544C47.3526 51.6916 47.5253 52.0411 47.4114 52.213C47.2756 52.418 47.4077 52.6663 47.2848 52.8707C47.1522 53.0913 47.253 53.3497 47.3367 53.5589C47.3537 53.6655 47.2943 53.6913 47.265 53.7445C47.1477 53.9575 47.4169 54.1971 47.242 54.4052C47.3557 54.9961 47.3892 55.6125 47.3407 56.2214C47.3508 56.3858 47.3229 56.5583 47.4439 56.6662C47.3844 57.0217 47.6362 57.2249 47.6506 57.5563C47.669 57.8207 47.7281 58.0759 47.8237 58.3037C47.9193 58.5316 48.049 58.7263 48.2035 58.8738C48.27 58.9448 48.3278 59.0311 48.3745 59.1291C48.4671 59.2793 48.5459 59.446 48.6088 59.6249C48.7076 59.6026 48.8086 59.6351 48.8911 59.7161L49.1744 59.4019C49.0942 59.2076 49.0499 58.9875 49.0454 58.762L48.6457 58.2424L48.687 58.2085L48.2484 56.8699C48.2364 56.6336 48.2577 56.3963 48.3109 56.172C48.1177 55.9589 48.4155 55.694 48.2749 55.4753C48.4345 55.3008 48.193 55.1872 48.2419 54.9986C48.2857 54.8294 48.2172 54.6026 48.2574 54.4294C48.339 53.9038 48.373 53.3654 48.3584 52.8275C48.3558 52.5335 48.4094 52.2441 48.5131 51.9903C48.6622 51.6453 48.7539 51.256 48.7811 50.8523C48.9072 50.7389 49.0048 50.571 49.0596 50.3729C49.1423 49.9849 49.2785 49.6244 49.4601 49.313C49.6266 49.09 49.7695 48.8338 49.8847 48.5523C50.0305 48.2277 50.2183 47.9458 50.438 47.7219C50.6853 47.5125 50.9232 47.2811 51.1501 47.0289C51.4162 46.6522 51.8127 46.5857 52.0726 46.203C52.4983 46.1264 52.8521 45.7493 53.2666 45.619C53.4138 45.5886 53.5494 45.4875 53.6511 45.3325C54.1349 45.4212 54.5673 44.9143 55.0574 45.0581C55.1551 44.8974 55.2917 44.7954 55.4397 44.7727C55.7324 44.7936 56.0253 44.7406 56.3051 44.6159C57.0511 44.6667 57.7843 44.4049 58.5343 44.4592C59.3059 44.515 60.0811 44.461 60.8546 44.4771C61.1311 44.4064 61.4161 44.4505 61.6756 44.6041C61.7216 44.6315 61.7714 44.6428 61.821 44.6369C61.8706 44.631 61.9184 44.6081 61.9605 44.5702C62.1853 44.428 62.4396 44.4137 62.6714 44.5304C62.9281 44.6451 63.1934 44.7159 63.4618 44.7409C63.7982 44.7154 64.0989 44.9718 64.4298 44.9044C64.804 45.1548 65.219 45.2541 65.6298 45.1913C65.798 45.3906 66.0119 45.4934 66.2301 45.4799C66.4556 45.4443 66.6831 45.512 66.88 45.673C67.0588 45.8088 67.2473 45.917 67.4421 45.9956C67.7147 46.172 68.0038 46.2903 68.3004 46.3471C68.5376 46.365 68.7697 46.454 68.9814 46.6082C69.3118 46.8138 69.6544 46.9766 70.0051 47.095C70.1932 47.1156 70.3779 47.1795 70.5518 47.2842C70.961 47.5574 71.3962 47.7423 71.8434 47.8328L72.2103 48.3573C72.3635 48.3969 72.5411 48.2967 72.6577 48.5567C72.7679 48.8026 72.9978 48.5467 73.1511 48.7854C73.2203 48.8663 73.3017 48.9229 73.3889 48.9508C73.4761 48.9788 73.5666 48.9773 73.6533 48.9464C73.6852 48.9463 73.7169 48.9534 73.7473 48.9676L74.0336 49.3772C74.0998 49.3772 74.1827 49.3404 74.2315 49.3832C74.5335 49.6295 74.8237 49.9043 75.1003 50.2055C75.192 50.3305 75.3031 50.4228 75.4245 50.4748C75.6172 50.5313 75.7898 50.6828 75.9122 50.9029C75.9677 50.9521 76.0279 50.9893 76.091 51.0133C76.1412 51.3263 76.2643 51.6054 76.4401 51.8052C76.7057 52.0977 76.8356 52.5524 77.0769 52.8763C77.1562 52.9868 77.2018 53.1376 77.2037 53.296C77.2194 53.6158 77.2624 53.9317 77.3317 54.2367L77.5989 54.6198C77.6422 54.8583 77.4809 54.8712 77.5145 55.0151C77.5044 55.1486 77.6497 55.1723 77.617 55.3121C77.6109 55.4388 77.4812 55.4734 77.5165 55.6231C77.614 55.7983 77.6819 56.0033 77.7147 56.2222C77.7312 56.3867 77.6409 56.5482 77.6344 56.6691C77.5704 56.9899 77.5889 57.3328 77.6866 57.6358C77.7545 57.7803 77.7132 57.9553 77.7075 58.192L77.5049 58.387V59.5534C77.4313 59.7289 77.3042 59.7377 77.2156 59.8326C77.0816 60.568 76.7958 61.2287 76.3956 61.7285C76.3194 61.8175 76.2558 61.9265 76.2081 62.0496C76.1729 62.2039 76.1019 62.3364 76.0068 62.4251C75.9117 62.5139 75.7984 62.5535 75.6854 62.5375C75.6315 62.7581 75.5372 62.9541 75.4124 63.105C75.2877 63.256 75.1371 63.3565 74.976 63.396C74.7245 63.4706 74.4987 63.6671 74.3367 63.9523H73.9309C73.7934 64.181 73.6059 64.3363 73.3987 64.3931C72.9984 64.5043 72.6042 64.6572 72.2193 64.8501C71.7149 65.0624 71.1972 65.2043 70.6737 65.2742C70.2852 65.3463 69.8941 65.3854 69.5024 65.3909C69.433 65.3915 69.3751 65.4657 69.3263 65.4727C69.1041 65.5048 68.8849 65.7919 68.6885 65.6497C68.5539 65.5734 68.4101 65.5355 68.2654 65.5381C67.9739 65.537 67.6833 65.5804 67.3983 65.6679C67.0229 65.7175 66.6444 65.6777 66.2782 65.5501C65.857 65.4013 65.4415 65.7481 65.0101 65.6862C64.8103 65.6576 64.6068 65.6813 64.405 65.6813C64.1864 65.6813 63.9663 65.7034 63.7495 65.675C63.5466 65.6484 63.3878 65.9076 63.1857 65.8241C62.9629 65.7321 62.7761 65.9268 62.5725 65.9793C62.1672 66.0579 61.7694 66.2021 61.3868 66.409C61.1706 66.5417 60.9069 66.6007 60.8077 66.9773C60.7264 67.0046 60.6353 66.9242 60.5658 67.0455V67.3349L60.0679 68.0139C60.0949 68.3873 59.7861 68.7222 60.0892 69.1127L59.8493 69.3499C59.8549 69.8413 59.7883 70.3289 59.6538 70.7811C59.7128 70.8474 59.7539 70.941 59.7701 71.0458C59.7862 71.1506 59.7762 71.2602 59.7421 71.3558C59.6069 71.6071 59.6679 71.8557 59.6569 72.1039C59.6441 72.3911 59.6539 72.6804 59.6539 73.0523L59.4586 73.2338V74.0733L59.6413 74.2291V75.7355L59.4531 75.9933V76.3425C59.5558 76.7175 59.7322 77.0419 59.961 77.2765C60.2988 76.9783 60.7472 77.0921 60.9663 76.5369C60.9201 76.059 61.139 75.6255 61.0666 75.1487C61.2687 74.9416 61.0876 74.5957 61.2026 74.3642C61.3655 73.8706 61.4531 73.3331 61.4595 72.7873C61.4654 72.4883 61.538 72.1997 61.6666 71.9637C61.6951 71.5795 61.6036 71.1679 61.7876 70.8307L61.6786 70.66C61.8643 70.123 61.9329 69.5186 61.8756 68.9251L62.0873 68.6226V68.1652C62.2942 68.0447 62.5055 67.9404 62.7203 67.8526C62.9746 67.768 63.2412 67.932 63.5031 67.7644C63.7469 67.6597 63.9989 67.5988 64.2532 67.5828C64.6511 67.4772 65.0592 67.4781 65.4568 67.5856C65.7288 67.6968 66.0179 67.6872 66.2859 67.5581C66.3025 67.5537 66.3195 67.5534 66.3361 67.557C66.7902 67.557 67.2465 67.5166 67.6976 67.5683C68.1652 67.622 68.6089 67.3671 69.069 67.4163C69.75 67.4892 70.4153 67.1677 71.0962 67.2679C71.1295 67.2728 71.181 67.2889 71.1943 67.2654C71.3897 66.919 71.7294 67.3324 71.9207 66.9799C72.1792 66.9834 72.4368 66.9388 72.6873 66.8472C72.9863 66.7804 73.2745 66.6369 73.5379 66.4236C74.0251 66.3878 74.5006 66.1972 74.9299 65.8659C75.1674 65.6314 75.4526 65.5158 75.7409 65.5371C76.0694 65.1007 76.4367 64.7283 76.8334 64.4294C77.254 64.1335 77.6092 63.6773 77.8601 63.111C77.9192 62.9575 77.9936 62.724 78.0732 62.6752C78.3665 62.4954 78.4981 62.0924 78.7519 61.8413C78.5876 61.4548 79.069 61.3909 78.8953 60.9904L79.2548 60.578C79.334 60.0569 79.4627 59.5538 79.6372 59.0826C79.5595 58.5976 79.7561 58.1181 79.745 57.5949C79.724 57.0939 79.6526 56.5998 79.533 56.1279C79.608 56.0001 79.6636 55.8513 79.6964 55.6912C79.7291 55.531 79.7383 55.3629 79.7233 55.1975C79.5574 55.0776 79.5257 54.7863 79.4265 54.5424L79.5346 54.3188C79.5224 54.1405 79.4418 53.9953 79.4159 53.8094C79.3928 53.474 79.3311 53.1464 79.2333 52.8398C79.0689 52.2366 78.8659 51.6561 78.627 51.106C78.6105 51.0778 78.6249 51.0125 78.6249 50.9644C78.9272 51.3242 79.2166 51.7053 79.4921 52.1065C79.5525 52.0116 79.6076 51.9172 79.7217 52.018V52.451C80.198 53.2077 80.7365 53.8792 81.3256 54.4509C81.3953 54.6404 81.2779 54.8569 81.4067 55.007H81.8055C81.9544 55.2423 82.1613 55.3859 82.3826 55.4078C82.604 55.4297 82.8226 55.3282 82.9927 55.1245L83.1059 55.2724L83.4854 54.9908C83.6324 55.3011 83.9037 54.9925 84.0406 55.3001L84.1187 54.9758C84.4073 55.1446 84.6067 54.7371 84.8848 54.7595C84.9548 54.7651 85.1165 54.8078 85.1947 54.6332C85.234 54.5612 85.2787 54.4957 85.3281 54.4377C85.4741 54.3961 85.6372 54.5141 85.7429 54.2862C85.7697 54.3472 85.8099 54.3938 85.8572 54.4186C85.9045 54.4434 85.9563 54.4451 86.0043 54.4232C86.1389 54.3643 86.0502 54.2156 86.1289 54.163C86.2715 54.153 86.4096 54.0882 86.5287 53.9755C86.6478 53.8628 86.7434 53.7064 86.8056 53.5226C86.9042 53.2106 87.1768 53.0627 87.248 52.7023C87.6118 52.5484 87.7484 52.0638 87.9512 51.6865C88.237 51.0856 88.3972 50.3806 88.413 49.6542C88.4134 49.4207 88.4131 49.1873 88.4131 48.9954C88.636 48.847 88.7471 49.0972 88.8954 49.1294C88.9566 49.4829 88.9703 49.8586 89.2839 49.9862C89.3686 50.0207 89.4311 50.1767 89.4982 50.284C89.5168 50.3137 89.5155 50.3688 89.5236 50.4147C89.4969 50.6019 89.2993 50.637 89.3174 50.834C89.3169 51.1788 89.5521 51.3668 89.523 51.6879C89.5177 51.8549 89.5385 52.0214 89.5838 52.1754C89.6292 52.3295 89.698 52.4671 89.7853 52.5783C89.8156 53.4529 89.7954 54.3296 89.7248 55.1994C89.731 55.2963 89.6822 55.3765 89.6716 55.454C89.6078 55.7277 89.5878 56.0184 89.6131 56.3046C89.6385 56.5908 89.7086 56.865 89.8182 57.1072L89.5513 57.489C89.5223 58.3902 89.5461 59.2933 89.6225 60.1888L89.3223 60.5341C89.3173 60.7871 89.3529 60.9973 89.2344 61.1611C89.3582 61.2455 89.2935 61.492 89.4086 61.5587C89.4983 61.9722 89.2988 62.3273 89.3067 62.7279C89.3083 62.8108 89.1595 62.8998 89.1148 62.9483C89.0814 63.3745 89.1175 63.8059 89.2204 64.2087C89.0349 64.6114 89.1688 65.0785 89.0893 65.5729L88.707 66.0675C88.7267 66.2158 88.7252 66.3683 88.7025 66.5157C88.6798 66.6631 88.6364 66.8023 88.575 66.9251C88.4651 67.2304 88.6231 67.6002 88.4153 67.8453C88.3988 67.8648 88.4203 67.9406 88.4119 67.9855C88.3659 68.2325 88.5892 68.3933 88.514 68.6473C88.4387 68.8665 88.3732 69.0924 88.3179 69.3235C88.301 69.4868 88.2991 69.6526 88.3123 69.8166C88.1869 70.1652 87.9148 70.3621 87.8868 70.8081C87.8575 71.0131 87.7758 71.1951 87.6576 71.3184C87.4895 71.5148 87.3292 71.7243 87.1772 71.9459C87.092 72.2114 87.3203 72.306 87.3031 72.5043C87.1328 72.8553 86.9581 73.2132 86.7739 73.5494C86.593 73.8797 86.2458 74.0029 86.1599 74.4485C85.6968 74.8316 85.2063 75.1431 84.697 75.3774C84.5885 75.7091 84.2866 75.7917 84.0888 76.0867H83.6905C83.4854 76.6125 83.0839 76.6773 82.7531 76.847C82.2994 77.0111 81.8571 77.234 81.4317 77.5126C81.2068 77.4991 80.9868 77.6088 80.8165 77.8194C80.6118 77.987 80.3843 77.926 80.1847 78.0857C79.5942 78.5853 78.9823 79.0311 78.3526 79.4205C78.2641 79.4678 78.1822 79.5372 78.1107 79.6255C77.9636 79.7974 77.7913 79.9196 77.6066 79.9831C77.4271 80.0338 77.2598 80.1501 77.1209 80.3206C76.982 80.491 76.8762 80.71 76.8139 80.9561C76.7886 81.0669 76.7401 81.1638 76.675 81.2338C76.4093 81.5505 76.1838 81.9304 76.0084 82.3568C75.8374 82.8198 75.5311 83.1009 75.3408 83.5419C75.1866 83.8769 74.9752 84.1502 74.7266 84.336C74.2982 84.7074 73.9507 85.2423 73.723 85.8804C73.6932 85.9954 73.6773 86.1167 73.6759 86.2393L73.3735 86.6926C73.3742 87.131 73.6901 87.2845 73.6828 87.5656C73.4647 88.4533 73.3238 89.3761 73.2634 90.313C73.1057 90.4663 73.0375 90.7568 72.8944 90.9194C72.6614 91.2263 72.3919 91.4712 72.0987 91.6425C72.0014 91.6922 71.9175 91.7843 71.8587 91.9058C71.7999 92.0273 71.7693 92.1721 71.771 92.3198C71.7226 92.6503 71.7249 92.992 71.7779 93.3211C71.8432 93.6178 71.8699 93.9309 71.9455 94.2281C71.9877 94.4097 72.0551 94.5772 72.1438 94.7204C72.2564 95.113 71.9759 95.4051 72.0845 95.7852C72.1773 95.8719 72.2224 96.0853 72.3685 96.1252C72.3799 96.3225 72.2492 96.2323 72.1785 96.3225V97.1646C71.8986 97.699 71.8515 98.3745 71.4716 98.7626V99.1661C71.3724 99.4279 71.1573 99.5442 71.1264 99.849C70.656 100.57 70.0531 101.088 69.3867 101.342C69.0433 101.45 68.7044 101.651 68.3589 101.789C68.3153 101.807 68.2756 101.897 68.2395 101.891C67.858 101.823 67.5054 102.131 67.1196 102.051C67.0404 102.013 66.9559 102.004 66.8737 102.026C66.7916 102.047 66.7146 102.098 66.65 102.174C66.6059 102.207 66.5565 102.224 66.5066 102.223C66.4567 102.221 66.4078 102.201 66.3648 102.165C66.294 102.08 66.208 102.025 66.1165 102.007C66.0251 101.988 65.9318 102.007 65.8473 102.06C65.4634 102.195 65.0665 102.235 64.6731 102.18C64.2872 102.205 63.8999 102.184 63.5132 102.186C63.3993 102.186 63.2736 102.14 63.2398 102.314C63.089 102.377 63.0686 102.147 62.94 102.177C62.5542 102.267 62.1516 102.047 61.7686 102.319C61.7154 102.356 61.6569 102.375 61.5978 102.374C61.5387 102.374 61.4806 102.353 61.4278 102.315C61.2598 102.098 61.0789 102.203 60.9057 102.19C60.5129 102.137 60.1308 101.977 59.7804 101.717C59.6692 101.432 59.858 101.151 59.7675 100.835C59.6861 100.551 59.8175 100.18 59.6534 99.8909C59.6596 99.7307 59.7663 99.635 59.7613 99.4466C59.7442 98.7984 59.7569 98.1487 59.753 97.4996C59.7635 97.3608 59.7428 97.2208 59.6942 97.0997C59.6482 96.9866 59.6225 96.859 59.619 96.7282C59.6156 96.5974 59.6346 96.4673 59.6745 96.3495C59.7827 96.0864 59.7277 95.8518 59.754 95.6191L59.5495 95.3268C59.5866 94.9871 59.4738 94.6015 59.6538 94.2643C59.5981 93.758 59.7494 93.2362 59.5647 92.7288C59.5292 92.6201 59.5211 92.4972 59.542 92.381C59.5628 92.2648 59.6114 92.1624 59.6791 92.0916L59.5554 91.852C59.5097 91.6802 59.6732 91.6381 59.6568 91.4734C59.6251 91.1562 59.6253 90.8404 59.5774 90.5167C59.5274 90.3149 59.5074 90.1005 59.5186 89.887C59.5297 89.6736 59.5718 89.4657 59.6422 89.2768C59.7012 89.1519 59.6434 88.907 59.5727 88.6857C59.5665 88.2655 59.8919 87.9788 59.672 87.5664C59.7928 87.4399 59.7298 87.2324 59.7789 87.071C60.1739 86.9872 60.5741 86.9321 60.9645 86.812C61.4476 86.6229 61.8743 86.2138 62.1802 85.6466C62.1052 85.4054 62.2886 85.2689 62.2832 85.0489C62.2556 84.8402 62.2702 84.6245 62.3256 84.4273C62.3808 84.2811 62.2209 84.1229 62.2775 83.9426C62.0376 83.7208 62.0496 83.3068 61.9337 82.991C61.802 82.6951 61.6431 82.4259 61.4611 82.1907C61.37 82.0488 61.1917 82.2204 61.1052 81.9953C61.0935 81.965 60.9685 81.9151 60.8999 81.829C60.5403 81.9557 60.2047 81.6002 59.8391 81.697C59.2165 81.7534 58.5994 81.8979 57.9967 82.1283C57.752 82.2044 57.5219 82.3561 57.3224 82.5726C57.1229 82.7891 56.9588 83.0653 56.8417 83.3819C56.8238 85.5898 56.6916 85.1078 57.1476 86.2659C57.2183 86.3638 57.3073 86.287 57.3517 86.304C57.5339 86.4169 57.5169 86.6858 57.6627 86.8677C58.0016 86.7732 58.2518 87.3085 58.6542 87.1584C58.6816 87.6685 58.6468 88.1815 58.5512 88.6745C58.524 88.7506 58.5178 88.8385 58.534 88.9208C58.5502 89.0031 58.5874 89.0737 58.6383 89.1184C58.5961 89.1729 58.5651 89.2426 58.5484 89.3203C58.5318 89.3981 58.5301 89.4809 58.5438 89.5598C58.5637 89.8626 58.4492 90.1704 58.4716 90.4301C58.497 90.7235 58.3875 90.901 58.3619 91.1326C58.3397 91.4652 58.3329 91.7996 58.3416 92.1336C58.339 92.2948 58.3743 92.4741 58.2438 92.5843L58.3586 92.7648L58.1394 93.0103C58.2942 93.5918 58.3047 94.2318 58.1691 94.823C58.1206 95.0195 58.3306 95.1727 58.1495 95.3531C58.0985 95.4039 58.2336 95.6614 58.1512 95.8723C58.094 96.019 58.139 96.2481 58.1406 96.4405C58.1414 96.5319 58.1276 96.6243 58.1866 96.7037C58.2139 96.7579 58.2323 96.8202 58.2407 96.8859C58.3052 97.1574 58.14 97.3566 58.1274 97.618C58.114 97.8972 58.307 98.0831 58.2385 98.3515C58.2228 98.4131 58.1741 98.4575 58.1284 98.5288C58.1941 98.8062 58.3677 99.103 58.138 99.39C58.1427 99.5845 58.3035 99.7016 58.242 99.9174C58.0916 100.483 58.0971 101.108 58.2574 101.668C57.7714 101.797 57.2723 101.784 56.7899 101.63C56.6919 101.607 56.5923 101.6 56.4932 101.609C56.0056 101.607 55.5179 101.614 55.0303 101.606C54.8196 101.642 54.6058 101.598 54.4109 101.478C54.2511 101.351 54.012 101.597 53.8525 101.321C53.3431 101.295 52.8526 101.039 52.4507 100.591C52.3632 100.521 52.294 100.427 52.1867 100.454V99.9615C51.9297 99.1148 51.4146 98.7812 51.0738 98.2016V97.4889C50.9629 97.386 50.9189 97.1737 50.7738 97.1354C50.7799 97.0024 50.815 96.8757 50.8742 96.7728C50.7311 96.65 50.7818 96.4477 50.7738 96.2696C50.8557 96.2457 50.8713 96.3773 50.9832 96.4279C51.1895 95.6032 51.7477 95.26 52.1884 94.7608C52.2132 94.3497 51.9956 94.0835 51.9503 93.7196C51.8762 93.4016 51.8179 93.0766 51.7759 92.7468C51.7645 92.392 51.5052 92.1192 51.5906 91.7298C51.4685 91.6163 51.4238 91.4032 51.2782 91.3639ZM75.203 56.5566C74.8513 56.7779 74.9904 57.4238 74.6768 57.684C74.7736 58.1344 74.5064 58.5326 74.6012 58.9907L74.7378 59.1859C74.9554 58.884 75.3029 58.8903 75.4977 58.5291V58.0798C75.8204 57.7966 76.1082 57.4392 76.3495 57.022C76.0111 56.5994 75.713 56.1152 75.4627 55.5815C75.3698 55.6019 75.284 55.537 75.2029 55.6383L75.203 56.5566ZM49.2274 71.0629C49.042 70.6014 49.1462 70.1323 48.9573 69.923C48.7668 69.8148 48.7542 70.034 48.6147 69.9977C48.2765 69.7294 47.8849 69.6327 47.5034 69.7234L47.2433 70.076V70.4198C47.543 70.5234 47.8309 70.688 48.098 70.9084C48.4719 70.9931 48.849 71.0446 49.2274 71.0629Z" fill="#DEDEDE"/>
<path d="M95.5777 25.282C95.3411 25.413 95.1219 25.601 94.9295 25.8378C94.8799 25.8908 94.8212 25.9239 94.7596 25.9338C94.3384 26.1071 93.9382 26.3717 93.573 26.7183C93.2193 26.9495 92.8522 27.1361 92.4758 27.276C92.252 27.39 92.0574 27.5787 91.843 27.7061C91.7188 27.7799 91.5819 27.8489 91.4542 27.9304C91.1493 28.0958 90.8514 28.2863 90.562 28.5011C90.1325 28.8149 89.6894 29.089 89.2354 29.3219C89.0095 29.1881 88.9449 29.5584 88.7683 29.6299C88.3151 29.8506 87.8351 29.9365 87.3578 29.8821C87.1841 29.7857 87.2345 29.491 87.0806 29.3808L87.344 28.6203C87.5451 28.5343 87.7417 28.4281 87.9323 28.3024C88.0813 28.2175 88.2174 28.0919 88.3329 27.9327C88.5216 27.6182 88.7713 27.3908 89.0504 27.2794C89.214 27.2097 89.3569 26.9768 89.5339 26.8662C89.9124 26.6641 90.2788 26.4187 90.6298 26.1324C90.9745 25.8132 91.418 25.7574 91.6968 25.282C91.9894 25.2032 92.2747 25.0763 92.5468 24.9034C93.0053 24.6937 93.4539 24.4418 93.8897 24.1496C93.9808 24.0936 94.1424 24.2607 94.165 23.9835C94.1932 23.8924 94.2411 23.8166 94.3017 23.7675C94.3623 23.7184 94.4325 23.6986 94.5016 23.7109C94.9075 23.7998 95.23 23.3444 95.6232 23.4064C95.7462 23.1614 95.9271 23.275 96.0831 23.2668C96.3836 23.2509 96.6851 23.2748 96.9855 23.2569C97.141 23.2476 97.2993 23.3314 97.4541 23.1317C97.5504 23.0075 97.7486 23.1629 97.9227 23.4207C97.5807 23.8359 97.1913 24.1636 96.7715 24.3896C96.3978 24.749 95.9974 25.0483 95.5777 25.282Z" fill="#212222"/>
<path d="M106.476 59.7659C106.322 59.4873 106.128 59.5886 105.969 59.712C105.801 59.8424 105.698 59.6986 105.571 59.6166C105.466 59.7242 105.339 59.7792 105.21 59.773C104.976 59.7466 104.739 59.7745 104.504 59.7635C104.275 59.7527 104.079 60.0081 103.838 59.9191C103.796 59.9037 103.733 60.0062 103.649 60.0815C103.47 59.727 103.181 59.9693 102.932 59.8536C102.739 59.7639 102.488 60.071 102.283 59.7657C102.146 59.7294 102.075 59.9432 101.921 59.9273C101.73 59.8975 101.542 59.8442 101.358 59.7677C101.174 59.7025 101.037 59.9404 100.844 59.9237C100.719 59.9001 100.598 59.8401 100.489 59.7476C100.38 59.655 100.285 59.5319 100.21 59.3854C100.257 59.1835 100.375 59.0451 100.324 58.857C100.493 58.349 100.918 58.4188 101.206 58.0388C101.661 58.022 102.114 57.9678 102.565 57.8764C102.764 57.8894 102.959 57.6804 103.178 57.7444C103.318 57.785 103.479 57.6588 103.597 57.8757C103.618 57.8945 103.642 57.9051 103.667 57.9068C103.692 57.9084 103.717 57.9011 103.739 57.8852C103.999 57.5752 104.362 57.926 104.632 57.6003C104.76 57.6939 104.899 57.7489 105.042 57.7616C105.184 57.7744 105.327 57.7446 105.462 57.6744C105.558 57.6065 105.666 57.5787 105.774 57.5943C105.881 57.6099 105.983 57.6682 106.068 57.7625C106.229 57.5979 106.402 57.4813 106.559 57.7675C106.642 57.6624 106.745 57.5937 106.855 57.5696C106.965 57.5456 107.077 57.5671 107.179 57.6317C107.343 57.7577 107.48 57.6204 107.63 57.7116C107.791 57.7698 107.959 57.7808 108.124 57.7437C108.395 57.7555 108.662 57.8402 108.91 57.9932C109.006 58.0188 109.103 58.0326 109.201 58.0346C109.532 58.2047 109.763 58.6143 110.133 58.8263C109.958 58.9334 109.748 58.8799 109.693 59.1532C109.26 59.2173 108.83 59.3204 108.407 59.4618C108.157 59.5167 107.903 59.5209 107.653 59.4743C107.541 59.4514 107.426 59.466 107.318 59.5166C107.21 59.5672 107.112 59.6526 107.031 59.7663C106.846 59.7659 106.661 59.7658 106.476 59.7659Z" fill="#212222"/>
<path d="M73.8824 14.605C73.7257 14.7015 73.7295 14.9919 73.5842 15.1052C73.4316 15.2243 73.3891 15.4668 73.3028 15.6569C73.1804 15.9971 73.0373 16.3211 72.8752 16.6253C72.8255 16.7119 72.7912 16.8144 72.7749 16.924C72.7586 17.0336 72.7609 17.1471 72.7817 17.2551C72.554 17.6163 72.291 17.883 72.2512 18.4166C72.2337 18.6499 72.0385 18.8604 71.916 19.0718C71.8415 19.2003 71.7497 19.3081 71.6691 19.4297C70.9942 20.4487 71.0224 20.2185 70.299 20.2257C70.1465 20.1267 70.1669 19.8554 70.0479 19.7258C70.0479 19.4864 70.0479 19.2469 70.0479 19.0074C70.254 18.7223 70.4047 18.3652 70.485 17.9714C70.5091 17.8577 70.5196 17.5863 70.7152 17.6087C70.7579 17.6136 70.8343 17.4943 70.851 17.4135C71.0328 16.8471 71.2385 16.2972 71.4671 15.7666C71.521 15.5884 71.5492 15.3764 71.7284 15.2651C71.8221 15.2071 71.8296 14.8685 71.8782 14.6577C71.9239 14.4597 72.1386 14.5246 72.1594 14.337C72.1832 14.1236 72.365 14.0928 72.3688 13.8835V13.667C72.4943 13.5502 72.6964 13.5317 72.6701 13.214C72.6579 13.0672 72.7438 13.0168 72.7858 12.9218C72.8677 12.7367 73.0483 12.7423 73.1161 12.4835C73.1749 12.259 73.3617 12.1031 73.4919 11.9169L73.8471 11.4091C73.9654 11.2399 74.0889 11.0772 74.201 10.8997C74.385 10.6605 74.5834 10.445 74.7939 10.2556C74.9568 10.3627 74.8957 10.5378 74.8839 10.6525C74.8434 10.8257 74.8432 11.013 74.8831 11.1864C74.8971 11.253 74.9008 11.3229 74.8941 11.3917C74.8874 11.4605 74.8705 11.5265 74.8444 11.5851C74.7075 11.9555 74.6368 12.3821 74.4773 12.7273C74.3559 12.9899 74.4396 13.2993 74.2848 13.5587C74.1419 13.7691 74.0261 14.0141 73.943 14.2823C73.9087 14.3834 73.8882 14.493 73.8824 14.605Z" fill="#212222"/>
<path d="M47.4439 15.1821C47.4461 15.2298 47.4458 15.2777 47.4431 15.3253C47.4184 15.5566 47.7228 15.4077 47.6495 15.6926C47.7824 15.7378 47.6869 16.0971 47.8885 16.0477C47.9575 16.2425 48.0088 16.449 48.0412 16.6624C48.0576 16.913 48.2106 17.0415 48.2392 17.2633V18.4434C48.1449 18.5876 48.0259 18.6941 47.8941 18.7523C47.7622 18.8106 47.622 18.8186 47.4874 18.7754C47.2405 18.501 47.0486 18.1383 46.9311 17.7238C46.9044 17.5834 46.7799 17.4791 46.6975 17.3624C46.5421 17.1944 46.4223 16.9683 46.3512 16.7089C46.3443 16.6294 46.3228 16.5539 46.2891 16.4899C46.2553 16.426 46.2104 16.3756 46.1589 16.3443C46.0205 16.2777 45.9784 16.1487 45.9124 15.9789C45.8434 15.8013 45.7383 15.5515 45.5267 15.615C45.4465 15.2087 45.1867 14.9724 45.0513 14.6142C45.0331 14.5661 44.9507 14.5361 44.9137 14.4116C44.7678 13.9084 44.5336 13.4675 44.2337 13.1317C44.1734 12.8785 44.264 12.6446 44.1557 12.4181C44.0429 12.1813 43.9645 11.9147 43.925 11.6338C43.8855 11.3529 43.8857 11.0636 43.9256 10.7829L44.1107 10.3375C44.2377 10.2308 44.3555 10.2947 44.4677 10.2775C44.5368 10.5411 44.6621 10.7669 44.8258 10.9232C44.9699 11.1088 45.0844 11.3366 45.1614 11.5911C45.2062 11.721 45.2688 11.8366 45.3456 11.9309C45.4224 12.0252 45.5118 12.0965 45.6083 12.1402C45.6824 12.1972 45.753 12.2633 45.8191 12.3377L45.8375 12.8131L47.128 14.6583L47.1511 14.9799L47.4439 15.1821Z" fill="#222222"/>
<path d="M76.4049 48.5116C76.5082 48.5553 76.6053 48.6247 76.6917 48.7167C77.1147 49.2717 77.5689 49.7762 78.0497 50.2248C78.1873 50.3507 78.2907 50.5401 78.343 50.7615C78.3619 50.8415 78.4021 50.9076 78.4549 50.9456C78.5077 50.9836 78.5688 50.9903 78.625 50.9645C78.625 51.0126 78.6106 51.078 78.6271 51.1062C78.866 51.6563 79.069 52.2366 79.2334 52.8399C79.3312 53.1465 79.3929 53.4741 79.416 53.8095C79.4418 53.9953 79.5226 54.1406 79.5349 54.3189L79.4266 54.5426C79.5258 54.7865 79.5575 55.0777 79.7234 55.1975C79.7383 55.363 79.7292 55.531 79.6965 55.6912C79.6637 55.8513 79.6081 56.0001 79.5331 56.1279C79.6527 56.5999 79.7241 57.0939 79.7451 57.595C79.7562 58.1181 79.5595 58.5976 79.6373 59.0826C79.4628 59.5538 79.3342 60.057 79.255 60.578L78.8954 60.9904C79.0691 61.391 78.5877 61.4548 78.752 61.8414C78.4982 62.0924 78.3666 62.4954 78.0733 62.6752C77.9936 62.7241 77.9192 62.9576 77.8602 63.1111C77.6093 63.6773 77.254 64.1335 76.8335 64.4294C76.4368 64.7283 76.0695 65.1008 75.7409 65.5371C75.4527 65.5159 75.1675 65.6315 74.93 65.8659C74.5007 66.1973 74.0252 66.3878 73.538 66.4237C73.2746 66.6369 72.9864 66.7804 72.6874 66.8472C72.4369 66.9388 72.1793 66.9836 71.9208 66.9801C71.7295 67.3326 71.3898 66.9192 71.1944 67.2656C71.1811 67.2891 71.1296 67.273 71.0963 67.2681C70.4154 67.1679 69.7501 67.4892 69.0691 67.4164C68.609 67.3671 68.1654 67.622 67.6977 67.5684C67.2465 67.5166 66.7903 67.5572 66.3362 67.5572C66.3195 67.5536 66.3026 67.5539 66.286 67.5583C66.018 67.6874 65.7288 67.6969 65.4569 67.5856C65.0593 67.4781 64.6512 67.4772 64.2533 67.5828C63.999 67.5988 63.747 67.6597 63.5031 67.7644C63.2413 67.932 62.9747 67.768 62.7204 67.8526C62.5056 67.9404 62.2943 68.0447 62.0874 68.1652V68.6228L61.8757 68.9253C61.933 69.5188 61.8644 70.1231 61.6787 70.66L61.7877 70.8307C61.6037 71.1679 61.6952 71.5796 61.6667 71.9639C61.5381 72.1999 61.4655 72.4885 61.4596 72.7875C61.4531 73.3333 61.3656 73.8706 61.2027 74.3642C61.0877 74.5957 61.2688 74.9418 61.0667 75.1489C61.1391 75.6257 60.9202 76.059 60.9664 76.5369C60.7473 77.0921 60.2989 76.9785 59.9611 77.2767C59.7323 77.0421 59.5559 76.7176 59.4532 76.3426V75.9935L59.6414 75.7355V74.2292L59.4587 74.0733V73.2338L59.654 73.0524C59.654 72.6804 59.6442 72.3912 59.657 72.1039C59.668 71.8557 59.607 71.607 59.7422 71.3558C59.7763 71.2602 59.7863 71.1506 59.7701 71.0458C59.754 70.941 59.7129 70.8474 59.6539 70.7812C59.7884 70.3289 59.855 69.8413 59.8494 69.3499L60.0893 69.1128C59.7862 68.7222 60.095 68.3876 60.068 68.0141L60.5659 67.3349V67.0457C60.6354 66.9244 60.7265 67.0046 60.8078 66.9773C60.9069 66.6007 61.1707 66.5417 61.3869 66.409C61.7695 66.2021 62.1673 66.0581 62.5726 65.9795C62.7762 65.927 62.963 65.7321 63.1858 65.8242C63.3879 65.9076 63.5467 65.6484 63.7496 65.675C63.9664 65.7034 64.1865 65.6813 64.4051 65.6813C64.6069 65.6813 64.8104 65.6576 65.0102 65.6863C65.4416 65.7482 65.857 65.4016 66.2782 65.5503C66.6445 65.6779 67.023 65.7177 67.3984 65.6681C67.6833 65.5806 67.974 65.537 68.2654 65.5382C68.4102 65.5355 68.554 65.5735 68.6885 65.6498C68.885 65.792 69.1042 65.5048 69.3264 65.4727C69.3752 65.4657 69.4331 65.3916 69.5025 65.3909C69.8942 65.3854 70.2853 65.3465 70.6738 65.2744C71.1973 65.2045 71.7149 65.0624 72.2194 64.8501C72.6043 64.6572 72.9985 64.5046 73.3988 64.3933C73.606 64.3365 73.7935 64.181 73.931 63.9523H74.3368C74.4987 63.6672 74.7246 63.4706 74.9761 63.396C75.1371 63.3565 75.2878 63.2562 75.4125 63.1052C75.5373 62.9543 75.6316 62.7583 75.6855 62.5377C75.7984 62.5537 75.9118 62.5141 76.0069 62.4253C76.1019 62.3366 76.173 62.204 76.2082 62.0496C76.2559 61.9265 76.3195 61.8176 76.3957 61.7285C76.7959 61.2287 77.0817 60.5682 77.2157 59.8329C77.3043 59.7379 77.4314 59.7291 77.505 59.5536V58.387L77.7076 58.192C77.7133 57.9553 77.7546 57.7805 77.6867 57.636C77.589 57.3331 77.5705 56.9899 77.6344 56.6691C77.641 56.5482 77.7313 56.3867 77.7148 56.2223C77.682 56.0034 77.6141 55.7983 77.5166 55.6231C77.4813 55.4734 77.611 55.439 77.6171 55.3123C77.6498 55.1725 77.5045 55.1486 77.5146 55.0152C77.481 54.8712 77.6423 54.8585 77.5989 54.62L77.3318 54.2367C77.2624 53.9318 77.2194 53.6159 77.2038 53.296C77.2019 53.1377 77.1563 52.9868 77.077 52.8764C76.8357 52.5524 76.7058 52.0979 76.4402 51.8054C76.2644 51.6056 76.1413 51.3263 76.0911 51.0133C76.028 50.9893 75.9677 50.9522 75.9123 50.9029C75.7899 50.6829 75.6172 50.5313 75.4246 50.4748C75.3032 50.4228 75.1921 50.3306 75.1004 50.2056C74.8238 49.9043 74.5336 49.6297 74.2316 49.3834C74.1828 49.3406 74.0999 49.3772 74.0337 49.3772L73.7473 48.9678C73.717 48.9536 73.6853 48.9463 73.6534 48.9464C73.5667 48.9773 73.4762 48.979 73.389 48.951C73.3018 48.9231 73.2203 48.8663 73.1511 48.7855C72.9979 48.5468 72.768 48.8026 72.6578 48.5568C72.5412 48.2968 72.3637 48.3971 72.2105 48.3575L71.8435 47.8328C71.3963 47.7423 70.9611 47.5576 70.5518 47.2844C70.378 47.1797 70.1933 47.1158 70.0052 47.0952C69.6545 46.9768 69.3119 46.8138 68.9815 46.6082C68.7698 46.454 68.5377 46.3652 68.3005 46.3473C68.0039 46.2905 67.7148 46.172 67.4422 45.9957C67.2473 45.917 67.0589 45.8088 66.8801 45.673C66.6832 45.512 66.4556 45.4444 66.2302 45.4799C66.012 45.4935 65.798 45.3906 65.6299 45.1913C65.2191 45.2541 64.8041 45.1551 64.4299 44.9046C64.099 44.972 63.7983 44.7154 63.4618 44.741C63.1935 44.7159 62.9282 44.6453 62.6715 44.5306C62.4397 44.4139 62.1854 44.428 61.9606 44.5703C61.9185 44.6081 61.8707 44.631 61.8211 44.6369C61.7715 44.6428 61.7217 44.6315 61.6757 44.6041C61.4162 44.4505 61.1312 44.4066 60.8547 44.4773C60.0812 44.4612 59.306 44.515 58.5344 44.4592C57.7844 44.4049 57.0513 44.6667 56.3053 44.6159C56.0255 44.7406 55.7325 44.7938 55.4398 44.7729C55.2918 44.7956 55.1552 44.8976 55.0575 45.0583C54.5674 44.9145 54.135 45.4212 53.6512 45.3325C53.5495 45.4876 53.4139 45.5886 53.2667 45.619C52.8521 45.7493 52.4984 46.1264 52.0727 46.203C51.8128 46.5857 51.4163 46.6523 51.1502 47.0289C50.9233 47.2811 50.6854 47.5127 50.4381 47.7221C50.2184 47.946 50.0306 48.2279 49.8848 48.5525C49.7696 48.834 49.6267 49.0902 49.4602 49.3132C49.2786 49.6246 49.1424 49.9849 49.0597 50.3729C49.0049 50.571 48.9073 50.739 48.7812 50.8523C48.754 51.2561 48.6623 51.6455 48.5132 51.9905C48.4095 52.2443 48.3559 52.5337 48.3585 52.8277C48.3731 53.3656 48.3391 53.904 48.2575 54.4296C48.2173 54.6029 48.2858 54.8296 48.242 54.9988C48.1931 55.1874 48.4345 55.3008 48.275 55.4754C48.4156 55.694 48.1178 55.9589 48.311 56.172C48.2578 56.3964 48.2365 56.6336 48.2485 56.8699L48.6871 58.2086L48.6458 58.2424L49.0455 58.762C49.05 58.9875 49.0943 59.2077 49.1745 59.4019L48.8912 59.7163C48.8087 59.6353 48.7077 59.6026 48.6088 59.625C48.546 59.446 48.4672 59.2794 48.3746 59.1291C48.3279 59.0311 48.2701 58.945 48.2036 58.874C48.0491 58.7265 47.9194 58.5318 47.8238 58.304C47.7282 58.0761 47.669 57.8207 47.6507 57.5563C47.6363 57.2249 47.3845 57.0218 47.4439 56.6663C47.323 56.5583 47.3509 56.3857 47.3408 56.2214C47.3893 55.6125 47.3558 54.9961 47.2421 54.4053C47.417 54.1971 47.1478 53.9575 47.2651 53.7446C47.2944 53.6913 47.3538 53.6655 47.3368 53.5589C47.2531 53.3497 47.1523 53.0913 47.2849 52.8707C47.4078 52.6663 47.2757 52.4181 47.4115 52.213C47.5253 52.0411 47.3527 51.6916 47.5683 51.5545L47.432 51.2665C47.6429 50.7957 47.7414 50.2465 47.9485 49.7716C47.9819 49.6951 48.0545 49.6035 48.0431 49.5452C47.9778 49.2107 48.1418 49.0044 48.2571 48.8035C48.511 48.3611 48.6523 47.7946 48.9132 47.3987C49.1499 46.8986 49.4982 46.5281 49.9011 46.3476C50.007 46.2634 49.9637 46.0209 50.0844 45.9669C50.4017 45.825 50.6423 45.4748 50.9606 45.3316C51.1462 45.2108 51.3223 45.0624 51.4861 44.8889C51.7856 44.7362 52.0754 44.5476 52.3526 44.325C52.5725 44.3651 52.7954 44.2969 52.9847 44.1316C53.2829 43.926 53.6061 43.8046 53.9365 43.774C54.246 43.604 54.5673 43.4816 54.8949 43.4088C54.9193 43.4088 54.9481 43.3168 54.9674 43.3222C55.3016 43.4158 55.6043 43.1319 55.9355 43.1688C56.323 43.2225 56.7137 43.1333 57.0702 42.91C57.1666 42.8745 57.2668 42.8661 57.3654 42.8853C57.7507 42.9334 58.1384 42.9264 58.5228 42.8642C59.145 42.7412 59.7739 42.7014 60.4013 42.7453C61.04 42.7222 61.6795 42.7355 62.3185 42.7439C62.4597 42.7458 62.6076 42.6759 62.7382 42.8739C62.8038 42.9733 62.9446 42.6661 63.0508 42.8846C63.4658 42.7861 63.8617 43.0903 64.2694 43.0167C64.4678 42.9808 64.6094 43.1412 64.7829 43.1796C65.2357 43.3355 65.6979 43.4286 66.1631 43.4577C66.3004 43.4502 66.3815 43.615 66.5247 43.6218C66.7452 43.6322 66.9582 43.7539 67.1891 43.7676C67.3823 43.7792 67.5733 44.0274 67.7613 44.0175C67.9869 44.0299 68.2093 44.0981 68.4186 44.2194C68.6074 44.3037 68.8511 44.2006 68.9987 44.4717C69.3476 44.4051 69.6426 44.7044 69.97 44.7956C70.2731 44.8801 70.5821 45.1469 70.8847 45.2648C71.2316 45.4974 71.6099 45.6188 71.993 45.6205C72.1808 45.842 72.3555 46.1017 72.6256 46.0563C72.7943 46.028 72.8189 46.3175 72.9462 46.3429C73.5267 46.4584 74.0197 46.9499 74.6005 47.095C74.7497 47.1322 74.892 47.2131 75.0184 47.3324C75.1448 47.4517 75.2526 47.6069 75.3352 47.7885C75.7103 47.7766 75.9124 48.1893 76.1788 48.4196C76.246 48.4823 76.3248 48.5144 76.4049 48.5116Z" fill="#212222"/>
</svg>
