<svg width="1199" height="853" viewBox="0 0 1199 853" fill="none" xmlns="http://www.w3.org/2000/svg">
<mask id="path-1-inside-1_3_59" fill="white">
<path d="M0 0H1199V853H0V0Z"/>
</mask>
<path d="M1198 0V853H1200V0H1198ZM1 853V0H-1V853H1Z" fill="#BBBBBB" mask="url(#path-1-inside-1_3_59)"/>
<line x1="80.5001" y1="1.01065" x2="80.5" y2="853" stroke="#BBBBBB"/>
<line x1="181.5" y1="1.01065" x2="181.5" y2="853" stroke="#BBBBBB"/>
<line x1="283.5" y1="1.01065" x2="283.5" y2="853" stroke="#BBBBBB"/>
<line x1="385.5" y1="1.01065" x2="385.5" y2="853" stroke="#BBBBBB"/>
<line x1="487.5" y1="1.01065" x2="487.5" y2="853" stroke="#BBBBBB"/>
<line x1="588.5" y1="1.01065" x2="588.5" y2="853" stroke="#BBBBBB"/>
<line x1="690.5" y1="1.01065" x2="690.5" y2="853" stroke="#BBBBBB"/>
<line x1="791.5" y1="1.01065" x2="791.5" y2="853" stroke="#BBBBBB"/>
<line x1="893.5" y1="1.01065" x2="893.5" y2="853" stroke="#BBBBBB"/>
<line x1="995.5" y1="1.01065" x2="995.5" y2="853" stroke="#BBBBBB"/>
<line x1="1096.5" y1="1.01065" x2="1096.5" y2="853" stroke="#BBBBBB"/>
</svg>
