<svg width="489" height="366" viewBox="0 0 489 366" fill="none" xmlns="http://www.w3.org/2000/svg">
<rect x="170.239" y="192.079" width="148.522" height="173.421" rx="30.5" fill="white" stroke="#7E7E7E"/>
<path d="M241.432 272.649C240.537 273.167 239.815 273.939 239.358 274.868C238.901 275.797 238.729 276.842 238.864 277.869C238.999 278.896 239.435 279.86 240.116 280.639C240.797 281.418 241.694 281.977 242.692 282.245C243.69 282.513 244.745 282.478 245.723 282.145C246.702 281.812 247.56 281.196 248.189 280.374C248.818 279.552 249.189 278.561 249.257 277.527C249.324 276.494 249.085 275.463 248.568 274.566C247.875 273.363 246.734 272.485 245.396 272.125C244.057 271.766 242.632 271.954 241.432 272.649ZM264.847 278.332C264.504 277.939 264.143 277.545 263.762 277.15C264.028 276.869 264.285 276.589 264.534 276.309C269.231 271.017 271.214 265.71 269.377 262.519C267.615 259.46 262.376 258.549 255.816 259.827C255.17 259.954 254.527 260.097 253.888 260.256C253.766 259.834 253.635 259.413 253.498 258.995C251.272 252.271 247.677 247.897 244.003 247.899C240.48 247.901 237.075 251.997 234.902 258.334C234.689 258.959 234.491 259.589 234.309 260.225C233.882 260.12 233.453 260.023 233.022 259.934C226.101 258.509 220.526 259.447 218.693 262.64C216.935 265.701 218.774 270.705 223.164 275.757C223.6 276.257 224.047 276.745 224.508 277.223C223.965 277.783 223.452 278.343 222.973 278.899C218.689 283.88 216.955 288.802 218.71 291.85C220.523 294.999 226.019 296.028 232.709 294.708C233.251 294.6 233.79 294.479 234.326 294.344C234.523 295.032 234.738 295.713 234.973 296.389C237.135 302.598 240.521 306.563 244.032 306.561C247.658 306.559 251.292 302.3 253.495 295.83C253.668 295.319 253.833 294.788 253.989 294.241C254.682 294.414 255.379 294.567 256.08 294.701C262.526 295.924 267.642 294.962 269.394 291.911C271.204 288.761 269.338 283.476 264.847 278.332H264.847ZM220.859 263.89C221.988 261.925 226.543 261.158 232.519 262.388C232.901 262.467 233.289 262.555 233.684 262.652C233.101 265.24 232.689 267.864 232.452 270.506C230.296 272.027 228.24 273.686 226.298 275.474C225.87 275.03 225.453 274.575 225.048 274.11L225.048 274.11C221.286 269.782 219.799 265.735 220.859 263.89ZM232.228 280.691C230.735 279.557 229.347 278.396 228.087 277.227C229.346 276.066 230.735 274.908 232.225 273.777C232.172 274.929 232.145 276.082 232.146 277.236C232.146 278.388 232.174 279.54 232.228 280.691ZM232.227 292.249C229.691 292.815 227.074 292.907 224.505 292.522C223.8 292.468 223.115 292.268 222.491 291.937C221.866 291.606 221.316 291.15 220.874 290.597C219.809 288.748 221.201 284.796 224.865 280.536C225.326 280.002 225.802 279.483 226.293 278.977C228.235 280.773 230.295 282.439 232.457 283.963C232.697 286.639 233.114 289.297 233.703 291.918C233.214 292.04 232.722 292.151 232.227 292.249ZM252.999 268.669C252.018 268.049 251.025 267.449 250.019 266.869C249.03 266.298 248.029 265.749 247.016 265.221C248.75 264.489 250.456 263.865 252.102 263.356C252.49 265.111 252.789 266.884 252.999 268.669ZM237.266 259.148C239.127 253.719 241.881 250.406 244.004 250.405C246.266 250.404 249.204 253.979 251.125 259.784C251.25 260.163 251.368 260.543 251.479 260.926C248.955 261.711 246.486 262.663 244.087 263.775C241.698 262.65 239.236 261.687 236.718 260.895C236.886 260.308 237.069 259.726 237.266 259.148ZM236.095 263.325C237.812 263.867 239.501 264.495 241.155 265.208C239.105 266.268 237.109 267.423 235.166 268.673C235.4 266.801 235.713 265.009 236.095 263.325ZM235.17 285.794C236.139 286.416 237.122 287.015 238.12 287.591C239.137 288.179 240.168 288.741 241.213 289.279C239.546 290.017 237.843 290.667 236.11 291.23C235.723 289.522 235.407 287.698 235.17 285.794ZM251.129 295.02C250.351 297.505 249.123 299.825 247.507 301.864L247.507 301.864C247.108 302.448 246.593 302.944 245.995 303.321C245.397 303.697 244.729 303.947 244.031 304.055C241.901 304.056 239.182 300.872 237.332 295.562C237.114 294.934 236.914 294.301 236.731 293.662C239.261 292.843 241.733 291.854 244.13 290.7C246.548 291.819 249.037 292.778 251.581 293.57C251.442 294.057 251.292 294.54 251.129 295.02ZM252.189 291.136C250.524 290.62 248.794 289.985 247.034 289.243C248.026 288.719 249.025 288.166 250.032 287.584C251.064 286.986 252.071 286.373 253.051 285.745C252.856 287.556 252.568 289.355 252.189 291.136V291.136ZM253.494 277.225C253.496 279.007 253.441 280.786 253.328 282.565C251.887 283.543 250.365 284.498 248.782 285.414C247.205 286.327 245.643 287.165 244.111 287.925C242.499 287.15 240.917 286.315 239.367 285.42C237.826 284.53 236.319 283.583 234.848 282.577C234.714 280.8 234.646 279.019 234.645 277.234L234.646 277.235C234.644 275.452 234.711 273.671 234.844 271.891C236.285 270.905 237.796 269.95 239.357 269.046C240.926 268.138 242.508 267.303 244.081 266.546C245.673 267.322 247.237 268.154 248.772 269.041C250.313 269.929 251.823 270.866 253.304 271.853C253.431 273.641 253.494 275.432 253.494 277.225H253.494ZM256.293 262.288C261.913 261.191 266.151 261.929 267.213 263.772C268.344 265.736 266.723 270.074 262.667 274.643L262.667 274.644C262.443 274.896 262.211 275.149 261.97 275.403C259.994 273.612 257.898 271.958 255.698 270.452C255.476 267.839 255.08 265.243 254.512 262.683C255.117 262.534 255.711 262.402 256.293 262.288ZM255.913 273.682C257.397 274.768 258.824 275.931 260.188 277.166C258.83 278.421 257.408 279.604 255.927 280.71C255.972 279.549 255.994 278.387 255.993 277.224C255.993 276.043 255.966 274.862 255.913 273.682ZM267.228 290.661C266.165 292.512 262.057 293.284 256.545 292.238C255.913 292.119 255.265 291.976 254.6 291.811C255.154 289.218 255.533 286.59 255.733 283.945C257.93 282.414 260.019 280.732 261.985 278.913C262.329 279.271 262.656 279.628 262.967 279.983V279.983C264.725 281.899 266.116 284.125 267.071 286.547C267.376 287.185 267.548 287.88 267.575 288.587C267.602 289.295 267.484 290.001 267.228 290.661Z" fill="black"/>
<rect x="0.5" y="0.5" width="148.522" height="173.421" rx="30.5" fill="white" stroke="#7E7E7E"/>
<path d="M52.4409 57.6572L56.4224 110.455L74.2897 116.319L92.2061 110.447L96.1919 57.6572H52.4409ZM87.5274 74.9251H66.5681L67.0687 81.5561H87.029L85.5259 101.437L74.3164 105.109V105.111L74.2913 105.119L63.0717 101.437L62.3043 91.2692H67.8025L68.1922 96.4337L74.2921 98.3809L74.2973 98.3794V98.3789L80.406 96.4295L81.042 88.0314H62.0596L60.5823 68.4497H88.0178L87.5274 74.9251Z" fill="black"/>
<rect x="170.239" y="0.5" width="148.522" height="173.421" rx="30.5" fill="white" stroke="#7E7E7E"/>
<path d="M268.865 61.481L261.422 105.771L238.846 114.57L219.247 105.771L221.231 93.7449H229.666L228.674 98.7312L240.582 104.011L254.227 98.7312L256.212 87.5854H222.224L223.96 77.6129H257.701L258.941 71.4535H224.953L226.689 61.481H268.865Z" fill="black"/>
<rect x="339.978" y="0.5" width="148.522" height="173.421" rx="30.5" fill="white" stroke="#7E7E7E"/>
<g clip-path="url(#clip0_123_899)">
<path d="M435.642 58.9194H391.948C389.536 58.9194 387.579 61.0129 387.579 63.5975V110.378C387.579 112.963 389.536 115.057 391.948 115.057H435.642C438.054 115.057 440.011 112.963 440.011 110.378V63.5975C440.011 61.0129 438.054 58.9194 435.642 58.9194ZM426.494 98.3394V98.344C426.057 99.4715 425.365 100.466 424.478 101.23C423.56 102.026 422.398 102.681 420.967 103.148C419.538 103.623 417.839 103.862 415.87 103.862H401.818V71.1152H416.679C419.427 71.1152 421.629 71.7772 423.276 73.1268C424.937 74.4834 425.763 76.5044 425.763 79.2317C425.763 80.8807 425.387 82.2959 424.631 83.4654C423.879 84.6279 422.796 85.5378 421.398 86.1693V86.2769C423.263 86.6979 424.707 87.6452 425.658 89.1188C426.608 90.5924 427.095 92.4543 427.095 94.7021C427.095 95.9606 426.868 97.1581 426.44 98.2762L426.494 98.3394Z" fill="black"/>
<path d="M420.43 90.2741C419.534 89.397 418.275 88.9689 416.65 88.9689H407.208V99.1859H416.676C418.293 99.1859 419.56 98.7368 420.456 97.8292C421.351 96.9287 421.81 95.6446 421.81 93.9932C421.795 92.3792 421.351 91.1302 420.456 90.2741H420.43ZM419.11 83.671H419.119C419.984 82.8851 420.408 81.76 420.408 80.2934C420.408 78.6467 420.025 77.4772 419.25 76.8082C418.481 76.1416 417.371 75.7954 415.912 75.7954H407.173V84.8311H415.912C417.185 84.8311 418.271 84.4335 419.11 83.671Z" fill="black"/>
</g>
<rect x="339.978" y="192.079" width="148.522" height="173.421" rx="30.5" fill="white" stroke="#7E7E7E"/>
<rect x="0.5" y="192.079" width="148.522" height="173.421" rx="30.5" fill="white" stroke="#7E7E7E"/>
<g clip-path="url(#clip1_123_899)">
<path d="M95.8996 281.119C95.9711 281.117 96.0554 281.114 96.1416 281.114C97.6702 281.114 99.1164 281.582 100.399 282.417L100.343 282.384C101.512 283.134 102.472 284.244 103.167 285.605L103.184 285.639C103.732 286.691 104.058 287.992 104.058 289.392C104.058 289.493 104.056 289.595 104.052 289.694V289.679C103.996 291.076 103.514 292.31 102.773 293.174L102.769 293.178C102.364 293.702 101.875 294.112 101.331 294.373L101.303 294.385C100.998 294.465 100.83 294.405 100.799 294.204C100.768 294.003 100.906 293.782 101.211 293.54C102.04 292.879 102.639 291.812 102.857 290.555L102.863 290.524C102.868 290.422 102.872 290.304 102.872 290.183C102.872 289.433 102.736 288.723 102.496 288.096L102.505 288.122C102.108 287.029 101.514 286.132 100.782 285.482L100.764 285.468C99.6699 284.541 98.3576 283.933 96.9462 283.781L96.9169 283.779C96.4367 283.684 95.8831 283.631 95.3186 283.631C93.8504 283.631 92.4482 283.996 91.1579 284.659L91.2348 284.623C91.5006 285.441 91.6674 286.39 91.6912 287.384V287.396C91.6619 289.435 90.8298 291.209 89.5925 292.199L89.5724 292.213C89.0042 292.744 88.3553 293.21 87.6643 293.572L87.6002 293.601C87.1804 293.871 86.6874 294.028 86.1668 294.028C86.1063 294.028 86.0477 294.025 85.989 294.021H85.9982C84.8386 293.7 84.5636 292.373 85.1734 290.039C85.4392 289.023 85.8112 288.142 86.2823 287.367L86.2713 287.384C86.8743 286.346 87.536 285.436 88.2674 284.63L88.2875 284.609L88.1079 284.256C87.7725 283.503 87.4645 282.627 87.2171 281.713L87.1914 281.602C87.0081 280.797 86.8554 280.034 86.7332 279.312L86.6416 278.467L85.7251 280.757C84.9308 282.688 84.1671 284.376 83.434 285.823L83.159 286.426C83.4669 287.411 83.6942 288.552 83.7969 289.744L83.8005 289.805C83.8079 289.918 83.8115 290.053 83.8115 290.188C83.8115 292.018 83.126 293.634 82.0739 294.622L82.0611 294.634C81.5589 295.041 80.9595 295.464 80.3382 295.84L80.2282 295.901C79.5812 296.27 78.8315 296.511 78.0452 296.564H78.0287C77.9682 296.569 77.8967 296.574 77.8252 296.574C77.367 296.574 76.9326 296.436 76.544 296.193L76.5624 296.202C76.3296 295.939 76.1829 295.553 76.1829 295.121C76.1829 294.901 76.2214 294.691 76.2893 294.506L76.2856 294.515C77.0188 293.161 77.7409 291.984 78.5089 290.859L78.4851 290.895L80.5013 287.519L80.1365 286.433C79.8433 285.724 79.5628 284.886 79.3374 284.017L79.3117 283.902C79.1284 283.097 78.9757 282.334 78.8535 281.611L78.7619 280.767L77.8454 283.663C77.1135 285.914 76.4414 287.843 75.8292 289.452C74.9164 291.866 74.1527 293.716 73.538 295.003L73.3548 295.365C72.6228 296.892 71.9202 297.655 71.2469 297.655C70.5736 297.655 70.1172 297.092 69.8777 295.966C69.7018 295.136 69.5991 294.182 69.5991 293.198C69.5991 293.111 69.5991 293.024 69.6009 292.937V292.949L69.7842 291.26V291.38C69.2955 292.907 68.8067 294.314 68.3179 295.601C67.9935 296.436 67.6599 297.148 67.286 297.819L67.3098 297.773C66.9322 298.295 66.4007 298.618 65.8123 298.618C65.8068 298.618 65.8031 298.618 65.7976 298.618C65.7592 298.623 65.7152 298.623 65.6712 298.623C65.2075 298.623 64.7859 298.391 64.467 298.012L64.4688 298.015C63.8291 297.151 63.3544 296.072 63.1088 294.868L63.0996 294.817C62.799 293.719 62.6267 292.45 62.6267 291.127C62.6267 290.956 62.6304 290.787 62.6359 290.62V290.644C62.7807 288.723 63.0721 286.964 63.4992 285.287L63.4607 285.458L60.1633 287.992V288.113C60.6417 289.421 60.9221 290.956 60.9221 292.577C60.9221 292.874 60.9129 293.169 60.8946 293.458L60.8964 293.42C60.7993 295.905 60.1963 298.181 59.223 300.105L59.2468 300.056C58.2259 302.19 56.754 303.838 55.0054 304.791L54.945 304.82C53.9607 305.402 52.8096 305.742 51.5999 305.742C50.8337 305.742 50.0896 305.607 49.3857 305.351L49.4444 305.368C48.8615 305.11 48.385 304.598 48.0825 303.937L48.077 303.922C47.65 303.107 47.3805 302.11 47.3384 301.036V301.022C47.3182 300.778 47.3072 300.495 47.3072 300.208C47.3072 298.97 47.5217 297.797 47.9047 296.752L47.8882 296.801C48.9403 294.438 50.3957 292.524 52.1333 291.178L52.1883 291.139C53.4181 290.017 54.8313 288.929 56.3068 287.98L56.5011 287.867L56.9593 287.505C56.4095 286.942 55.4014 285.976 53.935 284.609C51.9756 282.881 50.2729 281.136 48.6672 279.249L48.713 279.302C47.1606 277.543 46.0297 275.192 45.5219 272.516L45.5073 272.424C45.4596 272.052 45.4321 271.625 45.4321 271.191C45.4321 269.83 45.6979 268.551 46.1635 267.438L46.1488 267.479C47.1752 264.574 48.5976 262.124 50.3425 260.155L50.3645 260.131C52.2524 257.782 54.3896 255.738 56.7101 254.083L56.8695 253.979C58.9425 252.403 61.3638 250.938 63.8878 249.763L64.1993 249.638C66.5436 248.508 69.2509 247.847 72.0736 247.835H72.0772C72.2055 247.83 72.3577 247.825 72.5098 247.825C74.7844 247.825 76.9363 248.518 78.8498 249.751L78.7655 249.7C80.4151 250.69 81.6505 252.553 82.1454 254.831L82.1564 254.889C82.3085 255.666 82.3947 256.559 82.3947 257.478C82.3947 259.004 82.1546 260.456 81.7238 261.774L81.744 261.704C80.9595 264.207 79.8433 266.338 78.4503 268.092L78.4448 268.099C77.0334 269.941 75.3416 271.413 73.4629 272.395L73.3621 272.441C71.3935 273.553 69.1079 274.253 66.7086 274.369L66.6738 274.372C66.3219 274.425 65.915 274.454 65.5026 274.454C64.4175 274.454 63.3709 274.248 62.3811 273.865L62.4599 273.891C61.5746 273.52 60.8103 272.943 60.1614 272.195L60.1688 272.202C59.7142 271.714 59.344 271.114 59.08 270.431L59.069 270.399C58.8857 269.756 58.8705 269.374 59.0232 269.253C59.1759 269.132 59.2829 269.112 59.344 269.193L59.8022 269.796C60.3136 270.421 60.9239 270.913 61.5984 271.227L61.6351 271.241C62.5626 271.666 63.633 271.912 64.7456 271.912C65.103 271.912 65.4549 271.888 65.8013 271.838L65.7592 271.842C68.7248 271.381 71.399 270.049 73.7067 268.046L73.6389 268.102C75.5891 266.574 77.1672 264.475 78.278 261.972L78.311 261.89C78.8627 260.823 79.1926 259.506 79.1926 258.087C79.1926 257.215 79.068 256.38 78.8407 255.613L78.8535 255.659C78.168 254.233 77.0591 253.229 75.765 252.951L75.7394 252.946C74.7349 252.62 73.5802 252.432 72.3943 252.432C71.4394 252.432 70.5046 252.553 69.6009 252.785L69.6926 252.765C66.6005 253.499 63.8364 254.756 61.2868 256.484L61.4536 256.38C53.9411 261.368 50.0621 266.475 49.8165 271.702V271.821C49.8165 273.927 50.4452 275.841 51.4698 277.255L51.4679 277.253C52.6355 278.962 53.9259 280.47 55.3354 281.773L55.4069 281.836C56.6917 283.1 57.8281 284.406 58.8857 285.815L58.8876 285.82L59.0709 286.062L64.9362 281.841C65.6052 280.566 66.4098 279.49 67.3336 278.621L67.363 278.595C68.0961 277.784 69.0272 277.255 70.0482 277.149L70.0647 277.147C70.1013 277.142 70.1435 277.142 70.1875 277.142C70.8712 277.142 71.4577 277.685 71.7106 278.462L71.7143 278.477C71.9068 279.044 72.0186 279.707 72.0186 280.405C72.0186 280.617 72.0076 280.827 71.9874 281.035L71.9892 281.01L71.8114 282.2L72.0864 281.959C72.277 281.768 72.5171 281.655 72.7774 281.655C72.9424 281.655 73.0982 281.701 73.2393 281.783L73.232 281.778C73.5839 281.899 73.8386 282.314 73.8386 282.806C73.8386 282.89 73.8313 282.973 73.8167 283.052L73.8185 283.045L73.5435 284.372C72.9937 287.267 72.6277 289.357 72.4456 290.644C72.354 291.062 72.3027 291.542 72.3027 292.039C72.3027 292.143 72.3045 292.244 72.31 292.346V292.331C72.3405 292.814 72.3864 293.055 72.4475 293.055C72.5086 293.055 72.6301 292.814 72.8122 292.331L73.0872 291.487C73.1482 291.487 73.1482 291.527 73.0872 291.607L74.0953 288.832C76.478 281.917 77.7605 278.056 77.9425 277.248L78.4924 274.958C78.5535 274.797 78.7979 274.637 79.2256 274.478C79.66 274.323 80.1567 274.234 80.6699 274.234C80.7121 274.234 80.7542 274.234 80.7946 274.236H80.7891C81.6444 274.236 82.0721 274.518 82.0721 275.081L81.9805 275.684C81.7752 276.428 81.5717 277.357 81.4141 278.308L81.3939 278.46C81.3573 278.771 81.3353 279.128 81.3353 279.495C81.3353 279.982 81.3719 280.458 81.4434 280.919L81.4379 280.873L81.5296 281.353C81.7165 282.36 82.0006 283.243 82.3727 284.049L82.3544 284.008C83.0863 282.401 83.7889 280.752 84.4622 279.063C84.9938 277.897 85.4887 276.546 85.8864 275.132L85.9286 274.963C86.066 274.053 86.2237 273.286 86.4161 272.537L86.3868 272.673C86.4479 272.431 86.7088 272.25 87.1694 272.13C87.6057 272.014 88.1061 271.949 88.6174 271.949H88.6834H88.6798C89.5351 271.949 89.9915 272.23 90.0489 272.793L89.8657 273.273C89.6475 274.084 89.4569 275.059 89.3286 276.061L89.3176 276.169C89.3011 276.403 89.2901 276.674 89.2901 276.949C89.2901 277.526 89.3341 278.09 89.4166 278.636L89.4093 278.58V279.061C89.62 280.113 89.9335 281.037 90.344 281.874L90.3257 281.836L90.6007 282.68C92.1311 281.691 93.9311 281.112 95.8336 281.112H95.9051H95.9014L95.8996 281.119ZM56.6037 298.623C57.8776 296.89 58.6639 294.525 58.6639 291.919C58.6639 290.912 58.5466 289.942 58.3304 289.03L58.345 289.097L56.8787 290.304C55.383 291.426 54.089 292.679 52.9178 294.103L52.9324 294.086C52.0435 295.162 51.3873 296.555 51.0647 298.126L51.0537 298.186C50.7787 299.674 50.9162 300.639 51.4661 301.082C51.8015 301.285 52.1956 301.403 52.608 301.403C53.0589 301.403 53.486 301.263 53.8617 301.012L53.8452 301.022C54.934 300.5 55.8559 299.673 56.5891 298.613L56.5946 298.606L56.6037 298.623ZM68.8788 287.512C69.1843 286.466 69.5203 285.219 69.8869 283.771C70.3757 281.841 70.5437 280.715 70.3909 280.395C70.2382 280.075 69.948 280.035 69.5203 280.274C69.0107 280.6 68.5837 281.047 68.2428 281.595L68.2373 281.604C67.856 282.239 67.4931 282.948 67.1705 283.694L67.1375 283.776C66.7673 284.575 66.4538 285.494 66.2357 286.469L66.2192 286.551C65.8655 287.814 65.6602 289.274 65.6602 290.794C65.6602 290.999 65.6638 291.202 65.6712 291.405V291.376C65.7323 292.983 65.9278 293.848 66.2577 293.97C66.5876 294.092 66.9695 293.509 67.4033 292.22C67.823 291.224 68.1969 290.065 68.4755 288.851L68.5012 288.721C68.6833 288.151 68.8079 287.748 68.8751 287.512H68.8788ZM79.0441 293.907C80.3143 293.157 81.2088 291.576 81.3334 289.706L81.3353 289.686V289.566L80.3272 291.255L78.4961 293.91C78.4686 293.939 78.4503 293.982 78.4503 294.03C78.4503 294.079 78.4686 294.122 78.4943 294.151C78.5529 294.23 78.7362 294.149 79.0441 293.91V293.907ZM86.9238 291.615C88.3095 291.093 89.3066 289.44 89.3066 287.483C89.3066 287.452 89.3066 287.42 89.3066 287.389V287.394C89.2883 286.911 89.2223 286.457 89.1142 286.028L89.1215 286.064C88.4085 286.899 87.8238 287.898 87.4004 289.025L87.3802 289.081C86.8291 290.527 86.6752 291.37 86.9183 291.61L86.9238 291.615Z" fill="black"/>
</g>
<path d="M422.946 271.622H404.054C401.087 271.51 398.281 270.292 396.223 268.222C394.165 266.153 393.016 263.393 393.016 260.522C393.016 257.65 394.165 254.891 396.223 252.821C398.281 250.752 401.087 249.533 404.054 249.421H422.946C425.913 249.533 428.719 250.752 430.777 252.821C432.835 254.891 433.984 257.65 433.984 260.522C433.984 263.393 432.835 266.153 430.777 268.222C428.719 270.292 425.913 271.51 422.946 271.622ZM404.054 253.636C402.226 253.723 400.504 254.487 399.243 255.769C397.981 257.05 397.278 258.752 397.278 260.522C397.278 262.291 397.981 263.993 399.243 265.275C400.504 266.557 402.226 267.32 404.054 267.408H422.946C424.774 267.32 426.496 266.557 427.757 265.275C429.019 263.993 429.722 262.291 429.722 260.522C429.722 258.752 429.019 257.05 427.757 255.769C426.496 254.487 424.774 253.723 422.946 253.636H404.054Z" fill="black"/>
<path d="M413.361 289.592H404.054C401.012 289.592 398.096 288.424 395.945 286.343C393.794 284.263 392.586 281.442 392.586 278.5C392.586 275.558 393.794 272.737 395.945 270.657C398.096 268.577 401.012 267.408 404.054 267.408C404.632 267.408 405.186 267.63 405.594 268.025C406.003 268.421 406.233 268.956 406.233 269.515C406.233 270.074 406.003 270.61 405.594 271.005C405.186 271.4 404.632 271.622 404.054 271.622C402.168 271.622 400.359 272.347 399.026 273.637C397.692 274.927 396.943 276.676 396.943 278.5C396.943 280.324 397.692 282.074 399.026 283.363C400.359 284.653 402.168 285.378 404.054 285.378H411.182V269.515C411.182 268.956 411.412 268.421 411.82 268.025C412.229 267.63 412.783 267.408 413.361 267.408C413.939 267.408 414.493 267.63 414.901 268.025C415.31 268.421 415.539 268.956 415.539 269.515V287.485C415.539 288.044 415.31 288.58 414.901 288.975C414.493 289.37 413.939 289.592 413.361 289.592Z" fill="black"/>
<path d="M404.193 307.578C402.648 307.637 401.107 307.393 399.662 306.861C398.217 306.329 396.898 305.521 395.784 304.485C394.67 303.448 393.783 302.205 393.178 300.829C392.572 299.453 392.26 297.973 392.26 296.478C392.26 294.983 392.572 293.503 393.178 292.127C393.783 290.751 394.67 289.508 395.784 288.471C396.898 287.435 398.217 286.627 399.662 286.095C401.107 285.563 402.648 285.319 404.193 285.378C404.771 285.378 405.325 285.6 405.733 285.995C406.142 286.39 406.372 286.926 406.372 287.485C406.372 288.044 406.142 288.58 405.733 288.975C405.325 289.37 404.771 289.592 404.193 289.592C402.782 289.589 401.403 289.99 400.228 290.746C399.053 291.501 398.137 292.577 397.595 293.836C397.053 295.096 396.909 296.483 397.182 297.821C397.455 299.16 398.133 300.39 399.129 301.356C400.125 302.322 401.395 302.98 402.778 303.247C404.162 303.515 405.596 303.379 406.899 302.858C408.203 302.336 409.317 301.453 410.101 300.319C410.885 299.184 411.304 297.851 411.304 296.486V287.485C411.304 286.926 411.533 286.39 411.942 285.995C412.351 285.6 412.905 285.378 413.482 285.378C414.06 285.378 414.614 285.6 415.023 285.995C415.431 286.39 415.661 286.926 415.661 287.485V296.486C415.656 299.427 414.447 302.246 412.297 304.325C410.147 306.404 407.233 307.574 404.193 307.578Z" fill="black"/>
<path d="M422.789 289.879C420.49 289.879 418.243 289.219 416.331 287.984C414.419 286.748 412.929 284.992 412.049 282.938C411.17 280.883 410.939 278.622 411.388 276.441C411.836 274.26 412.944 272.257 414.569 270.684C416.195 269.112 418.267 268.041 420.522 267.607C422.777 267.173 425.114 267.396 427.238 268.247C429.362 269.098 431.178 270.539 432.455 272.388C433.732 274.237 434.414 276.411 434.414 278.635C434.414 280.111 434.114 281.573 433.529 282.938C432.945 284.302 432.089 285.541 431.009 286.585C429.93 287.629 428.648 288.458 427.238 289.023C425.828 289.588 424.316 289.879 422.789 289.879ZM422.789 271.622C421.351 271.622 419.945 272.035 418.75 272.808C417.554 273.581 416.623 274.68 416.073 275.966C415.524 277.251 415.381 278.665 415.663 280.029C415.944 281.393 416.638 282.646 417.657 283.628C418.675 284.611 419.971 285.279 421.382 285.548C422.793 285.817 424.255 285.676 425.583 285.141C426.91 284.607 428.044 283.703 428.841 282.545C429.637 281.387 430.061 280.026 430.057 278.635C430.053 276.773 429.285 274.99 427.922 273.675C426.56 272.361 424.714 271.622 422.789 271.622Z" fill="black"/>
<path d="M413.36 271.622C413.074 271.62 412.791 271.563 412.528 271.455C412.265 271.347 412.026 271.19 411.825 270.993C411.624 270.796 411.466 270.562 411.358 270.306C411.251 270.049 411.197 269.775 411.199 269.498L411.339 251.512C411.343 250.959 411.572 250.43 411.977 250.038C412.381 249.647 412.928 249.426 413.5 249.421C413.786 249.424 414.069 249.48 414.332 249.588C414.596 249.696 414.835 249.853 415.035 250.05C415.236 250.248 415.394 250.481 415.502 250.738C415.609 250.994 415.663 251.269 415.661 251.545L415.522 269.532C415.513 270.084 415.282 270.61 414.879 271C414.475 271.391 413.931 271.614 413.36 271.622Z" fill="black"/>
<defs>
<clipPath id="clip0_123_899">
<rect x="387.579" y="58.9194" width="52.4325" height="56.1371" rx="26.2162" fill="white"/>
</clipPath>
<clipPath id="clip1_123_899">
<rect x="45.4341" y="247.825" width="58.6533" height="57.9192" fill="white"/>
</clipPath>
</defs>
</svg>
