<svg width="1440" height="364" viewBox="0 0 1440 364" fill="none" xmlns="http://www.w3.org/2000/svg">
<path d="M-1570.54 364L-1674.59 0.363626H-1590.61L-1530.41 253.027H-1527.39L-1460.99 0.363626H-1389.08L-1322.85 253.56H-1319.65L-1259.46 0.363626H-1175.48L-1279.53 364H-1354.45L-1423.7 126.251H-1426.54L-1495.61 364H-1570.54ZM-1110.58 364V0.363626H-1033.7V150.399H-877.624V0.363626H-800.919V364H-877.624V213.787H-1033.7V364H-1110.58ZM-651.104 364H-733.49L-607.958 0.363626H-508.881L-383.526 364H-465.912L-556.999 83.4602H-559.84L-651.104 364ZM-656.253 221.067H-461.651V281.081H-656.253V221.067ZM-374.291 63.7514V0.363626H-75.6406V63.7514H-186.969V364H-262.963V63.7514H-374.291ZM213.647 0.363626V364H136.765V0.363626H213.647ZM440.125 364V0.363626H517.007V300.612H672.902V364H440.125ZM824.448 0.363626V364H747.566V0.363626H824.448ZM911.453 364V0.363626H988.335V160.697H993.129L1123.99 0.363626H1216.14L1081.2 163.183L1217.74 364H1125.76L1026.15 214.497L988.335 260.662V364H911.453ZM1279.93 364V0.363626H1524.96V63.7514H1356.81V150.399H1512.35V213.787H1356.81V300.612H1525.67V364H1279.93Z" fill="black" fill-opacity="0.04"/>
</svg>
